<?xml version="1.0" standalone="no"?>
<svg version="1.1" preserveAspectRatio="xMidYMid meet" viewBox="0 0 24 24" class="ng-element" data-id="80f902b7593142dcb36cb35e7bcd2847" style="mix-blend-mode: normal; fill: rgb(37, 116, 169); width: 16px; height: 16px; filter: none;" xmlns="http://www.w3.org/2000/svg"><g><path id="paint-brush" d="M19.51,2.67c-0.5,0.01-0.99,0.21-1.35,0.56l-6.64,6c-0.64,0.55-1.01,1.36-1,2.21  c-0.01,0.86,0.33,1.69,0.94,2.29c0.57,0.64,1.39,1,2.25,1c0.86,0,1.69-0.35,2.3-0.96c0.92-0.85,2.53-3.46,4.84-7.83  c0.28-0.48,0.44-1.02,0.47-1.57c0.01-0.47-0.19-0.91-0.55-1.21c-0.35-0.32-0.81-0.49-1.28-0.48l0,0L19.51,2.67z M10.01,13.44  c-0.43,0.01-0.87,0.05-1.3,0.11c-0.36,0.05-0.72,0.15-1.07,0.27C7.31,13.93,7,14.09,6.72,14.31c-0.27,0.23-0.51,0.49-0.71,0.79  c-0.25,0.36-0.45,0.76-0.6,1.17c-0.08,0.25-0.31,0.41-0.57,0.39c-0.17-0.02-0.34-0.08-0.48-0.18c-0.21-0.12-0.41-0.24-0.61-0.38  L3.1,15.64l-0.43-0.31c0.01,0.77,0.12,1.54,0.34,2.28c0.19,0.68,0.49,1.33,0.9,1.91c0.41,0.57,0.96,1.03,1.59,1.33  c0.71,0.33,1.49,0.5,2.27,0.48c1.35,0.05,2.67-0.45,3.63-1.4c0.94-0.96,1.43-2.27,1.35-3.61v-0.74c-0.57-0.15-1.11-0.42-1.57-0.79  C10.7,14.43,10.3,13.97,10.01,13.44L10.01,13.44z" style="fill: rgb(37, 116, 169);"/></g></svg>
