<?xml version="1.0" standalone="no"?>
<svg version="1.1" preserveAspectRatio="xMidYMid meet" viewBox="0 0 24 24" class="ng-element" data-id="976ad1a97f954ba19f9f7f41f3b6e527" style="mix-blend-mode: normal; fill: rgb(37, 116, 169); width: 16px; height: 16px; filter: none;" xmlns="http://www.w3.org/2000/svg"><g><path id="braille" d="M3.85,16.15c0.65,0.65,0.65,1.7,0,2.35c0,0,0,0,0,0c-0.31,0.32-0.73,0.51-1.18,0.5  c-0.44,0.01-0.87-0.17-1.18-0.49c-0.65-0.65-0.65-1.7,0-2.35c0,0,0,0,0,0c0.31-0.32,0.74-0.5,1.18-0.49  C3.12,15.66,3.54,15.84,3.85,16.15z M9.18,16.15c0.65,0.65,0.65,1.71,0,2.36C8.87,18.83,8.45,19,8,19c-0.92,0-1.67-0.75-1.67-1.67  S7.08,15.66,8,15.66C8.44,15.66,8.87,15.84,9.18,16.15z M9.18,10.82c0.65,0.65,0.65,1.71,0,2.36C8.87,13.5,8.45,13.67,8,13.67  c-0.92,0.01-1.67-0.73-1.67-1.65c0-0.45,0.17-0.88,0.49-1.19c0.64-0.65,1.69-0.66,2.35-0.02C9.17,10.81,9.18,10.82,9.18,10.82z   M17.18,16.15c0.65,0.65,0.64,1.7-0.01,2.35c-0.65,0.65-1.7,0.64-2.35-0.01c-0.65-0.65-0.64-1.7,0.01-2.35  c0.31-0.31,0.73-0.48,1.17-0.48c0.44,0,0.86,0.17,1.17,0.49H17.18z M22.51,16.15c0.65,0.65,0.64,1.7-0.01,2.35  c-0.65,0.65-1.7,0.64-2.35-0.01c-0.65-0.65-0.64-1.7,0.01-2.35c0.31-0.31,0.73-0.48,1.17-0.48C21.78,15.66,22.2,15.83,22.51,16.15z   M17.18,10.82c0.65,0.65,0.64,1.7-0.01,2.35c-0.65,0.65-1.7,0.64-2.35-0.01c-0.65-0.65-0.64-1.7,0.01-2.35  c0.31-0.31,0.73-0.48,1.17-0.48c0.44,0,0.86,0.17,1.17,0.49H17.18z M22.51,10.82c0.65,0.65,0.64,1.7-0.01,2.35  c-0.65,0.65-1.7,0.64-2.35-0.01c-0.65-0.65-0.64-1.7,0.01-2.35c0.31-0.31,0.73-0.48,1.17-0.48C21.78,10.33,22.2,10.5,22.51,10.82z   M22.51,5.49c0.65,0.65,0.65,1.7,0,2.35c0,0,0,0,0,0c-0.66,0.65-1.72,0.64-2.36-0.02c-0.3-0.31-0.48-0.72-0.48-1.16  c0-0.92,0.74-1.66,1.66-1.66C21.77,5,22.2,5.18,22.51,5.49z M4.09,15.91c-0.37-0.38-0.89-0.59-1.42-0.58  c-0.53-0.01-1.05,0.2-1.42,0.58c-0.78,0.78-0.78,2.05,0,2.83c0,0,0,0,0,0c0.37,0.38,0.89,0.59,1.42,0.58  c0.53,0.01,1.05-0.2,1.42-0.58C4.87,17.96,4.88,16.7,4.09,15.91C4.09,15.91,4.09,15.91,4.09,15.91z M9.42,15.91  c-0.78-0.78-2.05-0.78-2.83,0c0,0,0,0,0,0c-0.78,0.78-0.79,2.04-0.01,2.83c0.38,0.38,0.89,0.59,1.42,0.59  c1.1,0.01,2.01-0.88,2.01-1.99C10.02,16.81,9.8,16.29,9.42,15.91z M4.09,10.58C3.72,10.2,3.21,9.99,2.67,10  c-0.53-0.01-1.05,0.2-1.42,0.58c-0.78,0.78-0.78,2.05,0,2.83c0,0,0,0,0,0c0.37,0.38,0.89,0.6,1.42,0.59  c0.53,0.01,1.05-0.2,1.42-0.58c0.78-0.78,0.79-2.04,0.01-2.83C4.1,10.59,4.1,10.59,4.09,10.58z M9.42,10.58  c-0.78-0.78-2.05-0.78-2.83,0c0,0,0,0,0,0c-0.78,0.78-0.79,2.04-0.01,2.83C6.96,13.79,7.47,14,8,14c1.1,0.01,2.01-0.88,2.01-1.99  C10.02,11.48,9.8,10.96,9.42,10.58z M4.09,5.25C3.72,4.87,3.21,4.66,2.67,4.67c-0.53-0.01-1.05,0.2-1.42,0.58  C0.87,5.63,0.66,6.14,0.67,6.67c-0.01,0.53,0.2,1.05,0.58,1.42c0.37,0.38,0.89,0.59,1.42,0.58c0.53,0.01,1.05-0.2,1.42-0.58  c0.38-0.37,0.59-0.89,0.58-1.42C4.68,6.14,4.47,5.63,4.09,5.25z M17.41,15.91c-0.78-0.78-2.05-0.77-2.83,0.01  c-0.78,0.78-0.77,2.05,0.01,2.83s2.05,0.77,2.83-0.01c0.37-0.37,0.58-0.88,0.58-1.41C18.01,16.8,17.8,16.28,17.41,15.91z M9.41,5.25  c-0.78-0.78-2.05-0.78-2.83,0c0,0,0,0,0,0C6.2,5.63,5.99,6.14,6,6.67c0,1.1,0.9,2,2,2s2-0.9,2-2c0.01-0.53-0.2-1.05-0.58-1.42H9.41z   M22.74,15.91c-0.78-0.78-2.04-0.79-2.83-0.01c-0.78,0.78-0.79,2.04-0.01,2.83s2.04,0.79,2.83,0.01c0.38-0.37,0.59-0.88,0.59-1.41  C23.33,16.8,23.12,16.29,22.74,15.91z M17.41,10.58c-0.78-0.78-2.05-0.78-2.83,0s-0.78,2.05,0,2.83s2.05,0.78,2.83,0  S18.19,11.36,17.41,10.58z M22.74,10.58c-0.78-0.78-2.05-0.78-2.83,0s-0.78,2.05,0,2.83s2.05,0.78,2.83,0S23.52,11.36,22.74,10.58z   M17.41,5.25c-0.78-0.78-2.05-0.77-2.83,0.01C14.21,5.64,14,6.14,14,6.67c0,1.1,0.9,2,2,2s2-0.9,2-2  C18.01,6.14,17.8,5.62,17.41,5.25z M22.74,5.25c-0.78-0.78-2.05-0.77-2.83,0.01c-0.37,0.38-0.58,0.88-0.58,1.41c0,1.1,0.9,2,2,2  s2-0.9,2-2C23.34,6.14,23.13,5.62,22.74,5.25z" style="fill: rgb(37, 116, 169);"/></g></svg>
