<?xml version="1.0" standalone="no"?>
<svg version="1.1" preserveAspectRatio="xMidYMid meet" viewBox="0 0 128 124.31" class="ng-element" data-id="b0c0bac20e6149db881e7103504ec3fd" style="mix-blend-mode: normal; overflow: visible; width: 72px; height: 70px; filter: none;" xmlns="http://www.w3.org/2000/svg"><title>general-gamedev</title><rect x="10.21" y="33.54" width="31.97" height="20.84" rx="1.17" ry="1.17" style="fill: #3097db" vector-effect="non-scaling-stroke"/><path d="M76.29,44.51H50.23a1.74,1.74,0,1,0,0,3.47H76.29a1.74,1.74,0,0,0,0-3.47ZM70.53,94.34a5.72,5.72,0,1,0,5.72,5.71A5.72,5.72,0,0,0,70.53,94.34Zm30.68-82.75h-94a5.69,5.69,0,0,0-5.69,5.69v8.21H94.74l12.17-.74V17.28A5.7,5.7,0,0,0,101.21,11.59ZM96.55,94.34a5.72,5.72,0,1,0,5.72,5.71A5.72,5.72,0,0,0,96.55,94.34Z" transform="translate(0 -1.85)" style="fill: #f1616d" vector-effect="non-scaling-stroke"/><path d="M42.19,64.48a1.73,1.73,0,0,0-1.73-1.73H11a1.73,1.73,0,0,0,0,3.46H40.46A1.72,1.72,0,0,0,42.19,64.48ZM51.1,35a1.73,1.73,0,0,0,0,3.46H91.49a1.73,1.73,0,1,0,0-3.46ZM32.86,96.26H3.46V27H105V53.91a1.73,1.73,0,1,0,3.46,0V17.07a7.42,7.42,0,0,0-7.4-7.41H7.41A7.42,7.42,0,0,0,0,17.07V98a1.74,1.74,0,0,0,1.73,1.73H32.86a1.73,1.73,0,1,0,0-3.46ZM3.46,17.07a3.94,3.94,0,0,1,4-3.94h93.65A3.94,3.94,0,0,1,105,17.07v6.45H3.46ZM52.2,5.21a1.8,1.8,0,1,0-.65-2.45A1.8,1.8,0,0,0,52.2,5.21ZM26,16.59a1.95,1.95,0,1,0,1.95,1.95A1.95,1.95,0,0,0,26,16.59ZM3.77,104.29a1.8,1.8,0,1,0,.66,2.46A1.8,1.8,0,0,0,3.77,104.29Zm56.45-99h40.84a11.78,11.78,0,0,1,11.76,11.76V38.28a1.73,1.73,0,0,0,3.46,0V17.07A15.24,15.24,0,0,0,101.06,1.85H60.22a1.73,1.73,0,1,0,0,3.46ZM19.05,16.59A1.95,1.95,0,1,0,21,18.54,2,2,0,0,0,19.05,16.59Zm12.83,87.48H11a1.74,1.74,0,0,0,0,3.47H31.88a1.74,1.74,0,0,0,0-3.47ZM12.12,16.59a1.95,1.95,0,1,0,2,1.95A2,2,0,0,0,12.12,16.59ZM11,72.09a1.73,1.73,0,1,0,0,3.46H38.29a1.73,1.73,0,0,0,0-3.46Zm96.73,8a4.93,4.93,0,0,1,1.79.32,1.87,1.87,0,0,0,.61.11,1.74,1.74,0,0,0,.6-3.37,8.52,8.52,0,0,0-3-.54h0v0A1.72,1.72,0,0,0,106,78.35,1.75,1.75,0,0,0,107.75,80.09Zm-5.81,1.08a1.74,1.74,0,0,0-2.24,1,8.58,8.58,0,0,0-.54,3v0A1.73,1.73,0,0,0,100.89,87a1.75,1.75,0,0,0,1.74-1.75,5,5,0,0,1,.33-1.8A1.74,1.74,0,0,0,101.94,81.17Zm11.61,8.08a1.66,1.66,0,0,0,.62.11,1.72,1.72,0,0,0,1.62-1.12,8.56,8.56,0,0,0,.56-3.09h0a1.74,1.74,0,1,0-3.48,0v.06a5,5,0,0,1-.33,1.8A1.73,1.73,0,0,0,113.55,89.25Zm-5.8,1.06A5,5,0,0,1,106,90a1.75,1.75,0,0,0-2.24,1,1.73,1.73,0,0,0,1,2.23,8.47,8.47,0,0,0,3,.55h0a1.74,1.74,0,1,0,0-3.47ZM128,113.18l-2.32-27.46v0c0-.16,0-.33,0-.49,0-.36,0-.71,0-1.06,0-.07,0-.14,0-.21a18.54,18.54,0,0,0-.32-2.47.06.06,0,0,0,0,0A18.23,18.23,0,0,0,117,69.69l-1.19-7.11a1.73,1.73,0,0,0-1.7-1.44H100.23a1.72,1.72,0,0,0-1.7,1.44l-1,5.81H88.67a5.77,5.77,0,0,0-4.41-5.5V56.41A2.77,2.77,0,0,1,87,53.65h7.12a1.72,1.72,0,0,0,1.72-1.72V43.12a1.72,1.72,0,1,0-3.44,0V50.2H87a6.22,6.22,0,0,0-6.21,6.21v6.7a5.81,5.81,0,0,0-3.69,5.28H68.34l-1-5.81a1.73,1.73,0,0,0-1.7-1.44H51.83a1.73,1.73,0,0,0-1.7,1.44l-1.22,7.27a18.28,18.28,0,0,0-8,11.61,18.68,18.68,0,0,0-.38,3.74c0,.16,0,.33,0,.52l-2.32,27.46a12,12,0,0,0,22.49,6.65l6.39-11.94a8.65,8.65,0,0,0,2.8.46,9,9,0,0,0,8.63-6.48h8.86A9,9,0,0,0,96,108.35,8.83,8.83,0,0,0,99,107.8l6.45,12A12,12,0,0,0,128,113.18ZM101.68,64.59H112.6l.56,3.32a17.79,17.79,0,0,0-12.06.17ZM82.9,66.16a2.33,2.33,0,0,1,2.32,2.23H80.57A2.34,2.34,0,0,1,82.9,66.16ZM53.29,64.59H64.21l.57,3.4a17.92,17.92,0,0,0-12.06,0Zm4.3,53.6a8.5,8.5,0,0,1-16-4.72l1.58-18.76a18.37,18.37,0,0,0,7.25,6.72,1.77,1.77,0,0,0,.8.19,1.71,1.71,0,0,0,1.54-.94,1.73,1.73,0,0,0-.75-2.34A14.73,14.73,0,0,1,44,85.2a15.67,15.67,0,0,1,.19-2.37,1.19,1.19,0,0,0,0-.42,2,2,0,0,0,0-.24,14.81,14.81,0,0,1,29.3,3,14.6,14.6,0,0,1-1.12,5.59,9.22,9.22,0,0,0-2.59-.38A9,9,0,0,0,64,106.19Zm12.26-13.31a5.5,5.5,0,1,1,5.51-5.5A5.51,5.51,0,0,1,69.85,104.88ZM87,98.39H78.78a9,9,0,0,0-3.26-6A18.14,18.14,0,0,0,71.2,71.86H94.93a18.1,18.1,0,0,0-4.4,20.39A9,9,0,0,0,87,98.39ZM96,104.88a5.5,5.5,0,1,1,5.5-5.5A5.51,5.51,0,0,1,96,104.88Zm22.85,17.32a8.46,8.46,0,0,1-10.28-4L102,106a9,9,0,0,0-6-15.59,8.69,8.69,0,0,0-2.3.31,14.61,14.61,0,0,1-1.1-5.52,14.81,14.81,0,0,1,29.3-3s0,0,0,0a15,15,0,0,1,.3,3,14.85,14.85,0,0,1-11.61,14.43,1.74,1.74,0,0,0,.37,3.44,2.33,2.33,0,0,0,.37,0,18.31,18.31,0,0,0,11.61-8.3l1.58,18.74A8.46,8.46,0,0,1,118.81,122.2ZM62.41,86h2.25a1.74,1.74,0,1,0,0-3.48H62.41a1.74,1.74,0,1,0,0,3.48Zm-8-3.48H52.16a1.74,1.74,0,1,0,0,3.48h2.25a1.74,1.74,0,1,0,0-3.48Zm4,4a1.73,1.73,0,0,0-1.74,1.73v2.25a1.74,1.74,0,1,0,3.48,0V88.23A1.73,1.73,0,0,0,58.41,86.5Zm0-10.24A1.74,1.74,0,0,0,56.67,78v2.25a1.74,1.74,0,0,0,3.48,0V78A1.74,1.74,0,0,0,58.41,76.26Zm26.91,3.36H80a1.73,1.73,0,0,0-1.73,1.72v5.35A1.73,1.73,0,0,0,80,88.41h5.34A1.72,1.72,0,0,0,87,86.69V81.34A1.72,1.72,0,0,0,85.32,79.62ZM83.6,85H81.7v-1.9h1.9ZM36.47,81.64H11a1.73,1.73,0,0,0,0,3.46H36.47a1.73,1.73,0,1,0,0-3.46Z" transform="translate(0 -1.85)" style="fill: #424242" vector-effect="non-scaling-stroke"/></svg>