<?xml version="1.0" standalone="no"?>
<svg version="1.1" preserveAspectRatio="xMidYMid meet" viewBox="0 0 128 128" class="ng-element" data-id="42cdcfd57456498684c2019647882836" style="mix-blend-mode: normal; overflow: visible; width: 72px; height: 72px; filter: none;" xmlns="http://www.w3.org/2000/svg"><title>general-data-science</title><path d="M97.68,47H85.89a1.69,1.69,0,0,0,0,3.37H97.68a1.69,1.69,0,1,0,0-3.37ZM51.37,14.53a7.56,7.56,0,0,0-3.72,1,12.62,12.62,0,0,0-24.07,5.33,13.16,13.16,0,0,0,.25,2.53h35A7.47,7.47,0,0,0,59,22.11,7.58,7.58,0,0,0,51.37,14.53Zm9.26,89.68a3.37,3.37,0,0,0,6.74,0V97.47H60.63Z" style="fill: #3097db" vector-effect="non-scaling-stroke"/><path d="M69.05,23.37h8.42V13.26H69.05ZM101.05,0H92.63V23.37h8.42ZM89.26,6.53H80.84V23.37h8.42Zm-1.68,74.1v5.05h27V80.63Zm0,13.48h27V89.05H87.58Z" style="fill: #f1616d" vector-effect="non-scaling-stroke"/><path d="M6.74,65.68a1.9,1.9,0,1,0-1.9-1.89A1.89,1.89,0,0,0,6.74,65.68Zm101.05,58.53a1.9,1.9,0,1,0,1.89,1.9A1.91,1.91,0,0,0,107.79,124.21ZM6.74,60.42a1.68,1.68,0,0,0,1.68-1.68V30.11a10.19,10.19,0,0,1,4.91-8.67,1.68,1.68,0,0,0-1.74-2.88A13.56,13.56,0,0,0,5.05,30.11V58.74A1.69,1.69,0,0,0,6.74,60.42Zm96,64H16.84a1.69,1.69,0,0,0,0,3.37h85.9a1.69,1.69,0,0,0,0-3.37Zm6.73-15.16a1.69,1.69,0,0,0,1.69-1.68V90.74a1.69,1.69,0,1,0-3.37,0v16.84A1.68,1.68,0,0,0,109.47,109.26ZM64,80.63A1.69,1.69,0,0,0,64,84H74.11a1.69,1.69,0,0,0,0-3.37Zm-18.53,0a1.69,1.69,0,0,0,0,3.37H59a1.69,1.69,0,0,0,0-3.37ZM54.92,67a1.7,1.7,0,0,0,1.31,0,1.65,1.65,0,0,0,.92-1l7.42-19.29,10,11.37a1.69,1.69,0,0,0,2.54-2.22L65.27,42.47a1.68,1.68,0,0,0-1.56-.55,1.66,1.66,0,0,0-1.28,1l-7.8,20.27L44.45,58.87a1.68,1.68,0,0,0-2.1.68L32.24,76.4a1.68,1.68,0,1,0,2.89,1.73l9.35-15.58Zm25.92,8.56a1.69,1.69,0,0,0-1.68-1.69H45.47a1.69,1.69,0,0,0,0,3.37H79.16A1.68,1.68,0,0,0,80.84,75.58ZM108.4,114.2l.23.12a1.72,1.72,0,0,0,.84.21,1.9,1.9,0,1,0,0-3.79,1.71,1.71,0,0,0-.84.2,1.1,1.1,0,0,0-.23.13l-.2.16a1.9,1.9,0,0,0-.62,1.4,1.93,1.93,0,0,0,.62,1.41Zm12-6.62A7.72,7.72,0,0,0,128,99.73V93.54a7.73,7.73,0,0,0-7.57-7.86h-2.54V79a1.69,1.69,0,0,0-1.68-1.69H85.89A1.69,1.69,0,0,0,84.21,79v38.73H43.79V116H80.84v-3.37H79.18a12.93,12.93,0,0,1-1.64-6.31V99.16h3.3V95.79H18.53V30.11h90.94V73.89h3.37V29.26a2.52,2.52,0,0,0-2.52-2.52H17.68a2.52,2.52,0,0,0-2.52,2.52V96.63a2.53,2.53,0,0,0,2.52,2.53H50.46v7.16a12.93,12.93,0,0,1-1.64,6.31H42.11a1.69,1.69,0,0,0-1.69,1.69v3.36H35.37v-9.56a5.45,5.45,0,0,0-5.44-5.44H13.86a5.45,5.45,0,0,0-5.44,5.44v9.56H1.68a1.69,1.69,0,0,0,0,3.37H126.32a1.69,1.69,0,0,0,0-3.37h-8.43v-10.1Zm-2.54-18.53h2.54a4.35,4.35,0,0,1,4.2,4.49v6.19a4.35,4.35,0,0,1-4.2,4.48h-2.54ZM62.32,99.16h3.36v5a1.68,1.68,0,0,1-3.36,0Zm-8.49,7.16V99.16H59v5a5,5,0,1,0,10.1,0v-5h5.12v7.16a16.32,16.32,0,0,0,1.28,6.31H52.55A16.32,16.32,0,0,0,53.83,106.32ZM32,111H29.4a1.69,1.69,0,1,0,0,3.37H32v3.36H11.79v-3.36h9a1.69,1.69,0,1,0,0-3.37h-9v-2.83a2.07,2.07,0,0,1,2.07-2.07H29.93A2.07,2.07,0,0,1,32,108.12Zm82.53,6.73H87.58V80.63h27ZM85.89,55.37a1.69,1.69,0,0,0,0,3.37H97.68a1.69,1.69,0,1,0,0-3.37Zm20.22,18.52V35.16a1.69,1.69,0,0,0-1.69-1.69H23.58a1.69,1.69,0,0,0-1.69,1.69V90.74a1.69,1.69,0,0,0,1.69,1.68H80.84V89.05H25.26V36.84h77.48V73.89Z" style="fill: #424242" vector-effect="non-scaling-stroke"/><path d="M33.68,65.47a1.6,1.6,0,0,1-.86-.24,1.68,1.68,0,0,1-.58-2.31L42.35,46.08a1.66,1.66,0,0,1,1-.77,1.69,1.69,0,0,1,1.28.2L65.1,58.08,76,39.36a1.69,1.69,0,0,1,2.91,1.7L67.14,61.27a1.75,1.75,0,0,1-1,.79,1.76,1.76,0,0,1-1.29-.2L44.36,49.27,35.13,64.66A1.7,1.7,0,0,1,33.68,65.47Z" style="fill: #f1616d" vector-effect="non-scaling-stroke"/></svg>