<?xml version="1.0" standalone="no"?>
<svg version="1.1" preserveAspectRatio="xMidYMid meet" viewBox="0 0 128 127.71" class="ng-element" data-id="2dc35eafd88746d78d9540aa0fc20bd0" style="mix-blend-mode: normal; overflow: visible; width: 72px; height: 72px; filter: none;" xmlns="http://www.w3.org/2000/svg"><title>general-crypto</title><path d="M66,19.58H45.25l10.37,12Zm.53.49,10.36,12,10.37-12Zm-1.1,56.56L76.13,35.38H55.62Z" transform="translate(0 -0.14)" style="fill: #f1616d" vector-effect="non-scaling-stroke"/><path d="M58.14,90h-19l-6,12.07H64.18Zm11.2,12.07H100.4L94.36,90h-19Zm7-28.17h-19L51.36,86H82.42ZM21.17,106.11l-6,12.08H46.2l-6-12.08Zm91.3,0h-19l-6,12.08h31.06Zm-55.08,0-6,12.08H82.42l-6-12.08Z" transform="translate(0 -0.14)" style="fill: #3097db" vector-effect="non-scaling-stroke"/><path d="M97.94,124.62H25.71a1.6,1.6,0,0,0,0,3.19H97.94a1.6,1.6,0,1,0,0-3.19ZM65.64,6.84a1.6,1.6,0,0,0,1.6-1.6V1.74a1.6,1.6,0,1,0-3.2,0v3.5A1.6,1.6,0,0,0,65.64,6.84Zm-28.52,10a1.64,1.64,0,0,0,1.14.47,1.6,1.6,0,0,0,1.13-2.73l-2.47-2.48a1.61,1.61,0,1,0-2.27,2.27Zm55.9.47a1.6,1.6,0,0,0,1.13-.47l2.47-2.47a1.6,1.6,0,1,0-2.26-2.27l-2.47,2.48A1.6,1.6,0,0,0,93,17.29Zm10,27.38h3.49a1.6,1.6,0,1,0,0-3.2H103a1.6,1.6,0,0,0,0,3.2ZM33.93,34.44l0,.1a1.66,1.66,0,0,0,.18.35h0L64.42,78.52s0,0,0,.06a.93.93,0,0,0,.16.18l.09.08h0l0,0a1,1,0,0,0,.17.1L65,79l.14.06.1,0,0,0,0,0h0a1.63,1.63,0,0,0,.31,0h.12l.32,0h0l0,0,0,0,.09,0,.15-.06.09-.06.16-.1,0,0h0l.09-.08a.69.69,0,0,0,.16-.18.34.34,0,0,0,.06-.06L97.33,34.89a1.69,1.69,0,0,0,.2-.43,1.58,1.58,0,0,0,.08-1.77l-8.36-14a1.6,1.6,0,0,0-1.38-.77H44.75a1.58,1.58,0,0,0-1.34.73l-9.3,14.45,0,.08s0,0,0,.05,0,0,0,.06a1.42,1.42,0,0,0-.1.29.24.24,0,0,0,0,.08,1.22,1.22,0,0,0,0,.38s0,.06,0,.09A1.59,1.59,0,0,0,33.93,34.44Zm4.58,1.14H54l8.2,34.11ZM65.73,70.77,57.27,35.58H74.19Zm3.55-1.08,8.2-34.11H93ZM93.7,32.38H80l7.78-10Zm-9-11.25L77,30.93l-7.65-9.8ZM74.11,32.38H58.52l7.79-10ZM63.24,21.13l-7.65,9.8L48,21.13Zm-18.4,1.22,7.82,10H38.39Zm-20,22.32h3.5a1.6,1.6,0,0,0,0-3.2H24.8a1.6,1.6,0,0,0,0,3.2Zm79.67,79.48a1.86,1.86,0,1,0,1.86,1.86A1.85,1.85,0,0,0,104.47,124.15Zm21.93-7.56h-7.91l-7.59-15.17a1.59,1.59,0,0,0-1.42-.88H101.1L93.52,85.37a1.6,1.6,0,0,0-1.43-.88H82.8L77.48,71.22a1.6,1.6,0,1,0-3,1.19l4.85,12.08H48.08l5.56-12.3a1.6,1.6,0,1,0-2.91-1.32L44.58,84.49H35.91a1.6,1.6,0,0,0-1.43.88L26.9,100.54H17.69a1.59,1.59,0,0,0-1.43.88L8.68,116.59H1.6a1.6,1.6,0,1,0,0,3.19H126.4a1.6,1.6,0,1,0,0-3.19ZM91.1,87.68l6.43,12.86H66.58L73,87.68Zm-21.66,0L64,98.57,58.55,87.68Zm-32.54,0H55l6.43,12.86H30.47ZM12.25,116.59l6.42-12.86h18.1l6.43,12.86Zm28.08-12.86H51.22l-5.44,10.89Zm8,12.86,6.43-12.86H72.88l6.43,12.86Zm28.09-12.86H86.83l-5.19,10.39ZM84,116.59l6.43-12.86h18.09l6.43,12.86Z" transform="translate(0 -0.14)" style="fill: #424242" vector-effect="non-scaling-stroke"/></svg>