<?xml version="1.0" standalone="no"?>
<svg version="1.1" preserveAspectRatio="xMidYMid meet" viewBox="0 0 24 24" class="ng-element" data-id="d89ae9125d3b4fa3b7264bf4a51b4384" style="mix-blend-mode: normal; fill: rgb(37, 116, 169); width: 16px; height: 16px; filter: none;" xmlns="http://www.w3.org/2000/svg"><g><path id="diamond" d="M6.94,10l3.09,6.92L3.58,10H6.94z M8.4,10h7.27l-3.64,8L8.4,10z M6.97,8.67h-3.6l3-4h2.72L6.97,8.67  C6.97,8.67,6.97,8.67,6.97,8.67z M17.12,10h3.36l-6.45,6.92L17.12,10z M10.6,4.67h2.85l2.12,4H8.48L10.6,4.67z M14.96,4.67h2.73l3,4  h-3.6L14.96,4.67z M18.55,3.61c-0.12-0.17-0.31-0.27-0.52-0.27h-12C5.82,3.33,5.62,3.43,5.5,3.61l-4,5.33  c-0.21,0.25-0.21,0.6,0,0.85l10,10.66c0.25,0.28,0.68,0.29,0.96,0.04c0.01-0.01,0.03-0.03,0.04-0.04l10-10.66  c0.21-0.25,0.21-0.6,0-0.85l-4-5.33l0,0L18.55,3.61z" style="fill: rgb(37, 116, 169);"/></g></svg>
