<?xml version="1.0" standalone="no"?>
<svg version="1.1" preserveAspectRatio="xMidYMid meet" viewBox="0 0 128 111.31" class="ng-element" data-id="529f5a47bb974fad8d4b47191a8805a8" style="mix-blend-mode: normal; overflow: visible; width: 64px; height: 56px; filter: none;" xmlns="http://www.w3.org/2000/svg"><title>general-cybersecurity</title><path d="M31.14,25.45H3.24V93.51H30.47C15.52,69.17,21.56,33.48,31.14,25.45Z" transform="translate(0 -8.34)" style="fill: #3097db" vector-effect="non-scaling-stroke"/><path d="M97.53,39.36a26.07,26.07,0,0,1-19.9-4,26.08,26.08,0,0,1-19.91,4c-6.58,13.71-6,28.66.46,38.46,1.12,1.69,7.9,11.75,19.45,14.66,11.55-2.91,18.33-13,19.45-14.66C103.59,68,104.12,53.07,97.53,39.36ZM80.47,66.23v7.68H74.79V66.23a5.42,5.42,0,1,1,5.68,0Z" transform="translate(0 -8.34)" style="fill: #f1616d" vector-effect="non-scaling-stroke"/><path d="M43.53,83.15a1.92,1.92,0,0,0,.89-2.58C38.87,69.16,38.2,54.72,42.59,41a1.93,1.93,0,1,0-3.67-1.17C34.23,54.48,35,70,41,82.26A1.93,1.93,0,0,0,43.53,83.15Zm-5.69,7.24a1.93,1.93,0,0,0,.69-2.64C29.31,72,28.71,50.5,37,31.57A1.93,1.93,0,1,0,33.43,30c-8.74,20-8.06,42.9,1.77,59.67A1.94,1.94,0,0,0,37.84,90.39ZM34.32,112a7,7,0,1,0-7-7A7,7,0,0,0,34.32,112Zm3.18-7c0,4.2-6.36,4.2-6.36,0S37.5,100.82,37.5,105ZM64,102.32v6.2a7.32,7.32,0,0,1-7.32,7.32H11.13a7.32,7.32,0,0,1-7.31-7.32v-89a7.32,7.32,0,0,1,7.31-7.32H56.67A7.32,7.32,0,0,1,64,19.48V25.9a1.91,1.91,0,0,0,3.82,0V19.48A11.16,11.16,0,0,0,56.67,8.34H11.13A11.15,11.15,0,0,0,0,19.48v89a11.15,11.15,0,0,0,11.13,11.14H56.67a11.16,11.16,0,0,0,11.14-11.14v-6.2A1.91,1.91,0,0,0,64,102.32Zm57.88-72.2a1.93,1.93,0,1,0-3.54,1.54c8.59,19.76,7.41,42.65-3,58.32a1.93,1.93,0,0,0,3.22,2.14C129.83,75.12,131.11,51.37,121.87,30.12Zm-7.39,4.56a1.93,1.93,0,0,0-3.57,1.47c5.82,14.1,6.13,30,.83,42.45a1.93,1.93,0,1,0,3.55,1.51C121,66.7,120.69,49.72,114.48,34.68Zm-9.25.34-2.56-5.33c-11.49,2.34-13.54,3.09-25-4.75l-4.28,2.92c-7.75,5.28-14.61,3.08-20.76,1.83L50,35C42.22,51.28,42.61,70,51,82.61c2.48,3.73,9.45,12.87,20.71,17.17l4,1.26a6.21,6.21,0,0,0,3.72,0l3.93-1.22.11,0c11.26-4.3,18.23-13.44,20.71-17.17C112.65,70,113,51.28,105.23,35ZM101,80.48c-2.27,3.41-8.64,11.76-18.82,15.68-4,1.25-4.34,1.49-5.3,1.2l-3.86-1.2C62.87,92.25,56.5,83.89,54.23,80.48c-7.67-11.55-7.95-28.73-.72-43.79l1.25-2.62c3.23.66,7,1.66,12.22.58s8.27-3.42,10.65-5L79.73,31c8.86,6,17.25,3.75,20.77,3l1.25,2.62C109,51.75,108.7,68.93,101,80.48Zm7.29,4.92a2,2,0,0,0,4,0A2,2,0,0,0,108.32,85.4ZM40.9,34.2a2,2,0,0,0,4,0A2,2,0,0,0,40.9,34.2Z" transform="translate(0 -8.34)" style="fill: #424242" vector-effect="non-scaling-stroke"/></svg>