<?xml version="1.0" standalone="no"?>
<svg version="1.1" preserveAspectRatio="xMidYMid meet" viewBox="0 0 128 113.61" class="ng-element" data-id="35d0416d5a814ba4a9041a6c0d6c7d5b" style="mix-blend-mode: normal; overflow: visible; width: 72px; height: 64px; filter: none;" xmlns="http://www.w3.org/2000/svg"><title>general-ar-vr</title><path d="M87.73,14.48a4.4,4.4,0,0,0-8.8,0V43.15h8.8Zm23.48,29a9.9,9.9,0,0,0-8.46,4.31H91.22v.9a6.34,6.34,0,0,0-5.49-3.22,6.6,6.6,0,0,0,0,13.2,6.41,6.41,0,0,0,5.91-4.05h11.42l.27,1.52c2.84,4.25,8.24,7,14.19,7h9.25V43.48Z" transform="translate(0 -7.2)" style="fill: #3097db" vector-effect="non-scaling-stroke"/><path d="M42.06,14.48a4.4,4.4,0,0,0-8.8,0V40.53h8.8Zm14.2,29H21.69c-5.78,0-10.47,4.39-10.47,9.81s4.69,9.81,10.47,9.81H56.26c5.79,0,10.47-4.39,10.47-9.81S62.05,43.48,56.26,43.48Z" transform="translate(0 -7.2)" style="fill: #f1616d" vector-effect="non-scaling-stroke"/><path d="M45.93,13.18a13.57,13.57,0,0,1,1.74.51c10.15,3.37,16.77,14.16,15.75,25.65a1.56,1.56,0,0,0,3.1.27c1.15-12.91-6.36-25-17.86-28.88a8.51,8.51,0,0,0-2.7-.67,1.56,1.56,0,0,0,0,3.12ZM11.21,39.34C10,25.71,19.58,14.73,28.7,13.18a1.56,1.56,0,0,0,0-3.12,8.8,8.8,0,0,0-2.7.67c-11.5,3.83-19,16-17.86,28.88A1.56,1.56,0,0,0,11.21,39.34ZM126.44,39H112.89c-1.34-7.09-2.46-11.74-3.34-13.85,0-.1-.07-.29-.07-.28-1.85-8.28-9.6-13.79-20.77-14.83a5.52,5.52,0,0,0-10,.88,1.58,1.58,0,0,0-1.15-.3,41.41,41.41,0,0,0-10.88,3.06A1.55,1.55,0,1,0,67.9,16.5a42.59,42.59,0,0,1,10.43-2.92c0,.25,0,30.35,0,30.6a9.41,9.41,0,0,0-1.67,2.19H71.48a1.56,1.56,0,0,0,0,3.12h4.15a9.28,9.28,0,0,0,.47,4.68H71.48a1.56,1.56,0,0,0,0,3.11h6.17a1.55,1.55,0,0,0,.31,0,8.89,8.89,0,0,0,13.22.08c.59.34.47.21,9.36.21.22.8,4.16,6,11.13,6.95a58.8,58.8,0,0,1-.92,6.57c-1.08.15-4.08.28-7.88-2.1a1.55,1.55,0,1,0-1.65,2.63,15.83,15.83,0,0,0,8.46,2.64h.37c-.79,3.33-1.11,6.69-4.69,7.84A20.12,20.12,0,0,1,92.46,82a1.56,1.56,0,0,0-1,2.94A23.93,23.93,0,0,0,95.83,86V96.12a1.56,1.56,0,0,0,3.12,0V86.19A23.77,23.77,0,0,0,106.31,85c5.14-1.65,5.88-6.37,6.53-9.12.46-1.92,2-8.56,1.92-11.27h11.68A1.55,1.55,0,0,0,128,63.1V40.53A1.56,1.56,0,0,0,126.44,39Zm-45-26.08a2.47,2.47,0,1,1,4.93,0V41.77a8.79,8.79,0,0,0-4.93.42Zm3.17,44.23a6.21,6.21,0,1,1,6-6.21A6.11,6.11,0,0,1,84.61,57.12Zm4.87-14.06c0-.24,0-29.6,0-29.84,9.18,1.14,15.47,5.66,17,12.3l.06.17c.14,1.76-6.94,8.63-15.17,12.15a1.56,1.56,0,0,0,1.23,2.87c5.42-2.32,12-6.86,15.18-10.92.51,2,1.16,4.87,2,9.18h-1.63a10.54,10.54,0,0,0-9.89,7.27H92.46A9.37,9.37,0,0,0,89.48,43.06ZM93,54.42a9.38,9.38,0,0,0,.54-5.07H107.8v5.07Zm31.86,7.12c-11,0-15.55.92-20.41-4h3.33a1.56,1.56,0,1,0,3.12.11V45.38a1.56,1.56,0,0,0-3.12,0v.86h-6.25a7.37,7.37,0,0,1,6.54-4.15h16.79Zm-69.1-12a2.33,2.33,0,0,1,0,4.65,1.56,1.56,0,0,0,0,3.11,5.39,5.39,0,0,0,5.33-5.44c0-5.28-6.88-7-6.88-3.88A1.55,1.55,0,0,0,55.78,49.49ZM83.33,80a1.56,1.56,0,0,0,.87-2.85C77.68,72.68,76,65.51,75.7,60.28a1.56,1.56,0,0,0-3.11.16C73.3,73.94,81.91,80,83.33,80ZM101,100.06a1.55,1.55,0,0,0-2.11-.68c-5.85,3-19.08.33-23-7.88A1.56,1.56,0,0,0,73,92.86c4.19,8.68,17.23,12.85,25.81,9.92,1.21,2.58,2.78,6.25,7.87,15.93a1.56,1.56,0,1,0,2.77-1.45C103.44,105.86,102.39,102.92,101,100.06Zm-49.8-9.47V84.33a33.13,33.13,0,0,0,21.08-4A1.55,1.55,0,0,0,72.75,78a39,39,0,0,1-5.09-9.89c-.29-.83-.66-1.75-1-2.72A31.57,31.57,0,0,1,65,60.52a13,13,0,0,0-.31-17.77c-4.7-4.85-9.76-3.78-21-3.78V14.48a6,6,0,0,0-11.91,0V36.7c-5-5.52-6.66-9.82-7.11-13.1A1.56,1.56,0,0,0,21.5,24a19.8,19.8,0,0,0,1,3.95,22.85,22.85,0,0,0,1.22,2.65A49.05,49.05,0,0,0,16.1,39.5,13,13,0,0,0,9.41,59.19a1.52,1.52,0,0,0-.42.88,41.77,41.77,0,0,1-1.74,8.07A38.75,38.75,0,0,1,2.16,78a1.55,1.55,0,0,0-.25,1.25,1.59,1.59,0,0,0,.77,1,34,34,0,0,0,16.51,4.39,32.48,32.48,0,0,0,6.6-.7v6.36a35.64,35.64,0,0,0-10.08,4.73,1.53,1.53,0,0,0-1,.71A37.94,37.94,0,0,0,0,117.94a1.56,1.56,0,0,0,3,.69A34.79,34.79,0,0,1,15.52,99.06a26.67,26.67,0,0,0,21.72,14v6.21a1.56,1.56,0,0,0,3.11,0v-6.21A26.42,26.42,0,0,0,61.63,99.76a34.66,34.66,0,0,1,11.5,18.87,1.56,1.56,0,1,0,3-.7A37.12,37.12,0,0,0,51.16,90.59Zm18-12.24a29.81,29.81,0,0,1-17.68,2.89c4.54-4.12,8.31-10.3,10.9-18.14.67,2,1.68,4.33,2.28,6.05A42.63,42.63,0,0,0,69.21,78.35ZM34.82,14.48c0-3.75,5.68-3.75,5.68,0V39H34.82Zm-9.68,19A63.8,63.8,0,0,0,29.55,39H20.29A45.81,45.81,0,0,1,25.14,33.5Zm-5.51,8.59H55.78a9.19,9.19,0,0,1,6.63,2.83C68.3,51,64.17,61.54,55.78,61.54H48.33c-.14-.16-4-4.17-4.11-4.33A7.07,7.07,0,0,0,39.13,55c-7.38,0-6.44-.17-12.72,6.53H19.63a9.73,9.73,0,0,1,0-19.45ZM44,61.54H30.68c3.59-3.83,2.75-3.41,8.45-3.41A3.94,3.94,0,0,1,42,59.36ZM5.7,78.35a39.18,39.18,0,0,0,6-15.41c2.44,6.9,6.51,13.69,11.74,18.29A29.93,29.93,0,0,1,5.7,78.35Zm9.7-14.47c2.86,1.06.81.77,40.38.77a11.82,11.82,0,0,0,2.93-.37C48.76,90.8,26,90.27,15.4,63.88ZM25.94,93.56a1.56,1.56,0,0,0,3-.66V85A19,19,0,0,0,48,83.9v9a1.56,1.56,0,0,0,1.56,1.56,1.58,1.58,0,0,0,1.3-.69c.76.25,1.52.53,2.26.84a16.51,16.51,0,0,1-29-.42C24.74,94,25.34,93.75,25.94,93.56Zm-7.85,3.69a32.39,32.39,0,0,1,3.19-1.82A19.64,19.64,0,0,0,56,96a34.56,34.56,0,0,1,3.14,1.91A23.17,23.17,0,0,1,18.09,97.25ZM85,106.57a26.1,26.1,0,0,1-6.37-3,1.56,1.56,0,0,0-1.7,2.62,29.59,29.59,0,0,0,7.13,3.36A32.49,32.49,0,0,0,96.66,111a1.57,1.57,0,0,0,1.41-1.71C97.79,106.31,94.17,109.47,85,106.57ZM45.39,73.15a1.56,1.56,0,1,0-1.92-2.45c-3.94,3.07-8.09,3.08-12,0a1.56,1.56,0,0,0-1.92,2.45,13,13,0,0,0,7.94,3A13,13,0,0,0,45.39,73.15ZM21.19,55.7a1.56,1.56,0,0,0-1.56-1.56c-2.92,0-2.92-4.65,0-4.65a1.56,1.56,0,0,0,1.56-1.56c0-3.13-6.89-1.41-6.89,3.88S21.19,58.82,21.19,55.7Zm92.92-2.33h3.06a1.56,1.56,0,0,0,0-3.12h-3.06a1.56,1.56,0,0,0,0,3.12Z" transform="translate(0 -7.2)" style="fill: #424242" vector-effect="non-scaling-stroke"/></svg>