<?xml version="1.0" standalone="no"?>
<svg version="1.1" preserveAspectRatio="xMidYMid meet" viewBox="0 0 24 24" class="ng-element" data-id="684b17e2a8974d9289475113681ddbf2" style="mix-blend-mode: normal; fill: rgb(37, 116, 169); width: 16px; height: 16px; filter: none;" xmlns="http://www.w3.org/2000/svg"><g><path id="user-secret" d="M9.32,12.64l1.33,0.67l1,1.33l-1,4.66L9.32,12.64z M12.32,14.64l1-1.33l1.33-0.67l-1.33,6.66L12.32,14.64z   M14.99,8.78c0,0.13,0,0.22,0,0.29l-0.08,0.07c-0.04,0.02-0.07,0.06-0.08,0.11c-0.03,0.07-0.06,0.14-0.08,0.21l-0.07,0.21L14.6,9.85  l-0.09,0.18l-0.09,0.15c-0.03,0.05-0.07,0.1-0.12,0.14l-0.15,0.1c-0.05,0.04-0.12,0.07-0.18,0.08h-0.21H13.5  c-0.21,0.01-0.42-0.04-0.61-0.13c-0.14-0.07-0.26-0.18-0.34-0.31c-0.06-0.11-0.11-0.24-0.15-0.36c-0.03-0.11-0.07-0.21-0.12-0.31  c-0.03-0.08-0.1-0.13-0.18-0.13h-0.17c-0.08,0-0.15,0.05-0.18,0.13c-0.05,0.1-0.09,0.2-0.12,0.31c-0.04,0.12-0.09,0.25-0.15,0.36  c-0.08,0.13-0.2,0.24-0.34,0.31c-0.19,0.09-0.4,0.14-0.61,0.13h-0.26h-0.21c-0.06-0.01-0.13-0.04-0.18-0.08l-0.15-0.1  c-0.05-0.04-0.09-0.09-0.12-0.14l-0.09-0.15l-0.1-0.18L9.34,9.67L9.27,9.46C9.25,9.38,9.22,9.31,9.19,9.24  C9.18,9.19,9.15,9.15,9.11,9.13L8.99,9.07c0-0.07,0-0.16,0-0.29V8.72c0.33-0.08,0.66-0.11,1-0.08c0.59,0.01,1.17,0.08,1.74,0.2h0.22  h0.22c0.6-0.13,1.21-0.19,1.82-0.2c0.34-0.03,0.67,0,1,0.08V8.78L14.99,8.78z M19.32,17.97c0-0.52-0.02-1.04-0.08-1.55  c-0.06-0.53-0.16-1.06-0.3-1.58c-0.14-0.53-0.37-1.04-0.68-1.49c-0.29-0.42-0.67-0.76-1.12-1l0.85-2.38h-2.23  c0.19-0.53,0.27-1.1,0.23-1.66c1.33-0.28,2-0.61,2-1s-0.73-0.72-2.19-1c-0.14-0.48-0.32-0.95-0.54-1.4  c-0.19-0.43-0.44-0.83-0.73-1.19c-0.19-0.25-0.48-0.39-0.79-0.39c-0.31,0.04-0.61,0.15-0.87,0.32c-0.26,0.17-0.57,0.28-0.88,0.32  c-0.31-0.04-0.61-0.15-0.87-0.32s-0.56-0.28-0.87-0.32c-0.31,0-0.6,0.14-0.79,0.39C9.17,4.08,8.92,4.48,8.73,4.91  c-0.22,0.45-0.4,0.92-0.54,1.4c-1.47,0.27-2.2,0.6-2.2,1s0.67,0.73,2,1c0,0.14,0,0.25,0,0.33c0,0.45,0.08,0.9,0.23,1.33H5.99  l0.94,2.29c-0.39,0.19-0.73,0.45-1,0.78c-0.27,0.32-0.5,0.69-0.66,1.08c-0.17,0.42-0.3,0.85-0.39,1.29  c-0.09,0.43-0.16,0.87-0.2,1.31c0,0.39,0,0.8,0,1.23c-0.05,0.75,0.23,1.47,0.76,2c0.55,0.49,1.26,0.75,2,0.72h9.1  c0.74,0.03,1.45-0.23,2-0.72c0.53-0.53,0.81-1.25,0.76-2l0,0L19.32,17.97z" style="fill: rgb(37, 116, 169);"/></g></svg>
