<?xml version="1.0" standalone="no"?>
<svg version="1.1" preserveAspectRatio="xMidYMid meet" viewBox="0 0 128 100.46" class="ng-element" data-id="dd2a25c41c594957b8a55dc9ff839a6d" style="mix-blend-mode: normal; overflow: visible; width: 72px; height: 57px; filter: none;" xmlns="http://www.w3.org/2000/svg"><title>general-programming</title><path d="M101.74,20.43A4.71,4.71,0,0,0,97,15.75H28.37a4.7,4.7,0,0,0-4.72,4.68v6.74h78.09Z" transform="translate(0 -13.77)" style="fill: #3097db" vector-effect="non-scaling-stroke"/><path d="M69.45,98.66c-1.24,2.14-2.92,1.7-8.35,1.7a3.38,3.38,0,0,1-2.92-1.7H4.44v.85a5.94,5.94,0,0,0,5.94,5.94H116.69a5.94,5.94,0,0,0,5.94-5.94v-.85Z" transform="translate(0 -13.77)" style="fill: #f1616d" vector-effect="non-scaling-stroke"/><path d="M45.66,54.31v1.62a1.53,1.53,0,0,0,3.05,0V54.31A1.53,1.53,0,0,0,45.66,54.31Zm0,8.77v1.63a1.53,1.53,0,0,0,3.05,0V63.08A1.53,1.53,0,0,0,45.66,63.08ZM52.38,58H50.76a1.53,1.53,0,0,0,0,3.05h1.62A1.53,1.53,0,0,0,52.38,58ZM43.6,58H42A1.53,1.53,0,0,0,42,61H43.6A1.53,1.53,0,0,0,43.6,58ZM82.84,79.45H80.09a1.53,1.53,0,0,0,0,3h2.75A1.53,1.53,0,0,0,82.84,79.45Zm2-4.8V77.4a1.53,1.53,0,0,0,3,0V74.65A1.53,1.53,0,0,0,84.89,74.65Zm7.85,4.8H90a1.53,1.53,0,0,0,0,3h2.74A1.53,1.53,0,0,0,92.74,79.45Zm-7.85,5.1V87.3a1.53,1.53,0,0,0,3,0V84.55A1.53,1.53,0,0,0,84.89,84.55Z" transform="translate(0 -13.77)" style="fill: #3097db" vector-effect="non-scaling-stroke"/><path d="M36.41,21.43a1.74,1.74,0,0,0,3.47,0A1.74,1.74,0,0,0,36.41,21.43Zm6.18,0a1.74,1.74,0,0,0,3.47,0A1.74,1.74,0,0,0,42.59,21.43Zm-12.36,0a1.74,1.74,0,0,0,3.48,0A1.74,1.74,0,0,0,30.23,21.43ZM92.72,63.77H57.65a1.54,1.54,0,0,0,0,3.07H92.72A1.54,1.54,0,0,0,92.72,63.77Zm-17,9.66H70.09a1.54,1.54,0,0,0,0,3.07h5.64A1.54,1.54,0,0,0,75.73,73.43ZM35.68,34.78H32.86a1.54,1.54,0,0,0,0,3.07h2.82A1.54,1.54,0,0,0,35.68,34.78ZM64.5,83.09H43.44a1.54,1.54,0,0,0,0,3.07H64.5A1.54,1.54,0,0,0,64.5,83.09ZM16,112.51a1.73,1.73,0,0,0,3.45,0A1.73,1.73,0,0,0,16,112.51Zm94.47-1.36H23.52a1.54,1.54,0,0,0,0,3.08h87A1.54,1.54,0,0,0,110.47,111.15Zm16-7.24h-3.75a7.48,7.48,0,0,0,1.45-4.4v-.85a1.54,1.54,0,0,0-1.54-1.54h-1.86v-57A5.78,5.78,0,0,0,115,34.34H104.88V20.57a6.81,6.81,0,0,0-6.8-6.8H29.35a6.8,6.8,0,0,0-6.79,6.8V34.34H12.08A5.78,5.78,0,0,0,6.3,40.12v57H4.44a1.53,1.53,0,0,0-1.53,1.54,9.08,9.08,0,0,0,1.47,5.25H1.53a1.54,1.54,0,0,0,0,3.07H126.47A1.54,1.54,0,0,0,126.47,103.91ZM104.88,37.42H115a2.7,2.7,0,0,1,2.7,2.7v57h-3.77a1.56,1.56,0,0,0,.07-.44V43.09a2,2,0,0,0-2-2h-7.14Zm0,6.79h6V96.68a1.56,1.56,0,0,0,.06.44h-6.09ZM25.63,20.57a3.73,3.73,0,0,1,3.72-3.73H98.08a3.73,3.73,0,0,1,3.73,3.73v4.91H25.63Zm0,8h76.18V97.12H69.45c-1.51,0-1.23,1.7-2.92,1.7-5.66,0-6.32.27-7-.94-.55-.95,1.86-.83-33.88-.78ZM9.38,40.12a2.7,2.7,0,0,1,2.7-2.7H22.56v3.71H15.05a2,2,0,0,0-2,2v54H9.38Zm13.18,4.09v52.9h-6.4V44.21Zm94.13,59.7H10.38A4.4,4.4,0,0,1,6,100.2H57.4a4.94,4.94,0,0,0,3.7,1.69c5.46,0,7.29.42,9.14-1.69H121A4.4,4.4,0,0,1,116.69,103.91Zm-81-40.14H32.86a1.54,1.54,0,0,0,0,3.07h2.82A1.54,1.54,0,0,0,35.68,63.77Zm0,19.32H32.86a1.54,1.54,0,0,0,0,3.07h2.82A1.54,1.54,0,0,0,35.68,83.09Zm7.76-6.59h21a1.54,1.54,0,0,0,0-3.07h-21A1.54,1.54,0,0,0,43.44,76.5Zm22-19.32a1.54,1.54,0,0,0,0-3.07H57.21a1.54,1.54,0,0,0,0,3.07ZM35.68,44.45H32.86a1.53,1.53,0,0,0,0,3.06h2.82A1.53,1.53,0,0,0,35.68,44.45Zm0,9.66H32.86a1.54,1.54,0,0,0,0,3.07h2.82A1.54,1.54,0,0,0,35.68,54.11Zm0,19.32H32.86a1.54,1.54,0,0,0,0,3.07h2.82A1.54,1.54,0,0,0,35.68,73.43Zm7.76-25.92H65.06a1.53,1.53,0,0,0,0-3.06H43.44A1.53,1.53,0,0,0,43.44,47.51Zm23-9.66H92.84a1.54,1.54,0,0,0,0-3.07H66.47A1.54,1.54,0,0,0,66.47,37.85ZM92.84,54.11H73.31a1.54,1.54,0,0,0,0,3.07H92.84A1.54,1.54,0,0,0,92.84,54.11ZM43.44,37.85H56a1.54,1.54,0,0,0,0-3.07H43.44A1.54,1.54,0,0,0,43.44,37.85Z" transform="translate(0 -13.77)" style="fill: #424242" vector-effect="non-scaling-stroke"/></svg>