<?xml version="1.0" standalone="no"?>
<svg version="1.1" preserveAspectRatio="xMidYMid meet" viewBox="0 0 128 127.46" class="ng-element" data-id="d1e80577121b4ce3a8c1f8b83e4468b8" style="mix-blend-mode: normal; overflow: visible; width: 72px; height: 72px; filter: none;" xmlns="http://www.w3.org/2000/svg"><title>general-ai</title><path d="M55.72,88.54a4.09,4.09,0,0,1,3.91,2.89,1.86,1.86,0,0,1,.67-.13h5.49V34.15a12.49,12.49,0,0,0-.44-3.25L55.9,40.35a1.78,1.78,0,0,1-.9.49,4.12,4.12,0,1,1-2-2.49,1.74,1.74,0,0,1,.38-.56L63,28.13a1.72,1.72,0,0,1,1-.5,12.68,12.68,0,0,0-23.06,3,12.71,12.71,0,0,0-11.4,12.64c0,.07,0,.15,0,.22a1.84,1.84,0,0,1,1.17.41L39.35,51a1.87,1.87,0,0,1,.54.77,4,4,0,0,1,1.81-.44,4.12,4.12,0,1,1-4.12,4.12,3.87,3.87,0,0,1,.23-1.28,1.78,1.78,0,0,1-.77-.37l-8.66-7.15a1.84,1.84,0,0,1-.64-1.17,12.65,12.65,0,0,0-1.51,19.64,1.82,1.82,0,0,1,2.05.23l7.85,6.88h8.63l6.17-6.17a1.8,1.8,0,0,1,.6-.4,4,4,0,0,1-.53-2,4.18,4.18,0,1,1,3,4,1.81,1.81,0,0,1-.5,1l-6.71,6.71a1.81,1.81,0,0,1-1.28.53H35.45a1.82,1.82,0,0,1-1.2-.45l-8.36-7.33a1.82,1.82,0,0,1-.52-.78A15.39,15.39,0,0,0,21.6,84.46l2.14-1.65a9.67,9.67,0,0,1,2.49-.93l2-4,4.67.47,2.18,5.45a9,9,0,0,1,2.34,1.09l4.21-1.56,3.27,4.83L43.2,92.62c.44,1,1.35,1.41,1.56,2.5l4,3.46-1,2.61-3.79.3a9.35,9.35,0,0,1-1.31,1.84l.58,3.21c.72,5.32,6.19,9.25,11.71,9.25a10.88,10.88,0,0,0,10.88-10.88v-10H60.3a1.78,1.78,0,0,1-1-.3,4.11,4.11,0,1,1-3.59-6.09Z" transform="translate(0 -0.27)" style="fill: #f1616d" vector-effect="non-scaling-stroke"/><path d="M110.54,78.24c0-.06-.08-.09-.09-.15a1.61,1.61,0,0,1-.3-.84A11.3,11.3,0,0,0,93.93,67.9a12.08,12.08,0,0,1,1,12.6A1.8,1.8,0,0,1,91.72,79C95.06,72.3,89.38,65.18,81.57,67c-2.65,2.2-8.14,3.69-8.14.54a1.8,1.8,0,0,1,1.79-1.8,6.46,6.46,0,0,0,6.45-6.42,1.81,1.81,0,0,1,1.79-1.82c2.42,0,2,3.28,1.07,5.52a.3.3,0,0,1,0,.11,12.6,12.6,0,0,1,6.67,2.17,14.83,14.83,0,0,1,13.92-.83,9.69,9.69,0,0,0,1.16-1.23c-.22-.19-.45-.35-.69-.52a7.05,7.05,0,0,0,3.21-6.54,11.31,11.31,0,0,0-5.14-9.44,2,2,0,0,1-.82-.08,5,5,0,0,0-6.67,5.5,1.8,1.8,0,0,1-3.55.56,8.48,8.48,0,0,1,8.67-9.92.47.47,0,0,0,0-.17,11.2,11.2,0,0,0-7.7-10.26h0A11,11,0,0,0,91.35,32s0-.06,0-.08a1.83,1.83,0,0,1-1.72-1.29c-3.26-11.39-19.86-10.46-21.94,1.22a11.2,11.2,0,0,0-.17,1.94,9.35,9.35,0,0,0,15.76,6.77,1.82,1.82,0,0,1,2.54.07,1.76,1.76,0,0,1-.08,2.52,12.85,12.85,0,0,1-18.22-.45v45.1A9,9,0,0,1,75.11,86a0,0,0,0,1,0,0,9.21,9.21,0,0,1,5.63,3.83,1.79,1.79,0,0,1-3,2A5.64,5.64,0,0,0,67.5,95c0,12.64-.16,12.73.52,14.71a11.16,11.16,0,0,0,17.27.58v0c.13-.13.52-.63.53-.63A7.57,7.57,0,0,0,84,101.5a1.79,1.79,0,0,1,.67-3,1.76,1.76,0,0,1,1.87.41,11.35,11.35,0,0,1,3.12,5.76,12.12,12.12,0,0,0,11-4.8,10.53,10.53,0,0,0,.62-3.55,11.2,11.2,0,0,1-8.9-2.32,1.78,1.78,0,0,1,.79-3.16c1.3-.25,1.4.75,3.64,1.59l.08,0a7.52,7.52,0,0,0,6.15-.51,9.46,9.46,0,0,0-.19-1.59c.32-.15.62-.33.91-.48,0,0,0,0,0,0a15.63,15.63,0,0,0,5.79-5.12A13.14,13.14,0,0,0,110.54,78.24Z" transform="translate(0 -0.27)" style="fill: #3097db" vector-effect="non-scaling-stroke"/><path d="M8.86,36.41l6,3.36a1.6,1.6,0,0,0,.79.2,1.62,1.62,0,0,0,.79-3l-6-3.35a1.62,1.62,0,0,0-1.58,2.83Zm4.2,38.31V64.9a1.63,1.63,0,0,0-1.63-1.62H1.62A1.63,1.63,0,0,0,0,64.9v9.82a1.63,1.63,0,0,0,1.62,1.62h9.81A1.63,1.63,0,0,0,13.06,74.72ZM9.81,73.09H3.25V66.53H9.81ZM126.4,64l-6.88-.1h0a1.63,1.63,0,0,0,0,3.25l6.88.1h0a1.63,1.63,0,0,0,0-3.25ZM93.13,18.33a1.66,1.66,0,0,0,.83.22,1.61,1.61,0,0,0,1.39-.79l3.53-5.91a1.62,1.62,0,1,0-2.78-1.66L92.57,16.1A1.63,1.63,0,0,0,93.13,18.33Zm-58.06-.57a1.61,1.61,0,0,0,1.39.79,1.66,1.66,0,0,0,.83-.22,1.63,1.63,0,0,0,.56-2.23l-3.53-5.91a1.62,1.62,0,1,0-2.78,1.66ZM65.22,10.4h0a1.63,1.63,0,0,0,1.63-1.6L67,1.92A1.62,1.62,0,0,0,65.37.27h0a1.63,1.63,0,0,0-1.63,1.6l-.1,6.88A1.62,1.62,0,0,0,65.22,10.4ZM44.45,119.17a1.72,1.72,0,1,0,1.72,1.72A1.72,1.72,0,0,0,44.45,119.17Zm71.09-79.4,6-3.36A1.62,1.62,0,0,0,120,33.58l-6,3.35a1.62,1.62,0,0,0,.79,3A1.6,1.6,0,0,0,115.54,39.77Zm-7.29,65.92a57.87,57.87,0,0,1-58.66,16.54,1.62,1.62,0,1,0-.9,3.11,61,61,0,0,0,62-17.47,1.62,1.62,0,1,0-2.39-2.18Zm2-39.22-.29-.39c-.13-.19-.27-.37-.42-.56l-.35-.42a17.36,17.36,0,0,0-1.92-2A14.5,14.5,0,0,0,111.35,53a14.65,14.65,0,0,0-7.42-12.69V40A14.54,14.54,0,0,0,91.88,25.64a14.57,14.57,0,0,0-26.67-1.48,1.32,1.32,0,0,0-.16-.25A14.58,14.58,0,0,0,38.5,25.64,14.54,14.54,0,0,0,26.45,40v.28A14.64,14.64,0,0,0,19,53a14.49,14.49,0,0,0,4.07,10.11,17.38,17.38,0,0,0-5.93,13.06,1.63,1.63,0,0,0,3.25,0,14.14,14.14,0,0,1,5.14-10.87l7.53,6.61a1.63,1.63,0,0,0,1.07.4H44.45a1.62,1.62,0,0,0,1.15-.48L52,65.44a5.84,5.84,0,1,0-2.52-2.07L43.78,69h-9L26.7,62l0,0,0,0a11.31,11.31,0,0,1,1.31-18.71l7.32,6.05a5.86,5.86,0,1,0,2.12-2.45l-7.67-6.35c0-.15,0-.29,0-.43A11.31,11.31,0,0,1,39.88,28.72a1.64,1.64,0,0,0,1.4-1.16,11.33,11.33,0,0,1,20.45-2.9L53.34,33a5.82,5.82,0,0,0-7.34.74,5.83,5.83,0,1,0,9.44,1.75l7.69-7.68a11.45,11.45,0,0,1,.38,2.89,1.8,1.8,0,0,0,.11.57v57.2h-3a5.82,5.82,0,1,0-.27,3.25h3.3v10.7a1.69,1.69,0,0,0-.11.56,9.51,9.51,0,0,1-9.49,9.5,9.41,9.41,0,0,1-5.5-1.76,1.62,1.62,0,1,0-1.89,2.64A12.6,12.6,0,0,0,54,115.76a12.75,12.75,0,0,0,11.17-6.62,12.72,12.72,0,0,0,20.56,2.47l.07-.06a11.35,11.35,0,0,0,2.94-5.15,12.74,12.74,0,0,0,1.5.1,13.68,13.68,0,0,0,13.67-13.67c0-.42,0-.85-.06-1.28a17.33,17.33,0,0,0,6.52-24.83A1.57,1.57,0,0,0,110.25,66.47Zm-56-9a2.58,2.58,0,1,1-2.58,2.58A2.58,2.58,0,0,1,54.26,57.5Zm-13.7-8.41A2.58,2.58,0,1,1,38,51.67,2.58,2.58,0,0,1,40.56,49.09ZM52,39.72a2.58,2.58,0,1,1-3.65-3.65,2.52,2.52,0,0,1,1.82-.75,2.56,2.56,0,0,1,1.83.75h0a2.6,2.6,0,0,1,0,3.65Zm2.93,52.53a2.59,2.59,0,1,1,2.58-2.58A2.59,2.59,0,0,1,54.88,92.25Zm48-3.86a1.69,1.69,0,0,0-.31.13,7.86,7.86,0,0,1-5,1,7.77,7.77,0,0,1-3.74-1.63,1.62,1.62,0,0,0-2,2.54,11,11,0,0,0,5.3,2.31,11.87,11.87,0,0,0,1.54.11,10.85,10.85,0,0,0,2-.2c0,.07,0,.15,0,.22a10.43,10.43,0,0,1-10.43,10.42,11.24,11.24,0,0,1-1.14-.07,11.29,11.29,0,0,0-3.3-7.68,1.62,1.62,0,0,0-2.3,2.29,8,8,0,0,1,2.35,6.11,1.82,1.82,0,0,0-.11.4A9.49,9.49,0,0,1,66.87,103V91.49a5.73,5.73,0,0,1,10.49-3.21,1.62,1.62,0,1,0,2.69-1.82,9,9,0,0,0-13.18-1.88V39.18A12.62,12.62,0,0,0,85,39.92a1.62,1.62,0,0,0-2.23-2.35,9.42,9.42,0,0,1-15.89-6.83,11.35,11.35,0,0,1,22.24-3.18,1.62,1.62,0,0,0,1.39,1.16,11.3,11.3,0,0,1,10.18,11.15,8.35,8.35,0,0,0-6.31,2.39,8.68,8.68,0,0,0-2.31,7.27,1.61,1.61,0,0,0,1.6,1.37l.25,0A1.62,1.62,0,0,0,95.26,49a5.46,5.46,0,0,1,1.4-4.47,5.24,5.24,0,0,1,5.43-1.16,1.68,1.68,0,0,0,.8.06,11.3,11.3,0,0,1,1.43,17.95,15.07,15.07,0,0,0-3.38-1.12,14.52,14.52,0,0,0-10.42,1.9A12.63,12.63,0,0,0,83.63,60a9.8,9.8,0,0,0,.84-3.94,1.63,1.63,0,0,0-3.25,0,6.54,6.54,0,0,1-6.54,6.54,1.63,1.63,0,0,0,0,3.25A9.77,9.77,0,0,0,81,63.54c4-.93,8.26.7,10.11,4,2.08,3.65.28,7.66.07,8.11A1.62,1.62,0,0,0,92,77.78a1.55,1.55,0,0,0,.69.16A1.62,1.62,0,0,0,94.12,77c.29-.6,2.72-6-.17-11.11a13.61,13.61,0,0,0-1-1.39,11.31,11.31,0,0,1,13.73,2.7c.2.25.4.49.59.75.05.07.11.14.16.22a14.1,14.1,0,0,1-4.62,20.21Zm19.71,3.91-6.19-3A1.62,1.62,0,0,0,115,92.2l6.19,3a1.51,1.51,0,0,0,.71.17,1.62,1.62,0,0,0,.71-3.08ZM28.93,88.19a8.76,8.76,0,0,0-9.49,7.9,8.74,8.74,0,0,0,7.9,9.49q.4,0,.81,0a8.73,8.73,0,0,0,.78-17.42Zm2.71,12.91a5.39,5.39,0,0,1-4,1.24h0a5.49,5.49,0,0,1-5-6,5.5,5.5,0,0,1,5.46-5l.5,0a5.48,5.48,0,0,1,3,9.67Zm12.42,8.44-1.42-3.86a15.48,15.48,0,0,0,1-1.85l4-1a1.62,1.62,0,0,0,1.22-1.42l.47-5.2a1.62,1.62,0,0,0-.94-1.62l-3.73-1.72a15.43,15.43,0,0,0-.62-2l2.1-3.53a1.63,1.63,0,0,0-.15-1.87l-3.34-4A1.62,1.62,0,0,0,40.79,81l-3.86,1.42a14.82,14.82,0,0,0-1.85-1l-1-4a1.62,1.62,0,0,0-1.42-1.21l-5.2-.47a1.64,1.64,0,0,0-1.62.93L24.1,80.4a17.82,17.82,0,0,0-2,.63l-3.54-2.1a1.61,1.61,0,0,0-1.86.15l-4,3.34a1.62,1.62,0,0,0-.48,1.81l1.42,3.86a15.54,15.54,0,0,0-1,1.85l-4,1a1.62,1.62,0,0,0-1.21,1.42L7,97.58a1.64,1.64,0,0,0,.94,1.62l3.73,1.72a19.31,19.31,0,0,0,.62,2l-2.09,3.53a1.63,1.63,0,0,0,.15,1.87l3.34,4a1.61,1.61,0,0,0,1.81.48l3.85-1.42a17.26,17.26,0,0,0,1.85,1l1,4a1.62,1.62,0,0,0,1.43,1.21l5.19.47H29a1.6,1.6,0,0,0,1.47-.94l1.73-3.74a15.29,15.29,0,0,0,2-.62l3.54,2.1a1.63,1.63,0,0,0,1.87-.15l4-3.34A1.63,1.63,0,0,0,44.06,109.54Zm-3.14-7.67a13.64,13.64,0,0,1-1.42,2.7,1.62,1.62,0,0,0-.19,1.48l1.31,3.54-2.25,1.87-3.25-1.92a1.61,1.61,0,0,0-1.48-.09,13.47,13.47,0,0,1-2.91.91,1.65,1.65,0,0,0-1.17.91L28,114.7l-2.92-.27-.93-3.65a1.62,1.62,0,0,0-1-1.11,13.56,13.56,0,0,1-2.69-1.42,1.66,1.66,0,0,0-1.48-.18l-3.54,1.3-1.87-2.25,1.92-3.24a1.65,1.65,0,0,0,.09-1.48,13.38,13.38,0,0,1-.91-2.92,1.63,1.63,0,0,0-.92-1.17l-3.42-1.58.27-2.91,3.65-.94a1.63,1.63,0,0,0,1.11-1,13.64,13.64,0,0,1,1.42-2.7A1.65,1.65,0,0,0,17,87.72l-1.3-3.54,2.25-1.87,3.24,1.92a1.62,1.62,0,0,0,1.48.09,13.73,13.73,0,0,1,2.92-.91,1.65,1.65,0,0,0,1.17-.91l1.58-3.43,2.91.27L32.14,83a1.63,1.63,0,0,0,1,1.11,13.64,13.64,0,0,1,2.7,1.42,1.63,1.63,0,0,0,1.48.18l3.54-1.3,1.87,2.25-1.92,3.24a1.62,1.62,0,0,0-.09,1.48,14.32,14.32,0,0,1,.91,2.92,1.65,1.65,0,0,0,.91,1.17L46,97,45.68,100l-3.65.94A1.63,1.63,0,0,0,40.92,101.87Z" transform="translate(0 -0.27)" style="fill: #424242" vector-effect="non-scaling-stroke"/></svg>