<?xml version="1.0" standalone="no"?>
<svg version="1.1" preserveAspectRatio="xMidYMid meet" viewBox="0 0 24 24" class="ng-element" data-id="f88fb73518e3450580a4cd76cabbf87c" style="mix-blend-mode: normal; fill: rgb(37, 116, 169); width: 16px; height: 16px; filter: none;" xmlns="http://www.w3.org/2000/svg"><g><path id="fort-awesome" d="M9.83,13.25h-1c-0.08,0.01-0.16-0.04-0.17-0.13c0-0.01,0-0.03,0-0.04v-2.33  c-0.01-0.08,0.04-0.16,0.13-0.17c0.01,0,0.03,0,0.04,0h1c0.08-0.01,0.16,0.04,0.17,0.13c0,0.01,0,0.03,0,0.04v2.33  c0.01,0.08-0.04,0.16-0.13,0.17C9.86,13.25,9.85,13.25,9.83,13.25z M15.16,13.25h-1c-0.08,0.01-0.15-0.06-0.16-0.14  c0-0.01,0-0.02,0-0.03v-2.33c-0.01-0.08,0.04-0.16,0.13-0.17c0.01,0,0.03,0,0.04,0h1c0.08-0.01,0.16,0.04,0.17,0.13  c0,0.01,0,0.03,0,0.04v2.33c0.01,0.08-0.04,0.16-0.13,0.17c-0.01,0-0.03,0-0.04,0H15.16z M20.66,13.42  c0.01-0.08-0.04-0.16-0.13-0.17c-0.01,0-0.03,0-0.04,0h-1c-0.08-0.01-0.16,0.04-0.17,0.13c0,0.01,0,0.03,0,0.04v1.17H18v-6.5  c0.01-0.08-0.04-0.16-0.13-0.17c-0.01,0-0.03,0-0.04,0h-1c-0.08-0.01-0.16,0.04-0.17,0.13c0,0.01,0,0.03,0,0.04v1.16h-1.33V8.09  c0.01-0.08-0.04-0.16-0.13-0.17c-0.01,0-0.03,0-0.04,0h-1c-0.08-0.01-0.16,0.04-0.17,0.13c0,0.01,0,0.03,0,0.04v1.16h-1.32V8.09  c0.01-0.03,0.01-0.07,0-0.1c-0.02-0.03-0.06-0.04-0.09-0.05h-0.1h-0.24V6.53c0.31-0.08,0.62-0.12,0.94-0.12  c0.2,0.01,0.39,0.04,0.58,0.08c0.19,0.04,0.38,0.07,0.57,0.08c0.23,0,0.45-0.03,0.67-0.07c0.24-0.05,0.36-0.12,0.36-0.22V4.09  c0.01-0.08-0.04-0.16-0.13-0.17c-0.01,0-0.03,0-0.04,0L14.78,4c-0.16,0.05-0.32,0.07-0.49,0.08C14.1,4.07,13.91,4.04,13.72,4  c-0.2-0.05-0.41-0.07-0.62-0.08c-0.29,0-0.58,0.04-0.86,0.1V3.85c0.21-0.09,0.34-0.29,0.33-0.52c0-0.15-0.06-0.3-0.17-0.41  c-0.22-0.22-0.58-0.22-0.8,0c-0.11,0.11-0.17,0.26-0.17,0.41c-0.01,0.23,0.12,0.43,0.33,0.52v4.07h-0.21h-0.1  c-0.03,0.01-0.07,0.02-0.09,0.05c-0.01,0.03-0.01,0.07,0,0.1v1.18H10V8.09C10.02,8,9.96,7.93,9.88,7.92c-0.01,0-0.03,0-0.04,0h-1  C8.75,7.91,8.68,7.96,8.66,8.04c0,0.01,0,0.03,0,0.04v1.16H7.34V8.09C7.36,8,7.3,7.93,7.22,7.92c-0.01,0-0.03,0-0.04,0h-1  C6.09,7.91,6.02,7.96,6,8.04c0,0.01,0,0.03,0,0.04v6.5H4.67v-1.17c0.01-0.08-0.04-0.16-0.13-0.17c-0.01,0-0.03,0-0.04,0h-1  c-0.08-0.01-0.16,0.04-0.17,0.13c0,0.01,0,0.03,0,0.04v7.83H10v-3.34c0-1.1,0.89-2,2-2c0.53,0,1.04,0.21,1.41,0.58  c0.38,0.37,0.6,0.89,0.59,1.42v3.33h6.66V13.42L20.66,13.42z" style="fill: rgb(37, 116, 169);"/></g></svg>
