<?xml version="1.0" standalone="no"?>
<svg version="1.1" preserveAspectRatio="xMidYMid meet" viewBox="0 0 24 24" class="ng-element" data-id="8c3503af9a0341aebe227483a1b47185" style="mix-blend-mode: normal; fill: rgb(115, 133, 159); width: 24px; height: 24px; filter: none;" xmlns="http://www.w3.org/2000/svg"><g><path d="M19 3H5c-1.11 0-2 .9-2 2v14c0 1.1.89 2 2 2h14c1.1 0 2-.9 2-2V5c0-1.1-.9-2-2-2zm-8 12H9.5v-2h-2v2H6V9h1.5v2.5h2V9H11v6zm2-6h4c.55 0 1 .45 1 1v4c0 .55-.45 1-1 1h-4V9zm1.5 4.5h2v-3h-2v3z" style="fill: rgb(115, 133, 159);"/></g></svg>
