<?xml version="1.0" standalone="no"?>
<svg version="1.1" preserveAspectRatio="xMidYMid meet" viewBox="0 0 180 180" class="ng-element" data-id="6f2d0e3d662a4f6390b2e73fb8ec8eb9" style="mix-blend-mode: normal; overflow: visible; width: 180px; height: 180px; filter: none;" xmlns="http://www.w3.org/2000/svg"><title>pricing-receive-rewards-v01</title><path d="M123.82,173.73c-4.94,4.94-14.5,7.5-21.24,5.69L34.4,161.15c-6.75-1.81-13.75-8.8-15.55-15.55L.58,77.42c-1.81-6.74.75-16.3,5.69-21.24L56.18,6.27c4.94-4.94,14.5-7.5,21.24-5.69L145.6,18.85c6.75,1.81,13.74,8.8,15.55,15.55l18.27,68.18c1.81,6.74-.75,16.3-5.69,21.24Z" transform="translate(0 0)" style="fill: #e5f3fb" vector-effect="non-scaling-stroke"/><g>
    <g>
      <path d="M56.91,161.62h0a95,95,0,0,1-11-.64,2,2,0,0,1-1.41.57l-5.82,0a2,2,0,0,1-2-2.21l.6-5.55a2.05,2.05,0,0,1,0-.7c0-.11,1.92-11.34.24-17.17a.25.25,0,0,0,0-.07v0l-.12-.38c-1.68-4.82-6.05-11.09-7.53-13.15l-.8-.09L27.53,122l-.77-.07-.71-.06c-.42,0-.82,0-1.21-.06l-.29,0h0c-.37,0-.73,0-1.09,0H23a55.78,55.78,0,0,1-.1,16.39,78.89,78.89,0,0,1-4.57,15l0,.09c1.91,2.24,1.16,5.17.37,6.58a2,2,0,0,1-1.74,1H5.36a2,2,0,0,1-1.92-1.44c-.54-1.85-.66-5.82,2.62-7.78l1.53-1.23c.25-1.25,2.47-12.69,2.28-20.49-.06-2.4-.25-5.51-.44-8.53-.14-2.21-.28-4.49-.37-6.48a1.55,1.55,0,0,1,0-.31l-.09-1.3v0c0-.28,0-.59,0-.94l0-.59c0-.59,0-1.22,0-1.79-.13-.21-.26-.42-.37-.63a11.35,11.35,0,0,1-.68-1.52,10.8,10.8,0,0,1-.38-1.31,2.21,2.21,0,0,0-.05-.25l-.67-.82,0,0-.75-1c-.14-.2-.3-.41-.47-.63a.21.21,0,0,0,0-.06c-.29-.42-.6-.88-.92-1.37L4,101.57l0-.06c-.58-.92-1.11-1.87-1.59-2.83A24.26,24.26,0,0,1,.92,95.25a18,18,0,0,1-.87-4,12.16,12.16,0,0,1,.4-4.47,5,5,0,0,1,.2-.64l.24-.62,0-.08s0-.07,0-.1v0L1.12,85l0-.06c.09-.16.19-.34.33-.55l0,0a10.82,10.82,0,0,1,1.55-1.79,20.22,20.22,0,0,1,3.29-2.44c1.09-.65,2.16-1.22,3.22-1.72s1.91-.87,2.9-1.27,1.8-.7,2.5-1,1.12-.38,1.57-.52l.39-.12.79-.25a11.31,11.31,0,0,1-1-1.09c-2.15-2.67-2.7-9.09-2.5-14.43C12.38,56.5,9.83,47.38,11.53,44a2.91,2.91,0,0,1,2.64-1.69,3.49,3.49,0,0,1,.65.06,10.63,10.63,0,0,1,3.43-7.19,1.84,1.84,0,0,1,.22-.17,10.8,10.8,0,0,1,5.21-1.81A18.26,18.26,0,0,1,36.2,27.77c.8,0,1.6,0,2.37,0,13,0,21.92,4.23,25.88,12.26,1.25,1.13,4.62,4.47,4.62,7.37a25.61,25.61,0,0,1-3,10,108.72,108.72,0,0,1-1.89,11.54c-2,8.81-10.9,12.16-12,12.54A24.92,24.92,0,0,1,47,83c3.16,2.49,5.1,3.89,6.07,4.49a71.79,71.79,0,0,0,11-4,6.66,6.66,0,0,1,.72-.78,4.23,4.23,0,0,1,1.62-1.8c.28-.19.59-.38.89-.56s.49-.29.72-.45l0,0,.19-.14a5.86,5.86,0,0,1,.89-.56,5.73,5.73,0,0,1,1.74-.57,4.75,4.75,0,0,1,2.1.15,3.92,3.92,0,0,1,2,1.46l0,0,.23.37,0,0c0,.07.07.15.11.23v0a1,1,0,0,0,0,.12H76c.59,0,1.1,0,1.59,0a12.06,12.06,0,0,1,2.45.37l.06,0a5.13,5.13,0,0,1,1.66.81,3.45,3.45,0,0,1,1,1.24,2.93,2.93,0,0,1,.27.89v.12a1.11,1.11,0,0,1,0,.19,2.13,2.13,0,0,1,0,.39h0v0a4.27,4.27,0,0,1-.76,2.07l0,.07a2.48,2.48,0,0,1-.19.26.21.21,0,0,1,0,.06l-.16.21c-.17.22-.34.41-.5.58l-.18.2-.08.08a1.71,1.71,0,0,1-.21.19l-.48.44-.11.1-.4.29-.4.29-.18.11-.43.24-.39.21-.14.06-.5.21a5.4,5.4,0,0,1-.68.25h-.07l-.15,0a5,5,0,0,1-.49.15,19.27,19.27,0,0,1-2.32.38l-1.47.12-.69.06c-.38,0-.75.06-1,.1h0l-.27,0-.08,0-.19,0h0c-.6.37-1.85,1.12-3.58,2a2.2,2.2,0,0,1-.3.19l-1.09.54c-.26.14-.54.27-.84.4l-.49.23c-.4.19-.84.38-1.31.57l-.43.19c-.45.2-.93.37-1.39.55L60.3,97c-.3.12-.59.21-.86.3l-.35.11,0,0-.39.12c-.27.09-.54.19-.82.27h0l-1.87.52-.09,0-2,.44c-.35.08-.67.13-1,.18l-.44.07-1,.17h-.17a3.32,3.32,0,0,1-.6,0,7,7,0,0,1-1.88-.34,19.7,19.7,0,0,1-2.71-1.11l-.05,0c-.86-.44-1.6-.84-2.25-1.22s-1.27-.77-1.92-1.19l-1.3-.87-.26-.18-.07-.05,0,2,0,.47a4.62,4.62,0,0,0,.07.72s0,.05,0,.08l.09.55.13.55a19.45,19.45,0,0,0,.69,2.27l1.12,3,0,.05.41,1.22a.14.14,0,0,1,0,.06l.18.61c0,.08,0,.14.06.2s.1.31.14.47l.2.81c0,.14.07.28.1.42s0,0,0,.07l.12.65a10.61,10.61,0,0,1,.18,1.19c0,.11,0,.22,0,.33s.06.5.08.76v.07c0,.16,0,.32,0,.48,0,.5,0,1,0,1.52,0,.13,0,.25,0,.37a11.09,11.09,0,0,1-.09,1.17l-.08.66c1,2.56,5.57,14.19,6.42,19.63.7,4.49,0,12-.46,16.26,7.7,3.12,8.41,4,8.8,4.55a4.58,4.58,0,0,1,.08,5.19A2,2,0,0,1,56.91,161.62Zm-12.46-5a2.12,2.12,0,0,1,.75.14c1,.43,5.38.73,9.52.83a76.19,76.19,0,0,0-7.91-3.49,2,2,0,0,1-1.25-2.1c.35-2.72,1.4-12,.67-16.69-.87-5.55-6.32-19.09-6.38-19.23a2.07,2.07,0,0,1-.13-1l.16-1.2v-.07a6.09,6.09,0,0,0,0-.73c0-.14,0-.29,0-.45v-.06a7.48,7.48,0,0,0,0-1c0-.17,0-.33,0-.5s0-.34-.05-.52,0-.27,0-.41v0a7.87,7.87,0,0,0-.13-.81l-.12-.63a2.46,2.46,0,0,0-.07-.29l-.19-.8c0-.08-.05-.18-.08-.28l-.08-.23-.35-1.13-.41-1.17-.91-2.46,0,0c-.29-.86-.6-1.77-.82-2.71l-.14-.62a.59.59,0,0,1,0-.13l-.1-.59A12,12,0,0,1,36.25,97l0-.55v-.16l0-2.33v-.13L36.41,92v0s0-.09,0-.14,0-.29,0-.43l.14-1.07a2,2,0,0,1,3.09-1.4l.73.49a1.89,1.89,0,0,1,.37.32l.67.49c.33.25.7.51,1.1.78l.27.19c.38.26.77.53,1.21.81.6.39,1.2.76,1.78,1.1s1.23.7,2,1.09a15.28,15.28,0,0,0,2.13.88,3.41,3.41,0,0,0,.85.18h0l.95-.16.48-.08c.27,0,.52-.08.75-.13l2-.46,1.63-.46.7-.22.4-.14.41-.13c.22-.07.43-.14.6-.21h0l.75-.28c.43-.16.84-.31,1.19-.47h0l.45-.2c.42-.17.82-.34,1.14-.49l.55-.26.68-.32h0l.79-.39a1.61,1.61,0,0,1,.31-.19c2.06-1,3.42-1.88,3.79-2.11a1.68,1.68,0,0,1,.47-.22c.2-.07.38-.11.54-.15l.13,0L70,88H70l.31,0c.44-.08.88-.11,1.36-.15l.72-.06c.44,0,.9-.06,1.37-.11a13.78,13.78,0,0,0,1.8-.3l.18,0,.22-.07,0,0a1.33,1.33,0,0,0,.24-.08l.06,0,.44-.19.22-.12.32-.17.16-.11.15-.12.19-.13.44-.4,0,0,.15-.16.26-.29,0,0,.08-.11A9,9,0,0,0,77.38,85c-.41,0-.84,0-1.35,0h-.34c-.67,0-1.28,0-1.81,0h-.34a2,2,0,0,1-1.72-.88,2,2,0,0,1-.28-1.63h-.16a1.8,1.8,0,0,0-.51.17,3.42,3.42,0,0,0-.34.23c-.11.08-.24.18-.4.28l-.85.53c-.26.16-.51.3-.7.44l-.12.08a2,2,0,0,1-.8,1.16,2.37,2.37,0,0,0-.66.68,2,2,0,0,1-.8.72,74.06,74.06,0,0,1-12.94,4.73A2,2,0,0,1,52,91.46c-.55-.24-2.24-1-11.32-8.39a2,2,0,0,1,1.23-3.54,22.77,22.77,0,0,0,8.76-1.78l.17-.06c.07,0,7.85-2.7,9.45-9.67A107.79,107.79,0,0,0,62.1,56.51a2.11,2.11,0,0,1,.25-.77,22.08,22.08,0,0,0,2.72-8.38c0-.58-1.25-2.64-3.55-4.64a2.14,2.14,0,0,1-.5-.66C57,33.51,46.6,31.72,38.57,31.72c-.72,0-1.47,0-2.22,0a14.49,14.49,0,0,0-10.27,4.72,2,2,0,0,1-1.21.61c-2.94.37-3.77.94-3.9,1.06l-.08.06-.1.07c-2.26,1.87-2.13,6.17-2,7.44a2,2,0,0,1-3.27,1.68L15,47a21.4,21.4,0,0,0,.64,4.79,22.38,22.38,0,0,0,2.21,6.29,2,2,0,0,1,.39,1.27c-.34,6.74.73,11.28,1.59,12.36A13,13,0,0,0,23,74.27a2,2,0,0,1-.43,3.59c-.36.12-1.36.45-2.7.94l-.36.1-1.39.43-.41.13c-.42.13-.89.28-1.39.46-.67.25-1.5.55-2.35.9s-1.84.78-2.72,1.19-1.9,1-2.85,1.53a16.18,16.18,0,0,0-2.63,1.93,6.42,6.42,0,0,0-1,1.09l-.16.25-.1.23-.19.49-.06.16a.53.53,0,0,1,0,.12,8.16,8.16,0,0,0-.26,3A14,14,0,0,0,4.71,94a20.69,20.69,0,0,0,1.21,2.89c.42.84.88,1.67,1.39,2.49l.53.8c.3.46.58.88.85,1.26l.46.62c.25.33.47.64.68.9l1,1.17a1.94,1.94,0,0,1,.48,1.14s0,.19.08.45v0a3.83,3.83,0,0,0,.21.73,7.13,7.13,0,0,0,.44,1,6.17,6.17,0,0,0,.48.77,2,2,0,0,1,.38,1.2c0,.12,0,.24,0,.36,0,.59,0,1.28,0,1.88l0,.58c0,.32,0,.61,0,.86l.06.93a1.67,1.67,0,0,1,0,.39c.09,2,.24,4.44.38,6.76.2,3,.39,6.21.45,8.68.19,7.51-1.66,17.76-2.22,20.7a2.19,2.19,0,0,1,.12.88,2,2,0,0,1-.75,1.39l-2.58,2.06a1.59,1.59,0,0,1-.27.18,2.17,2.17,0,0,0-1,1.84h8.38a1.42,1.42,0,0,0-.64-1.36,2,2,0,0,1-.76-1,5.92,5.92,0,0,1-.32-1.9,2,2,0,0,1,1.2-1.82,74,74,0,0,0,4-13.3,51.27,51.27,0,0,0-.25-17.15A2,2,0,0,1,20.23,118l.2,0h.08l.14,0,.49-.06.15,0,.81,0a5.54,5.54,0,0,1,.83,0h.49c.41,0,.87,0,1.39,0h.27c.36,0,.73.05,1.1.06s.69,0,1,.08l.61.06h0l1.61.14h.06l1.61.19a2,2,0,0,1,1.36.78c.26.35,6.38,8.52,8.6,14.92.07.2.14.4.2.6v0c1.75,6,.35,16,0,18.49a1.84,1.84,0,0,1,0,.47l-.41,3.87h1.91a2,2,0,0,1,.58-.59A1.94,1.94,0,0,1,44.45,156.62ZM11.93,99.21a2,2,0,0,1-1.88-1.33v0q-.09-.24-.18-.54l-.13-.4c-.09-.29-.19-.58-.29-.86s-.18-.54-.26-.81L9,94.69c-.16-.48-.3-.94-.44-1.42s-.25-.85-.4-1.4-.24-.93-.34-1.33a2,2,0,0,1,.53-1.88l.42-.43a3.7,3.7,0,0,1,.41-.35l0,0,0,0,.25-.2a3.23,3.23,0,0,1,.43-.29l0,0,0,0,.27-.17a3.18,3.18,0,0,1,.43-.23l.05,0h0l.3-.15.37-.17.06,0,0,0,.33-.13,0,0,.48-.18,1-.36A2,2,0,0,1,16,88.27l-.12.35-.26.95-.11.37-.18.66L15,91.74v0c-.14.54-.25,1.11-.38,1.72l-.15.72c-.05.25-.1.53-.15.81l-.09.48,0,.12c-.07.41-.14.79-.2,1.18l-.11.73a2,2,0,0,1-1.79,1.68Z" transform="translate(0 0)" style="fill: #fff" vector-effect="non-scaling-stroke"/>
      <g>
        <g>
          <path d="M69.56,81.56c1.28-.93,2.87-.92,3.56,0s.17,2-1.11,3a4.2,4.2,0,0,1-5.33-.48C66,83.14,68.27,82.48,69.56,81.56Z" transform="translate(0 0)" style="fill: #fde1bd" vector-effect="non-scaling-stroke"/>
          <path d="M66.68,84.08a.36.36,0,0,1-.05-.12.44.44,0,0,1,0-.34c.11-.28.52-.51,1-.75s1.09-.48,1.71-.84c.31-.17.61-.4.89-.52a3,3,0,0,1,1-.3,2.56,2.56,0,0,1,1,.05,1.52,1.52,0,0,1,.73.47l.13.19c0,.06,0,.1.07.17a1,1,0,0,1,.07.39,1.82,1.82,0,0,1-.19.76,4.28,4.28,0,0,1-.74,1.06c-.22.23-.36.36-.36.36l.12-.07a2.42,2.42,0,0,0,.32-.2,3.76,3.76,0,0,0,1-1,2.15,2.15,0,0,0,.35-.93,1.6,1.6,0,0,0,0-.57,1.21,1.21,0,0,0-.11-.3,1.79,1.79,0,0,0-.15-.24,1.91,1.91,0,0,0-1-.72,2.84,2.84,0,0,0-1.23-.08A3.66,3.66,0,0,0,70,81a10.29,10.29,0,0,0-.91.6c-.56.37-1.14.68-1.6,1s-.86.66-.93,1a.5.5,0,0,0,.08.39Z" transform="translate(0 0)" style="fill: #de9e7a" vector-effect="non-scaling-stroke"/>
          <path d="M64.91,85.93s1-4,7-2.85c1.63.31,12.79-1.13,7.64,4-3.33,3.32-8.33,1.67-11,3.5S64.91,85.93,64.91,85.93Z" transform="translate(0 0)" style="fill: #fde1c2" vector-effect="non-scaling-stroke"/>
          <path d="M71.92,83.05H72l.2,0c.18,0,.44,0,.76,0,.66,0,1.6-.06,2.73-.07.57,0,1.18,0,1.83,0a9.62,9.62,0,0,1,2,.31,3,3,0,0,1,1,.49,1.26,1.26,0,0,1,.4.48.89.89,0,0,1,.11.31l0,.16c0,.06,0,.11,0,.17a2.43,2.43,0,0,1-.43,1.13l-.16.24-.19.23a3.91,3.91,0,0,1-.37.44l-.2.22-.22.2-.41.38-.48.34-.24.18-.26.14-.5.27L77.1,89a5.44,5.44,0,0,1-.52.19c-.18,0-.35.11-.53.15a14.23,14.23,0,0,1-2,.34c-.65.07-1.26.11-1.82.15s-1.07.08-1.52.16l-.32,0-.3.07a3.15,3.15,0,0,0-.51.13l-.41.14-.29.14-.24.12,0,0,.23-.16.27-.19.4-.19A2.26,2.26,0,0,1,70,89.8l.3-.1.32-.09.73-.16.8-.14,1.81-.24c.63-.1,1.29-.2,2-.37l.5-.14a4.66,4.66,0,0,0,.49-.16l.5-.19.47-.24.24-.12.22-.14.44-.29.43-.37.2-.17.2-.2a4.61,4.61,0,0,0,.37-.4l.17-.21c.06-.07.1-.15.16-.22a2.05,2.05,0,0,0,.39-.92.84.84,0,0,0-.35-.79,2.81,2.81,0,0,0-.88-.45,10.78,10.78,0,0,0-2-.36c-.64-.06-1.25-.09-1.81-.11-1.12,0-2.07,0-2.73,0-.33,0-.58,0-.76,0l-.2,0h-.07Z" transform="translate(0 0)" style="fill: #de9e7a" vector-effect="non-scaling-stroke"/>
        </g>
        <g>
          <g>
            <path d="M38.82,79s11.54,9.6,14,10.64A72.66,72.66,0,0,0,65.51,85s.92,4.16,4.25,5.13A48.36,48.36,0,0,1,51.05,97C48,97.32,36.33,89,36.33,89S36.25,77.78,38.82,79Z" transform="translate(0 0)" style="fill: #4b4a56" vector-effect="non-scaling-stroke"/>
            <path d="M65.65,92.42l-1.1.55c-.35.18-.79.37-1.28.6s-1.06.47-1.68.73-1.31.51-2,.79c-.36.15-.74.26-1.13.39s-.77.26-1.18.38L56,96.2l-.63.18-.64.14-1.31.29c-.44.1-.88.15-1.33.23l-.66.11-.33.06a2.3,2.3,0,0,1-.37,0A5,5,0,0,1,49.38,97,17.15,17.15,0,0,1,47,96c-.76-.38-1.48-.77-2.14-1.16S43.52,94,43,93.67s-1.07-.72-1.52-1-.84-.58-1.16-.82l-1-.73,0-.06,3.88,2.22,1.89,1c.68.36,1.38.75,2.13,1.11a20.11,20.11,0,0,0,2.32,1,5,5,0,0,0,1.21.27,1.5,1.5,0,0,0,.3,0l.33,0,.66-.08c.44-.07.88-.11,1.32-.2l1.29-.25.65-.13.62-.16,1.24-.3c.8-.24,1.57-.46,2.3-.7s1.42-.46,2-.72,1.2-.45,1.7-.67.94-.38,1.29-.55l1.12-.51Z" transform="translate(0 0)" style="fill: #38363d" vector-effect="non-scaling-stroke"/>
          </g>
          <path d="M51.14,90.47l-.26.12-.23.1.19-.15.23-.18a1.2,1.2,0,0,1,.31-.21l.38-.21c.14-.07.27-.15.42-.21h-.47l-.26,0-.25,0a3.25,3.25,0,0,1-.43-.12l-.41-.18a7.62,7.62,0,0,0,2.41.3c.07,0-.07,0,0,0s1.31-.31,3.26-.84h0l-.85.29-1.87.59c-.34.09-.67.23-1,.32s-.6.23-.85.32S51.24,90.43,51.14,90.47Z" transform="translate(0 0)" style="fill: #38363d" vector-effect="non-scaling-stroke"/>
        </g>
        <g>
          <path d="M16.91,155.48a4.3,4.3,0,0,1-1.08-3.29c.27-1.88-5.47-1.37-5.47-1.37l-4.17,3.32Z" transform="translate(0 0)" style="fill: #371e16" vector-effect="non-scaling-stroke"/>
          <path d="M45.87,151.59s10.05,3.82,11.06,5.13a2.7,2.7,0,0,1,0,2.9s-10.1-.05-12.46-1v.95l-5.82,0,.71-6.63Z" transform="translate(0 0)" style="fill: #59261a" vector-effect="non-scaling-stroke"/>
          <path d="M41.71,115.34S47.29,129.16,48.2,135c.94,6-.81,18.4-.81,18.4s-4.83,2.55-8.19,0c0,0,2.15-12.49,0-18.67s-8.31-14.37-8.31-14.37a21.19,21.19,0,0,0-10.22-.4,53.13,53.13,0,0,1,.27,17.9,79,79,0,0,1-4.44,14.6s-4.56,1.75-7-1.48c0,0,2.56-12.5,2.35-21-.18-7.18-1.52-20.14-.56-21.45C14.26,104.45,37.31,97.89,41.71,115.34Z" transform="translate(0 0)" style="fill: #4b4a56" vector-effect="non-scaling-stroke"/>
          <path d="M11,114.53c-.18-3.7.46-5.37,1.77-7.15,3-4,24.53-9.49,28.93,8h0a29.76,29.76,0,0,0-7.56-.88s-.94-8.46-1-5.19c0,.11-.15,2-.36,3-.38,2-.63,2-.63,2C19.54,113.78,11.74,114.35,11,114.53Z" transform="translate(0 0)" style="fill: #38363d" vector-effect="non-scaling-stroke"/>
          <path d="M16.94,158.92s3.12-5.54-5.24-6.25-6.34,6.25-6.34,6.25Z" transform="translate(0 0)" style="fill: #59261a" vector-effect="non-scaling-stroke"/>
          <path d="M20.67,120l.19,0,.55-.08.85,0c.32,0,.7,0,1.1,0s.84,0,1.31,0,.95.06,1.45.07,1,.11,1.56.14l1.6.14,1.61.18c.53.07,1.05.11,1.55.16l1.46.16,1.31.15c1.63.17,2.73.21,2.73.21s-1-.34-2.64-.74L34,120l-.7-.16-.75-.13c-.51-.07-1-.17-1.57-.24l-1.62-.21-1.63-.11c-.54,0-1.07-.06-1.59-.06l-1.49,0a10.77,10.77,0,0,0-1.33.12,10,10,0,0,0-1.12.19l-.84.22c-.24.08-.41.15-.53.2Z" transform="translate(0 0)" style="fill: #38363d" vector-effect="non-scaling-stroke"/>
          <path d="M39.37,135.26h0v0Z" transform="translate(0 0)" style="fill: #19323f" vector-effect="non-scaling-stroke"/>
          <path d="M39.37,135.26h0v0Z" transform="translate(0 0)" style="fill: #19323f" vector-effect="non-scaling-stroke"/>
          <path d="M36,122.62s-.27-.24-.69-.57c-.21-.17-.47-.36-.75-.55s-.58-.39-.88-.59l-.47-.28a4.17,4.17,0,0,0-.46-.26,6.84,6.84,0,0,0-.88-.32,6.92,6.92,0,0,0-.91-.13v0a6,6,0,0,0,.79.43c.12.06.24.14.38.2l.43.21c.15,0,.3.14.47.21l.48.21.92.49c.29.17.57.32.79.46.47.28.76.48.76.48Z" transform="translate(0 0)" style="fill: #38363d" vector-effect="non-scaling-stroke"/>
        </g>
        <g>
          <path d="M40.61,82.58a41.6,41.6,0,0,0,1.1,32.76s-1-10-10.08-10.31A26.69,26.69,0,0,0,11,114.11c0-4.16,2.18-31.55,8.73-36.69S40.51,79.48,40.61,82.58Z" transform="translate(0 0)" style="fill: #fffffd" vector-effect="non-scaling-stroke"/>
          <path d="M33.62,79.84a133.14,133.14,0,0,0,0,20.5l-4.24,2.77L28,101.75a115.63,115.63,0,0,1,3-22.5Z" transform="translate(0 0)" style="fill: #d41c1d" vector-effect="non-scaling-stroke"/>
          <g>
            <path d="M19.59,77.25c1.82-1.43,4.42-1.71,7-1.58-1.58.53-3,3.34-2.93,3.66s2.62,1.52,2.48,1.85c0,0-2.92,2.2-2.68,2.87a34.09,34.09,0,0,0,8.41,13.22s5.58-9.32,5.56-9.55S36,83.94,36,83.94s.31-.52,2.08-.47c.35,0-.43-3.9-.47-4.1,1.77,1.15,3.06,2.32,3.09,3.19A35.9,35.9,0,0,0,38,96.33c0,5.93,4.8,10.22,3.69,19,0,0-.55-2.12-6.76-2.3a36.53,36.53,0,0,0-1.33-4.79c-.21-.62-.45-.39-.76,2a20.75,20.75,0,0,1-.48,2.71c-13.1-.6-21.37,1.57-21.37,1.57C10.54,104.66,13,82.39,19.59,77.25Z" transform="translate(0 0)" style="fill: #4b4a56" vector-effect="non-scaling-stroke"/>
            <path d="M11,114.53v-1.31c0-.41,0-.92,0-1.5s.05-1.23.07-1.94c0-.36.05-.73.07-1.11s0-.78.07-1.19.06-.82.09-1.25.08-.87.11-1.31c.07-.89.18-1.8.27-2.73s.21-1.88.34-2.82c.07-.47.12-.94.19-1.41l.21-1.39c.14-.93.3-1.83.45-2.71.09-.44.17-.87.25-1.29s.16-.83.25-1.23.16-.79.24-1.16.18-.74.26-1.09.16-.67.23-1,.17-.61.24-.89c.15-.56.28-1,.41-1.45l.38-1.25-.46,1.23c-.15.39-.3.87-.48,1.42l-.29.88c-.09.32-.18.65-.28,1s-.2.7-.29,1.08-.19.76-.28,1.16c-.21.79-.37,1.64-.55,2.52-.09.44-.17.88-.25,1.34s-.18.91-.24,1.37-.15.93-.22,1.4-.13.94-.2,1.42c-.13.94-.22,1.89-.33,2.82l-.12,1.39c0,.46-.08.91-.11,1.36s-.06.88-.09,1.31,0,.85-.05,1.26c0,.82,0,1.6-.07,2.31s0,1.37,0,2,0,1.09,0,1.51C11,114.06,11,114.53,11,114.53Z" transform="translate(0 0)" style="fill: #38363d" vector-effect="non-scaling-stroke"/>
            <path d="M39,87.78s-.11.43-.29,1.18l-.16.62-.14.74-.16.84-.08.46c0,.15,0,.32-.06.48,0,.33-.08.67-.12,1l-.06.54,0,.28,0,.28c0,.38,0,.77-.05,1.17,0,.2,0,.4,0,.61l0,.3c0,.12,0,.21,0,.32a9.15,9.15,0,0,0,.1,1.26l.09.65c.05.22.09.43.14.65a23.76,23.76,0,0,0,.76,2.54c.3.83.62,1.65.92,2.46.16.41.3.81.45,1.21l.21.59.18.59c.06.2.13.39.19.58l.15.58c.05.19.11.38.16.57l.12.55.11.55c0,.18.06.36.09.53,0,.35.11.69.15,1s0,.64.07.94a6.26,6.26,0,0,1,0,.85c0,.54,0,1,0,1.39,0,.77-.06,1.21-.06,1.21l.15-1.21a13.07,13.07,0,0,0,.08-1.39,15.88,15.88,0,0,0,0-1.81c0-.33-.08-.68-.11-1a9,9,0,0,0-.18-1.1c0-.19-.06-.38-.1-.57s-.09-.38-.14-.58l-.14-.59-.18-.59-.18-.6-.2-.61-.21-.61-.22-.61c-.3-.81-.61-1.63-.91-2.46a22.94,22.94,0,0,1-.76-2.49c-.05-.21-.09-.42-.14-.62l-.1-.62a10.21,10.21,0,0,1-.12-1.24l0-.3V96c0-.2,0-.4,0-.6,0-.4,0-.78,0-1.16V94l0-.28,0-.54c0-.35,0-.69.08-1,0-.16,0-.33,0-.48l.06-.46.11-.84c0-.27.07-.52.1-.75s.08-.44.12-.63C39,88.21,39,87.78,39,87.78Z" transform="translate(0 0)" style="fill: #38363d" vector-effect="non-scaling-stroke"/>
          </g>
          <path d="M28.06,75.81s-2.64,15.93,3.77,21.46c0,0-6.69-5.1-8.83-12.78-.19-.7,3-2.86,3-2.86.14-.35-2.65-1.62-2.73-2s1.44-3.87,2.54-4A4.46,4.46,0,0,1,28.06,75.81Z" transform="translate(0 0)" style="fill: #38363d" vector-effect="non-scaling-stroke"/>
          <g>
            <path d="M37.64,79.35s.84,4.13.48,4.12c-1.77,0-2.08.47-2.08.47s1.32,3.56,1.35,3.78c.4,4-5.56,9.55-5.56,9.55,4-6.48,2.7-17.59,4.55-18.67C36.71,78.41,37.18,78.86,37.64,79.35Z" transform="translate(0 0)" style="fill: #5e5f70" vector-effect="non-scaling-stroke"/>
            <path d="M28,75.79s-2.53,15.5,3.82,21.48c0,0-6.63-5.52-8.55-13.33-.16-.68,2.82-2.76,2.82-2.76.14-.33-2.41-1.53-2.48-1.85S25,75.77,26,75.65A4,4,0,0,1,28,75.79Z" transform="translate(0 0)" style="fill: #5e5f70" vector-effect="non-scaling-stroke"/>
          </g>
          <path d="M31.5,99.06c0,.43.25.76.52.75s.46-.37.43-.8-.25-.77-.51-.76S31.48,98.63,31.5,99.06Z" transform="translate(0 0)" style="fill: #ffe500" vector-effect="non-scaling-stroke"/>
          <path d="M32.47,105.5c.05.43.31.74.58.71s.42-.41.37-.84-.32-.74-.58-.71S32.41,105.07,32.47,105.5Z" transform="translate(0 0)" style="fill: #ffe500" vector-effect="non-scaling-stroke"/>
        </g>
        <g>
          <g>
            <path d="M22.07,82.13s-1.16,2.75-7.43,5.27c-1.73.69-3.54,1-5,2.63,0,0,1.8,8.48,5.09,13.52,0,0-3.59-.43-5.3,2,0,0-10.06-11.33-6.45-19.27C5.18,81.36,22.15,75.9,22.15,75.9S23.77,80.4,22.07,82.13Z" transform="translate(0 0)" style="fill: #4b4a56" vector-effect="non-scaling-stroke"/>
            <path d="M9.41,105.51l-.29-.35-.79-1c-.33-.45-.71-1-1.16-1.62s-.88-1.37-1.39-2.17a30.19,30.19,0,0,1-1.44-2.68,23,23,0,0,1-1.26-3.15A15.79,15.79,0,0,1,2.37,91a9.86,9.86,0,0,1,.38-3.66,2.19,2.19,0,0,1,.15-.43l.17-.43,0-.11v0h0l0,0,.11-.21a3.52,3.52,0,0,1,.24-.38,7.42,7.42,0,0,1,1.22-1.35,18.88,18.88,0,0,1,2.92-2.1c1-.61,2-1.14,3-1.63s1.89-.92,2.75-1.3,1.66-.72,2.37-1c.35-.15.68-.28,1-.39s.59-.24.85-.33L19.21,77l0,0-1.66.52c-.52.16-1.17.35-1.89.62s-1.54.56-2.42.92-1.82.77-2.81,1.24-2,1-3,1.61a19.07,19.07,0,0,0-3,2.19,8.75,8.75,0,0,0-1.26,1.45l-.26.43-.1.21,0,.05v0l0,0,0,.11-.17.45a2.47,2.47,0,0,0-.15.46A10.2,10.2,0,0,0,2,91a15.6,15.6,0,0,0,.78,3.59,22.68,22.68,0,0,0,1.31,3.16c.49,1,1,1.87,1.5,2.67s1,1.52,1.44,2.15.86,1.16,1.2,1.6l.81,1,.3.34Z" transform="translate(0 0)" style="fill: #38363d" vector-effect="non-scaling-stroke"/>
            <path d="M14.64,87.37l-.68.24-.69.22-.68.23-.34.12-.34.13-.33.15a2,2,0,0,0-.33.16l-.32.18a1.61,1.61,0,0,0-.31.19l-.3.21c-.1.08-.21.14-.29.22l-.54.51-.05,0v.09c.1.46.2.92.31,1.38s.22.91.34,1.37.23.91.36,1.36.25.91.4,1.36.3.89.45,1.34c.08.22.18.44.27.66l.27.65c.09.22.18.43.28.65l.31.63c.21.42.44.84.66,1.25l.05,0c-.15-.45-.31-.89-.47-1.33-.08-.22-.17-.44-.24-.66s-.15-.44-.22-.66L12,97.37c-.07-.22-.16-.44-.22-.66-.15-.45-.29-.89-.44-1.33S11,94.49,10.89,94s-.29-.89-.42-1.34-.26-.89-.38-1.35-.24-.9-.35-1.36l0,.13.5-.49a3,3,0,0,1,.27-.23l.28-.21a2,2,0,0,1,.3-.2l.3-.19.31-.16.32-.16c.11-.06.22-.1.33-.15l.33-.13.67-.26.67-.25.67-.27Z" transform="translate(0 0)" style="fill: #38363d" vector-effect="non-scaling-stroke"/>
          </g>
          <path d="M9,89l-.1-.22-.09-.19a1.47,1.47,0,0,1,.13.16l.15.19a1.2,1.2,0,0,1,.18.26l.18.33c.05.12.12.23.17.36a2.71,2.71,0,0,1,0-.4l0-.22c0-.07,0-.14,0-.21s.07-.27.11-.37a3.17,3.17,0,0,1,.15-.34,6.5,6.5,0,0,0-.26,2h0s.25,1.12.7,2.77h0s-.1-.29-.24-.72-.32-1-.5-1.59c-.07-.29-.19-.57-.27-.84s-.19-.51-.26-.73A2.61,2.61,0,0,0,9,89Z" transform="translate(0 0)" style="fill: #38363d" vector-effect="non-scaling-stroke"/>
        </g>
        <g>
          <path d="M15.68,104.71A1.69,1.69,0,0,0,18,105c.53-.55.31-1.32-.44-2-1.18-1.13-4.52-.8-5-.25S14.93,104,15.68,104.71Z" transform="translate(0 0)" style="fill: #fde1bd" vector-effect="non-scaling-stroke"/>
          <path d="M14.15,102.48l-.05.07a.31.31,0,0,0,0,.21c0,.2.25.41.52.64s.61.48.95.8c.17.16.32.35.48.48a2.15,2.15,0,0,0,.56.34,1.66,1.66,0,0,0,.61.12,1,1,0,0,0,.54-.18l.11-.1s.05-.06.07-.1a.54.54,0,0,0,.11-.23,1.14,1.14,0,0,0,0-.52,2.9,2.9,0,0,0-.3-.79l-.17-.29.06.06.18.18a2.71,2.71,0,0,1,.47.77,1.33,1.33,0,0,1,.07.64,1,1,0,0,1-.12.36.62.62,0,0,1-.11.17,1.84,1.84,0,0,1-.14.14,1.24,1.24,0,0,1-.75.29,1.94,1.94,0,0,1-.79-.14,2.25,2.25,0,0,1-.66-.42,5.48,5.48,0,0,1-.48-.53c-.3-.32-.61-.61-.86-.89a1.38,1.38,0,0,1-.43-.8.32.32,0,0,1,.12-.23Z" transform="translate(0 0)" style="fill: #de9e7a" vector-effect="non-scaling-stroke"/>
          <path d="M15.31,102.75s3,1.65,3.63,4c.44,1.54-1.42,3.79-3.67,4.51-2.87.91-5.85-3.24-6-6.07-.1-2.1,2.36-3,4.17-3A3.7,3.7,0,0,1,15.31,102.75Z" transform="translate(0 0)" style="fill: #fde1bd" vector-effect="non-scaling-stroke"/>
          <path d="M15.3,102.78a6.89,6.89,0,0,1,.75.51,9.5,9.5,0,0,1,1.74,1.63,5.42,5.42,0,0,1,.83,1.34,2.74,2.74,0,0,1,.15.4c0,.06.05.14.06.19l0,.22a2.24,2.24,0,0,1-.11.84,4.24,4.24,0,0,1-1,1.56,6.17,6.17,0,0,1-1.52,1.17,4.39,4.39,0,0,1-.44.21l-.22.1-.22.07-.22.08-.24.05-.22,0h-.22a3.21,3.21,0,0,1-1.67-.56,6.46,6.46,0,0,1-1.29-1.14,10.17,10.17,0,0,1-.93-1.26,10.85,10.85,0,0,1-.64-1.18,10.25,10.25,0,0,1-.39-1c-.09-.27-.15-.49-.19-.64l0-.23H9.27l0,.25a5.62,5.62,0,0,0,.11.67,7.51,7.51,0,0,0,.29,1,9,9,0,0,0,.57,1.26,8.34,8.34,0,0,0,.91,1.37,5.94,5.94,0,0,0,1.37,1.26,3.5,3.5,0,0,0,2,.59l.26,0,.27,0,.25-.07.25-.09.24-.09.23-.11a4.76,4.76,0,0,0,.45-.24A6.38,6.38,0,0,0,18,109.7a4.6,4.6,0,0,0,1-1.7,2.46,2.46,0,0,0,.1-1l-.05-.22a1.25,1.25,0,0,0-.07-.23,3,3,0,0,0-.17-.41,5.66,5.66,0,0,0-.91-1.36,10,10,0,0,0-1.82-1.59,9.11,9.11,0,0,0-.78-.49Z" transform="translate(0 0)" style="fill: #de9e7a" vector-effect="non-scaling-stroke"/>
        </g>
        <path d="M35.09,78.26A5.13,5.13,0,0,1,33.59,80,2.33,2.33,0,0,1,31,79.25a3.39,3.39,0,0,1,.07-2.48C31.4,76.16,35.64,77.49,35.09,78.26Z" transform="translate(0 0)" style="fill: #b81a1b" vector-effect="non-scaling-stroke"/>
        <g>
          <path d="M20.36,46.94s-4.44-7.21-.66-10.33S44.2,34.8,44.2,38,26.66,57.39,22.46,56.9,22.83,47.42,20.36,46.94Z" transform="translate(0 0)" style="fill: #928e8d" vector-effect="non-scaling-stroke"/>
          <path d="M57.4,50.39s-6.65-8.48-2.87-11.61,12.54,5.38,12.54,8.58-3.36,13.48-7.56,13S59.87,50.87,57.4,50.39Z" transform="translate(0 0)" style="fill: #928e8d" vector-effect="non-scaling-stroke"/>
          <path d="M36.27,29.77c-21.56.83-22.38,37.76-18,43.17,3.65,4.53,20.39,12.2,33.17,6.64,0,0,8.89-2.91,10.78-11.12A137.26,137.26,0,0,0,64.44,53.6C66.31,37.55,55.64,29,36.27,29.77Z" transform="translate(0 0)" style="fill: #fde1c2" vector-effect="non-scaling-stroke"/>
          <path d="M56.85,40.49l-.5-.23c-.33-.14-.8-.34-1.37-.55s-1.25-.42-2-.63c-.37-.1-.75-.22-1.14-.3s-.79-.19-1.19-.26-.8-.16-1.19-.22-.79-.11-1.17-.16-.74-.08-1.09-.11l-.51,0h-.48l-.83,0-.64,0-.56,0,.56.06.63.07.82.1c.31,0,.63.08,1,.13s.71.1,1.08.16.76.12,1.15.2.78.14,1.18.22l1.17.25,1.14.26,1.06.26.94.24C56.08,40.26,56.85,40.49,56.85,40.49Z" transform="translate(0 0)" style="fill: #de9e7a" vector-effect="non-scaling-stroke"/>
          <path d="M59.1,43.23s-.25-.12-.7-.3l-.83-.33-1.08-.4c-.8-.28-1.74-.57-2.75-.86-.51-.13-1-.28-1.58-.4s-1.09-.25-1.64-.36l-.83-.16-.82-.14c-.55-.1-1.09-.16-1.61-.23s-1-.12-1.52-.16l-.7-.06-.66,0-1.15,0H41.57l.77.07.88.07,1.14.13.65.07.7.09c.47.07,1,.13,1.49.22s1.06.16,1.6.26l.81.15.82.17c.55.1,1.1.22,1.64.34l1.57.37,1.47.37,1.3.35c.81.22,1.49.42,2,.57Z" transform="translate(0 0)" style="fill: #de9e7a" vector-effect="non-scaling-stroke"/>
          <path d="M16.87,46.9s-1.13-7,2.65-10.15,7,3.92,7,7.12-3.37,13.48-7.57,13S19.34,47.38,16.87,46.9Z" transform="translate(0 0)" style="fill: #928e8d" vector-effect="non-scaling-stroke"/>
          <path d="M51.83,54.93s.55.77,1.37,1.85c.4.54.87,1.17,1.31,1.85a9.15,9.15,0,0,1,.6,1,3.29,3.29,0,0,1,.39,1,1.39,1.39,0,0,1,0,.84,2.61,2.61,0,0,1-.24.5,2,2,0,0,1-.28.38,5.49,5.49,0,0,1-1.69,1.16,16,16,0,0,1-2.12.78,5.65,5.65,0,0,0,2.37.11,5,5,0,0,0,2.41-1,3.67,3.67,0,0,0,.57-.6c.08-.12.19-.26.25-.37l.15-.3a3,3,0,0,0,.17-1.82,5.15,5.15,0,0,0-.6-1.47,6.82,6.82,0,0,0-.84-1.15,10.64,10.64,0,0,0-1.79-1.65A9.61,9.61,0,0,0,51.83,54.93Z" transform="translate(0 0)" style="fill: #de9e7a" vector-effect="non-scaling-stroke"/>
          <g>
            <path d="M50.14,68.49S39,70.7,34.52,66.6c0,0,.12,9.29,9.52,7.76C46.69,73.92,50.32,71.56,50.14,68.49Z" transform="translate(0 0)" style="fill: #c23f3e" vector-effect="non-scaling-stroke"/>
            <path d="M50.14,68.49S39,70.7,34.52,66.6c0,0,.12,9.29,9.52,7.76C46.69,73.92,50.32,71.56,50.14,68.49Z" transform="translate(0 0)" style="fill: #c23f3e" vector-effect="non-scaling-stroke"/>
            <path d="M37,69.25c4.17,1.29,6.05,3.43,6.9,5.12-6.35,1-8.42-3-9.09-5.62A21.49,21.49,0,0,1,37,69.25Z" transform="translate(0 0)" style="fill: #e94d51" vector-effect="non-scaling-stroke"/>
            <path d="M38.28,68.29c2.79.9,8.54-1.59,9.31,1a6.63,6.63,0,0,1-2.87,1.39C43.05,71,39.73,70.84,38.28,68.29Z" transform="translate(0 0)" style="fill: #fff" vector-effect="non-scaling-stroke"/>
            <path d="M55.41,68c-1.52-1.51-3.29-5.31-9.29-3.66,0,0-2.81-2.89-8.67-1-4.14,1.32-5.77,3.22-9.13,2.28,0,0,8.1,7.33,17.08,2.65a8.56,8.56,0,0,0,6.36,3c6,.41,8.21-1.43,8.21-1.43A5.7,5.7,0,0,1,55.41,68Z" transform="translate(0 0)" style="fill: #928e8d" vector-effect="non-scaling-stroke"/>
          </g>
          <path d="M20.68,52.68c-.1-2.38-1.39-5.18-5.34-7.89-4.95-3.38-1,12.89,1.17,14.79s2.75-1.11,2.75-1.11S20.76,54.32,20.68,52.68Z" transform="translate(0 0)" style="fill: #fde1c2" vector-effect="non-scaling-stroke"/>
          <path d="M48.22,54.59l-.16.07c-.1.05-.26.1-.46.18l-.33.1a3.2,3.2,0,0,0-.39.1l-.44.09-.49.08c-.35,0-.72.09-1.11.11-.19,0-.39,0-.6,0h-.62c-.22,0-.43,0-.65,0l-.66,0c-.23,0-.45-.06-.68-.07l-.34,0L41,55.12,40.27,55l-.68-.13-.33,0-.09,0h-.05l-.18,0-.33-.07c-.12,0-.24,0-.32-.08l-.57-.15c-.18-.07-.38-.12-.55-.19l-.5-.22L36.44,54l-.21-.13a4.3,4.3,0,0,1-.73-.53,3.73,3.73,0,0,1-.48-.54,3.23,3.23,0,0,1-.25-.41,1.37,1.37,0,0,1-.07-.16.85.85,0,0,0,0,.18,2,2,0,0,0,0,.52,2.78,2.78,0,0,0,.25.8,3.68,3.68,0,0,0,.62.91,2.19,2.19,0,0,0,.21.23l.24.21a5.7,5.7,0,0,0,.53.41,7.1,7.1,0,0,0,1.29.67c.24.1.44.16.67.24l.16.05.21.06.36.08c.24.06.48.13.73.18l.75.11a12.63,12.63,0,0,0,1.51.12,10.32,10.32,0,0,0,1.48-.09l.35,0,.35-.07a6.37,6.37,0,0,0,.66-.16c.22-.07.42-.12.62-.2l.56-.23.49-.26.42-.27.35-.27.27-.25a3.07,3.07,0,0,0,.34-.39A.71.71,0,0,0,48.22,54.59Z" transform="translate(0 0)" style="fill: #24221f" vector-effect="non-scaling-stroke"/>
          <path d="M63.11,57.33l-.1.05-.26.13-.41.18a5.15,5.15,0,0,1-.52.2,5.72,5.72,0,0,1-.59.17,3.5,3.5,0,0,1-.64.08,2.83,2.83,0,0,1-.65,0h-.16l-.21,0c-.14,0-.23-.06-.35-.08l-.73-.2-.71-.24c-.47-.17-.91-.34-1.29-.5s-.69-.3-.92-.41-.2-.11-.25-.15l-.09-.06s0,0,0,.11a2,2,0,0,0,.11.3,4.53,4.53,0,0,0,.25.42,5.15,5.15,0,0,0,.39.48,5.6,5.6,0,0,0,1.22,1,5.74,5.74,0,0,0,.78.41l.44.16.45.13.48.09.21,0h.26a2.74,2.74,0,0,0,.5,0,2,2,0,0,0,.24,0l.24-.06a3.21,3.21,0,0,0,.82-.34,4,4,0,0,0,.62-.46,3.52,3.52,0,0,0,.69-.89A2.3,2.3,0,0,0,63.11,57.33Z" transform="translate(0 0)" style="fill: #24221f" vector-effect="non-scaling-stroke"/>
        </g>
      </g>
    </g>
    <g>
      <path d="M91.38,67.83l-.29,0-9.47-1.36a2,2,0,0,1-1.71-1.8,2,2,0,0,1,1.36-2.07,3.82,3.82,0,0,0,2.35-2.71l0,0a1.56,1.56,0,0,1-.24-.21l-.15-.15-.14-.19-.12-.16c0-.06-.07-.13-.1-.2a2.63,2.63,0,0,1,.52-3.12A11.05,11.05,0,0,1,81.58,54a3.39,3.39,0,0,1-3.12-.62,2.79,2.79,0,0,1-1-1.77,16.45,16.45,0,0,1-7-7.54,26.29,26.29,0,0,1-2.57-8.71,10.36,10.36,0,0,1,0-1.07v0h0v0s0-.06,0-.1a.34.34,0,0,1,0-.1s0-.09,0-.14l0-.14a.44.44,0,0,1,0-.15,1.05,1.05,0,0,1,0-.19A1.54,1.54,0,0,1,68,33.2a1,1,0,0,1,.09-.22,1.11,1.11,0,0,1,.09-.19c0-.08.09-.16.14-.24l.13-.19.22-.25.18-.17a2.93,2.93,0,0,1,.5-.34l.31-.15.1,0,.19-.06.09,0,.18-.05.07,0,.2-.05h.06a14.76,14.76,0,0,1,2.26-.26h.68a9,9,0,0,1,3,.43,3.75,3.75,0,0,1,.47-.17,4.31,4.31,0,0,1,1.3-.19,2.78,2.78,0,0,1,2-.5h.07A2,2,0,0,1,82,30.08l19.33,2.78a2,2,0,0,1,1.36.84,2.85,2.85,0,0,1,.83.34,2.46,2.46,0,0,1,.39.29l.12.1c.07.08.16.17.23.26l.06.08a4.09,4.09,0,0,1,.91.46,3,3,0,0,1,.41.29,9.89,9.89,0,0,1,3.68.65,14.41,14.41,0,0,1,2.07.87l0,0,.05,0,.17.1.06,0,.17.11.07,0,.18.12.08.07a2.46,2.46,0,0,1,.25.22,2.89,2.89,0,0,1,.38.47,1,1,0,0,1,.12.22,3.22,3.22,0,0,1,.22.52c0,.09.05.18.07.26l0,.22a1.64,1.64,0,0,1,0,.23,1.09,1.09,0,0,1,0,.18,1.28,1.28,0,0,1,0,.19c0,.06,0,.11,0,.15s0,.1,0,.15a.74.74,0,0,0,0,.12l0,.13a.51.51,0,0,1,0,.09v.07a8.38,8.38,0,0,1-.34,1,25.85,25.85,0,0,1-4.91,7.64,16.51,16.51,0,0,1-8.84,5.27,2.81,2.81,0,0,1-1.46,1.4,3.36,3.36,0,0,1-1.82.24,3.23,3.23,0,0,1-1.21-.42,11.1,11.1,0,0,1-2.13,1.21,1.74,1.74,0,0,1,.1.19c0,.09.07.18.1.27s.05.13.07.2,0,.24,0,.3a1.64,1.64,0,0,1,0,.22,2.9,2.9,0,0,1,0,.51A2.69,2.69,0,0,1,91,60.93a3.83,3.83,0,0,0,1.42,3.22,2,2,0,0,1,.93,1.68,2,2,0,0,1-1.95,2Zm-4.86-4.71.8.11A8.46,8.46,0,0,1,87.1,62,9.65,9.65,0,0,1,86.52,63.12ZM83.31,49.39a2,2,0,0,1,.55.67A7.56,7.56,0,0,0,86,52.8a4.79,4.79,0,0,1,1.94,3.44,4.75,4.75,0,0,1,2.83-2.75,7.46,7.46,0,0,0,2.63-1.85,2,2,0,0,1,.93-.54,2,2,0,0,1,.39-1c.27-.35.54-.74.81-1.14A24.45,24.45,0,0,0,99,40.26,2,2,0,0,1,100,39v0a1.15,1.15,0,0,1,0-.19,2.41,2.41,0,0,1,.12-.67,3.22,3.22,0,0,1,.39-.76,1.93,1.93,0,0,1-.82-.68L82.46,34.18a2,2,0,0,1-1.47.43,2.83,2.83,0,0,1,.14.76,3.48,3.48,0,0,1,0,.55,2,2,0,0,1,.67,1.68,24.6,24.6,0,0,0,.93,9.49c.16.5.33,1,.5,1.43A1.86,1.86,0,0,1,83.31,49.39Zm19.08-6a28.31,28.31,0,0,1-1.83,4.8,14.7,14.7,0,0,0,4-3.53,22,22,0,0,0,2.2-3.29l-.24-.06a4.27,4.27,0,0,1-3.38,2.07l-.4,0h-.34ZM73.82,36.59A21.75,21.75,0,0,0,75,40.37a14.2,14.2,0,0,0,3.1,4.77,29,29,0,0,1-.45-5.35,1.59,1.59,0,0,1-.3-.06l-.16,0a3.23,3.23,0,0,1-.47-.15,4.29,4.29,0,0,1-2.66-2.94ZM78,35.7h0l.06-.26Z" transform="translate(0 0)" style="fill: #fff" vector-effect="non-scaling-stroke"/>
      <path d="M94.52,82.09a2.73,2.73,0,0,1-.41,0l-19.4-2.79a2.36,2.36,0,0,1-.51-.12l-.14-.06a2.21,2.21,0,0,1-.35-.16l-.11-.07a2.72,2.72,0,0,1-.41-.3l-.08-.08a3.53,3.53,0,0,1-.25-.28l-.1-.13a3,3,0,0,1-.18-.3s0-.08-.07-.13a3.05,3.05,0,0,1-.16-.45l0-.1a3,3,0,0,1,0-1.08,2.91,2.91,0,0,1,2.09-2.36,2.89,2.89,0,0,1,1.41-1.37l.75-5.23-.11-.1-.17-.18a1.81,1.81,0,0,1-.15-.19,1.13,1.13,0,0,1-.1-.13l-.1-.17a2.86,2.86,0,0,1-.35-1.83A2.89,2.89,0,0,1,78.39,62l.41,0,16.25,2.34a2.86,2.86,0,0,1,2.37,2.11,2.79,2.79,0,0,1,.06,1.15,2.88,2.88,0,0,1-1.59,2.18l-.08,0-.75,5.23a2.88,2.88,0,0,1,1,1.71,2.88,2.88,0,0,1-1.51,5.33ZM78.81,75.83l4.47.64A2,2,0,0,1,85.5,75h0l5.42.78L92.05,68,80.66,66.31,79.5,74.38a2,2,0,0,1-.69,1.24Z" transform="translate(0 0)" style="fill: #fff" vector-effect="non-scaling-stroke"/>
      <g>
        <path d="M96.06,54.35a1.44,1.44,0,0,1-.8-.41,1.54,1.54,0,0,1,1-2.67,4.93,4.93,0,0,1,.73-.05c4-.16,7.16-3,9.07-5.35A23.53,23.53,0,0,0,108.66,42a13.66,13.66,0,0,0,.81-1.78,12.85,12.85,0,0,0-1.48-.59,5.55,5.55,0,0,0-2.34-.4c-.25,0-.33.09-.85,1A2.29,2.29,0,0,1,103,41.34a2.42,2.42,0,0,1-2.57-3.15,2.52,2.52,0,0,1,1.72-1.64,2.59,2.59,0,0,1,2,.35,2,2,0,0,1,.73.8,3.41,3.41,0,0,1,.51-.15,7.66,7.66,0,0,1,3.29.5A8.5,8.5,0,0,1,111,39.19a1.1,1.1,0,0,1,.2,1.09A5.51,5.51,0,0,1,111,41c-1.26,3.2-6.19,11.55-13.85,11.86a.72.72,0,0,1,.16.25.84.84,0,0,1-.45,1.1A1.5,1.5,0,0,1,96.06,54.35Zm6.75-16.19a.65.65,0,0,0-.28,0,.86.86,0,0,0-.55.54.75.75,0,0,0,.83,1,.86.86,0,0,0,.17,0,.42.42,0,0,1-.44-.41c-.05-.47.49-.52.49-.52h0a.73.73,0,0,0,.33-.08.62.62,0,0,0,0-.18A.73.73,0,0,0,102.81,38.16Z" transform="translate(0 0)" style="fill: #f19d01" vector-effect="non-scaling-stroke"/>
        <g>
          <path d="M96.3,51.27a1.67,1.67,0,0,0-1.39.89,1.59,1.59,0,0,0,0,1.3,17.09,17.09,0,0,0,1.93-2.24C96.73,51.23,96.52,51.24,96.3,51.27Z" transform="translate(0 0)" style="fill: #df7310" vector-effect="non-scaling-stroke"/>
          <path d="M100.39,38.19a2.39,2.39,0,0,0,.48,2.34,2,2,0,0,0,.56.48,27.32,27.32,0,0,0,.55-3.73l.41.06a.82.82,0,0,0,.93-.7.22.22,0,0,0,0-.08,2.53,2.53,0,0,0-.72-.08.81.81,0,0,1-.59.17v-.08A2.58,2.58,0,0,0,100.39,38.19Z" transform="translate(0 0)" style="fill: #df7310" vector-effect="non-scaling-stroke"/>
        </g>
        <g>
          <path d="M100.33,38.58a2.52,2.52,0,0,1,1.72-1.64,2.58,2.58,0,0,1,2,.35,2.09,2.09,0,0,1,.74.8,3.27,3.27,0,0,1,.5-.15,7.66,7.66,0,0,1,3.29.5,8.36,8.36,0,0,1,2.36,1.14.91.91,0,0,1,.27.69,1.1,1.1,0,0,0-.21-1.08,8.5,8.5,0,0,0-2.36-1.14,7.66,7.66,0,0,0-3.29-.5,3.41,3.41,0,0,0-.51.15,2,2,0,0,0-.73-.8,2.59,2.59,0,0,0-2-.35,2.52,2.52,0,0,0-1.72,1.64,2.2,2.2,0,0,0-.12.61Z" transform="translate(0 0)" style="fill: #fac101" vector-effect="non-scaling-stroke"/>
          <path d="M94.85,52.55a1.7,1.7,0,0,1,1.4-.89,4.82,4.82,0,0,1,.72,0c4-.16,7.16-3,9.07-5.35a24.39,24.39,0,0,0,2.57-3.89,14.71,14.71,0,0,0,.8-1.78l-.07,0a15.17,15.17,0,0,1-.68,1.43,23.53,23.53,0,0,1-2.56,3.89c-1.91,2.35-5,5.19-9.07,5.35a4.93,4.93,0,0,0-.73.05,1.67,1.67,0,0,0-1.39.89,1.43,1.43,0,0,0-.12.58A.6.6,0,0,1,94.85,52.55Z" transform="translate(0 0)" style="fill: #fac101" vector-effect="non-scaling-stroke"/>
          <path d="M97.05,53.29a.89.89,0,0,1,.16.25,1.05,1.05,0,0,1,.06.24.85.85,0,0,0,0-.5Z" transform="translate(0 0)" style="fill: #fac101" vector-effect="non-scaling-stroke"/>
        </g>
        <g>
          <path d="M102.43,41a2.55,2.55,0,0,1-1.33-.23,2.47,2.47,0,0,0,1.86.57,2.29,2.29,0,0,0,1.84-1.11c.52-.93.6-1,.85-1a5.55,5.55,0,0,1,2.34.4c.34.11.65.23.92.34l0-.1a11.5,11.5,0,0,0-1.48-.59,5.89,5.89,0,0,0-2.34-.4c-.25,0-.32.09-.84,1A2.32,2.32,0,0,1,102.43,41Z" transform="translate(0 0)" style="fill: #df7310" vector-effect="non-scaling-stroke"/>
          <path d="M102,38.72a.86.86,0,0,1,.55-.54.65.65,0,0,1,.28,0,1.31,1.31,0,0,1,.38.14,1,1,0,0,0-.47-.21.82.82,0,0,0-.27,0,.86.86,0,0,0-.53.53.68.68,0,0,0,.11.62A.66.66,0,0,1,102,38.72Z" transform="translate(0 0)" style="fill: #df7310" vector-effect="non-scaling-stroke"/>
          <path d="M111,39.19a2.56,2.56,0,0,0-.56-.38l0,0a1.11,1.11,0,0,1,.21,1.08,5.82,5.82,0,0,1-.26.77c-1.25,3.19-6.19,11.54-13.84,11.85a1,1,0,0,1,.15.25.84.84,0,0,1-.44,1.1,1.54,1.54,0,0,1-.76.1,1.43,1.43,0,0,1-.28-.07h0a1.44,1.44,0,0,0,.8.41,1.5,1.5,0,0,0,.75-.1.84.84,0,0,0,.45-1.1.72.72,0,0,0-.16-.25c7.66-.31,12.59-8.66,13.85-11.86a5.51,5.51,0,0,0,.25-.76A1.1,1.1,0,0,0,111,39.19Z" transform="translate(0 0)" style="fill: #df7310" vector-effect="non-scaling-stroke"/>
        </g>
        <path d="M79.72,51.79a.83.83,0,0,1-.12-1.18.66.66,0,0,1,.22-.19C72.56,48,70.18,38.56,69.87,35.14a5.9,5.9,0,0,1,0-.8,1.11,1.11,0,0,1,.5-1,8.4,8.4,0,0,1,2.59-.43,7.46,7.46,0,0,1,3.3.45,2.37,2.37,0,0,1,.44.28,2.13,2.13,0,0,1,.93-.56,2.62,2.62,0,0,1,2,.23,2.55,2.55,0,0,1,1.19,2.06,2.42,2.42,0,0,1-3.35,2.3A2.29,2.29,0,0,1,76,36.09c-.24-1-.3-1.11-.52-1.22a5.71,5.71,0,0,0-2.36-.27,12.09,12.09,0,0,0-1.59.15,15.11,15.11,0,0,0,.27,1.93,23.86,23.86,0,0,0,1.37,4.46c1.17,2.79,3.36,6.39,7.19,7.69a3.79,3.79,0,0,1,.68.25,1.53,1.53,0,0,1,.25,2.85,1.37,1.37,0,0,1-.88.17A1.48,1.48,0,0,1,79.72,51.79Zm-1.82-17a.41.41,0,0,0-.06.17.76.76,0,0,0,.3.16h0s.5.2.32.64a.43.43,0,0,1-.54.27l.16.07a.76.76,0,0,0,.66,0,.78.78,0,0,0,.4-.67.87.87,0,0,0-.37-.68.62.62,0,0,0-.27-.09A.75.75,0,0,0,77.9,34.8Z" transform="translate(0 0)" style="fill: #f19d01" vector-effect="non-scaling-stroke"/>
        <g>
          <path d="M80.75,35.77a2.5,2.5,0,0,0-1.19-2.06,2.59,2.59,0,0,0-2-.23,2.11,2.11,0,0,0-.94.56,2.08,2.08,0,0,0-.44-.28,7.42,7.42,0,0,0-3.29-.45,8.35,8.35,0,0,0-2.59.43.93.93,0,0,0-.45.58,1.11,1.11,0,0,1,.5-1,8.4,8.4,0,0,1,2.59-.43,7.46,7.46,0,0,1,3.3.45,2.37,2.37,0,0,1,.44.28,2.13,2.13,0,0,1,.93-.56,2.62,2.62,0,0,1,2,.23,2.55,2.55,0,0,1,1.19,2.06,2,2,0,0,1-.06.61A.81.81,0,0,0,80.75,35.77Z" transform="translate(0 0)" style="fill: #fac101" vector-effect="non-scaling-stroke"/>
          <path d="M80.81,35.38a2.41,2.41,0,0,1-1.13,2.1,1.86,1.86,0,0,1-.67.31,29,29,0,0,1,.52-3.73l-.4-.06a.82.82,0,0,1-.7-.94.17.17,0,0,1,0-.07,2.4,2.4,0,0,1,.71.12.83.83,0,0,0,.53.33v-.07A2.55,2.55,0,0,1,80.81,35.38Z" transform="translate(0 0)" style="fill: #df7310" vector-effect="non-scaling-stroke"/>
          <path d="M82.08,50.72A1.67,1.67,0,0,0,81,49.47a3.81,3.81,0,0,0-.69-.25c-3.82-1.3-6-4.9-7.19-7.69a23.69,23.69,0,0,1-1.36-4.46,13.88,13.88,0,0,1-.28-1.93l.09,0c0,.39.11.92.24,1.56a23.86,23.86,0,0,0,1.37,4.46c1.17,2.79,3.36,6.39,7.19,7.69a3.79,3.79,0,0,1,.68.25,1.65,1.65,0,0,1,1.09,1.25,1.43,1.43,0,0,1,0,.58A1.21,1.21,0,0,0,82.08,50.72Z" transform="translate(0 0)" style="fill: #df7310" vector-effect="non-scaling-stroke"/>
          <path d="M81,49.08a1.51,1.51,0,0,1,.7,2.48,17,17,0,0,1-1.23-2.69A3.57,3.57,0,0,1,81,49.08Z" transform="translate(0 0)" style="fill: #df7310" vector-effect="non-scaling-stroke"/>
          <path d="M79.76,50.81a.77.77,0,0,0-.22.19,1,1,0,0,0-.13.22.88.88,0,0,1,.11-.5Z" transform="translate(0 0)" style="fill: #fac101" vector-effect="non-scaling-stroke"/>
        </g>
        <g>
          <path d="M78.06,37.49a2.51,2.51,0,0,0,1.34.16,2.46,2.46,0,0,1-1.94,0A2.29,2.29,0,0,1,76,36.09c-.24-1-.3-1.11-.52-1.22a5.71,5.71,0,0,0-2.36-.27,8.82,8.82,0,0,0-1,.07.41.41,0,0,1,0-.11,12.09,12.09,0,0,1,1.59-.15,5.82,5.82,0,0,1,2.36.28c.22.11.29.17.52,1.22A2.28,2.28,0,0,0,78.06,37.49Z" transform="translate(0 0)" style="fill: #df7310" vector-effect="non-scaling-stroke"/>
          <path d="M79.13,35.44a.87.87,0,0,0-.37-.68.62.62,0,0,0-.27-.09,1,1,0,0,0-.4,0,.87.87,0,0,1,.51-.07.79.79,0,0,1,.26.08.87.87,0,0,1,.36.66.71.71,0,0,1-.28.56A.68.68,0,0,0,79.13,35.44Z" transform="translate(0 0)" style="fill: #df7310" vector-effect="non-scaling-stroke"/>
          <path d="M70.34,33.35a2.75,2.75,0,0,1,.65-.21l0,0a1.09,1.09,0,0,0-.5,1,6.09,6.09,0,0,0,0,.81c.3,3.42,2.68,12.82,9.94,15.27a.79.79,0,0,0-.22.19.84.84,0,0,0,.12,1.18,1.38,1.38,0,0,0,.7.31.93.93,0,0,0,.29,0h0a1.37,1.37,0,0,1-.88.17,1.48,1.48,0,0,1-.69-.31.83.83,0,0,1-.12-1.18.66.66,0,0,1,.22-.19C72.56,48,70.18,38.56,69.87,35.14a5.9,5.9,0,0,1,0-.8A1.11,1.11,0,0,1,70.34,33.35Z" transform="translate(0 0)" style="fill: #fac101" vector-effect="non-scaling-stroke"/>
        </g>
        <polygon points="81.68 32.05 91.34 33.44 101 34.83 101.64 36.35 91.14 34.84 80.64 33.33 81.68 32.05" style="fill: #ffe671" vector-effect="non-scaling-stroke"/>
        <polygon points="101 34.83 98.65 34.49 99.29 36.01 88.79 34.51 80.64 33.33 80.64 33.33 91.14 34.84 101.64 36.35 101 34.83" style="fill: #e4c842" vector-effect="non-scaling-stroke"/>
        <path d="M101.54,36.38,91,34.87,80.44,33.35a27.66,27.66,0,0,0,.35,14.34c2.83,8.93,5.79,5.09,5.06,10.81,0,0,1.66-.3,1.73.09.18-.35,1.69.4,1.69.4.91-5.7,2.67-1.17,7.9-9A27.68,27.68,0,0,0,101.54,36.38Z" transform="translate(0 0)" style="fill: #f5c42c" vector-effect="non-scaling-stroke"/>
        <path d="M81.6,47.81a27.6,27.6,0,0,1-.34-14.34l-.82-.12a27.66,27.66,0,0,0,.35,14.34c2.83,8.93,5.79,5.09,5.06,10.81,0,0-.41-.09,0-.12C86.49,53,84.39,56.62,81.6,47.81Z" transform="translate(0 0)" style="fill: #f7dc8d" vector-effect="non-scaling-stroke"/>
        <path d="M101.54,36.38,98.78,36c-.15,2-.12,7.82-3.6,13-5.23,7.77-6,3.47-6.85,9.17,0,0-1.88-.64-2.38-.71,0,.31,0,.65-.1,1,0,0,1.66-.3,1.73.09.18-.35,1.69.4,1.69.4.91-5.7,2.67-1.17,7.9-9A27.68,27.68,0,0,0,101.54,36.38Z" transform="translate(0 0)" style="fill: #f19d01" vector-effect="non-scaling-stroke"/>
        <path d="M102.13,35.63l-11-1.58-11-1.59a.84.84,0,0,0-.94.71.82.82,0,0,0,.71.93l11,1.59,11,1.58a.83.83,0,1,0,.23-1.64Z" transform="translate(0 0)" style="fill: #f5c42c" vector-effect="non-scaling-stroke"/>
        <path d="M102.45,35.75s0,.08,0,.12a.82.82,0,0,1-.94.7L90.47,35l-11-1.58a.77.77,0,0,1-.31-.12.83.83,0,0,0,.71.81l11,1.59,11,1.58a.82.82,0,0,0,.55-1.52Z" transform="translate(0 0)" style="fill: #f19d01" vector-effect="non-scaling-stroke"/>
        <path d="M90.2,57.75,88,57.42l-.21,0L85.31,57a.69.69,0,0,0-.19,1.36l2.44.35.2,0L90,59.1a.69.69,0,0,0,.77-.58A.67.67,0,0,0,90.2,57.75Z" transform="translate(0 0)" style="fill: #f5c42c" vector-effect="non-scaling-stroke"/>
        <path d="M90.28,57.76a.71.71,0,0,1,.09.46.69.69,0,0,1-.77.58l-2.24-.32-.21,0-2.44-.35-.08,0a.71.71,0,0,0,.49.32l2.44.35.2,0L90,59.1a.69.69,0,0,0,.77-.58A.68.68,0,0,0,90.28,57.76Z" transform="translate(0 0)" style="fill: #f19d01" vector-effect="non-scaling-stroke"/>
        <path d="M89.27,59l-1.48-.21-.23,0-1.71-.25s-.06,4.66-3.95,6l4.74.68.23,0,4.5.65C88,63.48,89.27,59,89.27,59Z" transform="translate(0 0)" style="fill: #f5c42c" vector-effect="non-scaling-stroke"/>
        <path d="M89.27,59l-.85-.12s-1.25,4.49,2.11,6.84l.84.12C88,63.48,89.27,59,89.27,59Z" transform="translate(0 0)" style="fill: #f19d01" vector-effect="non-scaling-stroke"/>
        <g>
          <path d="M94.76,66.32l-7.85-1.13-.27,0L78.51,64a.88.88,0,1,0-.25,1.74l8.13,1.17.26,0,7.86,1.13a.88.88,0,0,0,.25-1.75Z" transform="translate(0 0)" style="fill: #956046" vector-effect="non-scaling-stroke"/>
          <path d="M94.76,66.32l-.13,0a.94.94,0,0,1,.14.62.88.88,0,0,1-1,.74l-7.86-1.13-.27,0-8-1.15a.87.87,0,0,0,.61.38l8.13,1.17.26,0,7.86,1.13a.88.88,0,0,0,.25-1.75Z" transform="translate(0 0)" style="fill: #80503b" vector-effect="non-scaling-stroke"/>
          <polygon points="86.66 66.94 86.39 66.9 78.72 65.8 77.33 75.46 85 76.56 85.27 76.6 92.67 77.66 94.06 68 86.66 66.94" style="fill: #956046" vector-effect="non-scaling-stroke"/>
          <polygon points="93.45 67.92 92.3 75.98 85.18 74.95 84.93 74.92 77.56 73.86 77.33 75.46 85 76.56 85.27 76.6 92.67 77.66 94.06 68 93.45 67.92" style="fill: #80503b" vector-effect="non-scaling-stroke"/>
          <path d="M93.32,76.37l-7.86-1.13-.27,0L77.07,74a.88.88,0,0,0-.25,1.75l8.12,1.16.27,0,7.86,1.13a.88.88,0,1,0,.25-1.74Z" transform="translate(0 0)" style="fill: #956046" vector-effect="non-scaling-stroke"/>
          <path d="M94.64,78.34,85.21,77l-.27,0-9.7-1.39A.88.88,0,0,0,75,77.3l9.7,1.39.27,0,9.43,1.35a.88.88,0,1,0,.25-1.74Z" transform="translate(0 0)" style="fill: #956046" vector-effect="non-scaling-stroke"/>
          <path d="M94.64,78.34h0a.88.88,0,0,1-1,1.1l-9.43-1.35-.27,0-9.7-1.39a.9.9,0,0,0,.72.64l9.7,1.39.27,0,9.43,1.35a.88.88,0,1,0,.25-1.74Z" transform="translate(0 0)" style="fill: #80503b" vector-effect="non-scaling-stroke"/>
          <path d="M93.32,76.37h0a.86.86,0,0,1,0,.36.88.88,0,0,1-1,.74l-7.85-1.13-.27,0-8.13-1.17a.88.88,0,0,0,.73.64l8.12,1.16.27,0,7.86,1.13a.88.88,0,1,0,.25-1.74Z" transform="translate(0 0)" style="fill: #80503b" vector-effect="non-scaling-stroke"/>
        </g>
        <rect x="82.23" y="65.28" width="7.23" height="11.24" rx="0.34" ry="0.34" transform="translate(3.46 145.79) rotate(-81.82)" style="fill: #f5c42c" vector-effect="non-scaling-stroke"/>
        <path d="M79.88,73.46l.93-6.5a.34.34,0,0,1,.38-.28l10.46,1.5a.37.37,0,0,1,.22.12.34.34,0,0,0-.28-.23l-10.46-1.5a.34.34,0,0,0-.38.28l-.93,6.5a.37.37,0,0,0,.07.25A.32.32,0,0,1,79.88,73.46Z" transform="translate(0 0)" style="fill: #f7dc8d" vector-effect="non-scaling-stroke"/>
        <path d="M91.71,68.11a.11.11,0,0,1,0,.08l-.93,6.49a.34.34,0,0,1-.38.29L79.94,73.46a.28.28,0,0,1-.12,0,.35.35,0,0,0,.29.31l10.45,1.5a.33.33,0,0,0,.38-.29l.94-6.49A.34.34,0,0,0,91.71,68.11Z" transform="translate(0 0)" style="fill: #f19d01" vector-effect="non-scaling-stroke"/>
      </g>
    </g>
    <g>
      <path d="M142.89,118.66h-.19a1.67,1.67,0,0,1-1.34-1h0v0a1.67,1.67,0,0,1,2.77-1.78,1.76,1.76,0,0,1,.45,1.15A1.67,1.67,0,0,1,142.89,118.66Z" transform="translate(0 0)" style="fill: #fff" vector-effect="non-scaling-stroke"/>
      <path d="M168,143.84a2.91,2.91,0,0,1-2.85-1.12c-1.2-1.72-.29-3.66.5-5.37.16-.34.33-.69.47-1a6.63,6.63,0,0,0,.57-2.27c-1.37-1.36-4.14-4.12-6.76-6.85-6.38-6.64-6.51-7.42-6.63-8.11a28.85,28.85,0,0,1-.35-3.22c-.94,2.69-1.75,4.77-2.41,6.19-2.05,4.37-8.35,11.35-10.94,14.14l0,.31a1.77,1.77,0,0,1-.08.31,6.12,6.12,0,0,0-.07,2.36c0,.36.11.73.17,1.09.31,1.83.66,3.91-.93,5.24a2.53,2.53,0,0,1-1.42.57c-2.51.2-6.19-3-6.66-6.6-.12-.91-.2-1.43-.26-1.73l-.11-.07c-1.58-1-1.1-3.2-.92-3.84a1.76,1.76,0,0,1,.64-.92,20.89,20.89,0,0,1,3.93-2.35l.15,0a24.67,24.67,0,0,0,3-5l0,0,.11-.26c.05-.13.12-.29.21-.49s.28-.61.44-.92l0-.08a12.26,12.26,0,0,1,.67-1.21c.08-.13.17-.26.28-.41l.05-.06a3.54,3.54,0,0,1,.25-.34l.24-.29.06-.06.27-.29c.42-.46.81-.87,1.18-1.26l.15-.15c.14-.14.28-.28.39-.41a2.36,2.36,0,0,0,.16-.21,2.28,2.28,0,0,0,0-.26c0-.23,0-.48,0-.81,0-.63,0-1.25-.07-1.78l-.08-1.36a48,48,0,0,1,0-7.5c.21-2.26.42-3.63.55-4.33a1.78,1.78,0,0,1,.07-.39.35.35,0,0,0,0-.1,14.33,14.33,0,0,1,.58-1.9,42.51,42.51,0,0,0,1.21-6.18c.11-.76.24-1.63.4-2.64,0-.12,0-.37.05-.71l.06-.84c0-.35,0-.69,0-1s0-.7-.07-1.12l-.06-.35a4,4,0,0,1-1.39,1.15A32,32,0,0,1,132,91.55l-.29,0a8.4,8.4,0,0,1-1.93,1.22,9,9,0,0,1-3.12.94,5.84,5.84,0,0,1-1.11,0c-2.15,0-4-2.09-4.5-5-.43-2.65.46-5,2.21-6a3.44,3.44,0,0,1,.55-.39,2,2,0,0,1,.15-.33,1.52,1.52,0,0,1,.25-.37h0l.16-.19,0,0,.25-.24a3.25,3.25,0,0,1,1.84-.72,3.91,3.91,0,0,1,1.61.28,4.51,4.51,0,0,1,1.21.75,5.36,5.36,0,0,1,.54.56l.11.13h0c.16.18.34.35.51.52l.47.46a4.17,4.17,0,0,1,.35.4,48.79,48.79,0,0,0,6.13-1.35,9.14,9.14,0,0,0,1.3-3.18,25.43,25.43,0,0,1,.89-3.89,12.25,12.25,0,0,1-9.18-6.86,1.76,1.76,0,0,1-3,1c-.3-.3-.6-.61-.89-.92-10.06-9.93-10.93-24.39-2.12-35.17a17.3,17.3,0,0,1,3.26-3.06,22.14,22.14,0,0,1,9.8-7.1,29.37,29.37,0,0,1,7.42-1.72l.37,0h0a11.14,11.14,0,0,1,6.81-2.89,7.67,7.67,0,0,1,3.89.65,11,11,0,0,1,2,.16c4.22.73,7.83,3.8,10.72,9.14.58,1.08,1.11,2.18,1.57,3.27l.16-.07a6.43,6.43,0,0,1,2.53-.73,6.84,6.84,0,0,1,1.69.06l.3.05h0l.43.1.09,0a6,6,0,0,1,4.09,3.54c.55,1.43.78,3.83-1.27,7.13-.15.23-.3.47-.45.69-1.67,18-7.5,27.51-12.29,32.4-.16,1.71-.6,5.82-1.07,9.5-.25,1.89,1,4.28,2.4,6.81a33.31,33.31,0,0,1,2.77,6.06,13.83,13.83,0,0,1,.51,3.08,2.8,2.8,0,0,1-.09.58c-.36,5.74-3.83,11.66-4,11.91a1.77,1.77,0,0,1-.37.44l-.69,1.38,0,0c-.15.29-.31.55-.45.77a2.39,2.39,0,0,0-.13.21,4.41,4.41,0,0,0-.63,1.3,1.06,1.06,0,0,0,0,.35,1.68,1.68,0,0,0,.16.44,4,4,0,0,0,.95,1.14l.61.58.19.18a9.2,9.2,0,0,1,.7.74l.47.55.05.06.25.33.09.11v0l.18.23c.14.19.3.4.45.63l.49.75a.21.21,0,0,1,0,.06l.45.72.51.86.26.43.24.39c.12.2.23.38.33.53l.51.79a13.69,13.69,0,0,0,1.94,2.11,2.57,2.57,0,0,1,1.18.46,21.36,21.36,0,0,1,3.22,3.38,1.69,1.69,0,0,1,.37,1.06c0,.67-.11,2.91-1.92,3.49l-.14.05c-.14.27-.36.77-.73,1.64A8.6,8.6,0,0,1,168,143.84Zm2.2-9.8a9.9,9.9,0,0,1-.85,3.65c-.17.4-.35.78-.52,1.15a14.63,14.63,0,0,0-.61,1.41,5.19,5.19,0,0,0,3.23-2.62c.82-2,1.27-3,2.28-3.48a16.17,16.17,0,0,0-1.66-1.74A1.74,1.74,0,0,1,171,132a16.34,16.34,0,0,1-3.06-3.19l-.06-.08-.54-.83c-.12-.18-.25-.4-.4-.64l-.23-.38-.28-.47c-.15-.25-.31-.52-.49-.8l-.43-.71-.49-.74,0,0c-.07-.12-.18-.26-.29-.41a2.83,2.83,0,0,1-.2-.28l-.09-.11-.15-.21-.46-.52a4.86,4.86,0,0,0-.42-.45l0,0-.22-.22c-.17-.17-.34-.34-.52-.49a8,8,0,0,1-1.7-2.11,5.09,5.09,0,0,1-.51-1.51,4.56,4.56,0,0,1,.05-1.64,7.44,7.44,0,0,1,1.08-2.42l.15-.23c.11-.18.22-.36.3-.51l.93-1.86a1.62,1.62,0,0,1,.49-.61c.77-1.41,3.07-6,3.26-10.08a.86.86,0,0,0,0-.15,2.07,2.07,0,0,1,0-.5,11.64,11.64,0,0,0-.31-1.58,31,31,0,0,0-2.5-5.42c-1.64-3-3.19-5.92-2.8-8.93.56-4.3,1.06-9.24,1.1-9.92a1.72,1.72,0,0,1,.53-1.17c4.41-4.29,10-13,11.68-30.23a1.77,1.77,0,0,1,.25-1.57,13.35,13.35,0,0,0,.75-1.11c1-1.61,1.35-3,1-4a2.61,2.61,0,0,0-1.75-1.43l-.06,0h0l-.18,0h0l-.13,0h0a3.45,3.45,0,0,0-2,.3l-.17.08a3.85,3.85,0,0,0-1.22.83,1.76,1.76,0,0,1-2.94-.64,31.63,31.63,0,0,0-2.15-4.9c-2.35-4.33-5.11-6.81-8.22-7.34a7.49,7.49,0,0,0-1.71-.11,1.73,1.73,0,0,1-.92-.21,4,4,0,0,0-2.36-.45,7.62,7.62,0,0,0-4.65,1.9c-.12.11-.22.23-.32.34a1.75,1.75,0,0,1-1.29.63l-.94,0a26.19,26.19,0,0,0-6.53,1.53,18.84,18.84,0,0,0-8.39,6.18,1.83,1.83,0,0,1-.35.33,14,14,0,0,0-1.84,1.55,1.77,1.77,0,0,1-.11,1.52,1.43,1.43,0,0,1-.15.22h0l-.08.1h0l-.06.06-.07.11,0,.06-.15.19-.08.11-.09.13-.15.2-.1.13a.8.8,0,0,1-.09.14l-.11.17a1.71,1.71,0,0,1-.11.14l-.07.13h0l0,0h0l-.08.12-.12.16a1.62,1.62,0,0,1-.1.18l-.06.1-.13.18a1.74,1.74,0,0,1-.1.19l0,.08c0,.07-.09.13-.13.19l-.1.21,0,0-.13.2a2.72,2.72,0,0,1-.11.25,1.78,1.78,0,0,1-1.6.93A21.61,21.61,0,0,0,122,51a1.76,1.76,0,0,1,.94,1.39v.05h0s0,.08,0,.12,0,.1,0,.14l0,.26v.06s0,.06,0,.09,0,.25,0,.37v.06h0a22.72,22.72,0,0,0,3.26,8.76,22.7,22.7,0,0,1,.7-5.08,1.76,1.76,0,0,1,3.41,0,43.13,43.13,0,0,0,2.92,9.07c1.5,2.94,3.38,5,7.66,5.52a7.46,7.46,0,0,0,1.08,0,1.77,1.77,0,0,1,1.7,1.19,1.7,1.7,0,0,1-.13,1.46,15.5,15.5,0,0,0-1.47,5.08A12.71,12.71,0,0,1,140,84.77l0,0a.76.76,0,0,0-.08.11,1.41,1.41,0,0,1-.55.43l-.24.09c-.45.17-1.21.38-2.61.73a46.47,46.47,0,0,1-5.77,1.09,1.79,1.79,0,0,1-1.5-.56.92.92,0,0,0-.13-.14,1.77,1.77,0,0,1-.55-.77l-.1-.12-.38-.37c-.19-.18-.41-.39-.62-.62l-.26-.28a.67.67,0,0,0-.13-.15,1.69,1.69,0,0,1-.27.49,1.74,1.74,0,0,1-1.16.67l-.11.09a1.79,1.79,0,0,1-.59.39,3.54,3.54,0,0,0,.72,4.32,1.83,1.83,0,0,1,.33,0,4.64,4.64,0,0,0,2.33-.59,4.41,4.41,0,0,0,1.37-.93,1.71,1.71,0,0,1,1.21-.58l.85-.06a28.68,28.68,0,0,0,9.51-2.37,9,9,0,0,0,1.59-2.31,1.78,1.78,0,0,1,1.36-.88h0a1.75,1.75,0,0,1,1.48.61c.25.3.48.6.68.89l0,0a8.77,8.77,0,0,1,.88,1.76,9.41,9.41,0,0,1,.42,1.76s0,0,0,.08a14.14,14.14,0,0,1,.09,1.52c0,.43,0,.82,0,1.21v0l-.06.88v0c0,.45-.06.71-.06.72a1,1,0,0,1,0,.17c-.16,1-.29,1.89-.4,2.67a44.4,44.4,0,0,1-1.33,6.7.84.84,0,0,1-.05.17,9.37,9.37,0,0,0-.45,1.48l0,.12v0c-.08.45-.31,1.76-.54,4.21a42.87,42.87,0,0,0,.06,6.87v.07L145,116c0,.56.07,1.23.08,1.91,0,.4,0,.73,0,1a5.67,5.67,0,0,1-.05.58.17.17,0,0,1,0,.07v0c0,.07,0,.16-.05.27a3.68,3.68,0,0,1-.18.53,4.42,4.42,0,0,1-.75,1.13c-.17.2-.34.37-.51.55l-.14.15c-.37.37-.73.76-1.13,1.2l-.25.26-.22.27,0,0,0,0-.11.15a1,1,0,0,0-.1.15l0,.06a7.2,7.2,0,0,0-.49.9l0,0c-.13.26-.26.53-.38.82s-.14.3-.18.41l-.15.35,0,.07a26.69,26.69,0,0,1-3.93,6.35,1.76,1.76,0,0,1-1.33.61,16.67,16.67,0,0,0-2.07,1.22c.81.68,1,1.83,1.22,3.87a5,5,0,0,0,2.29,3.25c0-.44-.14-1-.21-1.42s-.13-.79-.19-1.21a9.75,9.75,0,0,1,.15-3.68v0a1.73,1.73,0,0,1,.44-1.58c1.45-1.54,8.8-9.45,10.85-13.79a70,70,0,0,0,2.64-7,1.78,1.78,0,0,1,1.47-1.18c1-.1,1.94-.23,2.92-.36a1.75,1.75,0,0,1,1.39.41,1.74,1.74,0,0,1,.61,1.32,27.36,27.36,0,0,0,.33,4.53c.77,1.32,6.19,7.08,13.06,13.86A1.76,1.76,0,0,1,170.22,134Zm-28.73-14.93a.52.52,0,0,1,0,.11A.52.52,0,0,0,141.49,119.11Zm.14-.34a.67.67,0,0,0-.06.12Zm19.42-50.49a1.76,1.76,0,0,1-1.32-.44l-.06,0,0,0,0,0-.24-.15,0,0-.21-.11,0,0-.23-.11h0a6.46,6.46,0,0,0-1.05-.34,1.74,1.74,0,0,1-1.29-1.17,1.76,1.76,0,0,1,.37-1.71,11.52,11.52,0,0,0,2.24-3.42,13.14,13.14,0,0,0,.41-1.25,1.75,1.75,0,0,1,2.24-1.16l0-.16a1.42,1.42,0,0,1,.12-.4,29.71,29.71,0,0,0,1.12-3.2.14.14,0,0,1,0-.07c.18-.64.34-1.29.49-2a1.76,1.76,0,0,1,1.44-1.35,1.74,1.74,0,0,1,1.78.85c.47.8,1,1.58,1.47,2.33l.09.17a9.91,9.91,0,0,1,.57,1.29,1.77,1.77,0,0,1,0,1.28l-.36.83-.42.91-.18.41,0,.05-.2.41c-.15.3-.3.62-.47.93s-.43.81-.74,1.34c-.21.36-.42.71-.63,1l-.12.2,0,0-.21.33c-.17.27-.34.55-.52.81-.29.44-.52.76-.74,1l-.29.41,0,.06-.33.41c-.18.22-.36.44-.54.63l-.26.29a2.09,2.09,0,0,1-.23.29l-.38.36A1.73,1.73,0,0,1,161.05,68.28Zm10-23.14h-.3a1.75,1.75,0,0,1-1.6-1.72c0-.64,0-1.27-.08-1.88A1.75,1.75,0,0,1,171.89,40l.32.22a1.72,1.72,0,0,1,.73,1A1.86,1.86,0,0,1,173,42c0,.12-.12.77-.31,1.77A1.75,1.75,0,0,1,171.1,45.14Z" transform="translate(0 0)" style="fill: #fff" vector-effect="non-scaling-stroke"/>
      <path d="M141,94.36a.91.91,0,0,1,.91.92v1a.9.9,0,0,1-.91.9h0a.91.91,0,0,1-.91-.91v-1a.91.91,0,0,1,.91-.91Z" transform="translate(0 0)" style="fill: #fff" vector-effect="non-scaling-stroke"/>
      <path d="M140.15,80.23V91.47a.9.9,0,0,0,.9.91.91.91,0,0,0,.92-.9V80.23Z" transform="translate(0 0)" style="fill: #fff" vector-effect="non-scaling-stroke"/>
      <path d="M134.42,102.21a.93.93,0,0,0-.91.92v1a.91.91,0,0,0,.92.91h0a.91.91,0,0,0,.9-.92v-1a.93.93,0,0,0-.92-.91Z" transform="translate(0 0)" style="fill: #fff" vector-effect="non-scaling-stroke"/>
      <path d="M129.85,85.52l0,12a.91.91,0,0,0,1.82,0V86.08A5,5,0,0,1,129.85,85.52Z" transform="translate(0 0)" style="fill: #fff" vector-effect="non-scaling-stroke"/>
      <path d="M133.45,85.72l0,13.61a.91.91,0,1,0,1.82,0l0-13.6Z" transform="translate(0 0)" style="fill: #fff" vector-effect="non-scaling-stroke"/>
      <path d="M144.27,142.76a.9.9,0,0,0-.9.92v1a.9.9,0,0,0,.92.9h0a.9.9,0,0,0,.9-.91v-1a.92.92,0,0,0-.92-.91Z" transform="translate(0 0)" style="fill: #fff" vector-effect="non-scaling-stroke"/>
      <path d="M144.48,120.8a4.34,4.34,0,0,0,.63,0l0,19.12a.91.91,0,1,1-1.82,0l0-19.08Z" transform="translate(0 0)" style="fill: #fff" vector-effect="non-scaling-stroke"/>
      <path d="M162.49,137a.9.9,0,0,1,.9.91v1a.9.9,0,0,1-.91.9h0a.92.92,0,0,1-.91-.92v-1a.9.9,0,0,1,.92-.9Z" transform="translate(0 0)" style="fill: #fff" vector-effect="non-scaling-stroke"/>
      <path d="M162.28,115a4.48,4.48,0,0,1-.64,0l0,19.12a.91.91,0,0,0,1.82,0l0-19.08Z" transform="translate(0 0)" style="fill: #fff" vector-effect="non-scaling-stroke"/>
      <path d="M158.94,129.13a.91.91,0,0,1,.91.91v1a.9.9,0,0,1-.92.9h0a.9.9,0,0,1-.9-.91v-1a.91.91,0,0,1,.92-.9Z" transform="translate(0 0)" style="fill: #fff" vector-effect="non-scaling-stroke"/>
      <path d="M158.09,119.33v7.41a.91.91,0,1,0,1.82,0v-7A5,5,0,0,1,158.09,119.33Z" transform="translate(0 0)" style="fill: #fff" vector-effect="non-scaling-stroke"/>
      <path d="M173.19,48.46a4.46,4.46,0,0,1-.63-.05l0,19.11a.91.91,0,1,0,1.82,0l0-19.07Z" transform="translate(0 0)" style="fill: #fff" vector-effect="non-scaling-stroke"/>
      <path d="M169.1,81.24a.92.92,0,0,1,.91.92v1a.91.91,0,0,1-.91.91h0a.93.93,0,0,1-.91-.92v-1a.91.91,0,0,1,.91-.91Z" transform="translate(0 0)" style="fill: #fff" vector-effect="non-scaling-stroke"/>
      <path d="M168.9,59.28a4.48,4.48,0,0,1-.64-.05l0,19.12a.91.91,0,0,0,.9.92.93.93,0,0,0,.92-.91l0-19.08Z" transform="translate(0 0)" style="fill: #fff" vector-effect="non-scaling-stroke"/>
      <g>
        <g>
          <path d="M142.63,73s-1.35,1.21-2.17,6.37a11.12,11.12,0,0,1-1.92,4.39,47.76,47.76,0,0,1-8.73,1.81s.93,2.63-.59,4.33A31.82,31.82,0,0,0,142,87.25c1.83-.85,5.46-9.52,5.46-9.52S143.64,71.44,142.63,73Z" transform="translate(0 0)" style="fill: #32345b" vector-effect="non-scaling-stroke"/>
          <path d="M139.74,83.67l.18,0,.16,0-.16,0-.19,0a1.77,1.77,0,0,0-.24,0l-.29,0c-.1,0-.2,0-.3,0a2.85,2.85,0,0,0,.26-.17l.13-.1.13-.12a1.86,1.86,0,0,0,.19-.22l.17-.23a5,5,0,0,1-1.24,1h0s-.84.29-2.11.67h0l.57-.14,1.25-.31c.23-.07.46-.11.67-.17l.58-.12Z" transform="translate(0 0)" style="fill: #222239" vector-effect="non-scaling-stroke"/>
        </g>
        <g>
          <path d="M130.21,85.2s-2.77-1.8-4.86-1.53c-1.36.17-2.45,2.25-2.26,4.26.24,2.55,1.28,5.5,5.95,3.28C134.23,88.74,130.21,85.2,130.21,85.2Z" transform="translate(0 0)" style="fill: #fde1bd" vector-effect="non-scaling-stroke"/>
          <path d="M128.39,83.3a1.92,1.92,0,0,0-2.56-.62c-.65.56-.49,1.45.27,2.34a3.11,3.11,0,0,0,3.91.61C130.67,85.07,129.15,84.2,128.39,83.3Z" transform="translate(0 0)" style="fill: #fde1bd" vector-effect="non-scaling-stroke"/>
          <path d="M130,85.63l.06-.08a.34.34,0,0,0,.07-.25.69.69,0,0,0-.17-.36,3.59,3.59,0,0,0-.39-.39c-.3-.28-.68-.56-1.05-.93-.19-.18-.36-.4-.55-.55a2.2,2.2,0,0,0-.65-.4,1.77,1.77,0,0,0-.74-.14,1.14,1.14,0,0,0-.66.23l-.13.12c0,.05-.07.08-.1.13a.79.79,0,0,0-.12.3,1.25,1.25,0,0,0,0,.61,3.13,3.13,0,0,0,.39.89,2.33,2.33,0,0,0,.15.23l0,.08-.06-.07-.19-.21a2.89,2.89,0,0,1-.49-.88,1.55,1.55,0,0,1-.07-.69,1.26,1.26,0,0,1,.13-.37,1.13,1.13,0,0,1,.12-.18,1,1,0,0,1,.15-.14,1.41,1.41,0,0,1,.79-.31,2,2,0,0,1,.85.16,2.29,2.29,0,0,1,.73.45,5.72,5.72,0,0,1,.54.58c.35.36.71.68,1,1a2.68,2.68,0,0,1,.36.44.7.7,0,0,1,.15.42.33.33,0,0,1-.11.26Z" transform="translate(0 0)" style="fill: #de9e7a" vector-effect="non-scaling-stroke"/>
          <path d="M124.58,84.16c-1.34.22-2.14,2.14-1.79,4.29s1.74,3.71,3.08,3.49a3.2,3.2,0,0,0,2.35-1.68c.46-1.27-.08-3.22-.27-4.39C127.59,83.73,125.93,83.93,124.58,84.16Z" transform="translate(0 0)" style="fill: #fde1bd" vector-effect="non-scaling-stroke"/>
          <path d="M125.87,91.92l.13,0,.36-.1a3.85,3.85,0,0,0,1.15-.65,2.32,2.32,0,0,0,.54-.68,1.36,1.36,0,0,0,.1-.21,2,2,0,0,1,.07-.23,3.85,3.85,0,0,0,.08-.49,8.31,8.31,0,0,0-.17-2.14c-.07-.36-.15-.72-.23-1.07,0-.18-.07-.37-.11-.53l-.05-.26-.09-.23a1.78,1.78,0,0,0-.5-.76,1.54,1.54,0,0,0-.75-.36,4.64,4.64,0,0,0-1.31-.05l-.5,0v0l.5-.11c.16,0,.36-.06.58-.08a4.18,4.18,0,0,1,.78,0,2,2,0,0,1,.87.37,2,2,0,0,1,.6.87l.09.26.05.26c0,.19.06.36.1.54.06.36.13.72.18,1.09a8.06,8.06,0,0,1,.12,2.18,2.32,2.32,0,0,1-.88,1.67,3.82,3.82,0,0,1-1.2.62,2.06,2.06,0,0,1-.36.09l-.13,0Z" transform="translate(0 0)" style="fill: #de9e7a" vector-effect="non-scaling-stroke"/>
        </g>
        <g>
          <path d="M147.11,120.4h0v0Z" transform="translate(0 0)" style="fill: #19323f" vector-effect="non-scaling-stroke"/>
          <path d="M143.29,114.65a90.51,90.51,0,0,0,21.35-2.77s.24-.75-.82-2.41S144,105.81,143.29,114.65Z" transform="translate(0 0)" style="fill: #222239" vector-effect="non-scaling-stroke"/>
          <path d="M137.85,136.24a7.35,7.35,0,0,0-.15,3.17c.26,2,.87,3.9-.15,4.75s-4.79-1.65-5.21-4.91-.53-2.62-1.15-3-.19-1.89-.19-1.89a20.34,20.34,0,0,1,3.51-2.12C135.6,131.78,138.09,134.66,137.85,136.24Z" transform="translate(0 0)" style="fill: #383432" vector-effect="non-scaling-stroke"/>
          <path d="M168.46,133.84a7.38,7.38,0,0,1-.71,3.17c-.8,1.88-1.92,3.6-1.14,4.72s5.17-.33,6.47-3.42,1.23-2.45,2-2.68.7-1.82.7-1.82a20.62,20.62,0,0,0-2.89-3C171.9,130.06,168.66,132.22,168.46,133.84Z" transform="translate(0 0)" style="fill: #383432" vector-effect="non-scaling-stroke"/>
          <g>
            <path d="M154.86,104s-3.54,12.28-5.89,17.27c-2.43,5.17-11.53,14.64-11.53,14.64s-3.19-.61-2.91-3.32c3.58-3.86,4.25-7.95,6.22-10s2.26-2.19,2.58-2.92c.45-1-.28-6.8-.2-9,0-.9.06-1.81.15-2.71a29.39,29.39,0,0,1,1.88-5.27" transform="translate(0 0)" style="fill: #fde1bd" vector-effect="non-scaling-stroke"/>
            <path d="M138.6,126.22l.08-.21c.06-.13.14-.33.26-.58s.24-.54.41-.89a11,11,0,0,1,.62-1.12c.06-.1.13-.2.2-.3s.14-.2.23-.3l.25-.3.27-.29c.36-.39.74-.81,1.15-1.22.2-.21.41-.42.6-.64a2.58,2.58,0,0,0,.47-.71,1.46,1.46,0,0,0,.07-.19l0-.2c0-.15,0-.3,0-.45s0-.61,0-.92c0-.61,0-1.23-.08-1.84s-.07-1.21-.1-1.79c-.06-1.16-.12-2.25-.1-3.19,0-.47.06-.9.08-1.27s.06-.71.09-1c.06-.54.1-.85.1-.85s0,.31,0,.85c0,.27,0,.6,0,1s0,.81,0,1.27c0,.92.12,2,.21,3.17.05.58.1,1.18.14,1.79s.07,1.23.09,1.86c0,.31,0,.62,0,.94a3.88,3.88,0,0,1,0,.48,1.23,1.23,0,0,1-.05.25,1,1,0,0,1,0,.12l0,.06h0l0,0-.1.22-.13.2a3.79,3.79,0,0,1-.31.37c-.2.23-.42.43-.62.64l-1.19,1.18-.28.28c-.08.1-.17.19-.25.28s-.15.19-.23.28-.15.19-.21.28l-.19.28-.17.28a5.81,5.81,0,0,0-.31.51c-.19.33-.35.62-.48.86Z" transform="translate(0 0)" style="fill: #de9e7a" vector-effect="non-scaling-stroke"/>
            <path d="M153.82,103.81a1.51,1.51,0,0,1,1.35.13c-.08,4.53-1,9.61-.12,14.85.27,1.61,13.77,14.89,13.77,14.89s2.14-.05,3.56-2.8c-4.21-3.16-4.82-7.21-8.61-10.5-3.53-3.08-1.14-5.19-.34-6.73,2-3.79,4.61-8.7,4.91-13a8.85,8.85,0,0,0-2.42-6.42c-3.06-3.52-19.2-2.74-21.21,6" transform="translate(0 0)" style="fill: #fde1bd" vector-effect="non-scaling-stroke"/>
            <path d="M169.35,127.81l-.6-.8c-.2-.25-.41-.58-.67-.94l-.83-1.24-.48-.71-.52-.74c-.18-.26-.39-.5-.59-.75l-.31-.39-.33-.37a18.84,18.84,0,0,0-1.49-1.47,6.28,6.28,0,0,1-1.42-1.72,3.18,3.18,0,0,1-.36-1.09,2.91,2.91,0,0,1,0-1.14,5.86,5.86,0,0,1,.92-2c.19-.29.38-.56.54-.84s.31-.57.45-.85l.84-1.55.19-.35.18-.34.32-.63c.2-.4.38-.74.53-1l.46-.89-.4.92-.46,1c-.19.4-.37.87-.62,1.36l-.79,1.58-.43.87c-.16.3-.35.58-.52.87a5.56,5.56,0,0,0-.85,1.85,2.85,2.85,0,0,0,0,1,3.21,3.21,0,0,0,.34,1,5.87,5.87,0,0,0,1.32,1.62l.78.74a8.75,8.75,0,0,1,.72.78l.33.38c.11.13.21.27.31.4s.4.52.57.79l.5.76.45.73c.29.47.54.9.77,1.28l.6,1Z" transform="translate(0 0)" style="fill: #de9e7a" vector-effect="non-scaling-stroke"/>
          </g>
          <path d="M143.69,102.87a39.88,39.88,0,0,0-.62,4.6,45.2,45.2,0,0,0,.06,7.2,76.06,76.06,0,0,1,21.51-2.79s3.5-5.89,3.75-11.34a12.26,12.26,0,0,0-.77-3.24C166.19,91.27,146.44,90.49,143.69,102.87Z" transform="translate(0 0)" style="fill: #32345b" vector-effect="non-scaling-stroke"/>
          <path d="M144.6,100.25s-.15.36-.4,1-.35,1.24-.57,1.85c0,0,1.3-1.47,7.07-2.12a14,14,0,0,0,1.8-4.88c.08-1.15,1.1,4.35,1.1,4.35,8.73-1.13,11.48-.07,14.7.27a8.44,8.44,0,0,0,0-1c-.51-2.51-2.67-4.36-3.76-5.62C161.47,90.57,146.61,91.56,144.6,100.25Z" transform="translate(0 0)" style="fill: #222239" vector-effect="non-scaling-stroke"/>
        </g>
        <g>
          <path d="M141.84,72.56s9.47,16.68,1.93,30.06a13.06,13.06,0,0,1,10.81-7.75c12-1.36,13.67,5.06,13.67,5.06.15-.8-5.67-6.5-7.58-13.56-2.16-8,3.28-17.87-.12-20.11C154.16,62.05,141.69,69.72,141.84,72.56Z" transform="translate(0 0)" style="fill: #fffffd" vector-effect="non-scaling-stroke"/>
          <path d="M148.05,69.5a58.56,58.56,0,0,0,1.57,19l4.14,2.24,1.16-1.37s-3.66-7.86-4.52-20.6Z" transform="translate(0 0)" style="fill: #d41c1d" vector-effect="non-scaling-stroke"/>
          <path d="M147.26,70.2a4.44,4.44,0,0,0,1.32,1.47,2,2,0,0,0,2.16-.72,2.82,2.82,0,0,0-.11-2.11C150.36,68.33,146.77,69.56,147.26,70.2Z" transform="translate(0 0)" style="fill: #b81a1b" vector-effect="non-scaling-stroke"/>
          <path d="M168,97.71c-1.53-5-5.76-9.54-5.23-13.6.6-4.65,1.15-10.06,1.11-10.17-1.57-3.6-1.52-6.47-3.36-7.68a9.21,9.21,0,0,0-6.35-1.09c1.48.37,3,2.83,3,3.13s-2.29,1.59-2.14,1.89c0,0,2.25,1.92,1.73,2.3C151,76.61,151,85.36,151,85.36s-5.82-8.12-5.81-8.33.94-3.57.94-3.57-.32-.45-1.94-.27c-.32,0,.11-3.61.13-3.8-1.54,1.19-2.64,2.37-2.6,3.16,0,0,.39,1,.91,2.58h0c-.4,1.83-1.06,6,.94,7.92,2.59,2.44,3.05,4.4,2.34,8.9s-.7,6-2.13,10.67c0,0,1.12-1.74,6.79-2.38a13.68,13.68,0,0,0,1.77-4.81c.08-1.12,1.29,4.34,1.29,4.34,11.95-1.54,14.84.48,14.84.48A12,12,0,0,0,168,97.71Z" transform="translate(0 0)" style="fill: #32345b" vector-effect="non-scaling-stroke"/>
          <path d="M142.62,75.13s0,.28-.1.77c0,.24-.07.54-.09.88s-.05.72-.06,1.14a12.25,12.25,0,0,0,0,1.34,9.64,9.64,0,0,0,.21,1.47,5.06,5.06,0,0,0,.58,1.43l.21.32c.08.1.18.19.26.29s.4.39.6.59a10.65,10.65,0,0,1,1.08,1.35,6.27,6.27,0,0,1,.72,1.53,6.62,6.62,0,0,1,.29,1.54,10.49,10.49,0,0,1,0,1.38c0,.21,0,.42-.05.61l-.08.55c-.06.33-.11.63-.15.87-.1.49-.16.76-.16.76s0-.28.06-.77c0-.24,0-.54.06-.88s0-.73,0-1.15a12.8,12.8,0,0,0-.08-1.34,7.79,7.79,0,0,0-.34-1.43,6.71,6.71,0,0,0-.7-1.39,9.45,9.45,0,0,0-1-1.25c-.19-.21-.4-.39-.59-.61l-.3-.33-.24-.38a5.21,5.21,0,0,1-.59-1.59,8.5,8.5,0,0,1-.16-1.55c0-.49,0-1,.06-1.38a16.31,16.31,0,0,1,.36-2c.05-.24.11-.43.14-.56Z" transform="translate(0 0)" style="fill: #222239" vector-effect="non-scaling-stroke"/>
          <path d="M152.12,86.67c.08.39,0,.74-.28.79s-.5-.22-.58-.61,0-.74.28-.79S152,86.28,152.12,86.67Z" transform="translate(0 0)" style="fill: #ffe500" vector-effect="non-scaling-stroke"/>
          <path d="M153.08,92.92c0,.39-.14.73-.38.75s-.46-.28-.5-.68.14-.73.38-.75S153.05,92.52,153.08,92.92Z" transform="translate(0 0)" style="fill: #ffe500" vector-effect="non-scaling-stroke"/>
          <path d="M152.89,65.34S150.45,79.25,151,85.5a21.38,21.38,0,0,1,6.13-13.15c.13-.67-1.91-1.77-1.91-1.77-.16-.32,2.33-1.71,2.37-2S156,65.06,155,65A4.13,4.13,0,0,0,152.89,65.34Z" transform="translate(0 0)" style="fill: #222239" vector-effect="non-scaling-stroke"/>
          <g>
            <path d="M144.29,69.35s-.46,3.89-.13,3.85c1.64-.18,2,.28,2,.28s-1.43,3-1.44,3.17C144.6,79.17,151,85.5,151,85.5c-4.17-5.69-4.4-14.37-3.86-16.85C147.26,68.3,144.68,68.86,144.29,69.35Z" transform="translate(0 0)" style="fill: #464b87" vector-effect="non-scaling-stroke"/>
            <path d="M154.42,65.36s-6,9.32-3.38,20.14a19,19,0,0,1,5.75-13.41c.48-.46-1.67-1.92-1.67-1.92-.15-.3,2.12-1.61,2.16-1.91s-1.54-3.19-2.47-3.23C153.52,65,154.42,65.36,154.42,65.36Z" transform="translate(0 0)" style="fill: #464b87" vector-effect="non-scaling-stroke"/>
          </g>
        </g>
        <g>
          <path d="M167.18,29.19c-8-14.68-18.59-5.61-18.59-5.61l10.62,8a43.19,43.19,0,0,0,7.52,23.7,12.64,12.64,0,0,1,1.17,4.57,9,9,0,0,0,.26-2.55,34.4,34.4,0,0,0,3.44,4C167.39,53.23,175.12,43.87,167.18,29.19Z" transform="translate(0 0)" style="fill: #272420" vector-effect="non-scaling-stroke"/>
          <path d="M159.23,32.39v.26c0,.18,0,.36,0,.54s0,.21,0,.31l0,.48c0,.11,0,.22,0,.33s0,.31,0,.46l0,.34c0,.14,0,.29,0,.44s0,.22,0,.33,0,.29.05.43,0,.23,0,.34l.06.42c0,.11,0,.22,0,.33l.06.43.06.32c0,.14.05.29.07.44l.06.29.12.65.09.38c0,.12.05.25.08.37s.06.25.08.37.05.22.08.33.06.25.1.38.05.2.07.3.07.26.11.39,0,.19.07.28l.12.4c0,.09,0,.17.07.26s.09.27.13.41a1.42,1.42,0,0,0,.07.22c0,.15.09.29.13.44l.06.17c0,.16.11.32.16.47l0,.09a45.57,45.57,0,0,0,3.09,7l.06-.21a.41.41,0,0,1,.59-.26l.06-.23a28.76,28.76,0,0,0-.2-16c-2-6.06-4.69-6.53-5.54-9.76A9.94,9.94,0,0,0,157.7,21a10.12,10.12,0,0,0-4.21.19,17.94,17.94,0,0,0-4.9,2.44l10.62,8C159.21,31.85,159.22,32.12,159.23,32.39Z" transform="translate(0 0)" style="fill: #302d2a" vector-effect="non-scaling-stroke"/>
          <path d="M159.1,26.65c.34,3.11-1.23,4.42-5.6,4.78s-8.2-1.87-8.54-5,2.94-5.93,7.31-6.29S158.76,23.53,159.1,26.65Z" transform="translate(0 0)" style="fill: #f5eb75" vector-effect="non-scaling-stroke"/>
          <path d="M153.5,31.43c4.37-.36,5.94-1.67,5.6-4.78l0-.26a15.88,15.88,0,0,0-6.36-3.33,17.89,17.89,0,0,0-6.17-.51,4.78,4.78,0,0,0-1.58,3.9C145.3,29.56,149.12,31.79,153.5,31.43Z" transform="translate(0 0)" style="fill: #dbd261" vector-effect="non-scaling-stroke"/>
          <path d="M122.56,45.44s2.84-16.22,15.55-20.73a22.64,22.64,0,0,1,14.16-1C160.58,26,165.38,33.5,166,43.65a34,34,0,0,1-2.63,15Z" transform="translate(0 0)" style="fill: #44413f" vector-effect="non-scaling-stroke"/>
          <path d="M126.75,34.73c3.3-4,8.25-6.09,11.69-6.94-3.45.46-9,2.14-12.62,6.54-8.09,9.89-7.59,23.37,2,32.82h0A24.29,24.29,0,0,1,126.75,34.73Z" transform="translate(0 0)" style="fill: #302d2a" vector-effect="non-scaling-stroke"/>
          <path d="M141.91,27.3c-6,.39-2.21,5.86-2.21,5.86s1.19,4.36,4.92,5.05c8.29,1.54,11.87,3.13,15.72,8.39,1.52,2.07,2.2,8.2,3,12a26.43,26.43,0,0,0,1.33-3.74c0-4.9,1.77-8.36-2.26-16.9C159.45,31.66,152.78,26.59,141.91,27.3Z" transform="translate(0 0)" style="fill: #302d2a" vector-effect="non-scaling-stroke"/>
          <path d="M162.49,62.72a8.08,8.08,0,0,0-5.63-5.78l6.89-6.8s-.67,10.86-1.26,12.58" transform="translate(0 0)" style="fill: #302d2a" vector-effect="non-scaling-stroke"/>
          <path d="M123.08,55.12s.85,7.73,5.62,12.94a20.49,20.49,0,0,1,6.19-20.37l-9.1-1.38Z" transform="translate(0 0)" style="fill: #302d2a" vector-effect="non-scaling-stroke"/>
          <path d="M125,45.81S131.82,35.69,148.66,34s14.74,20.15,12.05,27.25c-2.29,6-13.29,13.13-19.91,12.33-5.07-.62-7.36-3.23-9-6.46-2-3.89-3.35-10.75-4-13.74C126.38,47.47,125,45.81,125,45.81Z" transform="translate(0 0)" style="fill: #fde1c2" vector-effect="non-scaling-stroke"/>
          <path d="M130.15,57.68a2,2,0,0,1,.13-.27,3.16,3.16,0,0,1,.46-.64,5,5,0,0,1,.82-.72,3.92,3.92,0,0,1,.53-.32,6,6,0,0,1,.57-.28c.2-.07.4-.15.6-.21l.59-.14.57-.07a4.7,4.7,0,0,1,.52,0c.16,0,.3,0,.43,0l.33.06.29.06-.26.15-.68.31-.45.18-.49.2c-.17.07-.34.15-.52.21l-.53.22-1,.44-.92.39Z" transform="translate(0 0)" style="fill: #24221f" vector-effect="non-scaling-stroke"/>
          <path d="M142.92,32.31s.37,5.72,3.68,7.84c7.68,4.91,10,2.43,13.88,7.7,2.4,3.28,2.48,11.78,2,14.87,0,0,4.24-14-.52-23.95-3-6.32-9.19-12.18-20.06-11.47C136,27.69,142.92,32.31,142.92,32.31Z" transform="translate(0 0)" style="fill: #44413f" vector-effect="non-scaling-stroke"/>
          <path d="M142.92,32.31a14.88,14.88,0,0,0,1.43,5.2,8.77,8.77,0,0,0,.89-4s-2.35-4.78-2.86-6.12c0-.07-.18-.12-.44-.13h0C136,27.69,142.92,32.31,142.92,32.31Z" transform="translate(0 0)" style="fill: #302d2a" vector-effect="non-scaling-stroke"/>
          <path d="M128.7,68.06s-7.81-10-1-19c5.14-6.76,15.94-7.33,17.56-15.54,0,0-2.35-4.78-2.86-6.12-.23-.61-10.17.63-15.63,7.3A24.34,24.34,0,0,0,128.7,68.06Z" transform="translate(0 0)" style="fill: #44413f" vector-effect="non-scaling-stroke"/>
          <path d="M142.29,64.73s9.69-1.43,12.13-6c0,0,3.2,6.48-5.49,9.15A10,10,0,0,0,142.29,64.73Z" transform="translate(0 0)" style="fill: #c23f3e" vector-effect="non-scaling-stroke"/>
          <path d="M149.25,67.75l.23-.08.43-.15.16-.06h0c4.55-1.8,5.1-4.79,4.87-6.77a18.56,18.56,0,0,0-2.36,1.4C149.66,64.27,149.21,66.49,149.25,67.75Z" transform="translate(0 0)" style="fill: #e94d51" vector-effect="non-scaling-stroke"/>
          <path d="M159.71,49.25a15.33,15.33,0,0,1,4.69-5.82c3.88-2.66.78,10.1-.91,11.59s-2.16-.87-2.16-.87Z" transform="translate(0 0)" style="fill: #fde1c2" vector-effect="non-scaling-stroke"/>
          <path d="M137.71,53.32s-.36.66-.9,1.57c-.26.46-.56,1-.84,1.56a7.46,7.46,0,0,0-.37.88,2.85,2.85,0,0,0-.21.85,1.13,1.13,0,0,0,.09.66,1.68,1.68,0,0,0,.24.36,1.23,1.23,0,0,0,.25.27,4.34,4.34,0,0,0,1.43.74,12.72,12.72,0,0,0,1.72.41,4.43,4.43,0,0,1-1.84.31,3.91,3.91,0,0,1-2-.56,3,3,0,0,1-.49-.41l-.24-.26-.14-.23a2.23,2.23,0,0,1-.3-1.4,3.79,3.79,0,0,1,.33-1.2,5.3,5.3,0,0,1,.54-1,8.52,8.52,0,0,1,1.24-1.46A7.81,7.81,0,0,1,137.71,53.32Z" transform="translate(0 0)" style="fill: #de9e7a" vector-effect="non-scaling-stroke"/>
          <path d="M152.41,61A20.91,20.91,0,0,1,145.48,64a5.49,5.49,0,0,0,2.39.69A5,5,0,0,0,152.41,61Z" transform="translate(0 0)" style="fill: #fff" vector-effect="non-scaling-stroke"/>
          <path d="M140.63,52.48a3.37,3.37,0,0,1,.14-.51,8.47,8.47,0,0,1,.53-1.3q.19-.39.45-.81a9,9,0,0,1,.6-.87,9.53,9.53,0,0,1,1.59-1.66,8.11,8.11,0,0,1,1-.7,7.65,7.65,0,0,1,1-.52,5.93,5.93,0,0,1,2-.45h.43l.38.05c.24,0,.45.09.61.12l.5.19s-.19,0-.52.08c-.16,0-.35.06-.57.12l-.34.08-.37.12a6.12,6.12,0,0,0-.79.31c-.27.12-.55.27-.83.43l-.42.26-.43.28c-.27.21-.56.41-.82.64s-.54.47-.8.7l-.75.72c-.48.48-.93.94-1.31,1.35Z" transform="translate(0 0)" style="fill: #24221f" vector-effect="non-scaling-stroke"/>
          <path d="M142.82,49.09s3.45-3.91,3.18-6.24a3.5,3.5,0,0,1,0,3A7,7,0,0,0,148,43.09a2.58,2.58,0,0,1-.36,2,5.49,5.49,0,0,0,1.09-1.3,2.83,2.83,0,0,1-.82,1.93S144,46.69,142.82,49.09Z" transform="translate(0 0)" style="fill: #24221f" vector-effect="non-scaling-stroke"/>
          <path d="M134.06,55.51s-3.69,1-5.12,0a2.58,2.58,0,0,0,1.94,1,5.09,5.09,0,0,1-2.43.35,1.88,1.88,0,0,0,1.39.42,4.35,4.35,0,0,1-1.2.28,2.06,2.06,0,0,0,1.53.1S132.11,55.46,134.06,55.51Z" transform="translate(0 0)" style="fill: #24221f" vector-effect="non-scaling-stroke"/>
        </g>
        <g>
          <g>
            <path d="M170,40.51a2,2,0,0,1-1.06-2.57c.47-.77,1.42-.74,2.47-.1a3.26,3.26,0,0,1,1.27,4C172.16,42.58,171,41.15,170,40.51Z" transform="translate(0 0)" style="fill: #fde1bd" vector-effect="non-scaling-stroke"/>
            <path d="M172.63,41.81a.36.36,0,0,1-.07.07.32.32,0,0,1-.24.1,1.47,1.47,0,0,1-.84-.49c-.32-.28-.68-.63-1.12-1a7.87,7.87,0,0,1-.65-.48,2.22,2.22,0,0,1-.5-.6,1.86,1.86,0,0,1-.26-.7,1.2,1.2,0,0,1,.12-.66.85.85,0,0,1,.09-.15l.1-.11a1.45,1.45,0,0,1,.26-.17,1.42,1.42,0,0,1,.61-.09,3.2,3.2,0,0,1,1,.21l.37.15-.08-.06a1.07,1.07,0,0,0-.24-.17,3,3,0,0,0-1-.42,1.57,1.57,0,0,0-.77,0,1.11,1.11,0,0,0-.39.2.73.73,0,0,0-.18.17c0,.07-.08.09-.14.18a1.63,1.63,0,0,0-.21.94,2.4,2.4,0,0,0,.31.91,3,3,0,0,0,.62.7,6.19,6.19,0,0,0,.71.47c.43.29.83.61,1.2.85a1.65,1.65,0,0,0,1,.36.36.36,0,0,0,.25-.18A.44.44,0,0,0,172.63,41.81Z" transform="translate(0 0)" style="fill: #de9e7a" vector-effect="non-scaling-stroke"/>
            <path d="M170.87,39.61s-1.34-3.21-.67-5.33c.43-1.37,2.8-2.1,4.85-1.53,2.59.73,4.69,3.43,1.81,8.06C171.7,49.09,170.87,39.61,170.87,39.61Z" transform="translate(0 0)" style="fill: #fde1bd" vector-effect="non-scaling-stroke"/>
            <path d="M168.7,36.66c-.45-1.37,1-3,3.14-3.77s4.31-.18,4.76,1.18a3.38,3.38,0,0,1-.42,3c-1,1.06-3.05,1.5-4.24,1.89C169.76,39.68,169.15,38,168.7,36.66Z" transform="translate(0 0)" style="fill: #fde1bd" vector-effect="non-scaling-stroke"/>
            <path d="M176.57,34.08l0,.14c0,.08,0,.22.07.38a5.28,5.28,0,0,1,0,.61,3.7,3.7,0,0,1-.1.77,2.31,2.31,0,0,1-.37.82l-.15.18a1.72,1.72,0,0,1-.19.17,2.07,2.07,0,0,1-.42.31,5.16,5.16,0,0,1-1,.48c-.35.14-.72.26-1.09.37l-1.12.3-.54.15-.27.07-.24,0a2,2,0,0,1-.91-.08,1.64,1.64,0,0,1-.67-.49,5.48,5.48,0,0,1-.72-1.15l-.23-.49-.05,0s0,.19.12.53a4.93,4.93,0,0,0,.19.6,3.73,3.73,0,0,0,.38.74,2.07,2.07,0,0,0,.8.67,2.15,2.15,0,0,0,1.16.16l.3,0,.27-.08.55-.18,1.1-.37c.38-.13.75-.27,1.1-.43a6.34,6.34,0,0,0,1-.57,2.44,2.44,0,0,0,.42-.35l.2-.19.15-.22a2.51,2.51,0,0,0,.35-.91,3.9,3.9,0,0,0,.05-.81,4.65,4.65,0,0,0-.07-.62c0-.17-.07-.3-.1-.39l0-.13Z" transform="translate(0 0)" style="fill: #de9e7a" vector-effect="non-scaling-stroke"/>
          </g>
          <path d="M160.14,67.2l-.63,10.07s13.94-5.82,16.65-35c0,0-1.28-3.1-4.9-.6C171.26,41.66,168.47,60.5,160.14,67.2Z" transform="translate(0 0)" style="fill: #32345b" vector-effect="non-scaling-stroke"/>
          <path d="M168.68,52.56s-.32.93-.86,2.3c-.28.68-.6,1.47-1,2.31-.18.42-.39.85-.59,1.29s-.42.87-.65,1.3-.47.86-.71,1.28-.49.82-.72,1.21-.48.76-.72,1.1-.45.68-.67,1-.22.28-.31.42l-.3.36a7.15,7.15,0,0,1-.5.59l-.45.51,0,0,.52-.44a5.26,5.26,0,0,0,.56-.53,8.64,8.64,0,0,0,.69-.75c.25-.28.49-.6.74-.94s.49-.72.75-1.11.49-.81.71-1.24.45-.87.66-1.31.41-.9.62-1.34.38-.88.55-1.31c.35-.85.64-1.66.89-2.36.48-1.39.77-2.33.77-2.33Z" transform="translate(0 0)" style="fill: #38363d" vector-effect="non-scaling-stroke"/>
        </g>
      </g>
    </g>
  </g></svg>