<?xml version="1.0" standalone="no"?>
<svg version="1.1" preserveAspectRatio="xMidYMid meet" viewBox="0 0 180 180" class="ng-element" data-id="6081b7ca2faf45ec86b24b8990372b6b" style="mix-blend-mode: normal; overflow: visible; width: 180px; height: 180px; filter: none;" xmlns="http://www.w3.org/2000/svg"><title>pricing-request-a-project-v02</title><path d="M123.82,173.73c-4.94,4.94-14.5,7.5-21.24,5.69L34.4,161.15c-6.75-1.81-13.75-8.8-15.55-15.55L.58,77.42c-1.81-6.74.75-16.3,5.69-21.24L56.18,6.27c4.94-4.94,14.5-7.5,21.24-5.69L145.6,18.85c6.75,1.81,13.74,8.8,15.55,15.55l18.27,68.18c1.81,6.74-.75,16.3-5.69,21.24Z" transform="translate(0 0)" style="fill: #e5f3fb" vector-effect="non-scaling-stroke"/><g>
    <g>
      <path d="M105.67,57.08a13,13,0,1,1,13-13A13,13,0,0,1,105.67,57.08Zm0-24.24A11.24,11.24,0,1,0,116.9,44.07,11.25,11.25,0,0,0,105.67,32.84Z" transform="translate(0 0)" style="fill: #fff" vector-effect="non-scaling-stroke"/>
      <path d="M106.74,44.07A1.07,1.07,0,1,1,105.67,43,1.07,1.07,0,0,1,106.74,44.07Z" transform="translate(0 0)" style="fill: #fff" vector-effect="non-scaling-stroke"/>
      <rect x="103.11" y="39.79" width="8.33" height="0.89" transform="translate(28.87 123.77) rotate(-67.37)" style="fill: #fff" vector-effect="non-scaling-stroke"/>
      <path d="M109.62,37.83a.43.43,0,0,1-.42-.29l-.38-1.1-1.21.46a.44.44,0,1,1-.31-.82l1.63-.63a.47.47,0,0,1,.35,0,.45.45,0,0,1,.23.26l.52,1.53a.44.44,0,0,1-.27.56A.36.36,0,0,1,109.62,37.83Z" transform="translate(0 0)" style="fill: #fff" vector-effect="non-scaling-stroke"/>
      <rect x="101.63" y="39.52" width="0.88" height="7.39" transform="translate(36.35 132.48) rotate(-76.58)" style="fill: #fff" vector-effect="non-scaling-stroke"/>
      <path d="M98.86,44.18a.45.45,0,0,1-.38-.21l-.92-1.49a.44.44,0,0,1-.06-.35.47.47,0,0,1,.21-.27l1.41-.8a.43.43,0,0,1,.6.17.44.44,0,0,1-.16.6l-1,.57.68,1.1a.45.45,0,0,1-.37.68Z" transform="translate(0 0)" style="fill: #fff" vector-effect="non-scaling-stroke"/>
    </g>
    <g>
      <path d="M150,88.37H119.72A1.38,1.38,0,0,1,118.33,87V57.92a1.39,1.39,0,0,1,1.39-1.39H150a1.39,1.39,0,0,1,1.39,1.39V87A1.38,1.38,0,0,1,150,88.37ZM121.11,85.6h27.45V59.3H121.11Z" transform="translate(0 0)" style="fill: #fff" vector-effect="non-scaling-stroke"/>
      <rect x="119.72" y="67.44" width="30.23" height="2.38" style="fill: #fff" vector-effect="non-scaling-stroke"/>
      <path d="M137.39,69.59a1.09,1.09,0,0,1-1.09,1.09h-3.17A1.09,1.09,0,0,1,132,69.59h0a1.09,1.09,0,0,1,1.09-1.09h3.17a1.09,1.09,0,0,1,1.09,1.09Z" transform="translate(0 0)" style="fill: #fff" vector-effect="non-scaling-stroke"/>
      <polygon points="138.25 57.91 129.56 68.67 125.82 67.93 134.51 57.17 138.25 57.91" style="fill: #fff" vector-effect="non-scaling-stroke"/>
      <polygon points="141.06 57.07 132.21 67.93 130.87 67.93 139.56 57.17 141.06 57.07" style="fill: #fff" vector-effect="non-scaling-stroke"/>
      <polygon points="142.68 56.8 133.61 67.93 132.94 67.93 141.63 57.17 142.68 56.8" style="fill: #fff" vector-effect="non-scaling-stroke"/>
    </g>
    <path d="M111.83,103.73a.42.42,0,0,0-.32.14,3.82,3.82,0,0,0-1.32,0,.4.4,0,0,0-.31-.14.42.42,0,0,0-.43.42v12a.43.43,0,0,0,.75.27h1.3a.45.45,0,0,0,.33.15.42.42,0,0,0,.42-.42v-12A.42.42,0,0,0,111.83,103.73Z" transform="translate(0 0)" style="fill: #fff" vector-effect="non-scaling-stroke"/>
    <g>
      <rect x="105.71" y="115.26" width="39.7" height="3.74" style="fill: #fff" vector-effect="non-scaling-stroke"/>
      <polygon points="142.15 149.44 108.96 152.3 108.96 117.13 142.15 117.13 142.15 149.44" style="fill: #fff" vector-effect="non-scaling-stroke"/>
      <path d="M109.45,116.71a.42.42,0,0,1-.42.42h0a.42.42,0,0,1-.42-.42V99.48a.42.42,0,0,1,.42-.43h0a.42.42,0,0,1,.42.43Z" transform="translate(0 0)" style="fill: #fff" vector-effect="non-scaling-stroke"/>
      <path d="M111.83,103.73a.42.42,0,0,0-.32.14,3.82,3.82,0,0,0-1.32,0,.4.4,0,0,0-.31-.14.42.42,0,0,0-.43.42v12a.43.43,0,0,0,.75.27h1.3a.45.45,0,0,0,.33.15.42.42,0,0,0,.42-.42v-12A.42.42,0,0,0,111.83,103.73Z" transform="translate(0 0)" style="fill: #fff" vector-effect="non-scaling-stroke"/>
      <path d="M114.62,103.73a.42.42,0,0,0-.32.14,3.76,3.76,0,0,0-1.31,0,.42.42,0,0,0-.32-.14.42.42,0,0,0-.42.42v12a.42.42,0,0,0,.42.42.45.45,0,0,0,.33-.15h1.3a.43.43,0,0,0,.75-.27v-12A.42.42,0,0,0,114.62,103.73Z" transform="translate(0 0)" style="fill: #fff" vector-effect="non-scaling-stroke"/>
      <path d="M117.4,103.63a.39.39,0,0,0-.31.15,3.79,3.79,0,0,0-1.32.06.38.38,0,0,0-.32-.13.42.42,0,0,0-.4.44l.49,12a.43.43,0,0,0,.44.41.41.41,0,0,0,.31-.17l1.31,0a.44.44,0,0,0,.33.14.43.43,0,0,0,.4-.45l-.49-12A.42.42,0,0,0,117.4,103.63Z" transform="translate(0 0)" style="fill: #fff" vector-effect="non-scaling-stroke"/>
      <path d="M120.13,103.41a.44.44,0,0,0-.29.19,3.92,3.92,0,0,0-1.3.17.48.48,0,0,0-.33-.1.43.43,0,0,0-.37.48l1.6,11.86a.43.43,0,0,0,.47.37.42.42,0,0,0,.3-.19l1.29-.18a.47.47,0,0,0,.34.11.43.43,0,0,0,.37-.48l-1.6-11.86A.42.42,0,0,0,120.13,103.41Z" transform="translate(0 0)" style="fill: #fff" vector-effect="non-scaling-stroke"/>
      <path d="M137,115.26c0-.47-2.81-.85-6.28-.85s-6.29.38-6.29.85,2.82.86,6.29.86S137,115.74,137,115.26Z" transform="translate(0 0)" style="fill: #fff" vector-effect="non-scaling-stroke"/>
      <rect x="129.4" y="110.47" width="4.51" height="4.46" style="fill: #fff" vector-effect="non-scaling-stroke"/>
      <rect x="123.23" y="92.95" width="25.35" height="17.51" rx="1.06" ry="1.06" style="fill: #fff" vector-effect="non-scaling-stroke"/>
    </g>
    <g>
      <path d="M108.27,139.13a1,1,0,0,1-1,1H95.89a1,1,0,0,1-1-1h0a1,1,0,0,1,1-1h11.37a1,1,0,0,1,1,1Z" transform="translate(0 0)" style="fill: #fff" vector-effect="non-scaling-stroke"/>
      <polygon points="106.08 151.63 97.12 151.63 95.89 140.14 107.31 140.14 106.08 151.63" style="fill: #fff" vector-effect="non-scaling-stroke"/>
    </g>
    <path d="M92.55,53.68a57.82,57.82,0,0,1-5.46,14.07,5.13,5.13,0,0,0,.1-.51c-.61,3.22-1.54,5.69-2.55,6.78a18.81,18.81,0,0,1-4.89,3.34,7.83,7.83,0,0,1,1.54.82l.11,0s11.09,9.23,13.46,10.26h0A70.89,70.89,0,0,0,107,84.06a4.28,4.28,0,0,1,.71-.84H92.55Zm6.27,31.54c-1.6.53-2.92.92-3.7,1.13-.42-.26-1-.65-1.66-1.13ZM90.55,83c-2.23-1.72-4.8-3.79-7-5.58a14.59,14.59,0,0,0,2.52-2.05c1.46-1.57,2.35-4.48,2.88-6.92.27-.49.85-1.58,1.56-3.09ZM147.6,19.7h-55a2,2,0,0,0-2,2V32a19.44,19.44,0,0,0-2.7-2.4,11.12,11.12,0,0,0-6-2,6.67,6.67,0,0,0-1.07-1.85c-2.12-2.66-6.26-4.33-12.28-5a31.15,31.15,0,0,0-3.12-.16c-10.58,0-24.45,5-29.31,14.3-2.23,4.27-3.53,11.3,2.79,20.69.17,3,.49,7.21,1.05,11.49v.08h0a2.32,2.32,0,0,0,0,.33c.92,5.45,2.37,11,8.76,14.39A23,23,0,0,0,57,84.24c-3.33,2.64-5.35,4.12-6.32,4.73a69.2,69.2,0,0,1-8-2.78l.1-.17a5.09,5.09,0,0,0,.47-1.29,4.81,4.81,0,0,0,.11-1.46,4.55,4.55,0,0,0-.47-1.62,3.66,3.66,0,0,0-1.27-1.38l-.1-.06a2.29,2.29,0,0,0-.47-.23l-.12,0h-.05a2.63,2.63,0,0,0-.67-.17l-.16,0-.25,0h0a4.5,4.5,0,0,0-.56,0,1.57,1.57,0,0,0-.3.05l-.08,0-.27.06c-1.47-2.05-3.73-4.61-5.87-4.61a2.81,2.81,0,0,0-2.45,1.44c-1,1.63-.24,3.55.79,5.21-1.93,1.7-2.84,3.53-2.71,5.47.2,3,2.87,4.83,3.47,5.2a5.7,5.7,0,0,0,3.32,1.13h.12c.62.37,1.58.91,2.81,1.54l.3.18,1,.49c.2.11.47.23.76.36l.45.21c.36.18.76.35,1.19.52l.4.17c.39.18.83.34,1.26.5l.63.24c.24.1.51.19.79.28l.31.1.39.13.75.24.46.13.7.19.27.08.31.08.09,0,.13,0,.46.1,1.19.26c.3.07.6.12.9.17l.39.06.62.1.3,0,.13,0a4.23,4.23,0,0,0,.47,0h.14a6.76,6.76,0,0,0,1.75-.32,17.23,17.23,0,0,0,2.5-1c.83-.42,1.51-.78,2.1-1.14s1.16-.7,1.75-1.08l.4-.26c0,.46.05.94.07,1.42s0,1.16,0,1.78c0,.44,0,.85,0,1.26l0,.53,0,.7q0,.51-.06,1v0l0,.48,0,.35c0,.29,0,.56-.06.84s-.06.64-.09.94,0,.35,0,.52-.06.57-.09.82,0,.28,0,.41c0,.29-.07.54-.1.76l0,.16c-.09.57-.13.9-.13.9v0A29.31,29.31,0,0,1,59.56,113l-.16.32a1.08,1.08,0,0,0-.08.19c-.26.68-.48,1.24-.71,1.74l0,.12c-2.21,5.16-6,14.37-6.64,18.66s0,11.67.44,15.8c-7.47,3-8.16,3.93-8.55,4.43a4.52,4.52,0,0,0-.08,5.12,2,2,0,0,0,1.68.92h0a91.24,91.24,0,0,0,10.73-.62,2,2,0,0,0,1.39.56h0l5.66,0a2,2,0,0,0,1.48-.67,2,2,0,0,0,.5-1.55l-.58-5.4a1.94,1.94,0,0,0,0-.68c-.56-3.25-1.66-12.65-.09-17.18a79.63,79.63,0,0,1,6.35-12.65H71l.33,0,1.18-.14.78-.06.75-.06.73-.07a5.36,5.36,0,0,1,.68-.06l1.19-.06.28,0c.39,0,.75,0,1.09,0h.34a54.76,54.76,0,0,0,.11,15.91A78.47,78.47,0,0,0,82.9,152.1a2,2,0,0,0,.25.43l-.16.24-.17.21-.18.25a6,6,0,0,0-.06,6.05,2,2,0,0,0,1.75,1H95.6a2,2,0,0,0,1.92-1.44c.12-.4,1-3.92-1.18-6.48l-.14-.15a4.07,4.07,0,0,0-.42-.41l-2.25-2.17a1.94,1.94,0,0,0-.07-.33c0-.12-3.51-11.95-2.23-19.59l.18-1A93.37,93.37,0,0,0,93,115.05c.26-2.88-.43-10.11-1.88-17.53a7.06,7.06,0,0,0,1.75.3H93a3.22,3.22,0,0,0,.43,0h0l.13,0,.32,0,.64-.11.44-.07c.31-.05.63-.1.94-.17l.76-.17.51-.11.35-.08.28-.06.09,0,.61-.17.8-.22.39-.11.84-.27L101,96l.37-.12c.29-.1.58-.19.85-.3l.65-.25c.45-.17.92-.34,1.37-.54l.39-.17c.45-.19.88-.37,1.28-.56l.46-.21c.31-.14.59-.27.83-.4l1-.51a2.2,2.2,0,0,0,.3-.19c1.67-.84,2.87-1.56,3.44-1.92H112l.13,0,.07,0,.12,0,.14,0c.29-.05.64-.08,1-.11l.32,0,.36,0,1.44-.12a16.56,16.56,0,0,0,2.22-.37l.49-.14.13,0,.07,0c.19-.06.41-.13.67-.24l.48-.2.14-.07.38-.21.15-.08.26-.15a.78.78,0,0,0,.18-.11l.24-.16.15-.11.39-.29a.52.52,0,0,0,.11-.1l.41-.36.06-.06.2-.19.08-.08.19-.21c.14-.15.3-.33.47-.55l.16-.2a.1.1,0,0,1,0-.05l.18-.27,0,0a5.13,5.13,0,0,0,.5-1H147.6a2,2,0,0,0,2-2V21.7A2,2,0,0,0,147.6,19.7Zm0,63.52H122a.67.67,0,0,1,.09.14.76.76,0,0,1,.1.3l0,.16a.76.76,0,0,1,0,.15,2.23,2.23,0,0,1-.42,1.09l-.15.24-.18.22a5.12,5.12,0,0,1-.36.43l-.19.21-.21.19-.4.37-.47.33-.23.17-.24.13-.49.27-.51.21a3.09,3.09,0,0,1-.51.18c-.17,0-.34.11-.51.15a14.73,14.73,0,0,1-2,.33l-1.76.14c-.54.05-1,.08-1.46.15l-.31,0-.29.07-.43.11a40.78,40.78,0,0,1-3.84,2.14v0l-1.06.53c-.33.17-.76.35-1.23.58s-1,.45-1.63.7-1.26.49-2,.77c-.35.14-.72.24-1.09.37s-.74.25-1.13.36l-1.2.34-.61.16-.62.15-1.26.28c-.42.09-.85.14-1.28.22l-.64.11-.32,0-.28,0h-.08a5.06,5.06,0,0,1-1.33-.25,16.52,16.52,0,0,1-2.35-1l-.88-.45c2,8.55,2.93,17.8,2.64,20.77h0a99.87,99.87,0,0,1-1.75,14.48c-1.37,8.2,2.29,20.49,2.29,20.49s-.2.23-.3.34l3.19,3.07a3.34,3.34,0,0,1,.33.32v0h0c1.64,1.81.82,4.66.82,4.66H84.33s-1.27-2.25,0-4h0l0,0,.18-.22a4.14,4.14,0,0,0,.87-2.49,6.05,6.05,0,0,1-.67-.2,76.9,76.9,0,0,1-4.32-14.22,51.85,51.85,0,0,1,.27-17.42l-.3,0-.42-.06-.83,0H78.07c-.39,0-.82,0-1.27,0l-1.41.08c-.49,0-1,.1-1.52.13l-1.56.13-1.56.18-1,.1-.1,0c-.88,1.44-5.15,8.47-7,13.84-2.09,6,0,18.18,0,18.18l-.07,0,.63,5.92-5.66,0v-.92c-2.3.93-12.13,1-12.13,1a2.62,2.62,0,0,1,0-2.82c.73-.95,6.31-3.24,9.13-4.36-.39-3.12-1.38-12-.63-16.78.64-4.16,4.5-13.52,6.54-18.27h0c.28-.62.53-1.25.76-1.88.08-.15.14-.28.2-.4a30.39,30.39,0,0,0,1.32-4.43h0s0-.31.12-.85c0-.28.09-.61.13-1s.1-.8.14-1.27.11-1,.14-1.51c0-.27,0-.54.07-.82s0-.57.05-.86c0-.59.06-1.19.09-1.81s0-1.24,0-1.87,0-1.25,0-1.87-.06-1.22-.1-1.81l-.06-.86c0-.28-.05-.56-.07-.83-.05-.52-.11-1-.15-1.47l-.75.55c-.29.21-.64.47-1.05.75s-.87.6-1.38.93-1.08.68-1.68,1-1.26.71-1.94,1.06a15.69,15.69,0,0,1-2.21.9,4.55,4.55,0,0,1-1.26.24h-.06l-.27,0-.3,0-.6-.1c-.41-.07-.81-.12-1.21-.21l-1.18-.26-.59-.13L48,97.07l-1.12-.32-1.07-.34c-.35-.12-.69-.22-1-.35-.65-.25-1.28-.47-1.84-.72s-1.08-.44-1.52-.66-.85-.38-1.16-.54l-1-.5v0a39.2,39.2,0,0,1-3.53-2,3.05,3.05,0,0,1-.6.06,3.76,3.76,0,0,1-2.22-.8s-5.8-3.41,0-8a9.5,9.5,0,0,1,.89-.61h0c-1.39-1.79-2.41-3.61-1.81-4.63a.81.81,0,0,1,.72-.45c1.44,0,4,3.23,5.28,5.33l.21-.24c.1-.07.21-.18.35-.27l.24-.15.29-.12.33-.08.34,0h0l.2,0,.2,0,.17.07a1.86,1.86,0,0,1,.2.1,1.71,1.71,0,0,1,.58.64,2.08,2.08,0,0,1,.24.84,2.8,2.8,0,0,1-.06.87,3,3,0,0,1-.29.78c-.07.13-.14.23-.21.35a3.36,3.36,0,0,1-.24.29,2.77,2.77,0,0,1-.52.46,1.4,1.4,0,0,1-.26.16l-.1,0c.06.27.11.51.14.7a67.09,67.09,0,0,0,11.12,4c1.52-.65,7.06-5.08,10.29-7.7v0a1.86,1.86,0,0,1,.49-1c-.51,0-1,0-1.54,0a22.6,22.6,0,0,1-10.5-2.31c-5.67-3-6.88-8-7.72-13-.06-.34,0,0,0-.34-.53-4.07-.87-8.4-1.06-11.93v0C26.12,33.66,50.2,22.58,65.42,22.58a27.09,27.09,0,0,1,2.91.15C80.9,24.08,80.26,29.6,80.26,29.6a8.48,8.48,0,0,1,1-.05,9.28,9.28,0,0,1,5.41,1.63,15.83,15.83,0,0,1,5.88,8.14V21.7H147.6Z" transform="translate(0 0)" style="fill: #fff" vector-effect="non-scaling-stroke"/>
    <g>
      <path d="M111.09,80.68c1.24-.9,2.78-.89,3.44,0s.17,2-1.07,2.88a4.06,4.06,0,0,1-5.15-.46C107.65,82.21,109.85,81.58,111.09,80.68Z" transform="translate(0 0)" style="fill: #eab381" vector-effect="non-scaling-stroke"/>
      <path d="M108.31,83.12l0-.12a.42.42,0,0,1,0-.33c.1-.27.49-.49,1-.72s1-.47,1.65-.81c.3-.17.59-.39.86-.51a3,3,0,0,1,.92-.28,2.17,2.17,0,0,1,.92,0,1.44,1.44,0,0,1,.71.46,1.11,1.11,0,0,1,.12.18.59.59,0,0,1,.07.16,1,1,0,0,1,.07.38,1.75,1.75,0,0,1-.18.74,4.92,4.92,0,0,1-.72,1l-.34.35.11-.07c.07,0,.18-.1.31-.19a3.85,3.85,0,0,0,1-.93,1.91,1.91,0,0,0,.34-.9,1.49,1.49,0,0,0,0-.55,2.12,2.12,0,0,0-.11-.29l-.14-.24a1.82,1.82,0,0,0-1-.68,2.83,2.83,0,0,0-1.19-.09,3.68,3.68,0,0,0-1.09.36,7.45,7.45,0,0,0-.88.59c-.54.35-1.1.65-1.55,1a2.06,2.06,0,0,0-.9,1,.5.5,0,0,0,.08.38Z" transform="translate(0 0)" style="fill: #a77849" vector-effect="non-scaling-stroke"/>
      <g>
        <path d="M63.63,81.46S53.16,90.17,51,91.11A65.46,65.46,0,0,1,39.4,86.86s-.83,3.78-3.85,4.66a43.85,43.85,0,0,0,17,6.23c2.77.33,13.37-7.2,13.37-7.2S66,80.34,63.63,81.46Z" transform="translate(0 0)" style="fill: #b48140" vector-effect="non-scaling-stroke"/>
        <path d="M39.28,93.64l1,.5c.31.16.71.33,1.16.54s1,.43,1.52.66,1.19.47,1.84.72c.32.13.67.23,1,.35l1.07.34,1.12.32.57.16.59.13,1.18.26c.4.09.8.14,1.21.21l.6.1.3,0a1.25,1.25,0,0,0,.33,0,4.55,4.55,0,0,0,1.26-.24,15.69,15.69,0,0,0,2.21-.9c.68-.35,1.34-.7,1.94-1.06s1.17-.7,1.68-1,1-.65,1.38-.93.76-.54,1.05-.75l.89-.67,0,0-3.52,2-1.72,1c-.61.33-1.25.68-1.93,1a18.17,18.17,0,0,1-2.11.92,4.07,4.07,0,0,1-1.09.25,1.31,1.31,0,0,1-.28,0l-.3,0-.6-.08c-.4-.06-.8-.1-1.19-.18L49.25,97l-.58-.11-.57-.15L47,96.44c-.73-.21-1.43-.41-2.09-.63s-1.29-.42-1.85-.65-1.09-.41-1.55-.61-.85-.35-1.17-.5l-1-.46Z" transform="translate(0 0)" style="fill: #6e5027" vector-effect="non-scaling-stroke"/>
        <path d="M52.45,91.86l.24.11.2.1-.17-.15-.21-.16a1.43,1.43,0,0,0-.27-.19l-.36-.19c-.12-.06-.24-.13-.37-.18h.42l.24,0a1.85,1.85,0,0,0,.23,0l.39-.11.37-.16a7.07,7.07,0,0,1-2.19.26h0s-1.19-.27-3-.76h0l.77.27,1.7.53c.31.09.61.21.9.3s.54.21.77.28S52.36,91.83,52.45,91.86Z" transform="translate(0 0)" style="fill: #6e5027" vector-effect="non-scaling-stroke"/>
        <path d="M32.94,90.91s-5.8-3.41,0-8c6-4.67,7,4.64,7,4.64S37.07,93.88,32.94,90.91Z" transform="translate(0 0)" style="fill: #eab381" vector-effect="non-scaling-stroke"/>
        <polygon points="32.94 88.38 31.69 87.63 32.82 88.56 32.94 88.38" style="fill: #a77849" vector-effect="non-scaling-stroke"/>
        <path d="M38.48,87.31s-7.9-7.15-6.46-9.6,7,6,6.82,6.62A18.36,18.36,0,0,0,38.48,87.31Z" transform="translate(0 0)" style="fill: #eab381" vector-effect="non-scaling-stroke"/>
        <path d="M37.52,83.31a2.26,2.26,0,0,0,.54,3.1A2.59,2.59,0,0,0,40.36,82,2.25,2.25,0,0,0,37.52,83.31Z" transform="translate(0 0)" style="fill: #eab381" vector-effect="non-scaling-stroke"/>
        <path d="M33.83,82.35a7.66,7.66,0,0,1,1.42-.24,3.47,3.47,0,0,1,1.37.14,1.61,1.61,0,0,1,.56.31,2.29,2.29,0,0,1,.21.23l.21.29a10.83,10.83,0,0,1,.77,1.18,4.67,4.67,0,0,1,.27.62,1.05,1.05,0,0,1,.07.56.11.11,0,0,1,0,.08l0,0-.06.08c-.07.1-.15.19-.23.29s-.3.4-.43.6c-.55.81-1.09,1.61-1.61,2.43l0-.06-.28.22-.31.19a2.73,2.73,0,0,1-.66.28,1.35,1.35,0,0,1-.66,0,1,1,0,0,1-.3-.14l-.31-.21a5.27,5.27,0,0,1-.56-.5A6.34,6.34,0,0,1,32,86.88a5.67,5.67,0,0,0,.66,1.41,5.75,5.75,0,0,0,.46.64,5,5,0,0,0,.56.57l.31.25a1.57,1.57,0,0,0,.38.22,1.72,1.72,0,0,0,.87,0,3.07,3.07,0,0,0,.79-.27c.12-.07.24-.13.36-.21l.34-.23,0,0,0,0c.55-.79,1.08-1.6,1.64-2.39l.41-.57L39,86l0-.06a.76.76,0,0,0,.08-.11.87.87,0,0,0,.1-.25,1.54,1.54,0,0,0-.09-.87,5,5,0,0,0-.33-.7A13.24,13.24,0,0,0,38,82.78l-.23-.28a2.81,2.81,0,0,0-.31-.29,2,2,0,0,0-.72-.33,3.66,3.66,0,0,0-1.51,0A5.84,5.84,0,0,0,33.83,82.35Z" transform="translate(0 0)" style="fill: #a77849" vector-effect="non-scaling-stroke"/>
        <path d="M38.74,86.58h.1a1.63,1.63,0,0,0,.28,0l.2,0,.23-.08a1,1,0,0,0,.26-.11,1.4,1.4,0,0,0,.26-.16,2.77,2.77,0,0,0,.52-.46,3.36,3.36,0,0,0,.24-.29c.07-.12.14-.22.21-.35a3,3,0,0,0,.29-.78,2.8,2.8,0,0,0,.06-.87,2.08,2.08,0,0,0-.24-.84,1.71,1.71,0,0,0-.58-.64,1.86,1.86,0,0,0-.2-.1l-.17-.07-.2,0-.2,0-.36,0-.33.08-.29.12-.24.15c-.14.09-.25.2-.35.27l-.25.29.29-.24a3,3,0,0,1,.37-.23,1.33,1.33,0,0,1,.24-.11l.27-.09a2.84,2.84,0,0,1,.31-.06h.32l.16,0a.55.55,0,0,1,.17,0l.17.08s.1.06.15.08a1.72,1.72,0,0,1,.67,1.3,2.54,2.54,0,0,1,0,.78,3.15,3.15,0,0,1-.25.73c-.05.11-.12.22-.18.33s-.13.19-.2.29a2.46,2.46,0,0,1-.45.46,1.77,1.77,0,0,1-.24.17,1.34,1.34,0,0,1-.23.13,1,1,0,0,1-.21.1l-.19.06a1.21,1.21,0,0,1-.27,0Z" transform="translate(0 0)" style="fill: #a77849" vector-effect="non-scaling-stroke"/>
      </g>
      <g>
        <path d="M84.35,154.27a4.15,4.15,0,0,0,1.05-3.2c-.26-1.83,5.33-1.34,5.33-1.34l4,3.91Z" transform="translate(0 0)" style="fill: #331712" vector-effect="non-scaling-stroke"/>
        <path d="M56.16,150.48s-9.78,3.73-10.76,5a2.62,2.62,0,0,0,0,2.82s9.83-.05,12.13-1v.92l5.66,0-.69-6.46Z" transform="translate(0 0)" style="fill: #522019" vector-effect="non-scaling-stroke"/>
        <path d="M61.69,113.19s-6.91,15.46-7.79,21.15c-.92,5.88.78,17.91.78,17.91s4.71,2.48,8,0c0,0-2.09-12.16,0-18.18S69.85,120,69.85,120a26.63,26.63,0,0,1,10.85-.27,51.85,51.85,0,0,0-.27,17.42,76.9,76.9,0,0,0,4.32,14.22s4.44,1.7,6.8-1.44c0,0-3.66-12.29-2.29-20.49,1-6,3.2-17.68.33-21.6S64.52,104.34,61.69,113.19Z" transform="translate(0 0)" style="fill: #b48140" vector-effect="non-scaling-stroke"/>
        <path d="M61.69,113.19l-.5,1c-.23.63-.48,1.26-.76,1.88,0,0,1.49-1.42,7.53-1.6,0,0,2.12-2.73,2.46-4.92.18-1.18.93,4.64.93,4.64A86.84,86.84,0,0,1,91,115.45c.08-3.22-.25-6.07-1.4-7.65C86.71,103.87,64.52,104.34,61.69,113.19Z" transform="translate(0 0)" style="fill: #6e5027" vector-effect="non-scaling-stroke"/>
        <path d="M84.33,158.3s-3-5.4,5.09-6.09,6.18,6.09,6.18,6.09Z" transform="translate(0 0)" style="fill: #522019" vector-effect="non-scaling-stroke"/>
        <path d="M80.7,119.69l-.19,0-.53-.07-.83,0c-.32,0-.69,0-1.08,0s-.82,0-1.27,0l-1.41.08c-.49,0-1,.1-1.52.13l-1.56.13-1.56.18c-.52.07-1,.11-1.52.16s-1,.09-1.42.15l-1.27.15c-1.58.16-2.66.2-2.66.2s1-.33,2.57-.71l1.26-.3.68-.16.73-.12,1.52-.23,1.58-.21,1.59-.1c.53,0,1-.07,1.55-.06s1,0,1.45,0a10.21,10.21,0,0,1,1.3.13,9.45,9.45,0,0,1,1.08.17c.32.08.6.15.82.22l.52.2Z" transform="translate(0 0)" style="fill: #6e5027" vector-effect="non-scaling-stroke"/>
        <path d="M65.74,122.29s.26-.24.68-.56c.2-.17.45-.35.72-.54s.57-.38.86-.57l.45-.28c.15-.08.3-.18.45-.25a7,7,0,0,1,.86-.31,5.58,5.58,0,0,1,.88-.12l0,0a5.82,5.82,0,0,1-.77.42l-.37.2-.42.2c-.15,0-.3.14-.45.2l-.47.21c-.31.16-.62.32-.9.48s-.55.31-.77.45c-.45.26-.74.46-.74.46Z" transform="translate(0 0)" style="fill: #6e5027" vector-effect="non-scaling-stroke"/>
      </g>
      <g>
        <path d="M61.38,83.41s5.95,18.31-.57,31.78a13.75,13.75,0,0,1,12-7.21c12.71-.39,18.08,6.5,18.08,6.5.49-1.76-3.08-30.88-9.43-35.87S62.16,80.64,61.38,83.41Z" transform="translate(0 0)" style="fill: #fffffb" vector-effect="non-scaling-stroke"/>
        <path d="M68.16,80.75a129.7,129.7,0,0,1,0,19.89l4.12,2.68L73.6,102a111.8,111.8,0,0,0-2.93-21.83Z" transform="translate(0 0)" style="fill: #d7272a" vector-effect="non-scaling-stroke"/>
        <path d="M81.61,78.4A9.78,9.78,0,0,0,75,76.7c1.53.52,2.62,3.26,2.55,3.57s-2.53,1.48-2.4,1.8c0,0,3.12,2.11,2.89,2.76a32.93,32.93,0,0,1-8.17,12.83s-5.16-8.94-5.14-9.16S66,84.84,66,84.84,65.69,84,64,84c-.34,0,.25-3.53.29-3.72-1.72,1.12-3,2.26-3,3.1,0,0,5.69,18.25-.44,31.8,0,0,1.32-1.74,7.35-1.91a14.77,14.77,0,0,0,2.28-4.91c.18-1.17,1,4.68,1,4.68,12.71-.59,19.6,1.87,19.6,1.87C91.54,109.51,88,83.39,81.61,78.4Z" transform="translate(0 0)" style="fill: #b48140" vector-effect="non-scaling-stroke"/>
        <path d="M62.66,89.39l.16.85.18,1c.06.38.12.81.2,1.27s.14,1,.2,1.51c0,.27.07.55.1.83l.09.86c0,.59.1,1.2.14,1.82s.07,1.25.08,1.88,0,1.26,0,1.88,0,1.23-.05,1.82l-.06.87c0,.29-.06.56-.09.83,0,.54-.14,1-.21,1.52a6.45,6.45,0,0,1-.12.66c0,.22-.08.42-.12.61s-.07.36-.11.52l-.12.44c-.13.54-.22.84-.22.84h0s0-.31.12-.85c0-.28.09-.61.13-1s.1-.8.14-1.27.11-1,.14-1.51c0-.27,0-.54.07-.82s0-.57.05-.86c0-.59.06-1.19.09-1.81s0-1.24,0-1.87,0-1.25,0-1.87-.06-1.22-.1-1.81l-.06-.86c0-.28-.05-.56-.07-.83-.05-.53-.11-1-.16-1.51s-.1-.89-.16-1.27l-.14-1c-.08-.55-.13-.86-.13-.86Z" transform="translate(0 0)" style="fill: #6e5027" vector-effect="non-scaling-stroke"/>
        <path d="M73.56,76.84s2.56,15.45-3.67,20.82c0,0,6.5-4.94,8.57-12.39.19-.69-2.89-2.78-2.89-2.78-.14-.34,2.56-1.57,2.64-1.91s-1.39-3.76-2.46-3.89A4.32,4.32,0,0,0,73.56,76.84Z" transform="translate(0 0)" style="fill: #6e5027" vector-effect="non-scaling-stroke"/>
        <path d="M64.26,80.27s-.81,4-.47,4c1.72,0,2,.45,2,.45s-1.28,3.46-1.3,3.68c-.39,3.91,5.38,9.26,5.38,9.26-3.84-6.29-2.61-17.07-4.41-18.12C65.16,79.36,64.7,79.8,64.26,80.27Z" transform="translate(0 0)" style="fill: #cc9b5c" vector-effect="non-scaling-stroke"/>
        <path d="M73.6,76.82s2.46,15-3.71,20.84c0,0,6.44-5.35,8.3-12.93.16-.67-2.74-2.68-2.74-2.68-.13-.32,2.35-1.48,2.41-1.8s-1.32-3.45-2.28-3.57A3.92,3.92,0,0,0,73.6,76.82Z" transform="translate(0 0)" style="fill: #cc9b5c" vector-effect="non-scaling-stroke"/>
        <path d="M71,99.14c.06.41-.11.77-.36.81s-.5-.28-.56-.7.11-.77.37-.81S70.92,98.72,71,99.14Z" transform="translate(0 0)" style="fill: #fbe500" vector-effect="non-scaling-stroke"/>
        <path d="M71.44,105.79c0,.42-.21.76-.46.76s-.47-.34-.47-.76.21-.75.47-.75S71.44,105.37,71.44,105.79Z" transform="translate(0 0)" style="fill: #fbe500" vector-effect="non-scaling-stroke"/>
        <path d="M66.74,79.22a5,5,0,0,0,1.45,1.71,2.27,2.27,0,0,0,2.48-.75,3.25,3.25,0,0,0-.07-2.41C70.31,77.18,66.2,78.47,66.74,79.22Z" transform="translate(0 0)" style="fill: #b92227" vector-effect="non-scaling-stroke"/>
      </g>
      <g>
        <path d="M39.15,41.85S50,31,71.06,33,89.28,69,84.64,74c-3.89,4.19-22.81,12.4-34.94,6.07-5.67-3-6.88-8-7.72-13-.06-.34,0,0,0-.34-.7-5.32-1.07-11.1-1.2-14.93C40.47,44.22,39.15,41.85,39.15,41.85Z" transform="translate(0 0)" style="fill: #eab381" vector-effect="non-scaling-stroke"/>
        <path d="M56,70.9S67.08,73.1,71.52,69c0,0-.12,9.25-9.48,7.72C59.41,76.31,55.79,74,56,70.9Z" transform="translate(0 0)" style="fill: #c04747" vector-effect="non-scaling-stroke"/>
        <path d="M69,71.66c-4.15,1.28-6,3.41-6.87,5.09,6.32,1,8.38-3,9.06-5.59A20.28,20.28,0,0,0,69,71.66Z" transform="translate(0 0)" style="fill: #f05859" vector-effect="non-scaling-stroke"/>
        <path d="M67.78,70.7c-2.78.9-8.51-1.58-9.27,1a6.44,6.44,0,0,0,2.85,1.39C63,73.36,66.33,73.24,67.78,70.7Z" transform="translate(0 0)" style="fill: #fff" vector-effect="non-scaling-stroke"/>
        <path d="M50.72,70.44C52.24,68.94,54,65.16,60,66.8c0,0,2.8-2.88,8.63-1,4.12,1.32,5.75,3.21,9.09,2.27,0,0-8.07,7.3-17,2.64,0,0-1.86,2.67-6.33,3-6,.41-8.17-1.41-8.17-1.41A5.66,5.66,0,0,0,50.72,70.44Z" transform="translate(0 0)" style="fill: #30302f" vector-effect="non-scaling-stroke"/>
        <path d="M40.87,54.9s-.06-2-.2-4.34c-.34-5.84,0-11.6,13.6-13.74,15.87-2.5,17.53,2.1,24.32-.58,4.15,8.92.45,12.91,4.47,18.54V53.51c.12-.42.41-.65,1.23-.72,1.88-.15,3.65,11.76,2.8,15,0,0,14.74-25.5-.42-36.57a9.7,9.7,0,0,0-6.41-1.58s.64-5.52-11.93-6.87C53.58,21.15,25.14,32.25,40.87,54.9Z" transform="translate(0 0)" style="fill: #30302f" vector-effect="non-scaling-stroke"/>
        <path d="M57.05,53.18l.16.07.46.17.33.09.39.1.44.08.49.08c.34,0,.7.07,1.09.09h1.22c.21,0,.42,0,.64,0l.65,0,.67-.08.34,0,.33-.06.68-.1.67-.13.33-.06h.14l.17,0,.33-.08.32-.07c.18-.06.37-.1.55-.17a5.63,5.63,0,0,0,.54-.19c.17-.08.35-.14.5-.22l.23-.12.21-.13a4.11,4.11,0,0,0,1.18-1.07,2.48,2.48,0,0,0,.24-.42,1.37,1.37,0,0,0,.07-.16.85.85,0,0,1,0,.18,1.92,1.92,0,0,1,0,.52,3.3,3.3,0,0,1-.24.79,3.7,3.7,0,0,1-.6.92,2.13,2.13,0,0,1-.21.22l-.23.22c-.16.15-.34.27-.52.41a7.27,7.27,0,0,1-1.27.68c-.24.11-.43.16-.66.25l-.16,0-.2.06L66,55c-.24.06-.48.13-.72.18l-.74.13a12.48,12.48,0,0,1-1.5.14,10,10,0,0,1-1.46-.07l-.36,0-.34-.06a6.38,6.38,0,0,1-.66-.15c-.21-.07-.42-.11-.61-.19L59,54.72l-.49-.24-.42-.26L57.77,54l-.27-.24a4.79,4.79,0,0,1-.35-.38Z" transform="translate(0 0)" style="fill: #1b1c1c" vector-effect="non-scaling-stroke"/>
        <path d="M42.35,56.1l.09,0,.27.13.41.17a5,5,0,0,0,.51.19l.59.16a3.39,3.39,0,0,0,.64.07,2.77,2.77,0,0,0,.64,0h.15l.21,0a3,3,0,0,0,.35-.08c.23-.06.48-.13.72-.21l.7-.24,1.27-.51c.37-.16.68-.31.9-.43l.25-.15.09-.06s0,0,0,.11a1.6,1.6,0,0,1-.11.29,3.12,3.12,0,0,1-.23.43,5.15,5.15,0,0,1-.39.48,5.46,5.46,0,0,1-1.19,1,6.26,6.26,0,0,1-.77.41L47,58l-.44.13-.48.1-.21,0-.13,0h-.12a2.77,2.77,0,0,1-.5,0l-.24,0-.23-.06a3.41,3.41,0,0,1-.83-.32,4,4,0,0,1-.62-.46,3.3,3.3,0,0,1-.69-.86A2.3,2.3,0,0,1,42.35,56.1Z" transform="translate(0 0)" style="fill: #1b1c1c" vector-effect="non-scaling-stroke"/>
        <path d="M53,54.05s-.59.71-1.47,1.71c-.43.51-.93,1.09-1.41,1.72a10.64,10.64,0,0,0-.66,1,3.56,3.56,0,0,0-.46,1,1.43,1.43,0,0,0-.05.83,3.32,3.32,0,0,0,.2.5,3.17,3.17,0,0,0,.25.4A5.52,5.52,0,0,0,51,62.44a15.4,15.4,0,0,0,2,.92,5.52,5.52,0,0,1-2.33-.06,4.9,4.9,0,0,1-2.29-1.15,4.23,4.23,0,0,1-.51-.63c-.08-.12-.17-.27-.23-.38l-.12-.31a2.89,2.89,0,0,1,0-1.79,5.08,5.08,0,0,1,.69-1.4,6.92,6.92,0,0,1,.91-1.07,10.64,10.64,0,0,1,1.86-1.49A9.6,9.6,0,0,1,53,54.05Z" transform="translate(0 0)" style="fill: #a77849" vector-effect="non-scaling-stroke"/>
        <path d="M83.06,53.51a19.07,19.07,0,0,1,6.38-6.85c5.08-3,.06,12.69-2.18,14.4s-2.62-1.28-2.62-1.28Z" transform="translate(0 0)" style="fill: #eab381" vector-effect="non-scaling-stroke"/>
      </g>
      <g>
        <rect x="92.55" y="21.7" width="31.81" height="61.52" style="fill: #c3d9d9" vector-effect="non-scaling-stroke"/>
        <rect x="123.58" y="21.7" width="24.02" height="61.52" style="fill: #e6f2f2" vector-effect="non-scaling-stroke"/>
        <g>
          <polygon points="142.4 25.02 128.65 25.02 123.45 25.02 123.45 25.66 128.65 25.66 142.4 25.66 147.6 25.66 147.6 25.02 142.4 25.02" style="fill: #c3d9d9" vector-effect="non-scaling-stroke"/>
          <rect x="143.86" y="27.62" width="3.74" height="0.64" style="fill: #c3d9d9" vector-effect="non-scaling-stroke"/>
          <rect x="128.65" y="39.5" width="18.95" height="0.64" style="fill: #c3d9d9" vector-effect="non-scaling-stroke"/>
          <rect x="143.98" y="32.47" width="3.61" height="0.64" style="fill: #c3d9d9" vector-effect="non-scaling-stroke"/>
          <rect x="143.86" y="38.26" width="3.74" height="0.64" style="fill: #c3d9d9" vector-effect="non-scaling-stroke"/>
          <rect x="128.65" y="42.38" width="18.95" height="0.64" style="fill: #c3d9d9" vector-effect="non-scaling-stroke"/>
          <rect x="143.86" y="44.98" width="3.74" height="0.64" style="fill: #c3d9d9" vector-effect="non-scaling-stroke"/>
          <rect x="128.65" y="52.3" width="18.95" height="0.64" style="fill: #c3d9d9" vector-effect="non-scaling-stroke"/>
          <rect x="143.98" y="49.83" width="3.61" height="0.64" style="fill: #c3d9d9" vector-effect="non-scaling-stroke"/>
          <rect x="143.86" y="55.63" width="3.74" height="0.64" style="fill: #c3d9d9" vector-effect="non-scaling-stroke"/>
          <rect x="128.65" y="59" width="18.95" height="0.64" style="fill: #c3d9d9" vector-effect="non-scaling-stroke"/>
          <rect x="133.84" y="64.26" width="13.76" height="0.64" style="fill: #c3d9d9" vector-effect="non-scaling-stroke"/>
          <rect x="143.86" y="61.6" width="3.74" height="0.64" style="fill: #c3d9d9" vector-effect="non-scaling-stroke"/>
          <rect x="143.98" y="67.61" width="3.61" height="0.64" style="fill: #c3d9d9" vector-effect="non-scaling-stroke"/>
          <rect x="143.86" y="72.24" width="3.74" height="0.64" style="fill: #c3d9d9" vector-effect="non-scaling-stroke"/>
          <rect x="143.86" y="78.96" width="3.74" height="0.64" style="fill: #c3d9d9" vector-effect="non-scaling-stroke"/>
          <rect x="123.45" y="28.7" width="13.76" height="0.64" style="fill: #c3d9d9" vector-effect="non-scaling-stroke"/>
          <rect x="123.45" y="27.62" width="3.74" height="0.64" style="fill: #c3d9d9" vector-effect="non-scaling-stroke"/>
          <rect x="123.45" y="32.47" width="3.61" height="0.64" style="fill: #c3d9d9" vector-effect="non-scaling-stroke"/>
          <rect x="123.45" y="36.73" width="13.76" height="0.64" style="fill: #c3d9d9" vector-effect="non-scaling-stroke"/>
          <rect x="123.45" y="38.26" width="3.74" height="0.64" style="fill: #c3d9d9" vector-effect="non-scaling-stroke"/>
          <rect x="123.45" y="46.06" width="13.76" height="0.64" style="fill: #c3d9d9" vector-effect="non-scaling-stroke"/>
          <rect x="123.45" y="44.98" width="3.74" height="0.64" style="fill: #c3d9d9" vector-effect="non-scaling-stroke"/>
          <rect x="123.45" y="49.83" width="3.61" height="0.64" style="fill: #c3d9d9" vector-effect="non-scaling-stroke"/>
          <rect x="123.45" y="56.81" width="13.76" height="0.64" style="fill: #c3d9d9" vector-effect="non-scaling-stroke"/>
          <rect x="123.45" y="55.63" width="3.74" height="0.64" style="fill: #c3d9d9" vector-effect="non-scaling-stroke"/>
          <rect x="123.45" y="62.68" width="13.76" height="0.64" style="fill: #c3d9d9" vector-effect="non-scaling-stroke"/>
          <rect x="123.45" y="61.6" width="3.74" height="0.64" style="fill: #c3d9d9" vector-effect="non-scaling-stroke"/>
          <rect x="123.45" y="73.48" width="18.95" height="0.64" style="fill: #c3d9d9" vector-effect="non-scaling-stroke"/>
          <rect x="123.45" y="66.45" width="10.92" height="0.64" style="fill: #c3d9d9" vector-effect="non-scaling-stroke"/>
          <rect x="123.45" y="72.24" width="3.74" height="0.64" style="fill: #c3d9d9" vector-effect="non-scaling-stroke"/>
          <rect x="123.45" y="76.36" width="9.21" height="0.64" style="fill: #c3d9d9" vector-effect="non-scaling-stroke"/>
          <rect x="123.45" y="80.04" width="24.14" height="0.64" style="fill: #c3d9d9" vector-effect="non-scaling-stroke"/>
          <rect x="123.45" y="78.96" width="3.74" height="0.64" style="fill: #c3d9d9" vector-effect="non-scaling-stroke"/>
        </g>
        <g>
          <rect x="92.55" y="44.98" width="31.03" height="0.64" style="fill: #98b3b3" vector-effect="non-scaling-stroke"/>
          <rect x="92.55" y="52.3" width="31.03" height="0.64" style="fill: #98b3b3" vector-effect="non-scaling-stroke"/>
          <rect x="92.55" y="49.83" width="31.03" height="0.64" style="fill: #98b3b3" vector-effect="non-scaling-stroke"/>
          <rect x="92.55" y="61.6" width="31.03" height="0.64" style="fill: #98b3b3" vector-effect="non-scaling-stroke"/>
          <rect x="92.55" y="59" width="31.03" height="0.64" style="fill: #98b3b3" vector-effect="non-scaling-stroke"/>
          <rect x="92.55" y="56.81" width="31.03" height="0.64" style="fill: #98b3b3" vector-effect="non-scaling-stroke"/>
          <rect x="92.55" y="55.63" width="31.03" height="0.64" style="fill: #98b3b3" vector-effect="non-scaling-stroke"/>
          <rect x="92.55" y="46.06" width="31.03" height="0.64" style="fill: #98b3b3" vector-effect="non-scaling-stroke"/>
          <rect x="92.55" y="28.7" width="31.03" height="0.64" style="fill: #98b3b3" vector-effect="non-scaling-stroke"/>
          <rect x="92.55" y="27.62" width="31.03" height="0.64" style="fill: #98b3b3" vector-effect="non-scaling-stroke"/>
          <rect x="92.55" y="42.38" width="31.03" height="0.64" style="fill: #98b3b3" vector-effect="non-scaling-stroke"/>
          <rect x="92.55" y="32.47" width="31.03" height="0.64" style="fill: #98b3b3" vector-effect="non-scaling-stroke"/>
          <rect x="92.55" y="25.02" width="31.03" height="0.64" style="fill: #98b3b3" vector-effect="non-scaling-stroke"/>
          <rect x="92.55" y="39.5" width="31.03" height="0.64" style="fill: #98b3b3" vector-effect="non-scaling-stroke"/>
          <rect x="92.55" y="38.26" width="31.03" height="0.64" style="fill: #98b3b3" vector-effect="non-scaling-stroke"/>
          <rect x="92.55" y="36.73" width="31.03" height="0.64" style="fill: #98b3b3" vector-effect="non-scaling-stroke"/>
          <rect x="92.55" y="76.36" width="31.03" height="0.64" style="fill: #98b3b3" vector-effect="non-scaling-stroke"/>
          <rect x="92.55" y="62.68" width="31.03" height="0.64" style="fill: #98b3b3" vector-effect="non-scaling-stroke"/>
          <rect x="92.55" y="70.71" width="31.03" height="0.64" style="fill: #98b3b3" vector-effect="non-scaling-stroke"/>
          <rect x="92.55" y="66.45" width="31.03" height="0.64" style="fill: #98b3b3" vector-effect="non-scaling-stroke"/>
          <rect x="92.55" y="72.24" width="31.03" height="0.64" style="fill: #98b3b3" vector-effect="non-scaling-stroke"/>
          <rect x="92.55" y="73.48" width="31.03" height="0.64" style="fill: #98b3b3" vector-effect="non-scaling-stroke"/>
          <rect x="92.55" y="80.04" width="31.03" height="0.64" style="fill: #98b3b3" vector-effect="non-scaling-stroke"/>
          <rect x="92.55" y="78.96" width="31.03" height="0.64" style="fill: #98b3b3" vector-effect="non-scaling-stroke"/>
        </g>
      </g>
      <g>
        <path d="M106.6,84.9s1-3.85,6.77-2.75c1.57.3,12.35-1.09,7.38,3.85-3.22,3.21-8,1.62-10.6,3.39S106.6,84.9,106.6,84.9Z" transform="translate(0 0)" style="fill: #eab381" vector-effect="non-scaling-stroke"/>
        <path d="M113.37,82.12h.07l.19,0h.73c.64,0,1.55-.06,2.64-.07.55,0,1.14,0,1.77,0a9.42,9.42,0,0,1,2,.3,2.9,2.9,0,0,1,1,.47,1.2,1.2,0,0,1,.39.47.76.76,0,0,1,.1.3l0,.16a.76.76,0,0,1,0,.15,2.23,2.23,0,0,1-.42,1.09l-.15.24-.18.22a5.12,5.12,0,0,1-.36.43l-.19.21-.21.19-.4.37-.47.33-.23.17-.24.13-.49.27-.51.21a3.09,3.09,0,0,1-.51.18c-.17,0-.34.11-.51.15a14.73,14.73,0,0,1-2,.33c-.63.07-1.22.1-1.76.14s-1,.08-1.46.15l-.31,0-.29.07a3.31,3.31,0,0,0-.5.13l-.4.13-.27.14-.24.11,0,0,.22-.16.26-.18.39-.19a2.6,2.6,0,0,1,.5-.2l.29-.1.31-.08a6.61,6.61,0,0,1,.7-.15c.25-.06.51-.1.78-.14l1.74-.24c.61-.09,1.25-.19,1.9-.35l.48-.14a4.42,4.42,0,0,0,.48-.15l.47-.18.46-.23.23-.12.22-.14.42-.28.42-.35.19-.17.19-.19c.12-.13.25-.25.36-.39l.17-.2.14-.21a2.06,2.06,0,0,0,.39-.89.88.88,0,0,0-.34-.77,2.78,2.78,0,0,0-.86-.43,9.94,9.94,0,0,0-1.89-.35c-.62-.06-1.21-.09-1.75-.1-1.09,0-2,0-2.64,0l-.74,0-.19,0h-.07Z" transform="translate(0 0)" style="fill: #a77849" vector-effect="non-scaling-stroke"/>
        <path d="M81.4,78.22s11.15,9.27,13.48,10.27A69.94,69.94,0,0,0,107.19,84s.88,4,4.09,5a46.7,46.7,0,0,1-18.06,6.63c-3,.36-14.23-7.66-14.23-7.66S78.92,77,81.4,78.22Z" transform="translate(0 0)" style="fill: #b48140" vector-effect="non-scaling-stroke"/>
        <path d="M107.31,91.18l-1.06.53c-.33.17-.76.35-1.23.58s-1,.45-1.63.7-1.26.49-2,.77c-.35.14-.72.24-1.09.37s-.74.25-1.13.36l-1.2.34-.61.16-.62.15-1.26.28c-.42.09-.85.14-1.28.22l-.64.11-.32,0a2.17,2.17,0,0,1-.36,0,5.06,5.06,0,0,1-1.33-.25,16.52,16.52,0,0,1-2.35-1c-.73-.36-1.42-.74-2.07-1.12s-1.24-.75-1.78-1.1-1-.69-1.47-1-.81-.57-1.12-.79c-.61-.45-1-.72-1-.72l0,0L85.64,92l1.83,1c.65.35,1.33.72,2,1.07a18.88,18.88,0,0,0,2.25,1,4.23,4.23,0,0,0,1.16.27c.08,0,.22,0,.3,0l.31,0,.64-.08c.42-.07.85-.11,1.27-.19l1.25-.24.62-.13.61-.15,1.19-.3c.77-.22,1.52-.44,2.23-.67s1.37-.45,2-.69,1.16-.44,1.64-.65.91-.37,1.25-.53l1.08-.5Z" transform="translate(0 0)" style="fill: #6e5027" vector-effect="non-scaling-stroke"/>
        <path d="M93.3,89.29l-.25.12-.22.1.18-.16.22-.17a1.74,1.74,0,0,1,.3-.2l.37-.21c.13-.06.26-.14.4-.19a3.45,3.45,0,0,1-.45,0l-.25,0a2,2,0,0,1-.24,0,3.08,3.08,0,0,1-.42-.12,3.59,3.59,0,0,1-.39-.17,7.48,7.48,0,0,0,2.33.28c.06,0-.07,0,0,0s1.26-.29,3.15-.81h0L97.2,88l-1.8.58c-.34.09-.65.22-1,.31s-.58.22-.82.3A2.52,2.52,0,0,0,93.3,89.29Z" transform="translate(0 0)" style="fill: #6e5027" vector-effect="non-scaling-stroke"/>
      </g>
    </g>
  </g></svg>