<svg version="1.1" overflow="visible" preserveAspectRatio="none" viewBox="0 0 102 102" width="24" height="24" xmlns="http://www.w3.org/2000/svg"><g transform="translate(1, 1)"><g>
  <path d="m37.102 70c-0.5-0.39844-1.1016-0.69922-1.6992-0.69922l-4.2031-0.30078c-4.3008-0.30078-8.1016-2.5-10.602-5.6992l-10 21.301c-0.89844 2 0.80078 4.3008 3 3.8984l9-1.6992c1.1016-0.19922 2.3008 0.30078 2.8984 1.3984l4.3984 8c1.1016 2 3.8984 1.8984 4.8008-0.19922l9.6992-20.699c-1.5-0.60156-2.8008-1.3984-4.1016-2.5z" vector-effect="non-scaling-stroke" style="fill: rgb(14, 171, 166);"/>
  <path d="m89.398 84.602-10-21.301c-2.5 3.1992-6.3008 5.3008-10.602 5.6992l-4.1992 0.30078c-0.69922 0.10156-1.1992 0.30078-1.6992 0.69922l-3.1992 2.6992c-1.1992 1-2.6016 1.8984-4.1016 2.5l9.6992 20.699c0.89844 2 3.8008 2.1016 4.8008 0.19922l4.3984-8c0.60156-1 1.6992-1.6016 2.8984-1.3984l9 1.6992c2.207 0.40234 4.0039-1.7969 3.0039-3.7969z" vector-effect="non-scaling-stroke" style="fill: rgb(14, 171, 166);"/>
  <path d="m59 65.5c1.3984-1.1992 3.1992-2 5.1016-2.1016l4.1992-0.30078c4.3984-0.30078 7.8984-3.8008 8.1992-8.1992l0.30078-4.1992c0.10156-1.8984 0.89844-3.6992 2.1016-5.1016l2.8008-3.1992c2.8984-3.3984 2.8984-8.3008 0-11.602l-2.8008-3.1992c-1.1992-1.3984-2-3.1992-2.1016-5.1016l-0.30078-4.1992c-0.30078-4.3984-3.8008-7.8984-8.1992-8.1992l-4.1992-0.30078c-1.8984-0.10156-3.6992-0.89844-5.1016-2.1016l-3.1992-2.8008c-3.3984-2.8984-8.3008-2.8984-11.602 0l-3.1992 2.5039c-1.3984 1.1992-3.1992 2-5.1016 2.1016l-4.1992 0.30078c-4.3984 0.30078-7.8984 3.8008-8.1992 8.1992l-0.30078 4.1992c-0.10156 1.8984-0.89844 3.6992-2.1016 5.1016l-2.8008 3.1992c-2.8984 3.3984-2.8984 8.3008 0 11.602l2.8008 3.1992c1.1992 1.3984 2 3.1992 2.1016 5.1016l0.30078 4.1992c0.30078 4.3984 3.8008 7.8984 8.1992 8.1992l4.1992 0.30078c1.8984 0.10156 3.6992 0.89844 5.1016 2.1016l3.1992 2.8008c3.3984 2.8984 8.3008 2.8984 11.602 0zm-27.801-29c0-10.398 8.3984-18.801 18.801-18.801 10.398 0 18.801 8.3984 18.801 18.801 0 10.398-8.4023 18.801-18.801 18.801s-18.801-8.5-18.801-18.801z" vector-effect="non-scaling-stroke" style="fill: rgb(14, 171, 166);"/>
  <path d="m60.602 31.602-5.1992-1c-0.5-0.10156-1-0.39844-1.1992-0.89844l-2.6016-4.7031c-0.69922-1.1992-2.5-1.1992-3.1016 0l-2.6016 4.6992c-0.30078 0.5-0.69922 0.80078-1.1992 0.89844l-5.1992 1c-1.3984 0.30078-1.8984 2-1 3l3.6016 3.8984c0.39844 0.39844 0.5 0.89844 0.5 1.3984l-0.60156 5.3008c-0.19922 1.3984 1.3008 2.3984 2.5 1.8008l4.8008-2.3008c0.5-0.19922 1-0.19922 1.5 0l4.8008 2.3008c1.3008 0.60156 2.6992-0.39844 2.5-1.8008l-0.60156-5.3008c-0.10156-0.5 0.10156-1.1016 0.5-1.3984l3.6016-3.8984c0.89844-1.0977 0.39844-2.6992-1-2.9961z" vector-effect="non-scaling-stroke" style="fill: rgb(14, 171, 166);"/>
 </g></g></svg>