<svg version="1.1" overflow="visible" preserveAspectRatio="none" viewBox="0 0 102 102" width="27" height="27" xmlns="http://www.w3.org/2000/svg"><g transform="translate(1, 1)"><g>
  <path d="m66.18 22.602l-2.4805-1.0703c-1.2617-0.53906-2.7383 0.039062-3.2812 1.3008l-3.6914 8.5703-29.746-12.812c-0.42188-3.4102-3.3398-6.0586-6.8594-6.0586-3.8086 0-6.9219 3.1016-6.9219 6.9102s3.1016 6.9219 6.9219 6.9219c1.2305 0 2.3906-0.32031 3.3906-0.89062l32.238 13.891 2.7109 1.1719c1.0781 0.46875 2.3281 0.10156 3-0.82031 0.10937-0.14844 0.19922-0.30859 0.26953-0.48047l1.1094-2.5703 0.019531-0.039062 4.6289-10.75c0.54297-1.2539-0.046875-2.7266-1.3086-3.2734zm-46.059 0.58984c-0.23828 0-0.46875-0.019531-0.69922-0.070312-1.7305-0.32812-3.0391-1.8516-3.0391-3.6797 0-2.0586 1.6797-3.7383 3.7383-3.7383 1.1211 0 2.1211 0.48828 2.8008 1.2695 0.57812 0.66016 0.94141 1.5312 0.94141 2.4805-0.003906 2.0586-1.6836 3.7383-3.7422 3.7383z" vector-effect="non-scaling-stroke" style="fill: rgb(14, 171, 166);"/>
  <path d="m62.828 36.672c-0.011719 0.03125-0.019531 0.050781-0.03125 0.078125l-1.0703 2.4805s0 0.011719-0.011718 0.011719z" vector-effect="non-scaling-stroke" style="fill: rgb(14, 171, 166);"/>
  <path d="m54.531 27.98l-15.742-6.7812c-0.60937-0.26172-0.89062-0.96875-0.62891-1.5781l2.1016-4.8711c0.26172-0.60938 0.96875-0.89062 1.5781-0.62891l15.738 6.7812c0.60938 0.26172 0.89062 0.96875 0.62891 1.5781l-2.1016 4.8711c-0.25391 0.60938-0.96484 0.88672-1.5742 0.62891z" vector-effect="non-scaling-stroke" style="fill: rgb(14, 171, 166);"/>
  <path d="m61.449 39.719c-0.67188 0.92188-1.9219 1.2891-3.0117 0.82812l-2.4805-1.0703c-0.070312-0.03125-0.14844-0.070312-0.21875-0.10937l2.7109 1.1719c1.0898 0.46094 2.332 0.10156 3-0.82031z" vector-effect="non-scaling-stroke" style="fill: rgb(14, 171, 166);"/>
  <path d="m63.031 63.25l-2.4883-1.0586s-0.011719 0-0.011719-0.011718z" vector-effect="non-scaling-stroke" style="fill: rgb(14, 171, 166);"/>
  <path d="m71.75 54.941l6.7109-15.77c0.26172-0.60938 0.96875-0.89062 1.5703-0.62891l4.8711 2.0703c0.60938 0.26172 0.89062 0.96875 0.62891 1.5703l-6.7109 15.77c-0.26172 0.60938-0.96875 0.89062-1.5703 0.62891l-4.8711-2.0703c-0.59766-0.26172-0.89062-0.97266-0.62891-1.5703z" vector-effect="non-scaling-stroke" style="fill: rgb(14, 171, 166);"/>
  <path d="m59.699 61.609l0.019531 0.019531c0-0.007812-0.007812-0.007812-0.019531-0.019531 0.011719 0 0.011719 0 0 0z" vector-effect="non-scaling-stroke" style="fill: rgb(14, 171, 166);"/>
  <path d="m59.719 61.621c0.03125 0.03125 0.050781 0.058594 0.078125 0.078125-0.027344-0.019531-0.046875-0.050781-0.078125-0.078125z" vector-effect="non-scaling-stroke" style="fill: rgb(14, 171, 166);"/>
  <path d="m59.609 61.5c0.03125 0.039062 0.058594 0.070312 0.089844 0.10156-0.67188-0.69922-0.89844-1.7617-0.5-2.6992l1.0586-2.4883c0.03125-0.070312 0.070313-0.14062 0.10938-0.21094l-1.1484 2.7109c-0.14844 0.35938-0.21875 0.73828-0.19922 1.1094 0 0.03125 0 0.050781 0.011719 0.070312 0 0.03125 0 0.050781 0.011719 0.078125v0.011719c0.011719 0.039062 0.011719 0.089844 0.019531 0.12891 0.011719 0.039062 0.011719 0.078125 0.019531 0.12109 0 0.019531 0.011719 0.039062 0.019531 0.058594 0.011719 0.039062 0.019532 0.070312 0.03125 0.10156 0.011719 0.039062 0.019532 0.078125 0.039063 0.12109 0 0.019531 0.011719 0.03125 0.019531 0.050781 0.011719 0.039063 0.03125 0.078125 0.050782 0.10938 0.019531 0.039062 0.03125 0.070312 0.050781 0.10938 0.011719 0.019531 0.019531 0.050781 0.039062 0.070313 0 0.011718 0.011719 0.019531 0.011719 0.03125 0.019531 0.03125 0.03125 0.058593 0.050781 0.078124 0.011719 0.03125 0.03125 0.050782 0.050781 0.070313 0.019532 0.03125 0.039063 0.070313 0.070313 0.10156 0.019531 0.019531 0.03125 0.050781 0.050781 0.070312-0.007812 0.035156 0.011719 0.0625 0.042969 0.09375z" vector-effect="non-scaling-stroke" style="fill: rgb(14, 171, 166);"/>
  <path d="m59.93 61.82c-0.039063-0.039062-0.078126-0.070312-0.12109-0.10937 0.03125 0.027343 0.070312 0.070312 0.12109 0.10937z" vector-effect="non-scaling-stroke" style="fill: rgb(14, 171, 166);"/>
  <path d="m37.578 61.09l-1.0781 2.5703c0.011719-0.019531 0.019531-0.050781 0.03125-0.070312l1.0508-2.4883-0.003906-0.011718z" vector-effect="non-scaling-stroke" style="fill: rgb(14, 171, 166);"/>
  <path d="m44.879 72.281l15.801 6.6406c0.60937 0.26172 0.89844 0.96094 0.64062 1.5703l-2.0508 4.8789c-0.26172 0.60938-0.96094 0.89844-1.5703 0.64062l-15.801-6.6406c-0.60938-0.26172-0.89844-0.96094-0.64063-1.5703l2.0508-4.8789c0.25-0.61328 0.96094-0.90234 1.5703-0.64062z" vector-effect="non-scaling-stroke" style="fill: rgb(14, 171, 166);"/>
  <path d="m43.551 60.898l-2.7109-1.1406c-0.96875-0.39844-2.0586-0.14844-2.75 0.55859 0.69141-0.71875 1.7891-0.98047 2.7617-0.57031l2.4883 1.0508c0.082031 0.03125 0.14844 0.0625 0.21094 0.10156z" vector-effect="non-scaling-stroke" style="fill: rgb(14, 171, 166);"/>
  <path d="m38.57 38.141l-2.6016-1.0781c0.03125 0.011719 0.058594 0.019531 0.089844 0.039062l2.5 1.0391c0.011718-0.011719 0.011718-0.011719 0.011718 0z" vector-effect="non-scaling-stroke" style="fill: rgb(14, 171, 166);"/>
  <path d="m27.41 45.48l-6.5703 15.828c-0.25 0.60938-0.96094 0.89844-1.5703 0.64844l-4.8906-2.0312c-0.60938-0.25-0.89844-0.96094-0.64844-1.5703l6.5703-15.816c0.25-0.60937 0.96094-0.89844 1.5703-0.64844l4.8906 2.0312c0.61719 0.25 0.91016 0.94922 0.64844 1.5586z" vector-effect="non-scaling-stroke" style="fill: rgb(14, 171, 166);"/>
  <path d="m79.879 13.301c-3.8086 0-6.9219 3.1016-6.9219 6.9102 0 1.3906 0.41016 2.6797 1.1211 3.7617l-13.707 32.227-1.1484 2.7109c-0.14844 0.35938-0.21875 0.73828-0.19922 1.1094 0 0.019531 0 0.050781 0.011718 0.070313 0 0.03125 0 0.050781 0.011719 0.078125v0.011719c0.011719 0.039062 0.011719 0.089843 0.019531 0.12891 0.011719 0.039062 0.011719 0.078125 0.019532 0.12109 0 0.019531 0.011718 0.039062 0.019531 0.058593 0.011719 0.039063 0.019531 0.070313 0.03125 0.10156 0.011719 0.039062 0.019531 0.078125 0.039062 0.12109 0 0.019531 0.011719 0.03125 0.019531 0.050781 0.011719 0.039062 0.03125 0.078125 0.050782 0.10938 0.019531 0.039062 0.03125 0.070312 0.050781 0.10938 0.011719 0.019531 0.019531 0.050781 0.039063 0.070312 0 0.011719 0.011718 0.019531 0.011718 0.03125 0.019532 0.03125 0.03125 0.058594 0.050782 0.078125 0.011718 0.03125 0.03125 0.050782 0.050781 0.070313 0.019531 0.03125 0.039062 0.070312 0.070312 0.10156 0.019531 0.019531 0.03125 0.050781 0.050781 0.070313 0.03125 0.03125 0.050782 0.058594 0.078126 0.10156 0.019531 0.019532 0.03125 0.039063 0.050781 0.058594l0.019531 0.019531 0.019531 0.019531 0.011719 0.011719c0.070312 0.070313 0.14062 0.14062 0.21875 0.19922 0.039062 0.03125 0.078125 0.058594 0.12109 0.089844 0.14844 0.10938 0.30859 0.19922 0.48047 0.26953l2.5 1.0703 0.12109 0.050781 10.77 4.5781c1.2617 0.53906 2.7383-0.058594 3.2695-1.3203l1.0586-2.4883c0.53906-1.2617-0.058593-2.7305-1.3203-3.2695l-8.5898-3.6484 12.82-30.129c3.2109-0.60156 5.6406-3.4219 5.6406-6.8008-0.039063-3.8164-3.1406-6.9141-6.9609-6.9141zm2.7305 9.4688c-0.67969 0.73047-1.6484 1.1797-2.7305 1.1797-2.0586 0-3.7383-1.6797-3.7383-3.7383 0-0.070313 0-0.14844 0.011719-0.21875 0.10938-1.9609 1.7383-3.5195 3.7383-3.5195 2.0586 0 3.7383 1.6797 3.7383 3.7383 0 0.98828-0.39062 1.8906-1.0195 2.5586z" vector-effect="non-scaling-stroke" style="fill: rgb(14, 171, 166);"/>
  <path d="m39.211 38.52c-0.19141-0.16016-0.39844-0.28906-0.62891-0.37891l-2.6016-1.0781-0.03125-0.011719-10.809-4.4805c-1.2695-0.53125-2.7383 0.078126-3.2617 1.3516l-1.0391 2.5c-0.53125 1.2695 0.078125 2.7383 1.3516 3.2617l8.6211 3.5781-12.641 30.457c-2.8711 0.83984-4.9688 3.5-4.9688 6.6406 0 3.8086 3.1016 6.9219 6.9219 6.9219 3.8086 0 6.9219-3.1016 6.9219-6.9219 0-1.6211-0.55859-3.1094-1.5-4.2891l13.25-31.949c0.039063-0.070313 0.070313-0.14062 0.10156-0.21094l1.0391-2.5c0.41406-1.0391 0.09375-2.2109-0.72656-2.8906zm-19.09 45.582c-2.0586 0-3.7383-1.6797-3.7383-3.7383 0-0.76172 0.23047-1.4609 0.60938-2.0508 0.67187-1.0195 1.8203-1.6914 3.1289-1.6914 1.9297 0 3.5195 1.4688 3.7188 3.3516 0.011718 0.12891 0.019531 0.26172 0.019531 0.39062 0 2.0586-1.6797 3.7383-3.7383 3.7383z" vector-effect="non-scaling-stroke" style="fill: rgb(14, 171, 166);"/>
  <path d="m79.5 73.629c-1.25 0-2.4297 0.33984-3.4492 0.92188l-32.5-13.652-2.7109-1.1406c-0.96875-0.39844-2.0586-0.14844-2.75 0.55859-0.21094 0.21875-0.39062 0.46875-0.51172 0.76953l-1.0781 2.5742-4.5508 10.84c-0.53125 1.2695 0.070312 2.7383 1.3281 3.2695l2.4883 1.0508c1.2695 0.53125 2.7383-0.070312 3.2695-1.3281l3.6211-8.6094 29.988 12.602c0.44922 3.3789 3.3516 5.9883 6.8516 5.9883 3.8086 0 6.9219-3.1016 6.9219-6.9219 0.003906-3.8125-3.0977-6.9219-6.918-6.9219zm0 10.66c-1.1289 0-2.1406-0.5-2.8203-1.2891-0.57031-0.66016-0.92188-1.5195-0.92188-2.4492 0-2.0586 1.6797-3.7383 3.7383-3.7383 0.19141 0 0.37109 0.011719 0.55859 0.039062 1.8008 0.26953 3.1914 1.8281 3.1914 3.6992 0.003906 2.0586-1.6758 3.7383-3.7461 3.7383z" vector-effect="non-scaling-stroke" style="fill: rgb(14, 171, 166);"/>
 </g></g></svg>