<svg version="1.1" overflow="visible" preserveAspectRatio="none" viewBox="0 0 102 102" width="24" height="24" xmlns="http://www.w3.org/2000/svg"><g transform="translate(1, 1)"><path d="m76.801 73l-23.602 7c-3.5 1-7.3008 1-10.898 0l-23.602-7c-0.80078-0.19922-1.3984-1-1.3984-1.8984v-25.102c0-1.3008 1.3008-2.1992 2.5-1.8984l22.5 6.6992c3.5 1 7.3008 1 10.898 0l22.5-6.6992c1.3008-0.39844 2.5 0.60156 2.5 1.8984v25.102c0 0.89844-0.59766 1.5977-1.3984 1.8984zm12.898-28.301l-3.8984-7.6016c-0.39844-0.80078-1.3984-1.1992-2.3008-1l-30.301 9c-3.5 1-7.3008 1-10.898 0l-35.902-10.699c-1.8984-0.60156-1.8984-3.1992 0-3.6992l35.902-10.699c3.6016-1.1016 7.3008-1.1016 10.898 0l40.398 12c1 0.30078 1.6016 1.3008 1.3008 2.3984l-2.6016 10c-0.29688 1.2031-1.9961 1.4023-2.5977 0.30078z" vector-effect="non-scaling-stroke" style="fill: rgb(14, 171, 166);"/></g></svg>