<?xml version="1.0" standalone="no"?>
<svg version="1.1" preserveAspectRatio="xMidYMid meet" viewBox="0 0 189 136" width="100%" xmlns="http://www.w3.org/2000/svg"><title>live-edu-glyph-v01</title><path d="M81.47,78.75A4.43,4.43,0,0,0,79.07,73L43.36,58.17l0,0a1.44,1.44,0,0,1-.72-1.27,1.48,1.48,0,0,1,.87-1.35L79.08,40.78a4.43,4.43,0,0,0-3.36-8.19h0L27,52.79a4.42,4.42,0,0,0-2.4,5.78h0a3.35,3.35,0,0,0,.18.38v0a2.63,2.63,0,0,0,.2.33l0,0,.24.32h0c.09.11.18.22.28.32h0a2.35,2.35,0,0,0,.29.26l.07.07.26.19.07.05.34.21.07,0,.3.14L27,61,75.68,81.15a4.43,4.43,0,0,0,5.78-2.39Zm104.63-75H9a5.9,5.9,0,0,0-5.9,5.9h0v94.46A5.9,5.9,0,0,0,9,110H73.05a1.46,1.46,0,0,1,1.48,1.44,1.63,1.63,0,0,1,0,.31,26.43,26.43,0,0,1-18.13,19.12h0a4.43,4.43,0,0,0,1.34,8.65h79.7a4.43,4.43,0,0,0,1.27-8.67h0a26.34,26.34,0,0,1-18-19,1.46,1.46,0,0,1,1.1-1.75,1.32,1.32,0,0,1,.34,0H186.1a5.9,5.9,0,0,0,5.9-5.9h0V9.65a5.9,5.9,0,0,0-5.9-5.9ZM118.15,130.67H77a1.48,1.48,0,0,1-1.13-2.43v0a35.08,35.08,0,0,0,7.79-17h0a1.45,1.45,0,0,1,1.45-1.2H110a1.47,1.47,0,0,1,1.46,1.25h0a35,35,0,0,0,7.82,17l0,0a1.48,1.48,0,0,1-1.16,2.39Zm65-31a1.48,1.48,0,0,1-1.48,1.48H13.43A1.48,1.48,0,0,1,12,99.68V14.08a1.48,1.48,0,0,1,1.48-1.48H181.67a1.48,1.48,0,0,1,1.48,1.48ZM170.84,56.44v-.11c0-.11,0-.21-.05-.32l0-.07a4.08,4.08,0,0,0-.62-1.47v0a3.55,3.55,0,0,0-.23-.31l0,0-.24-.27,0,0a2,2,0,0,0-.26-.24l-.06-.05a3,3,0,0,0-.3-.23l0,0a4.4,4.4,0,0,0-.83-.44L119.41,32.61A4.43,4.43,0,1,0,116,40.79h0l35.64,14.76a1.49,1.49,0,0,1,.67,2,1.42,1.42,0,0,1-.72.69l0,0L116,73a4.43,4.43,0,1,0,3.36,8.19h0L168.13,61h0l.36-.17,0,0,.36-.21.05,0,.27-.2.07-.06.28-.25v0a4.12,4.12,0,0,0,.28-.31l0,0,.2-.27.06-.09.15-.26.05-.08c.06-.12.12-.24.17-.36h0c.05-.14.1-.27.14-.42l0-.15a2.68,2.68,0,0,0,.07-.27l0-.18a1.9,1.9,0,0,0,0-.25v-.17a2.44,2.44,0,0,0,0-.27v-.14C170.85,56.64,170.85,56.54,170.84,56.44Zm-57.3-38.15a4.41,4.41,0,0,0-5.78,2.39l-28.6,69a4.43,4.43,0,1,0,8.18,3.39l28.6-69A4.43,4.43,0,0,0,113.54,18.29Z" transform="translate(-3.1 -3.75)" style="fill: #2574a9" vector-effect="non-scaling-stroke"/><circle cx="167.39" cy="23.54" r="5.88" style="fill: #f4515e" vector-effect="non-scaling-stroke"/></svg>
