<?xml version="1.0" standalone="no"?>
<svg version="1.1" preserveAspectRatio="xMidYMid meet" viewBox="0 0 190 42" class="ng-element" data-id="ab58dd80b61f4397b3f24cc859299e16" style="mix-blend-mode: normal; overflow: visible; width: 190px; height: 42px; pointer-events: all; filter: none;" xmlns="http://www.w3.org/2000/svg"><title>_liveedu-logotype</title><path d="M92.41,14.65a.87.87,0,0,0-.47-1.13l-7-2.89h0a.27.27,0,0,1-.14-.25.27.27,0,0,1,.17-.26l7-2.88a.87.87,0,0,0-.65-1.61h0L81.76,9.58a.87.87,0,0,0-.47,1.13h0a.3.3,0,0,0,0,.08h0a.21.21,0,0,0,0,.06h0l0,.06h0l.06.06h0s0,0,0,0h0a.1.1,0,0,0,0,0h0l.07,0h0l.06,0h0l9.52,3.94a.86.86,0,0,0,1.13-.46ZM112.85,0H78.25A1.15,1.15,0,0,0,77.1,1.15h0V19.61a1.14,1.14,0,0,0,1.15,1.15H90.77a.29.29,0,0,1,.28.28v.06a5.17,5.17,0,0,1-3.54,3.74h0a.87.87,0,0,0,.27,1.69h15.57a.86.86,0,0,0,.25-1.69h0a5.13,5.13,0,0,1-3.52-3.72.28.28,0,0,1,.21-.34h12.58A1.15,1.15,0,0,0,114,19.61h0V1.15A1.16,1.16,0,0,0,112.85,0ZM99.58,24.8h-8a.29.29,0,0,1-.29-.29.28.28,0,0,1,.07-.19h0A6.88,6.88,0,0,0,92.83,21h0a.3.3,0,0,1,.29-.24H98a.29.29,0,0,1,.28.25h0a6.89,6.89,0,0,0,1.53,3.32h0a.29.29,0,0,1,0,.41.27.27,0,0,1-.17.06Zm12.7-6.06A.29.29,0,0,1,112,19H79.11a.29.29,0,0,1-.28-.29V2a.29.29,0,0,1,.28-.29H112a.29.29,0,0,1,.29.29Zm-2.41-8.45v0s0,0,0-.06h0a.93.93,0,0,0-.12-.29h0l0-.06h0l0-.06h0l0,0h0l0-.05h0l-.16-.08L99.82,5.64a.86.86,0,0,0-1.13.47.87.87,0,0,0,.47,1.13h0l7,2.88a.29.29,0,0,1,.14.39.32.32,0,0,1-.14.14h0l-7,2.88a.87.87,0,0,0,.66,1.6h0l9.52-4h0l.07,0h0l.06,0h0l0,0h0l.06,0h0l.05-.06h0l0-.05v0l0,0v0l0-.07h0l0-.08v0s0,0,0,0v-.2A.13.13,0,0,0,109.87,10.29ZM98.68,2.84a.87.87,0,0,0-1.13.47L92,16.79a.87.87,0,1,0,1.6.66L99.15,4A.87.87,0,0,0,98.68,2.84Z" transform="translate(0 0)" style="fill: #2574a9" vector-effect="non-scaling-stroke"/><circle cx="109.8" cy="4.6" r="1.15" style="fill: #f4515e" vector-effect="non-scaling-stroke"/><path d="M46,39.36a1.89,1.89,0,0,1-.37,1.29,1.86,1.86,0,0,1-2.38,0,2,2,0,0,1-.36-1.29v-6H41.84v6.09a2.74,2.74,0,0,0,4.55,1.9,2.57,2.57,0,0,0,.71-1.9V33.32H46ZM37.45,33.2a2.54,2.54,0,0,0-2.12,1,4.3,4.3,0,0,0-.76,2.69v1.61a4.07,4.07,0,0,0,.8,2.6,2.59,2.59,0,0,0,2.09.92,2.51,2.51,0,0,0,2.12-1,4.25,4.25,0,0,0,.75-2.7V36.8a4.19,4.19,0,0,0-.77-2.66A2.56,2.56,0,0,0,37.45,33.2Zm1.81,5.26a3.65,3.65,0,0,1-.46,1.95,1.51,1.51,0,0,1-1.34.63,1.54,1.54,0,0,1-1.36-.68,3.69,3.69,0,0,1-.46-2V36.82a3.57,3.57,0,0,1,.47-2,1.53,1.53,0,0,1,1.34-.67,1.51,1.51,0,0,1,1.36.67,3.62,3.62,0,0,1,.45,2Zm31.5,3.42h1.07V33.32H70.76Zm-10.37-4.8a3.16,3.16,0,0,1-1.2-.66,1.17,1.17,0,0,1-.39-.9,1.42,1.42,0,0,1,.36-1,1.34,1.34,0,0,1,1-.36,1.39,1.39,0,0,1,1.1.43,1.83,1.83,0,0,1,.38,1.23h1.08a2.69,2.69,0,0,0-.32-1.32,2.3,2.3,0,0,0-.9-.93,2.69,2.69,0,0,0-1.34-.34,2.43,2.43,0,0,0-1.78.66,2.25,2.25,0,0,0-.68,1.68,2.19,2.19,0,0,0,.24,1,2.37,2.37,0,0,0,.71.81,5.28,5.28,0,0,0,1.39.68,3.58,3.58,0,0,1,1.25.67,1.3,1.3,0,0,1,.35,1,1.34,1.34,0,0,1-.36,1,1.42,1.42,0,0,1-1.07.37A1.66,1.66,0,0,1,59,40.64a1.71,1.71,0,0,1-.44-1.24H57.49a2.58,2.58,0,0,0,.36,1.36,2.51,2.51,0,0,0,1,.92,3,3,0,0,0,1.38.32,2.58,2.58,0,0,0,1.84-.63,2.15,2.15,0,0,0,.68-1.66,2.29,2.29,0,0,0-.55-1.6A4.08,4.08,0,0,0,60.39,37.08ZM54.56,26.53h15.9V24.94h-14V13.88H68.12V12.32H56.49V1.59h14V0H54.56Zm15,6.79H68.24l-2.31,3.2-.7.94V33.32H64.15v8.56h1.08V39l.84-1,2.39,3.94h1.29l-3-4.79Zm-16.17,4a2.67,2.67,0,0,0,.35-1.38A2.61,2.61,0,0,0,53.06,34a2.54,2.54,0,0,0-1.9-.66h-2.4v8.56h1.08V38.42h1.51l1.52,3.46H54v-.07l-1.66-3.64A2.14,2.14,0,0,0,53.36,37.28Zm-2.21.22H49.84V34.24h1.29q1.5,0,1.5,1.65a1.69,1.69,0,0,1-.4,1.17A1.41,1.41,0,0,1,51.15,37.5ZM0,34.24H2.25v7.64H3.32V34.24H5.58v-.92H0ZM14.49,24.9H1.91V0H0V26.53H14.49ZM30.85,37.62l-1.76-4.3H27.87l2.43,5.37v3.19h1.08V38.69l2.44-5.37H32.6ZM8.46,33.32,5.7,41.88H6.81l.66-2.24h2.9L11,41.88h1.11L9.39,33.32Zm-.7,5.4,1.16-3.89,1.17,3.89ZM137.19,22.63H125.56V15.21h9.16V11.45h-9.16V3.88h11.63V0H120.64V26.53h16.55Zm-97.8,3.9L50.34,0h-1.5a.65.65,0,0,0-.44.15,1.07,1.07,0,0,0-.27.36l-9,22a9.72,9.72,0,0,0-.54,1.84A11.57,11.57,0,0,0,38,22.52l-9-22a1,1,0,0,0-.26-.37A.62.62,0,0,0,28.26,0H26.74l11,26.53ZM18.7,33.32H17.4l-2.3,3.2-.71.94V33.32H13.31v8.56h1.08V39l.84-1,2.4,3.94h1.28l-3-4.79ZM21,37.93h3V37H21V34.24h3.47v-.92H19.88v8.56h4.6V41H21ZM21.81,0H19.88V26.53h1.93Zm142,18.71a15.11,15.11,0,0,0,1-5.44,14.91,14.91,0,0,0-1-5.45,12.4,12.4,0,0,0-2.7-4.15A12.41,12.41,0,0,0,156.87,1a14.85,14.85,0,0,0-5.43-1h-10V26.53h10a14.84,14.84,0,0,0,5.43-1,11.92,11.92,0,0,0,6.89-6.86Zm-4.61-1.43h0a8.17,8.17,0,0,1-1.65,2.91A7,7,0,0,1,154.9,22a8.93,8.93,0,0,1-3.46.64h-5.1V3.88h5.1a8.93,8.93,0,0,1,3.46.64,7.17,7.17,0,0,1,2.6,1.82,8.37,8.37,0,0,1,1.65,2.9,13.1,13.1,0,0,1,.58,4A13,13,0,0,1,159.15,17.28Zm-8.16,16h-1.27l-1.61,3.28-1.62-3.28h-1.26l2.24,4.25-2.29,4.31h1.28l1.65-3.34,1.65,3.34H151l-2.27-4.31Zm.78.92H154v7.64h1.08V34.24h2.25v-.92h-5.57Zm16.16,3.69h3V37h-3V34.24h3.47v-.92h-4.55v8.56h4.61V41h-3.53Zm-5.72-4.61h-1.08v8.56h4.44V41h-3.36ZM185.12,0V15.71a8.69,8.69,0,0,1-.41,2.73,5.93,5.93,0,0,1-1.18,2.07,5.34,5.34,0,0,1-1.89,1.32,7,7,0,0,1-5.06,0,5.2,5.2,0,0,1-1.88-1.33,6.2,6.2,0,0,1-1.17-2.08,8.67,8.67,0,0,1-.41-2.72V0h-4.88V15.71A12,12,0,0,0,169,20a9.57,9.57,0,0,0,5.58,5.68,13.1,13.1,0,0,0,9.07,0,9.65,9.65,0,0,0,5.6-5.68,12.26,12.26,0,0,0,.75-4.33V0Zm1.52,33.32h-1.08v8.56H190V41h-3.36Zm-6,4.61h3V37h-3V34.24h3.47v-.92h-4.55v8.56h4.6V41h-3.52ZM74.8,33.32H73.72v8.56h4.44V41H74.8Zm100.48,6.91-1.95-6.91h-1.17l2.66,8.56h.94l2.66-8.56h-1.18Zm-34.48-2.3h3V37h-3V34.24h3.47v-.92h-4.55v8.56h4.61V41H140.8ZM102.72,33.2a2.55,2.55,0,0,0-2.12,1,4.3,4.3,0,0,0-.75,2.69v1.61a4.07,4.07,0,0,0,.79,2.6,2.59,2.59,0,0,0,2.09.92,2.54,2.54,0,0,0,2.13-1,4.25,4.25,0,0,0,.74-2.7V36.8a4.19,4.19,0,0,0-.77-2.66A2.54,2.54,0,0,0,102.72,33.2Zm1.81,5.26a3.56,3.56,0,0,1-.46,1.95,1.51,1.51,0,0,1-1.34.63,1.55,1.55,0,0,1-1.36-.68,3.69,3.69,0,0,1-.45-2V36.82a3.49,3.49,0,0,1,.46-2,1.53,1.53,0,0,1,1.34-.67,1.51,1.51,0,0,1,1.36.67,3.62,3.62,0,0,1,.45,2ZM93.36,34.24h2.25v7.64h1.07V34.24h2.25v-.92H93.36Zm-12.83-.92H79.45v8.56h4.44V41H80.53Zm7.11,3.76a3.32,3.32,0,0,1-1.2-.66,1.17,1.17,0,0,1-.38-.9,1.42,1.42,0,0,1,.35-1,1.38,1.38,0,0,1,1-.36,1.4,1.4,0,0,1,1.1.43,1.83,1.83,0,0,1,.38,1.23H90a2.8,2.8,0,0,0-.32-1.32,2.3,2.3,0,0,0-.9-.93,2.72,2.72,0,0,0-1.34-.34,2.43,2.43,0,0,0-1.78.66A2.22,2.22,0,0,0,85,35.54a2.2,2.2,0,0,0,1,1.85,5.13,5.13,0,0,0,1.39.68,3.58,3.58,0,0,1,1.25.67,1.3,1.3,0,0,1,.35,1,1.34,1.34,0,0,1-.36,1,1.42,1.42,0,0,1-1.07.37,1.53,1.53,0,0,1-1.65-1.68H84.74a2.51,2.51,0,0,0,1.36,2.28,3,3,0,0,0,1.38.32,2.58,2.58,0,0,0,1.84-.63A2.15,2.15,0,0,0,90,39.71a2.34,2.34,0,0,0-.55-1.6A4.07,4.07,0,0,0,87.64,37.08ZM136.79,40l-3.44-6.63h-1.08v8.56h1.08V35.29l3.43,6.59h1.08V33.32h-1.07Zm-12.19-2h3V37h-3V34.24h3.47v-.92h-4.54v8.56h4.6V41H124.6Zm-15.38-3.69h2.25v7.64h1.07V34.24h2.26v-.92h-5.58ZM120.58,37h-3.44V33.32h-1.08v8.56h1.08v-4h3.44v4h1.08V33.32h-1.08Z" transform="translate(0 0)" style="fill: #2b2b2b" vector-effect="non-scaling-stroke"/></svg>