<?xml version="1.0" standalone="no"?>
<svg version="1.1" preserveAspectRatio="xMidYMid meet" viewBox="0 0 24 24" class="ng-element" data-id="f28c973457a44a638af59248b63f0cb0" style="mix-blend-mode: normal; overflow: visible; width: 24px; height: 24px; filter: none; fill: rgb(214, 155, 28);" xmlns="http://www.w3.org/2000/svg"><title>main-nav-subscribe-24x24-v01</title><path d="M4.54,8Zm12,2.22-2-.26a1,1,0,0,1-.75-.54L12.86,7.6a1,1,0,0,0-1.78,0l-.87,1.81a1,1,0,0,1-.74.55l-2,.31A1,1,0,0,0,7,12L8.4,13.36a1,1,0,0,1,.3.88l-.32,2a1,1,0,0,0,1.46,1l1.76-.95a1,1,0,0,1,.92,0l1.78.91a1,1,0,0,0,1.44-1.06l-.36-2a1,1,0,0,1,.27-.89l1.42-1.41A1,1,0,0,0,16.5,10.18ZM16.5,6A1.5,1.5,0,1,0,18,7.5,1.5,1.5,0,0,0,16.5,6ZM12,0A12,12,0,1,0,24,12,12,12,0,0,0,12,0Zm0,22A10,10,0,1,1,22,12,10,10,0,0,1,12,22Z" transform="translate(0 0)" vector-effect="non-scaling-stroke"/></svg>
