<?xml version="1.0" standalone="no"?>
<svg version="1.1" preserveAspectRatio="xMidYMid meet" viewBox="0 0 20 24" class="ng-element" data-id="e2e031288fb94eb5a795931da297d7b6" style="mix-blend-mode: normal; overflow: visible; width: 20px; height: 24px; filter: none;" xmlns="http://www.w3.org/2000/svg"><title>main-nav-guides-24x24-v01</title><path d="M21,0H3A1,1,0,0,0,2,1V23a1,1,0,0,0,1,1H21a1,1,0,0,0,1-1V1A1,1,0,0,0,21,0ZM11,4h6a1,1,0,0,1,0,2H11a1,1,0,0,1,0-2Zm0,4h2a1,1,0,0,1,0,2H11a1,1,0,0,1,0-2ZM4,2H6V18H4ZM20,22H4V20H20Z" transform="translate(-2 0)" style="fill: rgb(99, 99, 99);" vector-effect="non-scaling-stroke"/></svg>