<?xml version="1.0" standalone="no"?>
<svg version="1.1" preserveAspectRatio="xMidYMid meet" viewBox="0 0 24 24" class="ng-element" data-id="ae5b1290eab34553bcf84ee3b2348d2c" style="mix-blend-mode: normal; overflow: visible; width: 24px; height: 24px; filter: none;" xmlns="http://www.w3.org/2000/svg"><title>main-nav-schedule-24x24-v02</title><path d="M7,6A1,1,0,0,0,8,5V1A1,1,0,0,0,6,1V5A1,1,0,0,0,7,6Zm4,9h2a1,1,0,0,0,1-1V13a1,1,0,0,0-1-1H11a1,1,0,0,0-1,1v1A1,1,0,0,0,11,15ZM23,2H20V5a3,3,0,0,1-6,0V2H10V5A3,3,0,0,1,4,5V2H1A1,1,0,0,0,0,3V23a1,1,0,0,0,1,1H23a1,1,0,0,0,1-1V3A1,1,0,0,0,23,2ZM22,22H2V9.94H22ZM17,6a1,1,0,0,0,1-1V1a1,1,0,0,0-2,0V5A1,1,0,0,0,17,6ZM11,20h2a1,1,0,0,0,1-1V18a1,1,0,0,0-1-1H11a1,1,0,0,0-1,1v1A1,1,0,0,0,11,20ZM5,15H7a1,1,0,0,0,1-1V13a1,1,0,0,0-1-1H5a1,1,0,0,0-1,1v1A1,1,0,0,0,5,15Z" transform="translate(0 0)" style="fill: #636363" vector-effect="non-scaling-stroke"/><path d="M7,17H5a1,1,0,0,0-1,1v1a1,1,0,0,0,1,1H7a1,1,0,0,0,1-1V18A1,1,0,0,0,7,17Zm12-5H17a1,1,0,0,0-1,1v1a1,1,0,0,0,1,1h2a1,1,0,0,0,1-1V13A1,1,0,0,0,19,12Zm0,5H17a1,1,0,0,0-1,1v1a1,1,0,0,0,1,1h2a1,1,0,0,0,1-1V18A1,1,0,0,0,19,17Z" transform="translate(0 0)" style="fill: #f4515e" vector-effect="non-scaling-stroke"/></svg>