<?xml version="1.0" standalone="no"?>
<svg version="1.1" preserveAspectRatio="xMidYMid meet" viewBox="0 0 24 20" class="ng-element" data-id="f91821ceb38d4894ab64fdd6c61b2f00" style="mix-blend-mode: normal; overflow: visible; width: 24px; height: 20px; filter: none;" xmlns="http://www.w3.org/2000/svg"><title>main-nav-projects-24x24-v02</title><path d="M23,2H1A1,1,0,0,0,0,3V17a1,1,0,0,0,1,1H23a1,1,0,0,0,1-1V3A1,1,0,0,0,23,2ZM18,16H2V4H18Zm5,4H1a1,1,0,0,0,0,2H23a1,1,0,0,0,0-2Z" transform="translate(0 -2)" style="fill: #636363" vector-effect="non-scaling-stroke"/><path d="M10.12,13.3l2.59-2.59a1,1,0,0,0,0-1.41L10.12,6.7a1,1,0,0,0-1.71.71v5.18A1,1,0,0,0,10.12,13.3Z" transform="translate(0 -2)" style="fill: #f4515e" vector-effect="non-scaling-stroke"/></svg>