<?xml version="1.0" standalone="no"?>
<svg version="1.1" preserveAspectRatio="xMidYMid meet" viewBox="0 0 24 19.42" class="ng-element" data-id="ef166c826e514c2b90a5b7a0f86fa974" style="mix-blend-mode: normal; overflow: visible; width: 24px; height: 19px; filter: none;" xmlns="http://www.w3.org/2000/svg"><title>main-nav-requests-24x24-v02</title><path d="M20,13.58v-10a1,1,0,0,0-1-1H1a1,1,0,0,0-1,1v10a1,1,0,0,0,1,1H2v2.07a.88.88,0,0,0,1.51.62l2.69-2.69H19A1,1,0,0,0,20,13.58Zm-7-3H3a1,1,0,0,1,0-2H13a1,1,0,0,1,0,2Zm4-4H3a1,1,0,0,1,0-2H17a1,1,0,0,1,0,2Z" transform="translate(0 -2.58)" style="fill: #636363" vector-effect="non-scaling-stroke"/><path d="M23,6a1,1,0,0,0-1,1v6.58a3,3,0,0,1-3,3H9a1,1,0,0,0-1,1V18a1,1,0,0,0,1,1H19.76l2.73,2.74A.88.88,0,0,0,24,21.11V7A1,1,0,0,0,23,6Z" transform="translate(0 -2.58)" style="fill: #f4515e" vector-effect="non-scaling-stroke"/></svg>