<?xml version="1.0" standalone="no"?>
<svg version="1.1" preserveAspectRatio="xMidYMid meet" viewBox="0 0 74 57.01" class="ng-element" data-id="b18d743e9659427abf3ed45d14fce7eb" style="mix-blend-mode: normal; overflow: visible; width: 74px; height: 57px; filter: none;" xmlns="http://www.w3.org/2000/svg"><title>pricing-subscribtion-logo-tripple-v01</title><path d="M62.05,22.45h0l-6-7.58.08.1S57,22.77,62.05,22.45ZM44.87,31.76a2.63,2.63,0,1,0-2.63-2.63A2.62,2.62,0,0,0,44.87,31.76Zm23.06,11L72.4,34.2l-.05.11S65.55,38.2,67.93,42.73ZM56.28,14.91l-.09-.11.08.11ZM30.71,39.38a1.73,1.73,0,0,1,.51,1.54l-.55,3.45a1.74,1.74,0,0,0,2.54,1.81l3.08-1.66a1.77,1.77,0,0,1,1.63,0L41,46.1a1.74,1.74,0,0,0,2.51-1.86l-.63-3.45a1.75,1.75,0,0,1,.48-1.54l2.48-2.47a1.74,1.74,0,0,0-1-3l-3.47-.47a1.7,1.7,0,0,1-1.32-.94l-1.58-3.12a1.74,1.74,0,0,0-3.12,0l-1.52,3.15a1.75,1.75,0,0,1-1.3,1L29.11,34a1.74,1.74,0,0,0-.93,3ZM35.1,40a.11.11,0,0,1,.1-.08.46.46,0,0,1,.16.06l.27.13.39.12a2,2,0,0,0,.51.06,1.88,1.88,0,0,0,.43,0,1.13,1.13,0,0,0,.31-.16.73.73,0,0,0,.2-.26.79.79,0,0,0,.06-.32.86.86,0,0,0-.08-.36.72.72,0,0,0-.23-.27,1.12,1.12,0,0,0-.38-.17,2.12,2.12,0,0,0-.54-.06h-.49l-.1,0a.13.13,0,0,1-.07-.06.42.42,0,0,1,0-.14,2.32,2.32,0,0,1,0-.43.35.35,0,0,1,0-.12.17.17,0,0,1,.06-.06.15.15,0,0,1,.09,0h.5a1.53,1.53,0,0,0,.45-.06.93.93,0,0,0,.33-.17.71.71,0,0,0,.21-.27.77.77,0,0,0,.07-.34.87.87,0,0,0-.05-.28.64.64,0,0,0-.14-.22.87.87,0,0,0-.25-.15.92.92,0,0,0-.35-.05,1.54,1.54,0,0,0-.43.06l-.36.15-.27.16a.5.5,0,0,1-.17.07l-.06,0a.09.09,0,0,1,0-.06.35.35,0,0,1,0-.13,1.22,1.22,0,0,1,0-.21.92.92,0,0,1,0-.18.53.53,0,0,1,0-.13.2.2,0,0,1,0-.08l.06-.08.18-.12a1.8,1.8,0,0,1,.34-.16,2.74,2.74,0,0,1,.48-.14,3.61,3.61,0,0,1,.59,0,2.7,2.7,0,0,1,.73.09,1.57,1.57,0,0,1,.53.28,1.06,1.06,0,0,1,.33.45,1.46,1.46,0,0,1,.12.6,1.79,1.79,0,0,1-.07.48,1.24,1.24,0,0,1-.19.4,1.14,1.14,0,0,1-.32.3,1.34,1.34,0,0,1-.44.19h0a1.49,1.49,0,0,1,.53.15,1.38,1.38,0,0,1,.4.29,1.31,1.31,0,0,1,.26.4,1.28,1.28,0,0,1,.09.48,1.63,1.63,0,0,1-.17.75,1.55,1.55,0,0,1-.45.56,2,2,0,0,1-.69.34,3.14,3.14,0,0,1-.89.12,3.1,3.1,0,0,1-.54,0,2.51,2.51,0,0,1-.45-.1,1.75,1.75,0,0,1-.33-.13.49.49,0,0,1-.16-.1.16.16,0,0,1-.06-.08.3.3,0,0,1,0-.1s0-.09,0-.15,0-.13,0-.22A.9.9,0,0,1,35.1,40ZM68,35.18c4.61-2.2,1.5-9.39,1.5-9.39l0-.12Zm-.11,0h0l1.53-9.52,0,.13S64.17,31.63,67.86,35.16ZM56.28,14.91l5.86,7.48C63.63,17.6,56.53,15,56.28,14.91ZM24,29.93ZM65.6,18.14v9.51C69.8,24.75,65.6,18.14,65.6,18.14Zm-.11,9.51V18.14S61.27,24.75,65.49,27.65ZM17.06,24.42h0l.1-.07Zm.39,26v0h0L17,59.92C21.27,57.27,17.6,50.69,17.45,50.43Zm8.38,9-.1-.07,7.88,5.55C33.65,59.8,25.83,59.42,25.83,59.42Zm-8.77-35h0L9.2,29.78C13.93,31.61,17,24.54,17.06,24.43Zm-.06-.1h0l.11-.07Zm8.66,35.11.11.07h0ZM33.54,65h0l-7.77-5.48C25.82,59.61,28.77,66.75,33.54,65ZM16.92,59.93h0l.43-9.62,0,.12S12.85,56.83,16.92,59.93ZM14.06,45.47l0,.12h0ZM37,58A21,21,0,1,0,16,37,21,21,0,0,0,37,58Zm0-38.5A17.5,17.5,0,1,1,19.5,37,17.52,17.52,0,0,1,37,19.5ZM48.07,59.27l.1-.08-7.52,6C45.54,66.68,48.07,59.27,48.07,59.27Zm-7.48,5.85L48,59.18C47.81,59.2,40.22,60.09,40.59,65.12ZM60.45,31l.07.1s.81,7.79,5.9,7.45Zm-.37,14.6L62,54.88C65.46,51.27,60.28,45.79,60.08,45.58Zm.82-7.52.06.11h0Zm11.54-3.69L68,42.78C73.06,42.17,72.45,34.47,72.44,34.37ZM61,38.17s-.78,7.79,4.28,8.49Zm.93,16.74L60,45.59C59.89,45.81,57.25,52.94,61.89,54.91Zm-.84-16.79h0Zm-1,7.33,0,.12h0Zm6.39,2.88h0l7.49-6.06-.1.08S66,43.23,66.44,48.33ZM52.23,53.74,51,63.17C55.49,60.86,52.28,53.85,52.23,53.74Zm-1.37,9.41h0l1.25-9.43C52,53.85,47.12,59.75,50.86,63.15ZM60,45.47l0,.12h0ZM62.53,62.2s-7.23-3-9.37,1.64l9.5-1.67ZM61.06,38.12l4.28,8.49C67.78,42.13,61.07,38.13,61.06,38.12Zm3.74-8.34h0L57,24.43C57,24.55,60.08,31.61,64.8,29.78ZM57,59.93l-.42-9.5C56.46,50.59,52.69,57.25,57,59.93Zm11.41-3.74s-7.59-1.94-9,3l9.16-3ZM56.66,50.42V50.3l.41,9.63C61.15,56.84,56.66,50.42,56.66,50.42ZM72.44,34.37ZM72.15,50S64.38,49,63.54,54l8.72-4.1ZM66.42,38.53ZM60.61,31Zm4.25-1.32c0-5.09-7.77-5.36-7.86-5.37h0Zm-55.72,0L17,24.33S9.17,24.59,9.14,29.7ZM56.9,24.27l.1.06h0ZM60.61,31l5.9,7.45C68,33.6,60.65,31,60.61,31ZM21.88,53.72h0l0-.13Zm2.87,17s7.38,2.65,9.28-2.1l-9.4,2.13ZM40,68.56Zm-1-2.15-1.89.88-1.78-.92-.53,1,1.39.33-1.33.62L37,67.93l2.34.56L38,67.75l1.51-.29ZM5.62,56.19l-.12,0,9.16,3C13.21,54.25,5.62,56.19,5.62,56.19ZM40,68.56l9.39,2.14-.12,0S43.76,65.11,40,68.56ZM56.21,68l-9.28-2.06C48.82,70.59,56,68.07,56.21,68ZM24.73,70.67h0l-.12,0L34,68.56C30.24,65.1,24.73,70.67,24.73,70.67ZM20.82,64h0l-9.49-1.66.11,0S17.23,67.59,20.82,64Zm-3.06,3.93h0l-.12,0ZM56.21,68l.12,0-.11,0ZM14.63,59.25l-9-3C5.76,56.5,10.63,62.3,14.63,59.25Zm12.43,6.68L17.79,68C17.86,68,25.15,70.64,27.06,65.93Zm-9.3,1.95L27,65.82C23.33,62.39,17.87,67.77,17.76,67.88Zm31.48,2.89.13,0L40,68.67C41.87,73.42,49.24,70.77,49.24,70.77ZM68.4,56.3l.14,0-.13,0Zm3.79-6.23.12,0-.12,0Zm0,0-8.6,4C67.92,56.65,72,50.3,72.19,50.08ZM56.24,67.88l.12,0-.12,0ZM73.89,42.43l-7.38,6C71.4,49.85,73.89,42.45,73.89,42.43Zm0,0h0l.11-.08Zm-1.7,7.65ZM47,65.82Zm0,0,9.28,2.06C56.12,67.77,50.67,62.39,47,65.82ZM68.4,56.3l-9,3C63.36,62.29,68.22,56.52,68.4,56.3Zm-5.85,6,.13,0-.13,0Zm0,0L53.19,64C56.76,67.58,62.5,62.35,62.55,62.31ZM.16,42.38h0l-.1-.08,7.52,6C8,43.21.16,42.38.16,42.38ZM20.83,63.84c-2.13-4.63-9.32-1.66-9.36-1.64ZM14,45.44l0,.13S8.48,51.2,12,54.88ZM11.47,62.2ZM14,45.59l-1.9,9.32C16.75,52.94,14.12,45.83,14,45.59ZM11.34,62.17l.13,0h0Zm10.54-8.44,1.26,9.42C26.88,59.76,22,53.85,21.88,53.73ZM23,63.17l-1.27-9.55v.12S18.47,60.84,23,63.17ZM13.48,31.08l.08-.1-6,7.55C12.67,38.87,13.48,31.08,13.48,31.08Zm-.42,7-.07.11s-6.77,3.92-4.37,8.45Zm0,.17L8.71,46.64C13.7,46,13.11,38.44,13.09,38.2ZM1.86,50l-.12,0L10.46,54C9.63,49,1.86,50,1.86,50ZM13.09,38.2h0l.06-.12ZM6,42.78,1.51,34.25l.06.11S.91,42.17,6,42.78Zm4.43,11.34h0l-8.6-4C2,50.33,6.09,56.64,10.42,54.12ZM18,14.67h0l-5,8.06C18,22.5,18,14.68,18,14.67ZM1.66,34.31,1.6,34.2l4.48,8.53C8.45,38.2,1.66,34.31,1.66,34.31ZM1.69,50l.13.06h0ZM6,35.18,4.54,25.79C4.48,25.93,1.47,33,6,35.18ZM7.52,48.4h0L0,42.38l.1.09S2.62,49.87,7.52,48.4Zm0-9.93L13.39,31S6,33.59,7.49,38.47Zm1-20.33h0v9.51C12.72,24.75,8.52,18.14,8.52,18.14ZM4.64,25.78l0-.13,0,.13ZM17.94,14.5l-.07.1s-7.07,3.38-5,8.07ZM4.64,25.78l1.5,9.38C9.76,31.7,4.84,26,4.64,25.78Zm3.77,1.87V18.14S4.21,24.75,8.41,27.65Z" transform="translate(0 -14.5)" style="fill: rgb(214, 155, 28); stroke-width: 0px;" vector-effect="non-scaling-stroke"/></svg>