<?xml version="1.0" standalone="no"?>
<svg version="1.1" preserveAspectRatio="xMidYMid meet" viewBox="0 0 302.96 348.98" class="ng-element" data-id="c5d9b18ffcc6474abb11849bfdee11d1" style="mix-blend-mode: normal; overflow: visible; width: 17px; height: 20px; filter: none;" xmlns="http://www.w3.org/2000/svg"><title>tencentQQ</title><path d="M179,379.51c-23,5.46-38.86,16.54-38,28.13,1.07,14.85,29.16,24.92,62.74,22.49,21.77-1.58,40.48-8,50.67-16.4C217.74,413.13,192,392.94,179,379.51Zm155.16.26c-16.53,14.86-43.61,33.34-76.43,34,10.19,8.37,28.91,14.82,50.67,16.39,33.58,2.43,61.67-7.64,62.74-22.48C371.92,396.22,356.53,385.31,334.11,379.77Z" transform="translate(-104.52 -81.51)" style="fill: #fa870a" vector-effect="non-scaling-stroke"/><path d="M174,375.8c-20.25,5.8-33.8,16.09-33,26.83,1.07,14.84,29.16,24.91,62.74,22.48,17.59-1.27,33.19-5.73,43.91-11.81C207.53,410.28,184.56,389.1,174,375.8Zm165.46.4c-14.47,15.69-39.17,34.86-74.75,37.22,10.71,6,26.22,10.42,43.69,11.69,33.58,2.43,61.67-7.64,62.74-22.49C371.85,392.13,358.91,382.07,339.41,376.2Z" transform="translate(-104.52 -81.51)" style="fill: #ffc305" vector-effect="non-scaling-stroke"/><g class="qq-black-body" style="fill: #373c41"><path d="M228,183.55c5,0,9-6.62,9-14.8s-4-14.8-9-14.8-9,6.62-9,14.8S223.05,183.55,228,183.55ZM229.47,162c2,0,3.61,2.26,3.61,5s-1.62,5-3.61,5-3.6-2.25-3.6-5S227.48,162,229.47,162ZM278,178.93a20.77,20.77,0,0,1-.56-4.85c0-7.24,3.43-12.28,6.51-12.28s6.51,5,6.51,12.28a20.77,20.77,0,0,1-.56,4.85h5.15a26.1,26.1,0,0,0,.45-4.85c0-9.71-5.07-17.32-11.55-17.32s-11.55,7.61-11.55,17.32a26,26,0,0,0,.46,4.85ZM404.53,304c-6.7-24.88-17.81-44.54-27.42-50.15a125.47,125.47,0,0,0-10.7-25.53,100.77,100.77,0,0,0,4.82-31.55,115.23,115.23,0,0,0-230.46,0,100.77,100.77,0,0,0,4.82,31.55,125.8,125.8,0,0,0-10.7,25.53c-9.61,5.61-20.72,25.27-27.42,50.15-5.17,19.17-2.54,38.06.28,49.83,1.55,6.46,8.27,8.27,12.86,3.46A114.54,114.54,0,0,0,137.82,334a126.29,126.29,0,0,0,236.36,0,114.54,114.54,0,0,0,17.21,23.25c4.59,4.81,11.31,3,12.86-3.46C407.07,342,409.7,323.14,404.53,304ZM284,138.73c11.31,0,20.48,13.44,20.48,30s-9.17,30-20.48,30-20.47-13.44-20.47-30S272.66,138.73,284,138.73Zm-55.93,0c11.31,0,20.48,13.44,20.48,30s-9.17,30-20.48,30-20.47-13.44-20.47-30S216.73,138.73,228,138.73Zm28,272.54c-52.87,0-95.72-48.83-95.72-109.08,0-35,14.47-66.16,37-86.12H314.76c22.49,20,37,51.11,37,86.12C351.72,362.44,308.87,411.27,256,411.27Z" transform="translate(-104.52 -81.51)" vector-effect="non-scaling-stroke"/></g><path d="M380.44,252,371,218.9c-61.21,67.27-167,67.27-228.24,0l-11.18,31.54a183.22,183.22,0,0,0,45.11,30.8v52.34l43.26,10.08V295.79A184.28,184.28,0,0,0,380.44,252Z" transform="translate(-104.52 -81.51)" style="fill: #ff3c3c" vector-effect="non-scaling-stroke"/><path d="M328.51,220.61c0-9.27-32.46-16.79-72.51-16.79s-72.51,7.52-72.51,16.79c0,5.07,9.7,9.61,25,12.69,2.94,10.84,23.08,25.53,47.49,25.53s44.55-14.69,47.49-25.53C318.81,230.22,328.51,225.68,328.51,220.61Z" transform="translate(-104.52 -81.51)" style="fill: #ffc305" vector-effect="non-scaling-stroke"/></svg>
