<?xml version="1.0" standalone="no"?>
<svg version="1.1" preserveAspectRatio="xMidYMid meet" viewBox="0 0 74 57.01" class="ng-element" data-id="68feb8d9849247119a75869640cf9924" style="mix-blend-mode: normal; overflow: visible; width: 195px; height: 150px; filter: none;" xmlns="http://www.w3.org/2000/svg"><title>pricing-lavra-v01</title><path d="M56.28,14.91l5.86,7.48C63.63,17.6,56.53,15,56.28,14.91ZM45.49,32.69a1.89,1.89,0,0,0,.06.18l.09.09a.15.15,0,0,0,.09,0l1.78-.27.87,5.73a.14.14,0,0,0,0,.09.32.32,0,0,0,.13,0,.8.8,0,0,0,.23,0l.35,0,.34-.07a1,1,0,0,0,.22-.08.35.35,0,0,0,.11-.09.18.18,0,0,0,0-.1L49,32.49l1.78-.27s.06,0,.09,0a.23.23,0,0,0,.05-.11.51.51,0,0,0,0-.18c0-.08,0-.17,0-.28s0-.2-.06-.28a.54.54,0,0,0-.07-.17.15.15,0,0,0-.08-.09.16.16,0,0,0-.1,0l-5,.76a.13.13,0,0,0-.09,0,.28.28,0,0,0,0,.11.92.92,0,0,0,0,.19c0,.08,0,.17,0,.28S45.47,32.62,45.49,32.69ZM56.28,14.91l-.09-.11.08.11Zm9.21,12.74V18.14S61.27,24.75,65.49,27.65ZM49.06,44.9a2,2,0,0,0,.29-.85,3.81,3.81,0,0,0,0-1.06,3.93,3.93,0,0,0-.28-1,2,2,0,0,0-.5-.69,1.54,1.54,0,0,0-.72-.36,2.25,2.25,0,0,0-.94,0,2.44,2.44,0,0,0-.92.31,1.84,1.84,0,0,0-.61.6,2.26,2.26,0,0,0-.29.84,4.14,4.14,0,0,0,0,1,4.42,4.42,0,0,0,.28,1,2.06,2.06,0,0,0,.5.7,1.65,1.65,0,0,0,.71.36,2.35,2.35,0,0,0,1,0,2.28,2.28,0,0,0,.92-.32A1.57,1.57,0,0,0,49.06,44.9Zm-.9.11a1.45,1.45,0,0,1-.67.26,1.53,1.53,0,0,1-.72,0,1,1,0,0,1-.5-.33,1.59,1.59,0,0,1-.33-.57,5,5,0,0,1-.19-.76,4.51,4.51,0,0,1,0-.73,1.83,1.83,0,0,1,.16-.64,1.29,1.29,0,0,1,.39-.48,1.41,1.41,0,0,1,.67-.26,1.5,1.5,0,0,1,.71,0,1.16,1.16,0,0,1,.5.33,1.68,1.68,0,0,1,.33.57,3.2,3.2,0,0,1,.19.74,3.1,3.1,0,0,1,0,.74,1.72,1.72,0,0,1-.15.65A1.29,1.29,0,0,1,48.16,45ZM43.93,43.5a.91.91,0,0,0,.13-.37,1,1,0,0,0,0-.43,1.14,1.14,0,0,0-.14-.44.86.86,0,0,0-.27-.33,1.22,1.22,0,0,0-.39-.21,2,2,0,0,0-.51-.08l-.22,0-.3,0-1,.15a.37.37,0,0,0-.15.08.25.25,0,0,0,0,.22l.66,4.4a.05.05,0,0,0,0,0,.06.06,0,0,0,.06,0H42a.39.39,0,0,0,.15,0l.1,0a.1.1,0,0,0,0,0,0,0,0,0,0,0-.05l-.3-2,.42-.07a1,1,0,0,1,.38,0,1,1,0,0,1,.3.14,1.39,1.39,0,0,1,.23.25,3,3,0,0,1,.22.32l.6,1.06,0,.07.06,0h.26l.17,0a.19.19,0,0,0,.1,0,.07.07,0,0,0,0,0v0a.16.16,0,0,0,0-.08.73.73,0,0,0-.09-.18l-.58-1-.2-.3a1.14,1.14,0,0,0-.2-.23.74.74,0,0,0-.2-.16.67.67,0,0,0-.23-.1,1.8,1.8,0,0,0,.35-.24A1.68,1.68,0,0,0,43.93,43.5Zm-.53-.31a.74.74,0,0,1-.14.28.88.88,0,0,1-.28.22,1.29,1.29,0,0,1-.42.12l-.62.1-.24-1.6.53-.08a2.39,2.39,0,0,1,.31,0h.21a.66.66,0,0,1,.46.21.84.84,0,0,1,.19.45A.91.91,0,0,1,43.4,43.19Zm10.31-8.11.37,2.49a.19.19,0,0,0,.05.1.32.32,0,0,0,.13,0h.23a1.7,1.7,0,0,0,.35,0l.35-.06.22-.08a.3.3,0,0,0,.1-.09.14.14,0,0,0,0-.11l-.37-2.49,1.36-4.17a2.51,2.51,0,0,0,.08-.33.16.16,0,0,0-.06-.17.4.4,0,0,0-.24,0,3.83,3.83,0,0,0-.49.05l-.38.07a.79.79,0,0,0-.22.08.36.36,0,0,0-.11.1.5.5,0,0,0-.05.16l-.51,1.85c0,.18-.09.36-.14.56l-.12.61h0c-.1-.19-.21-.37-.31-.55l-.31-.5L52.58,31a.62.62,0,0,0-.09-.12.26.26,0,0,0-.14-.06H52.1a2.4,2.4,0,0,0-.4.05l-.47.08A.41.41,0,0,0,51,31a.15.15,0,0,0,0,.17,1.92,1.92,0,0,0,.18.3ZM48.07,59.27l.1-.08-7.52,6C45.54,66.68,48.07,59.27,48.07,59.27ZM48,59.18c-.19,0-7.78.91-7.41,5.94Zm14-36.73h0l-6-7.58.08.1S57,22.77,62.05,22.45ZM16.92,59.93h0l.43-9.62,0,.12S12.85,56.83,16.92,59.93ZM44.15,39.18a.27.27,0,0,0,.13,0h.22a2.81,2.81,0,0,0,.36,0,2,2,0,0,0,.34-.07l.22-.07a.53.53,0,0,0,.11-.09.43.43,0,0,0,0-.11l-1-6.71a.14.14,0,0,0-.05-.09.22.22,0,0,0-.13-.05.73.73,0,0,0-.22,0l-.36,0-.34.07-.22.08a.35.35,0,0,0-.11.09.18.18,0,0,0,0,.1l1,6.71A.14.14,0,0,0,44.15,39.18ZM14.06,45.47l0,.12h0ZM65.6,18.14v9.51C69.8,24.75,65.6,18.14,65.6,18.14ZM13.48,31.08l.08-.1-6,7.55C12.67,38.87,13.48,31.08,13.48,31.08Zm-6,7.39L13.39,31S6,33.59,7.49,38.47Zm10,12v0h0L17,59.92C21.27,57.27,17.6,50.69,17.45,50.43ZM9.14,29.7,17,24.33S9.17,24.59,9.14,29.7ZM17,24.33h0l.11-.07ZM32.16,41.1l.4,0,.38-.07a1.15,1.15,0,0,0,.22-.07.24.24,0,0,0,.1-.1.57.57,0,0,0,0-.14l.24-1.46,2.67-.4.69,1.35a.52.52,0,0,0,.08.11s.06,0,.12,0a1,1,0,0,0,.25,0l.43-.06a4,4,0,0,0,.42-.08.37.37,0,0,0,.21-.1.19.19,0,0,0,0-.18,1.54,1.54,0,0,0-.12-.3l-3.15-6a.58.58,0,0,0-.11-.15.3.3,0,0,0-.16-.07,1.72,1.72,0,0,0-.31,0l-.52.07c-.18,0-.33,0-.44.08a1.51,1.51,0,0,0-.26.07.25.25,0,0,0-.13.11.67.67,0,0,0-.06.17l-1.24,6.63a2.36,2.36,0,0,0,0,.32.18.18,0,0,0,.07.17A.24.24,0,0,0,32.16,41.1Zm2.08-6.21h0l1.46,2.87-2,.3Zm5.24,5a.44.44,0,0,0,.32.06l3.25-.49a.14.14,0,0,0,.1,0,.23.23,0,0,0,.05-.11,1.21,1.21,0,0,0,0-.2,1.67,1.67,0,0,0,0-.28,1.46,1.46,0,0,0,0-.27,1.71,1.71,0,0,0-.07-.18.36.36,0,0,0-.08-.09.2.2,0,0,0-.11,0l-2.23.34-.86-5.72a.19.19,0,0,0-.05-.09.32.32,0,0,0-.13-.06h-.23l-.35,0a2.15,2.15,0,0,0-.35.07.71.71,0,0,0-.21.08.17.17,0,0,0-.11.09.12.12,0,0,0,0,.1l1,6.45A.45.45,0,0,0,39.48,39.87ZM13.06,38l-.07.11s-6.77,3.92-4.37,8.45Zm4-13.6h0L9.2,29.78C13.93,31.61,17,24.54,17.06,24.43Zm0,0h0l.1-.07ZM33.48,44.19l.3.4,1.85,2.49.18.21a.71.71,0,0,0,.15.12.44.44,0,0,0,.16.06h.17l.21,0,.1,0,.08-.06a.31.31,0,0,0,0-.1.41.41,0,0,0,0-.12l-.66-4.39a.13.13,0,0,0,0,0l0,0h-.1l-.15,0-.16,0a.19.19,0,0,0-.09,0,.08.08,0,0,0,0,.05.07.07,0,0,0,0,0l.39,2.57c0,.2.06.4.1.61s.06.41.1.6h0l-.22-.32c-.08-.1-.15-.21-.23-.32l-.24-.33c-.08-.11-.17-.22-.25-.34l-1.43-1.92a1.38,1.38,0,0,0-.15-.17.41.41,0,0,0-.13-.1.33.33,0,0,0-.14,0H33l-.31.05a.32.32,0,0,0-.17.09.23.23,0,0,0-.05.22l.66,4.38a.08.08,0,0,0,0,0l.06,0h.1l.15,0,.15,0,.1,0s0,0,0,0a.11.11,0,0,0,0-.05l-.43-2.87-.09-.55-.09-.54h0C33.28,43.91,33.38,44.05,33.48,44.19Zm26.6,1.39,0-.13,0,.12Zm1.81,9.33L60,45.59C59.89,45.81,57.25,52.94,61.89,54.91ZM60,45.47l0,.12h0Zm.13.11L62,54.88C65.46,51.27,60.28,45.79,60.08,45.58Zm1-7.46h0Zm-.15-.06.06.11h0Zm.06.11s-.78,7.79,4.28,8.49Zm5.48,10.16h0l7.49-6.06-.1.08S66,43.23,66.44,48.33ZM50.86,63.15h0l1.25-9.43C52,53.85,47.12,59.75,50.86,63.15Zm10.2-25,4.28,8.49C67.78,42.13,61.07,38.13,61.06,38.12ZM50.93,45.24l2.1-.32.06,0,0-.06a.28.28,0,0,0,0-.09.53.53,0,0,0,0-.12l0-.13,0-.08-.05,0H53l-1.71.26-.62-4.11s0,0,0-.05l-.05,0h-.26l-.15,0-.09,0a.11.11,0,0,0,0,0,.13.13,0,0,0,0,.06l.67,4.4a.25.25,0,0,0,.1.19A.26.26,0,0,0,50.93,45.24Zm1.3,8.5L51,63.17C55.49,60.86,52.28,53.85,52.23,53.74Zm10.3,8.46s-7.23-3-9.37,1.64l9.5-1.67ZM64.8,29.78h0L57,24.43C57,24.55,60.08,31.61,64.8,29.78Zm3.06,5.38h0l1.53-9.52,0,.13S64.17,31.63,67.86,35.16ZM72.15,50S64.38,49,63.54,54l8.72-4.1ZM60.45,31l.07.1s.81,7.79,5.9,7.45ZM57,59.93l-.42-9.5C56.46,50.59,52.69,57.25,57,59.93Zm11.41-3.74s-7.59-1.94-9,3l9.16-3Zm-.41-21c4.61-2.2,1.5-9.39,1.5-9.39l0-.12Zm4.47-.81L68,42.78C73.06,42.17,72.45,34.47,72.44,34.37Zm-4.51,8.36L72.4,34.2l-.05.11S65.55,38.2,67.93,42.73Zm4.51-8.36ZM60.61,31Zm-4,19.28.41,9.63c4.08-3.09-.41-9.51-.41-9.51Zm4-19.28,5.9,7.45C68,33.6,60.65,31,60.61,31Zm5.81,7.51ZM56.9,24.27l.1.06h0Zm.1.06h0l7.86,5.37C64.83,24.61,57.09,24.34,57,24.33ZM21.88,53.72h0l0-.13ZM1.69,50l.13.06h0Zm23,20.65h0l-.12,0L34,68.56C30.24,65.1,24.73,70.67,24.73,70.67ZM39,66.41l-1.89.88-1.78-.92-.53,1,1.39.33-1.33.62L37,67.93l2.34.56L38,67.75l1.51-.29Zm10.27,4.36.13,0L40,68.67C41.87,73.42,49.24,70.77,49.24,70.77Zm-9-28.23.05,0,0-.06a.19.19,0,0,0,0-.08.62.62,0,0,0,0-.13s0-.08,0-.12a.59.59,0,0,0,0-.08l-.05,0h-.06l-3.3.5,0,0a.07.07,0,0,0,0,.06.22.22,0,0,0,0,.09.53.53,0,0,0,0,.12.37.37,0,0,0,0,.12l0,.08a.1.1,0,0,0,0,0H37l1.34-.21L38.91,47l0,0A.06.06,0,0,0,39,47h.25a.46.46,0,0,0,.15,0l.1,0a.12.12,0,0,0,0-.05v0l-.62-4.12Zm-.26,26Zm0,0,9.39,2.14-.12,0S43.76,65.11,40,68.56ZM27.06,65.93,17.79,68C17.86,68,25.15,70.64,27.06,65.93ZM14.63,59.25l-9-3C5.76,56.5,10.63,62.3,14.63,59.25Zm-9-3.06-.12,0,9.16,3C13.21,54.25,5.62,56.19,5.62,56.19ZM17.76,67.88,27,65.82C23.33,62.39,17.87,67.77,17.76,67.88ZM10.42,54.12h0l-8.6-4C2,50.33,6.09,56.64,10.42,54.12ZM20.82,64h0l-9.49-1.66.11,0S17.23,67.59,20.82,64Zm-3.06,3.93h0l-.12,0Zm7,2.89s7.38,2.65,9.28-2.1l-9.4,2.13ZM68.4,56.3l-9,3C63.36,62.29,68.22,56.52,68.4,56.3Zm3.79-6.22-8.6,4C67.92,56.65,72,50.3,72.19,50.08ZM68.4,56.3l.14,0-.13,0ZM1.86,50l-.12,0L10.46,54C9.63,49,1.86,50,1.86,50Zm72-7.54h0l.11-.08Zm0,0-7.38,6C71.4,49.85,73.89,42.45,73.89,42.43ZM56.21,68l-9.28-2.06C48.82,70.59,56,68.07,56.21,68Zm16-17.92.12,0-.12,0ZM62.55,62.31l.13,0-.13,0ZM56.21,68l.12,0-.11,0ZM47,65.82Zm9.28,2.06.12,0-.12,0ZM47,65.82l9.28,2.06C56.12,67.77,50.67,62.39,47,65.82Zm15.59-3.51L53.19,64C56.76,67.58,62.5,62.35,62.55,62.31Zm9.64-12.23ZM7.52,48.4h0L0,42.38l.1.09S2.62,49.87,7.52,48.4ZM26,49.06a2.34,2.34,0,0,0,.49-.12l.38-.18a2.43,2.43,0,0,0,.27-.19l.14-.14,0-.07s0,0,0-.06a.22.22,0,0,0,0-.08.45.45,0,0,0,0-.11.83.83,0,0,1,0-.13.19.19,0,0,0,0-.09s0,0,0,0h0a.51.51,0,0,0-.14.09,2.41,2.41,0,0,1-.22.2,2,2,0,0,1-.34.21,1.51,1.51,0,0,1-.48.14,1.28,1.28,0,0,1-.62,0,1.17,1.17,0,0,1-.51-.28,1.82,1.82,0,0,1-.36-.54,2.76,2.76,0,0,1-.22-.78,2.93,2.93,0,0,1,0-.83,1.78,1.78,0,0,1,.19-.64,1.28,1.28,0,0,1,.39-.44,1.49,1.49,0,0,1,1.07-.22,2.58,2.58,0,0,1,.38.1l.26.13a.47.47,0,0,0,.16,0s0,0,0,0,0,0,0-.06a.22.22,0,0,0,0-.09.57.57,0,0,0,0-.12.52.52,0,0,1,0-.11l0-.08a.16.16,0,0,0,0-.06l-.08-.07-.2-.1a1.4,1.4,0,0,0-.31-.09l-.38,0a1.82,1.82,0,0,0-.4,0,2.22,2.22,0,0,0-.83.3,1.82,1.82,0,0,0-.58.59,2.21,2.21,0,0,0-.31.85,3.21,3.21,0,0,0,0,1.07,3.1,3.1,0,0,0,.29,1,2,2,0,0,0,.52.68,1.56,1.56,0,0,0,.7.36A2.06,2.06,0,0,0,26,49.06ZM23,63.17l-1.27-9.55v.12S18.47,60.84,23,63.17Zm2.63-3.73.11.07h0ZM33.54,65h0l-7.77-5.48C25.82,59.61,28.77,66.75,33.54,65Zm-7.71-5.57-.1-.07,7.88,5.55C33.65,59.8,25.83,59.42,25.83,59.42ZM11.34,62.17l.13,0h0Zm10.54-8.44,1.26,9.42C26.88,59.76,22,53.85,21.88,53.73ZM13.09,38.2,8.71,46.64C13.7,46,13.11,38.44,13.09,38.2ZM14,45.44l0,.13S8.48,51.2,12,54.88Zm-.87-7.24h0l.06-.12Zm7.74,25.64c-2.13-4.63-9.32-1.66-9.36-1.64ZM14,45.59l-1.9,9.32C16.75,52.94,14.12,45.83,14,45.59ZM11.47,62.2ZM29.38,43.56a2.44,2.44,0,0,0-.92.32,1.75,1.75,0,0,0-.61.6,2.2,2.2,0,0,0-.29.84,4.06,4.06,0,0,0,0,1,4.42,4.42,0,0,0,.28,1,2.06,2.06,0,0,0,.5.7,1.65,1.65,0,0,0,.72.37,2.7,2.7,0,0,0,1,0,2.44,2.44,0,0,0,.92-.32,1.72,1.72,0,0,0,.6-.6,2.31,2.31,0,0,0,.29-.85,3.8,3.8,0,0,0,0-1.06,3.89,3.89,0,0,0-.28-1,2.12,2.12,0,0,0-.5-.69,1.75,1.75,0,0,0-.72-.36A2.44,2.44,0,0,0,29.38,43.56ZM31,45a4,4,0,0,1,.19.74,3.18,3.18,0,0,1,0,.75,1.67,1.67,0,0,1-.15.64,1.41,1.41,0,0,1-.39.49,1.61,1.61,0,0,1-.68.26,1.5,1.5,0,0,1-.71,0,1.16,1.16,0,0,1-.5-.33,1.78,1.78,0,0,1-.33-.57,5.1,5.1,0,0,1-.19-.77,3.6,3.6,0,0,1,0-.73,1.88,1.88,0,0,1,.16-.64,1.48,1.48,0,0,1,.39-.48,1.4,1.4,0,0,1,.67-.25,1.38,1.38,0,0,1,.71,0,1,1,0,0,1,.5.33A1.63,1.63,0,0,1,31,45ZM25.5,40.66a2.24,2.24,0,0,0,.69.77,2.37,2.37,0,0,0,1,.37,4.63,4.63,0,0,0,2.47-.39,2.59,2.59,0,0,0,.84-.69,2.23,2.23,0,0,0,.43-.95,3.43,3.43,0,0,0,0-1.2l-.65-4.26a.14.14,0,0,0-.05-.1.23.23,0,0,0-.12-.05.75.75,0,0,0-.22,0l-.35,0-.35.07a1.17,1.17,0,0,0-.21.08.35.35,0,0,0-.11.09.17.17,0,0,0,0,.1l.64,4.28a1.94,1.94,0,0,1,0,.68,1.45,1.45,0,0,1-.21.54,1.22,1.22,0,0,1-.41.37,1.58,1.58,0,0,1-.6.2,1.83,1.83,0,0,1-.62,0,1.31,1.31,0,0,1-.51-.23,1.48,1.48,0,0,1-.38-.47,2.35,2.35,0,0,1-.21-.72L25.91,35a.14.14,0,0,0-.05-.09.32.32,0,0,0-.13,0,.73.73,0,0,0-.22,0l-.35,0-.35.07-.22.08a.22.22,0,0,0-.1.09.12.12,0,0,0,0,.1l.65,4.32A3.17,3.17,0,0,0,25.5,40.66ZM4.64,25.78l1.5,9.38C9.76,31.7,4.84,26,4.64,25.78Zm0,0,0-.13,0,.13Zm-3,8.53L1.6,34.2l4.48,8.53C8.45,38.2,1.66,34.31,1.66,34.31ZM.16,42.38h0l-.1-.08,7.52,6C8,43.21.16,42.38.16,42.38Zm5.83.4L1.51,34.25l.06.11S.91,42.17,6,42.78Zm0-7.6L4.54,25.79C4.48,25.93,1.47,33,6,35.18ZM17.4,36.94a3.17,3.17,0,0,0-.48,1.27,5.26,5.26,0,0,0,0,1.58,5.59,5.59,0,0,0,.45,1.61,2.93,2.93,0,0,0,.79,1,2.58,2.58,0,0,0,1.13.5,4.33,4.33,0,0,0,1.48,0,3.42,3.42,0,0,0,.78-.2,3.59,3.59,0,0,0,.59-.3,4.12,4.12,0,0,0,.74.52,6.27,6.27,0,0,0,.77.34,4.34,4.34,0,0,0,.67.19,1.46,1.46,0,0,0,.49,0l.08,0a.14.14,0,0,0,.06-.1.85.85,0,0,0,0-.2,2.36,2.36,0,0,0,0-.32,3.1,3.1,0,0,0-.09-.38.32.32,0,0,0-.12-.18.3.3,0,0,0-.18-.07l-.3-.07A4.45,4.45,0,0,1,23.8,42a5.12,5.12,0,0,1-.67-.36,2.78,2.78,0,0,0,.32-.59,2.92,2.92,0,0,0,.2-.69,5.2,5.2,0,0,0,.07-.81,5.9,5.9,0,0,0-.08-.91,5.33,5.33,0,0,0-.45-1.56,2.89,2.89,0,0,0-.81-1,2.47,2.47,0,0,0-1.13-.5,4.32,4.32,0,0,0-1.44,0,4.07,4.07,0,0,0-1.45.49A2.77,2.77,0,0,0,17.4,36.94Zm1.18.76a1.66,1.66,0,0,1,.5-.62,1.77,1.77,0,0,1,.86-.33,2,2,0,0,1,.9,0,1.49,1.49,0,0,1,.64.42,2.31,2.31,0,0,1,.42.74,6.38,6.38,0,0,1,.24,1,5.54,5.54,0,0,1,.06,1,2.47,2.47,0,0,1-.19.85,1.6,1.6,0,0,1-.5.62,1.87,1.87,0,0,1-.86.34,2.07,2.07,0,0,1-.91,0,1.43,1.43,0,0,1-.64-.42,2.24,2.24,0,0,1-.41-.75,5.67,5.67,0,0,1-.25-1,5.24,5.24,0,0,1-.05-1A2.41,2.41,0,0,1,18.58,37.7ZM24,29.93ZM18,14.67h0l-5,8.06C18,22.5,18,14.68,18,14.67ZM8.52,18.14h0v9.51C12.72,24.75,8.52,18.14,8.52,18.14Zm9.42-3.64-.07.1s-7.07,3.38-5,8.07ZM8.41,27.65V18.14S4.21,24.75,8.41,27.65Z" transform="translate(0 -14.5)" style="fill: rgb(239, 174, 30); stroke-width: 0px;" vector-effect="non-scaling-stroke"/></svg>