<?xml version="1.0" standalone="no"?>
<svg version="1.1" preserveAspectRatio="xMidYMid meet" viewBox="0 0 698.6 538.2" class="ng-element" data-id="ec19da7097454266be092118dc960b45" style="mix-blend-mode: normal; overflow: visible; width: 186px; height: 143px; pointer-events: all; filter: none;" xmlns="http://www.w3.org/2000/svg"><title>36558217 [Converted]</title><path d="M654.86,648.05l-.15,1.18,0,0Zm.93,1.31-11.89,89C686.54,716.55,656.29,650.45,655.79,649.36Zm.16-1.17-.17,1.14v0Zm-13.07,90,11.83-89C653.72,650.42,607.58,706.15,642.88,738.24Zm-26.09-38.19-.92.73h0Zm-.92.73c-1.79.2-73.41,8.57-70,56.06Zm80.7-83.88.06,1.19,0,0Zm52-262.9-56.1-71.57.7,1S700.39,357,748.53,354ZM694,282.77l-.77-1,.7,1ZM616.53,701.55l.91-.73-71,56.79C592.68,771.54,616.53,701.55,616.53,701.55ZM244.06,581.85,286,501.1l-.61,1S221.39,539.14,244.06,581.85ZM700.54,707.77l-3.91-89.68C695.76,619.59,660.13,682.48,700.54,707.77ZM754.27,729l-1.19.2s-68.28-28.37-88.46,15.51Zm-483.29.2-1.18-.2,89.58,15.71C339.23,700.86,271,729.23,271,729.23Zm51.5-21.46,4-90.87-.13,1.15S284,678.58,322.48,707.77Zm1.27-335.15-74.16,50.56C294.22,440.44,323.29,373.7,323.75,372.62Zm0,0,1-.7-1,.68ZM286.3,502.68l-41.39,79.63C292.06,576.37,286.48,504.93,286.3,502.68Zm0-.05v.05l.57-1.11ZM406.61,703l-1-.68L480,754.76C480.44,706.55,406.61,703,406.61,703ZM380.1,738.37l-12-90.18.14,1.14S337.1,716.37,380.1,738.37ZM406,703.84l-1-.67,1,.69Zm73.33,51.74L406,703.86C406.43,704.81,434.31,772.15,479.36,755.58ZM369.29,649.23l11.86,89C416.47,706.16,370.3,650.44,369.29,649.23Zm0,0-.16-1.18.13,1.15ZM694,282.77l55.37,70.62C763.44,308.14,696.43,283.65,694,282.77Zm45.12,219.15,40.41,80.18C802.67,539.69,739.13,501.93,739.11,501.92Zm0,0h0l-.54-1.06Zm-9.28,70.36.06.07-.26-1.29Zm18.08,87.89c32.74-34.13-16.11-85.83-18-87.82Zm-13-225.34h0l-.76-.95Zm54.91,71-56.43-71.3.71.95S741.67,509,789.81,505.79Zm-54.9-71,55.72,70.35C804.76,459.11,735,434.87,734.91,434.83Zm2.74,66.49.53,1.05s-7.38,73.57,40.45,80.19Zm52.28,96.95,70.74-57.2-.94.73S786.22,550.12,789.93,598.27ZM699.28,371.92l1,.71v0Zm-1.69,245,3.93,90.87c38.52-29.19-3.86-89.72-3.86-89.72ZM781,403.07V313.32S741.16,375.68,781,403.07Zm-6.47,20.11-74.17-50.55C700.81,373.78,729.87,440.43,774.48,423.18ZM804,545.4l42.25-80.51-.54,1S781.52,502.67,804,545.4Zm42.63-78.94-41.75,79.48C852.71,540.13,846.61,466.66,846.59,466.46Zm.57-1.09-.57,1.08h0Zm-42.79,8.8c43.54-20.79,14.15-88.67,14.15-88.67l.17-1.18Zm-1-.14,14.36-89.85-.2,1.19S768.49,440.65,803.35,474ZM747,660.37l-18.1-87.91C728.09,574.49,703.17,641.83,747,660.37Zm-18.34-89.11.24,1.2,0-.05Zm115.17,42.53s-73.3-9.34-81.22,38.25l82.3-38.73Zm-142.93-242-1-.68,1,.67ZM808.23,672.49s-71.64-18.28-85.32,28l86.47-28.3ZM700.85,371.76l74.2,50.61C774.71,374.27,701.49,371.78,700.85,371.76ZM782,313.32v89.75C821.64,375.68,782,313.32,782,313.32ZM418.22,764.44l-87.57,19.44C331.29,784.12,400.16,808.92,418.22,764.44Zm-87.8,18.43-1.17.26,1.15-.24Zm-1,1.28,1.2-.27h0Zm66.73,25.05-1.12.27,88.67-20.18C448.22,756.66,396.18,809.2,396.18,809.2ZM530.64,769l-17.86,8.33L496,768.64l-5,9.67,13.09,3.1-12.57,5.87,20.66-3.95,22.13,5.25L521,781.65l14.24-2.72ZM396.41,810.18s69.61,25,87.56-19.9l-88.71,20.14Zm231.17,0,1.22.24-88.7-20.14C558,835.13,627.58,810.18,627.58,810.18ZM330.42,782.87,418,763.43C383,731,331.45,781.85,330.42,782.87Zm-69.36-130-81.2-38.11C181.36,617.15,220.17,676.76,261.06,652.92Zm-46.72,20.25,1.2.39,0,0Zm144.9,72.58-89.61-15.7,1.12.2S325.39,780.15,359.24,745.75ZM300.81,701.4l-85.27-27.84C217.1,675.44,263.08,730.16,300.81,701.4Zm507.67-27.83L723.25,701.4C760.92,730.11,806.76,675.64,808.48,673.57Zm-55.24,56.69,1.19-.21-1.18.2Zm91-115.47-81.15,38.13C804,676.83,842.93,616.79,844.22,614.79Zm-665.53-.53,1.17.55-.05-.08Zm629.79,59.31,1.24-.4-1.18.34ZM790.59,599c46.25,13.63,69.74-56.4,69.74-56.4l1-.8Zm53.63,15.75,1.11-.53-1.08.47ZM693.41,783.9l-87.63-19.46C623.63,808.43,691.27,784.66,693.41,783.9Zm0,0,1.13.25-1.08-.27Zm59.83-53.64-88.39,15.49C698.53,780,752.76,730.69,753.24,730.26Zm-212.94,59L629,809.47l-1.15-.27S575.85,756.66,540.3,789.29Zm65.75-25.86,87.59,19.44C692.56,781.8,641,731,606.05,763.43Zm87.61,19.46,1.16.24-1.18-.26ZM233.4,505.18l55.75-70.35C288.88,434.92,219.31,459.16,233.4,505.18Zm.31,93.8-71-56.82.91.8S187.47,612.85,233.71,599Zm-53.43,14.81-1.15-.48L261.47,652C253.58,604.45,180.28,613.79,180.28,613.79ZM290,435.44l.75-.95-56.54,71.3C282.36,509,290,435.44,290,435.44Zm37.41,182.61.05.09.06-1.24Zm-32.94-47-.27,1.22s-51.39,53.08-18,87.89Zm29.09,136.71c40-25.08,5.31-87.16,3.9-89.63Zm8.8-427.28h0l.65-1.06ZM295.19,572.41l0,.06.25-1.21Zm-5.28-138.53-.76.95h0Zm5.3,138.59-18,87.9C320.82,641.86,296.05,574.71,295.21,572.47Zm28-200.72,1-.67-1,.68ZM249,422.37l74.17-50.61C322.87,371.76,249.28,374.16,249,422.37ZM215.76,672.49l-1.11-.33,86.43,28.3C287.47,654.21,215.76,672.49,215.76,672.49ZM178.39,465.91l-.54-1L220.1,545.4C242.51,502.67,178.39,465.91,178.39,465.91Zm41.27,8.26-14.13-88.64C205,386.79,176.57,453.58,219.66,474.17Zm-14.33-89.85.2,1.21v0Zm13.89,161.62L177,465.37l.55,1.08S171.28,540.12,219.22,545.94Zm-55-3.83-.94-.73,71,56.82C237.75,550,164.26,542.11,164.26,542.11Zm78.86-228.79v89.75C282.83,375.68,243.12,313.32,243.12,313.32Zm89-34.42-.66,1s-66.76,31.86-47.63,76.16Zm.17,1.6-47.57,76.09C332.94,354.44,332.33,280.63,332.33,280.5ZM206.55,385.44l-.2-1.26.14,1.19Zm0,0L220.64,474C254.88,441.32,208.42,387.58,206.55,385.44Zm35.55,17.63V313.32S202.42,375.68,242.1,403.07Z" transform="translate(-162.7 -278.9)" style="fill: rgb(189, 137, 25); stroke-width: 0px;" vector-effect="non-scaling-stroke"/></svg>