<?xml version="1.0" standalone="no"?>
<svg version="1.1" preserveAspectRatio="xMidYMid meet" viewBox="0 0 200.92 222.03" class="ng-element" data-id="1aec9dfc89b444cabf91f5c7c78bcae3" style="mix-blend-mode: normal; overflow: visible; width: 145px; height: 160px; pointer-events: all; filter: none;" xmlns="http://www.w3.org/2000/svg"><defs>
    <clipPath id="clip-path_1528888005893" transform="translate(-1.62 -1)" vector-effect="non-scaling-stroke">
      <path d="M114.77,219.91c-7.29,4.19-19.2,4.16-26.47,0L14.81,177.25C7.54,173,1.61,162.71,1.62,154.31l.15-84.95c0-8.4,6-18.7,13.28-22.89L88.69,4.13C96-.06,107.88,0,115.15,4.18l73.49,42.6c7.27,4.22,13.21,14.54,13.19,22.94l-.15,84.95c0,8.4-6,18.71-13.27,22.9Z" style="fill: none" vector-effect="non-scaling-stroke"/>
    </clipPath>
  </defs><title>requests-request-project-v01</title><g>
    <path d="M114.77,219.91c-7.29,4.19-19.2,4.16-26.47,0L14.81,177.25C7.54,173,1.61,162.71,1.62,154.31l.15-84.95c0-8.4,6-18.7,13.28-22.89L88.69,4.13C96-.06,107.88,0,115.15,4.18l73.49,42.6c7.27,4.22,13.21,14.54,13.19,22.94l-.15,84.95c0,8.4-6,18.71-13.27,22.9Z" transform="translate(-1.62 -1)" style="fill: #e7f4fc" vector-effect="non-scaling-stroke"/>
    <path d="M197.76,64.57l-1.24-5a2,2,0,0,0-1.88-1.51l-7.88-.26a2,2,0,0,0-2,1.48l-1.29,4.87a24.61,24.61,0,0,0-3,1l-4.18-3a2,2,0,0,0-2.41,0L167.63,67a2,2,0,0,0-.58,2.42l2.16,4.6a24.73,24.73,0,0,0-1.65,2.68l-5.21.37a2,2,0,0,0-1.81,1.58l-1.63,7.72A2,2,0,0,0,160,88.64l4.64,2.15a26.41,26.41,0,0,0,.45,3.07l-3.78,3.65a2,2,0,0,0-.37,2.38l3.71,7a2,2,0,0,0,2.29,1l4.95-1.34a25.11,25.11,0,0,0,2.31,2.07l-.55,5.22a2,2,0,0,0,1.24,2.07l5.43,2.18-1.28,1.08a2,2,0,0,0-.5,2.44l3.64,7.14a34.69,34.69,0,0,0-2.72,4.73l-8.13.84a2,2,0,0,0-1.77,1.64l-2,11.35a2,2,0,0,0,1.19,2.18l7.39,3.14a35.8,35.8,0,0,0,1,5.36l-5.7,5.88a2,2,0,0,0-.29,2.39l.78,1.35h-6.1a2,2,0,0,0-1.95,1.55l-1.19,5.17a25.41,25.41,0,0,0-3.12,1.15l-4.5-3.05a2,2,0,0,0-2.41.12l-6.25,5.25a2,2,0,0,0-.5,2.44l2.42,4.76a25.89,25.89,0,0,0-1.63,2.85l-5.45.56a2,2,0,0,0-1.76,1.64l-1.42,8a2,2,0,0,0,1.19,2.19l4.92,2.09.06.45h.35l3.47-2a2,2,0,0,0-1.21-1.67l-4.56-1.94.88-5,5.07-.52a2,2,0,0,0,1.62-1.19,22.57,22.57,0,0,1,2.41-4.18,2,2,0,0,0,.17-2.09l-2.24-4.41,3.88-3.25,4.19,2.84a2,2,0,0,0,2,.13,22.48,22.48,0,0,1,4.56-1.68,2,2,0,0,0,1.47-1.49l1.1-4.78h5.07l1.37,4.83a2,2,0,0,0,1.46,1.4,21.62,21.62,0,0,1,4.62,1.67,2,2,0,0,0,2.09-.2l3.88-2.93,1.9,1.59.62-.35a22.14,22.14,0,0,0,4.14-3.17,31.91,31.91,0,0,1-3.68-3.29,2,2,0,0,0-2-.53l-7.28,2.23-4.21-7.29,5.44-5.61a2,2,0,0,0,.48-1.95,32,32,0,0,1-1.21-6.88,2,2,0,0,0-1.22-1.71l-7-3,1.46-8.29,7.77-.8a2,2,0,0,0,1.62-1.19,32.63,32.63,0,0,1,3.49-6.06,2,2,0,0,0,.17-2.08l-3.46-6.8,6.44-5.41,6.44,4.36a2,2,0,0,0,2,.13,30.26,30.26,0,0,1,4-1.64l0-12.2c-.21.14-.41.29-.63.42a2,2,0,0,0-.94,1.88l.42,4.66-4.55,1.49-2.71-4a2,2,0,0,0-1.66-.88h-.15a22.11,22.11,0,0,1-4.67-.16,2,2,0,0,0-1.92.83l-2.7,3.87-4.44-1.78.5-4.85a2,2,0,0,0-.82-1.83,21.26,21.26,0,0,1-3.46-3.11,2,2,0,0,0-2-.59l-4.57,1.23-2.26-4.22L168.71,96a2,2,0,0,0,.55-1.94,21.64,21.64,0,0,1-.67-4.6,2,2,0,0,0-1.15-1.75l-4.29-2,1-4.69,4.83-.34a2,2,0,0,0,1.67-1.14,21.44,21.44,0,0,1,2.46-4,2,2,0,0,0,.24-2.08l-2-4.24,3.77-3L179,69.07a2,2,0,0,0,2,.2,21.1,21.1,0,0,1,4.49-1.48A2,2,0,0,0,187,66.34l1.2-4.48L193,62l1.16,4.62a2,2,0,0,0,1.41,1.45A21.34,21.34,0,0,1,200,69.85a2,2,0,0,0,1.84,0v-.13a20.26,20.26,0,0,0-.49-4.37l-.57.41A25.1,25.1,0,0,0,197.76,64.57Z" transform="translate(-1.62 -1)" style="fill: #fff" vector-effect="non-scaling-stroke"/>
    <g style="clip-path: url(#clip-path_1528888005893)">
      <g>
        <g>
          <g>
            <g>
              <polygon points="190.59 178.03 184.34 172.78 178.29 177.33 187.46 185.02 190.59 178.03" style="fill: #5f5f5f" vector-effect="non-scaling-stroke"/>
              <polygon points="189.36 177.96 183.73 173.23 178.29 177.33 186.54 184.25 189.36 177.96" style="fill: #777979" vector-effect="non-scaling-stroke"/>
            </g>
            <g>
              <polygon points="198.48 197 197.06 188.96 189.5 188.56 191.58 200.34 198.48 197" style="fill: #5f5f5f" vector-effect="non-scaling-stroke"/>
              <polygon points="197.58 196.16 196.3 188.92 189.5 188.56 191.37 199.17 197.58 196.16" style="fill: #777979" vector-effect="non-scaling-stroke"/>
            </g>
            <g>
              <polygon points="139.82 189.35 138.4 197.39 145.37 200.34 147.44 188.56 139.82 189.35" style="fill: #5f5f5f" vector-effect="non-scaling-stroke"/>
              <polygon points="140.37 190.45 139.1 197.69 145.37 200.34 147.24 189.74 140.37 190.45" style="fill: #777979" vector-effect="non-scaling-stroke"/>
            </g>
            <g>
              <polygon points="152.31 173.03 146.05 178.28 149.49 185.02 158.65 177.33 152.31 173.03" style="fill: #5f5f5f" vector-effect="non-scaling-stroke"/>
              <polygon points="152.02 174.23 146.39 178.96 149.49 185.02 157.74 178.1 152.02 174.23" style="fill: #777979" vector-effect="non-scaling-stroke"/>
            </g>
            <g>
              <polygon points="172.36 168.56 164.19 168.56 162.49 175.94 174.46 175.94 172.36 168.56" style="fill: #5f5f5f" vector-effect="non-scaling-stroke"/>
              <polygon points="171.37 169.3 164.02 169.3 162.49 175.94 173.26 175.94 171.37 169.3" style="fill: #777979" vector-effect="non-scaling-stroke"/>
            </g>
          </g>
          <path d="M194.07,202.77a25.73,25.73,0,0,0,.24-3.42,24.16,24.16,0,1,0-48.07,3.42Z" transform="translate(-1.62 -1)" style="fill: #949696" vector-effect="non-scaling-stroke"/>
          <path d="M188.51,202.77a18.36,18.36,0,0,0,.32-3.42,18.68,18.68,0,1,0-37.36,0,18.36,18.36,0,0,0,.32,3.42Z" transform="translate(-1.62 -1)" style="fill: #5f5f5f" vector-effect="non-scaling-stroke"/>
          <path d="M187.27,202.77a17.46,17.46,0,1,0-34.23,0Z" transform="translate(-1.62 -1)" style="fill: #777979" vector-effect="non-scaling-stroke"/>
          <path d="M174.58,202.77a5.53,5.53,0,0,0,1.17-3.42,5.6,5.6,0,1,0-10,3.42Z" transform="translate(-1.62 -1)" style="fill: #5f5f5f" vector-effect="non-scaling-stroke"/>
          <rect x="169.94" y="197.09" width="5.27" height="2.63" style="fill: #5f5f5f" vector-effect="non-scaling-stroke"/>
          <rect x="171.26" y="197.58" width="3.39" height="1.64" style="fill: #777979" vector-effect="non-scaling-stroke"/>
          <rect x="167.16" y="191.67" width="2.63" height="5.27" style="fill: #5f5f5f" vector-effect="non-scaling-stroke"/>
          <rect x="167.65" y="192.22" width="1.64" height="3.39" style="fill: #777979" vector-effect="non-scaling-stroke"/>
          <rect x="161.85" y="196.97" width="5.27" height="2.63" style="fill: #5f5f5f" vector-effect="non-scaling-stroke"/>
          <rect x="162.41" y="197.47" width="3.39" height="1.64" style="fill: #777979" vector-effect="non-scaling-stroke"/>
          <rect x="167.27" y="199.75" width="2.63" height="2.02" style="fill: #5f5f5f" vector-effect="non-scaling-stroke"/>
          <rect x="167.77" y="201.07" width="1.64" height="0.7" style="fill: #777979" vector-effect="non-scaling-stroke"/>
          <path d="M167.34,202.77H173a4.43,4.43,0,1,0-5.62,0Z" transform="translate(-1.62 -1)" style="fill: #6e6e6e" vector-effect="non-scaling-stroke"/>
        </g>
        <g>
          <g>
            <g>
              <polygon points="200.93 178.16 191.62 174.77 190.84 185.55 200.93 189.22 200.93 178.16" style="fill: #5f5f5f" vector-effect="non-scaling-stroke"/>
              <polygon points="200.93 178.16 193.2 175.35 192.51 185.05 200.93 188.12 200.93 178.16" style="fill: #777979" vector-effect="non-scaling-stroke"/>
            </g>
            <g>
              <polygon points="171.24 164.21 177 174.19 187.2 171.06 178.76 156.45 171.24 164.21" style="fill: #5f5f5f" vector-effect="non-scaling-stroke"/>
              <polygon points="172.83 164.9 178.02 173.87 187.2 171.06 179.61 157.91 172.83 164.9" style="fill: #777979" vector-effect="non-scaling-stroke"/>
            </g>
            <g>
              <polygon points="169.94 135.26 167.94 146.6 177.76 150.77 180.69 134.15 169.94 135.26" style="fill: #5f5f5f" vector-effect="non-scaling-stroke"/>
              <polygon points="170.72 136.81 168.92 147.02 177.76 150.77 180.4 135.81 170.72 136.81" style="fill: #777979" vector-effect="non-scaling-stroke"/>
            </g>
            <g>
              <polygon points="187.55 112.25 178.73 119.65 183.58 129.16 196.51 118.31 187.55 112.25" style="fill: #5f5f5f" vector-effect="non-scaling-stroke"/>
              <polygon points="187.16 113.94 179.21 120.6 183.58 129.16 195.21 119.39 187.16 113.94" style="fill: #777979" vector-effect="non-scaling-stroke"/>
            </g>
          </g>
          <path d="M202.55,116.22a34.09,34.09,0,0,0,0,65.46Z" transform="translate(-1.62 -1)" style="fill: #949696" vector-effect="non-scaling-stroke"/>
          <path d="M202.55,124.37a26.36,26.36,0,0,0,0,49.16Z" transform="translate(-1.62 -1)" style="fill: #5f5f5f" vector-effect="non-scaling-stroke"/>
          <path d="M202.55,126.24a24.62,24.62,0,0,0,0,45.42Z" transform="translate(-1.62 -1)" style="fill: #777979" vector-effect="non-scaling-stroke"/>
        </g>
        <g>
          <g>
            <g>
              <polygon points="192.96 59.06 185.07 58.8 183.19 65.87 194.75 66.25 192.96 59.06" style="fill: #5f5f5f" vector-effect="non-scaling-stroke"/>
              <polygon points="191.98 59.75 184.88 59.51 183.19 65.87 193.59 66.21 191.98 59.75" style="fill: #777979" vector-effect="non-scaling-stroke"/>
            </g>
            <g>
              <polygon points="200.93 65.95 198.41 67.72 200.93 69.98 200.93 65.95" style="fill: #5f5f5f" vector-effect="non-scaling-stroke"/>
              <polygon points="200.93 65.95 198.41 67.72 200.93 69.98 200.93 65.95" style="fill: #777979" vector-effect="non-scaling-stroke"/>
            </g>
            <g>
              <polygon points="200.93 111.43 200.48 106.48 189.49 110.08 193.63 116.22 200.93 113.83 200.93 111.43" style="fill: #5f5f5f" vector-effect="non-scaling-stroke"/>
              <polygon points="200.93 111.43 200.48 106.48 190.59 109.72 194.32 115.24 200.93 113.08 200.93 111.43" style="fill: #777979" vector-effect="non-scaling-stroke"/>
            </g>
            <g>
              <polygon points="174.05 113 181.37 115.94 185.55 109.95 174.82 105.64 174.05 113" style="fill: #5f5f5f" vector-effect="non-scaling-stroke"/>
              <polygon points="175.2 112.7 181.79 115.34 185.55 109.95 175.89 106.07 175.2 112.7" style="fill: #777979" vector-effect="non-scaling-stroke"/>
            </g>
            <g>
              <polygon points="161.11 97.95 164.83 104.91 171.88 103 166.44 92.8 161.11 97.95" style="fill: #5f5f5f" vector-effect="non-scaling-stroke"/>
              <polygon points="162.19 98.45 165.53 104.72 171.88 103 166.98 93.82 162.19 98.45" style="fill: #777979" vector-effect="non-scaling-stroke"/>
            </g>
            <g>
              <polygon points="160.87 78.1 159.25 85.82 165.88 88.9 168.26 77.58 160.87 78.1" style="fill: #5f5f5f" vector-effect="non-scaling-stroke"/>
              <polygon points="161.37 79.18 159.91 86.13 165.88 88.9 168.02 78.71 161.37 79.18" style="fill: #777979" vector-effect="non-scaling-stroke"/>
            </g>
            <g>
              <polygon points="173.45 62.74 167.24 67.61 170.35 74.23 179.44 67.1 173.45 62.74" style="fill: #5f5f5f" vector-effect="non-scaling-stroke"/>
              <polygon points="173.14 63.89 167.55 68.28 170.35 74.23 178.53 67.81 173.14 63.89" style="fill: #777979" vector-effect="non-scaling-stroke"/>
            </g>
          </g>
          <path d="M202.55,69a23.34,23.34,0,1,0,0,39.27Z" transform="translate(-1.62 -1)" style="fill: #949696" vector-effect="non-scaling-stroke"/>
          <path d="M202.55,75.77a18.05,18.05,0,1,0-1.49,27.1,18.74,18.74,0,0,0,1.49-1.3Z" transform="translate(-1.62 -1)" style="fill: #5f5f5f" vector-effect="non-scaling-stroke"/>
          <path d="M202.55,77.49a16.86,16.86,0,1,0-2.22,24.45,17.71,17.71,0,0,0,2.22-2.1Z" transform="translate(-1.62 -1)" style="fill: #777979" vector-effect="non-scaling-stroke"/>
          <path d="M194.18,85.33a5.41,5.41,0,1,1-7.6-.92A5.42,5.42,0,0,1,194.18,85.33Z" transform="translate(-1.62 -1)" style="fill: #5f5f5f" vector-effect="non-scaling-stroke"/>
          <rect x="190.48" y="85.03" width="5.09" height="2.54" transform="translate(-13.73 136.53) rotate(-38.11)" style="fill: #5f5f5f" vector-effect="non-scaling-stroke"/>
          <rect x="191.68" y="85.28" width="3.28" height="1.58" transform="translate(-13.53 136.66) rotate(-38.11)" style="fill: #777979" vector-effect="non-scaling-stroke"/>
          <rect x="186.2" y="83.08" width="2.54" height="5.09" transform="translate(-14.5 132.96) rotate(-38.11)" style="fill: #5f5f5f" vector-effect="non-scaling-stroke"/>
          <rect x="186.45" y="83.7" width="1.58" height="3.28" transform="translate(-14.37 132.76) rotate(-38.11)" style="fill: #777979" vector-effect="non-scaling-stroke"/>
          <rect x="184.27" y="89.76" width="5.09" height="2.54" transform="translate(-17.98 133.71) rotate(-38.11)" style="fill: #5f5f5f" vector-effect="non-scaling-stroke"/>
          <rect x="184.88" y="90.47" width="3.28" height="1.58" transform="translate(-18.18 133.57) rotate(-38.11)" style="fill: #777979" vector-effect="non-scaling-stroke"/>
          <rect x="191.11" y="89.16" width="2.54" height="5.09" transform="translate(-17.21 137.28) rotate(-38.11)" style="fill: #5f5f5f" vector-effect="non-scaling-stroke"/>
          <rect x="191.81" y="90.36" width="1.58" height="3.28" transform="translate(-17.34 137.49) rotate(-38.11)" style="fill: #777979" vector-effect="non-scaling-stroke"/>
          <circle cx="189.92" cy="88.67" r="4.28" transform="translate(-9.75 19.07) rotate(-5.92)" style="fill: #6e6e6e" vector-effect="non-scaling-stroke"/>
        </g>
      </g>
    </g>
    <path d="M65.62,190a2,2,0,0,0-1.77-1.64l-5.44-.56A24.45,24.45,0,0,0,56.77,185l2.43-4.76a2,2,0,0,0-.5-2.44l-6.25-5.25a2,2,0,0,0-2.41-.12l-4.5,3.05a25.41,25.41,0,0,0-3.12-1.15l-1.2-5.17a2,2,0,0,0-1.95-1.55H33.18l.78-1.35a2,2,0,0,0-.3-2.39L28,157.94a35.8,35.8,0,0,0,1-5.36l7.39-3.14a2,2,0,0,0,1.19-2.18l-2-11.35a2,2,0,0,0-1.77-1.64l-8.13-.84a34.69,34.69,0,0,0-2.72-4.73l3.64-7.14a2,2,0,0,0-.5-2.44L24.74,118l5.43-2.18a2,2,0,0,0,1.24-2.07l-.55-5.22a25.11,25.11,0,0,0,2.31-2.07l4.95,1.34a2,2,0,0,0,2.29-1l3.71-7a2,2,0,0,0-.37-2.38L40,93.86a26.41,26.41,0,0,0,.45-3.07l4.64-2.15a2,2,0,0,0,1.12-2.23l-1.63-7.72a2,2,0,0,0-1.82-1.58l-5.2-.37a26.41,26.41,0,0,0-1.65-2.68L38,69.46A2,2,0,0,0,37.46,67l-6.21-4.87a2,2,0,0,0-2.41,0l-4.18,3a25.18,25.18,0,0,0-3-1l-1.29-4.87a2,2,0,0,0-2-1.48l-7.89.26a2,2,0,0,0-1.87,1.51l-1.24,5a25.1,25.1,0,0,0-3,1.19L2.54,64.51V69.4l.46.32a2,2,0,0,0,2.09.13,21.65,21.65,0,0,1,4.43-1.76,2,2,0,0,0,1.41-1.45L12.09,62l4.78-.16,1.19,4.48a2,2,0,0,0,1.52,1.45,20.74,20.74,0,0,1,4.49,1.48,2,2,0,0,0,2-.2L30,66.25l3.77,3-2,4.24A2,2,0,0,0,32,75.53a21.44,21.44,0,0,1,2.46,4,2,2,0,0,0,1.67,1.14L41,81l1,4.69-4.28,2a2,2,0,0,0-1.16,1.75,21,21,0,0,1-.66,4.6A2,2,0,0,0,36.38,96l3.5,3.39-2.25,4.22-4.57-1.23a2,2,0,0,0-2,.59A21.19,21.19,0,0,1,27.59,106a2,2,0,0,0-.83,1.83l.51,4.85-4.44,1.78-2.7-3.87a2,2,0,0,0-1.92-.83,22.11,22.11,0,0,1-4.67.16h-.15a2,2,0,0,0-1.66.88l-2.71,4-4.55-1.49.41-4.66A2,2,0,0,0,4,106.82c-.48-.3-1-.62-1.41-.95v12.44a31.66,31.66,0,0,1,4.8,1.93,2,2,0,0,0,2-.13l6.43-4.36,6.45,5.41L18.77,128a2,2,0,0,0,.17,2.08,32,32,0,0,1,3.48,6.06,2,2,0,0,0,1.63,1.19l7.77.8,1.46,8.29-7,3A2,2,0,0,0,25,151.08,32,32,0,0,1,23.82,158a2,2,0,0,0,.48,1.95l5.44,5.61-4.21,7.29-7.28-2.23a2,2,0,0,0-2,.53,32.2,32.2,0,0,1-4.51,3.9,20.74,20.74,0,0,0,3.1,2.24l2,1.13,2.44-2,3.88,2.93a2,2,0,0,0,2.08.2,22,22,0,0,1,4.62-1.67,2,2,0,0,0,1.46-1.4l1.38-4.83h5.06l1.11,4.78a2,2,0,0,0,1.47,1.49,22.48,22.48,0,0,1,4.56,1.68,2,2,0,0,0,2-.13L51,176.54l3.88,3.25-2.24,4.41a2,2,0,0,0,.16,2.09,21.5,21.5,0,0,1,2.41,4.18,2,2,0,0,0,1.63,1.19l5.07.52.88,5-4.56,1.94A2,2,0,0,0,57,200.82c0,.29-.06.57-.09.86l1.88,1.09h2c0-.15,0-.3.05-.45l4.93-2.09A2,2,0,0,0,67,198Z" transform="translate(-1.62 -1)" style="fill: #fff" vector-effect="non-scaling-stroke"/>
    <g style="clip-path: url(#clip-path_1528888005893)">
      <g>
        <g>
          <g>
            <g>
              <polygon points="11.25 178.03 17.51 172.78 23.55 177.33 14.38 185.02 11.25 178.03" style="fill: #5f5f5f" vector-effect="non-scaling-stroke"/>
              <polygon points="12.48 177.96 18.11 173.23 23.55 177.33 15.3 184.25 12.48 177.96" style="fill: #777979" vector-effect="non-scaling-stroke"/>
            </g>
            <g>
              <polygon points="3.37 197 4.79 188.96 12.34 188.56 10.27 200.34 3.37 197" style="fill: #5f5f5f" vector-effect="non-scaling-stroke"/>
              <polygon points="4.27 196.16 5.54 188.92 12.34 188.56 10.47 199.17 4.27 196.16" style="fill: #777979" vector-effect="non-scaling-stroke"/>
            </g>
            <g>
              <polygon points="62.03 189.35 63.45 197.39 56.48 200.34 54.4 188.56 62.03 189.35" style="fill: #5f5f5f" vector-effect="non-scaling-stroke"/>
              <polygon points="61.47 190.45 62.75 197.69 56.48 200.34 54.61 189.74 61.47 190.45" style="fill: #777979" vector-effect="non-scaling-stroke"/>
            </g>
            <g>
              <polygon points="49.54 173.03 55.8 178.28 52.36 185.02 43.19 177.33 49.54 173.03" style="fill: #5f5f5f" vector-effect="non-scaling-stroke"/>
              <polygon points="49.82 174.23 55.45 178.96 52.36 185.02 44.11 178.1 49.82 174.23" style="fill: #777979" vector-effect="non-scaling-stroke"/>
            </g>
            <g>
              <polygon points="29.49 168.56 37.65 168.56 39.35 175.94 27.39 175.94 29.49 168.56" style="fill: #5f5f5f" vector-effect="non-scaling-stroke"/>
              <polygon points="30.48 169.3 37.82 169.3 39.35 175.94 28.59 175.94 30.48 169.3" style="fill: #777979" vector-effect="non-scaling-stroke"/>
            </g>
          </g>
          <path d="M11,202.77a24.16,24.16,0,1,1,47.83,0Z" transform="translate(-1.62 -1)" style="fill: #949696" vector-effect="non-scaling-stroke"/>
          <path d="M16.57,202.77a19.25,19.25,0,0,1-.32-3.42,18.69,18.69,0,1,1,37.37,0,18.36,18.36,0,0,1-.32,3.42Z" transform="translate(-1.62 -1)" style="fill: #5f5f5f" vector-effect="non-scaling-stroke"/>
          <path d="M17.82,202.77a17.46,17.46,0,1,1,34.23,0Z" transform="translate(-1.62 -1)" style="fill: #777979" vector-effect="non-scaling-stroke"/>
          <path d="M30.51,202.77a5.53,5.53,0,0,1-1.17-3.42,5.6,5.6,0,1,1,10,3.42Z" transform="translate(-1.62 -1)" style="fill: #5f5f5f" vector-effect="non-scaling-stroke"/>
          <rect x="26.64" y="197.09" width="5.27" height="2.63" style="fill: #5f5f5f" vector-effect="non-scaling-stroke"/>
          <rect x="27.19" y="197.58" width="3.39" height="1.64" style="fill: #777979" vector-effect="non-scaling-stroke"/>
          <rect x="32.06" y="191.67" width="2.63" height="5.27" style="fill: #5f5f5f" vector-effect="non-scaling-stroke"/>
          <rect x="32.55" y="192.22" width="1.64" height="3.39" style="fill: #777979" vector-effect="non-scaling-stroke"/>
          <rect x="34.72" y="196.97" width="5.27" height="2.63" style="fill: #5f5f5f" vector-effect="non-scaling-stroke"/>
          <rect x="36.04" y="197.47" width="3.39" height="1.64" style="fill: #777979" vector-effect="non-scaling-stroke"/>
          <rect x="31.94" y="199.75" width="2.63" height="2.02" style="fill: #5f5f5f" vector-effect="non-scaling-stroke"/>
          <rect x="32.44" y="201.07" width="1.64" height="0.7" style="fill: #777979" vector-effect="non-scaling-stroke"/>
          <path d="M37.74,202.77H32.13a4.44,4.44,0,1,1,5.61,0Z" transform="translate(-1.62 -1)" style="fill: #6e6e6e" vector-effect="non-scaling-stroke"/>
        </g>
        <g>
          <g>
            <g>
              <polygon points="0.92 178.16 10.23 174.77 11 185.55 0.92 189.22 0.92 178.16" style="fill: #5f5f5f" vector-effect="non-scaling-stroke"/>
              <polygon points="0.92 178.16 8.64 175.35 9.34 185.05 0.92 188.12 0.92 178.16" style="fill: #777979" vector-effect="non-scaling-stroke"/>
            </g>
            <g>
              <polygon points="30.61 164.21 24.85 174.19 14.64 171.06 23.08 156.45 30.61 164.21" style="fill: #5f5f5f" vector-effect="non-scaling-stroke"/>
              <polygon points="29.01 164.9 23.83 173.87 14.64 171.06 22.24 157.91 29.01 164.9" style="fill: #777979" vector-effect="non-scaling-stroke"/>
            </g>
            <g>
              <polygon points="31.91 135.26 33.91 146.6 24.08 150.77 21.15 134.15 31.91 135.26" style="fill: #5f5f5f" vector-effect="non-scaling-stroke"/>
              <polygon points="31.13 136.81 32.92 147.02 24.08 150.77 21.44 135.81 31.13 136.81" style="fill: #777979" vector-effect="non-scaling-stroke"/>
            </g>
            <g>
              <polygon points="14.29 112.25 23.12 119.65 18.27 129.16 5.34 118.31 14.29 112.25" style="fill: #5f5f5f" vector-effect="non-scaling-stroke"/>
              <polygon points="14.69 113.94 22.63 120.6 18.27 129.16 6.63 119.39 14.69 113.94" style="fill: #777979" vector-effect="non-scaling-stroke"/>
            </g>
          </g>
          <path d="M2.54,116.22A34.09,34.09,0,0,1,27.1,149,34.09,34.09,0,0,1,2.54,181.68Z" transform="translate(-1.62 -1)" style="fill: #949696" vector-effect="non-scaling-stroke"/>
          <path d="M2.54,124.37A26.37,26.37,0,0,1,19.38,149,26.36,26.36,0,0,1,2.54,173.53Z" transform="translate(-1.62 -1)" style="fill: #5f5f5f" vector-effect="non-scaling-stroke"/>
          <path d="M2.54,126.24A24.63,24.63,0,0,1,17.65,149,24.63,24.63,0,0,1,2.54,171.66Z" transform="translate(-1.62 -1)" style="fill: #777979" vector-effect="non-scaling-stroke"/>
        </g>
        <g>
          <g>
            <g>
              <polygon points="8.89 59.06 16.77 58.8 18.65 65.87 7.1 66.25 8.89 59.06" style="fill: #5f5f5f" vector-effect="non-scaling-stroke"/>
              <polygon points="9.87 59.75 16.96 59.51 18.65 65.87 8.25 66.21 9.87 59.75" style="fill: #777979" vector-effect="non-scaling-stroke"/>
            </g>
            <g>
              <polygon points="0.92 65.95 3.44 67.72 0.92 69.98 0.92 65.95" style="fill: #5f5f5f" vector-effect="non-scaling-stroke"/>
              <polygon points="0.92 65.95 3.44 67.72 0.92 69.98 0.92 65.95" style="fill: #777979" vector-effect="non-scaling-stroke"/>
            </g>
            <g>
              <polygon points="0.92 111.43 1.36 106.48 12.35 110.08 8.21 116.22 0.92 113.83 0.92 111.43" style="fill: #5f5f5f" vector-effect="non-scaling-stroke"/>
              <polygon points="0.92 111.43 1.36 106.48 11.25 109.72 7.53 115.24 0.92 113.08 0.92 111.43" style="fill: #777979" vector-effect="non-scaling-stroke"/>
            </g>
            <g>
              <polygon points="27.8 113 20.48 115.94 16.3 109.95 27.02 105.64 27.8 113" style="fill: #5f5f5f" vector-effect="non-scaling-stroke"/>
              <polygon points="26.65 112.7 20.06 115.34 16.3 109.95 25.95 106.07 26.65 112.7" style="fill: #777979" vector-effect="non-scaling-stroke"/>
            </g>
            <g>
              <polygon points="40.74 97.95 37.02 104.91 29.96 103 35.41 92.8 40.74 97.95" style="fill: #5f5f5f" vector-effect="non-scaling-stroke"/>
              <polygon points="39.66 98.45 36.31 104.72 29.96 103 34.87 93.82 39.66 98.45" style="fill: #777979" vector-effect="non-scaling-stroke"/>
            </g>
            <g>
              <polygon points="40.97 78.1 42.6 85.82 35.97 88.9 33.59 77.58 40.97 78.1" style="fill: #5f5f5f" vector-effect="non-scaling-stroke"/>
              <polygon points="40.47 79.18 41.94 86.13 35.97 88.9 33.82 78.71 40.47 79.18" style="fill: #777979" vector-effect="non-scaling-stroke"/>
            </g>
            <g>
              <polygon points="28.4 62.74 34.6 67.61 31.5 74.23 22.4 67.1 28.4 62.74" style="fill: #5f5f5f" vector-effect="non-scaling-stroke"/>
              <polygon points="28.71 63.89 34.29 68.28 31.5 74.23 23.31 67.81 28.71 63.89" style="fill: #777979" vector-effect="non-scaling-stroke"/>
            </g>
          </g>
          <path d="M2.54,69a23.34,23.34,0,1,1,0,39.27Z" transform="translate(-1.62 -1)" style="fill: #949696" vector-effect="non-scaling-stroke"/>
          <path d="M2.54,75.77A18.05,18.05,0,1,1,4,102.87a18.74,18.74,0,0,1-1.49-1.3Z" transform="translate(-1.62 -1)" style="fill: #5f5f5f" vector-effect="non-scaling-stroke"/>
          <path d="M2.54,77.49a16.86,16.86,0,1,1,2.22,24.45,17,17,0,0,1-2.22-2.1Z" transform="translate(-1.62 -1)" style="fill: #777979" vector-effect="non-scaling-stroke"/>
          <path d="M10.91,85.33a5.41,5.41,0,1,0,7.6-.92A5.4,5.4,0,0,0,10.91,85.33Z" transform="translate(-1.62 -1)" style="fill: #5f5f5f" vector-effect="non-scaling-stroke"/>
          <rect x="10.79" y="83.76" width="2.54" height="5.09" transform="translate(-64.91 41.52) rotate(-51.89)" style="fill: #5f5f5f" vector-effect="non-scaling-stroke"/>
          <rect x="10.98" y="84.43" width="1.58" height="3.28" transform="translate(-64.84 41.21) rotate(-51.89)" style="fill: #777979" vector-effect="non-scaling-stroke"/>
          <rect x="15.08" y="84.36" width="5.09" height="2.54" transform="translate(-62.25 45.64) rotate(-51.89)" style="fill: #5f5f5f" vector-effect="non-scaling-stroke"/>
          <rect x="16.21" y="84.54" width="3.28" height="1.58" transform="translate(-61.93 45.71) rotate(-51.89)" style="fill: #777979" vector-effect="non-scaling-stroke"/>
          <rect x="17" y="88.49" width="2.54" height="5.09" transform="translate(-66.25 48.23) rotate(-51.89)" style="fill: #5f5f5f" vector-effect="non-scaling-stroke"/>
          <rect x="17.77" y="89.62" width="1.58" height="3.28" transform="translate(-66.32 48.54) rotate(-51.89)" style="fill: #777979" vector-effect="non-scaling-stroke"/>
          <rect x="10.17" y="90.44" width="5.09" height="2.54" transform="translate(-68.91 44.11) rotate(-51.89)" style="fill: #5f5f5f" vector-effect="non-scaling-stroke"/>
          <rect x="10.84" y="91.2" width="3.28" height="1.58" transform="translate(-69.23 44.04) rotate(-51.89)" style="fill: #777979" vector-effect="non-scaling-stroke"/>
          <path d="M11.8,86a4.28,4.28,0,1,0,6-.73A4.27,4.27,0,0,0,11.8,86Z" transform="translate(-1.62 -1)" style="fill: #6e6e6e" vector-effect="non-scaling-stroke"/>
        </g>
      </g>
    </g>
    <path d="M155.75,62.28A11.38,11.38,0,0,1,150,60.41c-.83-.42-4.09-2.22-5.08-5.36a6.34,6.34,0,0,1,.68-5.21,45.67,45.67,0,0,0,2.77-6.08A16.38,16.38,0,0,1,149.24,29a17.87,17.87,0,0,1,15.22-8.81,15.26,15.26,0,0,1,7.62,2,15.76,15.76,0,0,1,7.43,10.43,18,18,0,0,1-1.88,12.75,16.36,16.36,0,0,1-12.35,8.1,45.21,45.21,0,0,0-3.89,5.44,6.25,6.25,0,0,1-5.64,3.35Z" transform="translate(-1.62 -1)" style="fill: #fff" vector-effect="non-scaling-stroke"/>
    <g>
      <path d="M175.89,44.39c4-6.88,2.07-16.48-4.81-20.45S154.94,23.14,151,30a14.35,14.35,0,0,0-.43,13.56,39.55,39.55,0,0,1-3.17,7.26c-2.78,4.82,3.67,7.83,3.67,7.83s5.84,4.08,8.62-.74a40.2,40.2,0,0,1,4.71-6.37A14.36,14.36,0,0,0,175.89,44.39Z" transform="translate(-1.62 -1)" style="fill: #fccc0f" vector-effect="non-scaling-stroke"/>
      <path d="M173.7,43.88c3.34-5.79,1.74-13.86-4-17.2s-13.57-.67-16.91,5.11a12.1,12.1,0,0,0-.36,11.41,33.6,33.6,0,0,1-2.67,6.1c-2.33,4.05,3.09,6.58,3.09,6.58s4.91,3.42,7.24-.62a33.5,33.5,0,0,1,4-5.36A12.07,12.07,0,0,0,173.7,43.88Z" transform="translate(-1.62 -1)" style="fill: #fbeb31" vector-effect="non-scaling-stroke"/>
      <path d="M165.77,44.46a.81.81,0,0,0-.3-1.06c-.4-.24-1-.15-1.94.25a10.77,10.77,0,0,0-2.61,1.8,5.69,5.69,0,0,1-.93-.32l0,0-.49-.23-.37-.18-.36-.24-.46-.29h0a5.27,5.27,0,0,1-.74-.66,10.67,10.67,0,0,0,.27-3.16c-.09-1-.33-1.57-.73-1.81a.8.8,0,0,0-1.07.27c-.72.86-.88,3.08.61,4.94a35.7,35.7,0,0,1-3.41,8.08l.73.43a36.73,36.73,0,0,0,3.35-7.73l0,0v-.07a7.4,7.4,0,0,0,.94.7l.27.15.09.05v0l.46.25a6.7,6.7,0,0,0,1.07.47l-.05,0h0a36.55,36.55,0,0,0-5.06,6.73l.73.42a35.78,35.78,0,0,1,5.34-7C163.52,46.75,165.37,45.51,165.77,44.46ZM156.44,40a1.38,1.38,0,0,1,.3-.67,2.46,2.46,0,0,1,.28,1.11,8.71,8.71,0,0,1-.11,2.17A3.86,3.86,0,0,1,156.44,40Zm7.44,4.44a2.41,2.41,0,0,1,1.11-.31,1.43,1.43,0,0,1-.44.59,3.81,3.81,0,0,1-2.5.88A9,9,0,0,1,163.88,44.43Z" transform="translate(-1.62 -1)" style="fill: #fa9c0f" vector-effect="non-scaling-stroke"/>
      <path d="M159.66,57.93c.33-.58.93-1.5,1.62-2.49-7.16-2.66-10.8-5.66-12.47-7.44-.54,1.16-1.09,2.23-1.44,2.84-2.78,4.82,3.67,7.83,3.67,7.83S156.88,62.75,159.66,57.93Z" transform="translate(-1.62 -1)" style="fill: #e2e2e1" vector-effect="non-scaling-stroke"/>
      <path d="M148.81,48c-.17.37-.35.72-.51,1.06a26.07,26.07,0,0,0,12.44,7.17l.54-.79C154.12,52.78,150.48,49.78,148.81,48Z" transform="translate(-1.62 -1)" style="fill: #8a8b80" vector-effect="non-scaling-stroke"/>
      <path d="M158.78,59.09a5.13,5.13,0,0,0,.64-.78c-6.86-2.58-10.45-5.45-12.17-7.23a5.21,5.21,0,0,0-.45,1.13A26.28,26.28,0,0,0,158.78,59.09Z" transform="translate(-1.62 -1)" style="fill: #8a8b80" vector-effect="non-scaling-stroke"/>
    </g>
    <path d="M42.46,156l4.11-3.52-7.2,8.57L49,153s1.84,1,3.62-1.3a3.92,3.92,0,0,0,4.56-.48c2.17-1.69,2.09-5,0-6,0,0,1.83-1.23.61-3.79s-4.27-2.52-5.34.24c0,0-1.54-2.58-4.21-.39-2.12,1.74-.94,3.57-.94,3.57a2.6,2.6,0,0,0-2.3,1.63c-.35.88-.54,3.33,1.39,3.76Z" transform="translate(-1.62 -1)" style="fill: #fff" vector-effect="non-scaling-stroke"/>
    <path d="M38.06,120.49l3.9.82-8.23-.38,9.06,2s.21,1.54,2.37,1.53a2.89,2.89,0,0,0,2.32,2.45c2,.52,3.87-1,3.51-2.66a2.09,2.09,0,0,0,2.49-1.33,2.06,2.06,0,0,0-2.53-3s.82-2-1.65-2.63a2,2,0,0,0-2.5,1,1.91,1.91,0,0,0-2-.62c-.68.19-2.19,1.18-1.58,2.49Z" transform="translate(-1.62 -1)" style="fill: #fff" vector-effect="non-scaling-stroke"/>
    <path d="M164.82,158.28,161,154.42l9,6.62-8.75-9.1s.93-1.9-1.54-3.52a3.92,3.92,0,0,0-.78-4.52c-1.84-2.06-5.15-1.75-6,.38,0,0-1.35-1.75-3.83-.36s-2.22,4.42.6,5.31c0,0-2.47,1.71-.11,4.23,1.88,2,3.63.7,3.63.7a2.6,2.6,0,0,0,1.78,2.19c.9.29,3.36.31,3.65-1.64Z" transform="translate(-1.62 -1)" style="fill: #fff" vector-effect="non-scaling-stroke"/>
    <path d="M165.6,122l-5.4-.39,11.15-1-12.58-1s-.56-2-3.48-1.62a3.92,3.92,0,0,0-3.58-2.87c-2.74-.34-5,2.08-4.23,4.23,0,0-2.16-.43-3.1,2.25s1.25,4.79,4,3.59c0,0-.73,2.92,2.71,3.25,2.73.26,3.18-1.87,3.18-1.87A2.6,2.6,0,0,0,157,127c.87-.38,2.73-2,1.66-3.65Z" transform="translate(-1.62 -1)" style="fill: #fff" vector-effect="non-scaling-stroke"/>
    <path d="M48.88,165.28l3.26.11-6.7.86,7.61.34s.39,1.22,2.14.9a2.35,2.35,0,0,0,2.22,1.65c1.66.15,3-1.37,2.46-2.64a1.72,1.72,0,0,0,1.82-1.44A1.68,1.68,0,0,0,59.22,163s.37-1.78-1.71-1.9a1.62,1.62,0,0,0-1.88,1.2,1.59,1.59,0,0,0-1.69-.22c-.51.25-1.6,1.26-.92,2.24Z" transform="translate(-1.62 -1)" style="fill: #fff" vector-effect="non-scaling-stroke"/>
    <path d="M120.54,189.1a2,2,0,0,1-1.74-1c-.88-1.55-1.8-5.08.74-7.62a.93.93,0,0,1,0-.1,1.83,1.83,0,0,1-.39-.6c-.16-.39-4-9.58-5.25-17.32a63.91,63.91,0,0,1-.06-19.18H113c-.41,0-.84,0-1.26,0l-.38,0c-.45,0-.91.06-1.4.07-.24,0-.53,0-.83.08l-.88.08-1.8.15-1.82.21-.29,0c-1.63,2.7-5.75,9.76-7.65,15.23-2.29,6.57,0,20.42.08,20.56a2,2,0,0,1-.1,1l.54,6.17a2,2,0,0,1-.53,1.53,2,2,0,0,1-1.46.64L89,189a2,2,0,0,1-1.41-.61l0,0a82.84,82.84,0,0,1-10.34.47H75.5a2,2,0,0,1-1.67-.95,4.8,4.8,0,0,1,.18-5.43c.41-.51,1.16-1.44,9.08-4.49-.53-4.51-1.47-14-.62-19.43.47-3,2.26-8.37,5.31-15.94a7.59,7.59,0,0,1-.78-.73h-.07a2,2,0,0,1-1.23-.78l-.32-.42c-.06-.1-.14-.2-.22-.31l-.07-.11-.36-.59a14.58,14.58,0,0,1-.85-1.78c-.11-.27-.2-.53-.28-.76l-.11-.32s0-.08,0-.12c-.1-.33-.22-.77-.33-1.25a22.46,22.46,0,0,1-.48-2.86,31.23,31.23,0,0,1-.15-3.17c0-1.13,0-2.25.14-3.31s.19-2,.37-3.33c.32-2.18.75-4.35,1.27-6.47.23-1,.48-1.89.75-2.9.24-.85.49-1.72.76-2.59.47-1.51.9-2.75,1.22-3.66l0-.14c.11-.32.21-.6.3-.83l.21-.58c.46-1.37.93-2.74,1.43-4.12-6.69-.11-12.35-1.65-16.82-4.57C65,92.17,64,85.34,63.5,78.75a2.4,2.4,0,0,1,.11-1,1.88,1.88,0,0,0-.12.66.46.46,0,0,0,0-.1c-.24-7.73.16-15.33.32-18a23,23,0,0,1-2-22.46C65,31.26,71.14,27.67,79.19,27.67a31.89,31.89,0,0,1,6.27.65,38.39,38.39,0,0,1,14.31-3c12.89,0,20.17,8.05,23.27,11.48.36.39.79.87,1,1a16.54,16.54,0,0,1,8.71,10.84c1.56,6.07.34,13.83-3.61,23.07a91.71,91.71,0,0,1-7.18,13.37,33.35,33.35,0,0,1-1.77,4.66c5.77-.39,11.5-.91,13.58-1.34a78.06,78.06,0,0,0,4.81-9.16h0a4.44,4.44,0,0,1-.52-.15,5.6,5.6,0,0,1-1.34-.67,5.53,5.53,0,0,1-1.17-1.09,4.4,4.4,0,0,1-.82-1.63,3.91,3.91,0,0,1,0-2l0-.12a2.66,2.66,0,0,1,.2-.52l.09-.18a2.51,2.51,0,0,1,.38-.58l.13-.17.18-.19c.17-.16.33-.29.48-.41a1.53,1.53,0,0,1,.25-.16l.09-.06.35-.19.11,0c-.34-2.57-.55-6.4.9-8.17a2.9,2.9,0,0,1,2.28-1.1,3.19,3.19,0,0,1,.91.14c2,.6,2.89,2.84,3.29,5.05l.65,0c2.78,0,4.84.87,6.12,2.58,1.93,2.58,1.15,6,1,6.66a6.27,6.27,0,0,1-2,3.57c-.23.8-.62,2.07-1.19,3.62a1.54,1.54,0,0,1-.1.35l-.44,1.2q-.17.44-.36.9l-.21.53c-.17.43-.38.89-.59,1.37l-.2.45c-.21.48-.44,1-.67,1.41-.12.23-.23.47-.35.71s-.29.57-.44.84l-.19.34v0l-.21.38-.44.79-1.09,1.77a.22.22,0,0,1-.05.08l-.39.58-.79,1.16c-.22.31-.42.58-.63.83s-.19.25-.28.37l-.66.86-.08.1,0,0a3.18,3.18,0,0,1-.42.43,7.23,7.23,0,0,1-1.67,1.07,20,20,0,0,1-2.87,1.1h0c-1,.28-1.83.5-2.61.67s-1.52.33-2.31.47l-1.64.26-.31.05c-.56.08-1.08.16-1.55.21-.83.1-1.32.14-1.34.14h-.2l-.49.08c3.78,11.79,5.69,28.12,5.26,32.94a110.39,110.39,0,0,1-1.89,16.13c-.08.44-.15.86-.21,1.25-1.54,9.16,2.61,23.27,2.65,23.41a2,2,0,0,1,.08.54l1.59,1.62c3.88,2.1,3.77,6.63,3.15,8.79a2,2,0,0,1-1.93,1.44Z" transform="translate(-1.62 -1)" style="fill: #fff" vector-effect="non-scaling-stroke"/>
    <g>
      <g>
        <path d="M93.64,95.1s-14.71,33.5-6.33,44.77c0,0,2.6-.16,6-8.23.78-1.86-4-7.28,5.09-26.83Z" transform="translate(-1.62 -1)" style="fill: #323232" vector-effect="non-scaling-stroke"/>
        <path d="M92.38,131.74s4.56,2,5.74,4.17c1.74,3.15-8.59,10.5-11.28.13S92.38,131.74,92.38,131.74Z" transform="translate(-1.62 -1)" style="fill: #323232" vector-effect="non-scaling-stroke"/>
        <path d="M92.17,132.27s4.63,2.06,5.83,4.23c1.77,3.19-8.72,10.65-11.44.13S92.17,132.27,92.17,132.27Z" transform="translate(-1.62 -1)" style="fill: #fdddc8" vector-effect="non-scaling-stroke"/>
        <path d="M93.64,95.1s-14.71,33.5-6.33,44.77c0,0,1.74.36,5.12-7.7.78-1.87-3.1-7.81,5.95-27.36Z" transform="translate(-1.62 -1)" style="fill: #484848" vector-effect="non-scaling-stroke"/>
        <path d="M87.31,139.87l-.23-.31-.28-.38-.33-.54a11.54,11.54,0,0,1-.74-1.56c-.14-.3-.23-.64-.36-1s-.21-.73-.31-1.13a23.3,23.3,0,0,1-.43-2.61,28.05,28.05,0,0,1-.14-3c0-1,0-2.08.13-3.15s.21-2.16.36-3.23c.32-2.16.75-4.3,1.23-6.28.24-1,.49-1.94.74-2.84s.5-1.75.74-2.53c.48-1.55.93-2.83,1.25-3.73.15-.45.29-.8.37-1l.14-.36L89,107.66c-.27.91-.62,2.22-1,3.79s-.88,3.41-1.31,5.39c-.23,1-.43,2-.63,3.06s-.38,2.11-.53,3.18-.29,2.14-.38,3.2c-.05.53-.08,1.06-.12,1.57s-.06,1-.06,1.54c0,1,0,2,.07,2.91,0,.46.08.91.14,1.34s.12.85.19,1.24.17.77.25,1.13.18.7.3,1a12.83,12.83,0,0,0,.64,1.58l.3.56c.09.15.17.29.24.39Z" transform="translate(-1.62 -1)" style="fill: #323232" vector-effect="non-scaling-stroke"/>
      </g>
      <g>
        <path d="M120.57,182.47a5,5,0,0,0,1.25-3.79c-.31-2.18,6.32-1.59,6.32-1.59l5.27,5.37Z" transform="translate(-1.62 -1)" style="fill: #1e1e1e" vector-effect="non-scaling-stroke"/>
        <path d="M87.61,178.39s-10.92,3.91-12,5.3a2.91,2.91,0,0,0,0,3.13S86.42,187,89,186v1l6.28.09-.63-7.17Z" transform="translate(-1.62 -1)" style="fill: #30302f" vector-effect="non-scaling-stroke"/>
        <path d="M93.69,133.75s-8.19,18.34-9.24,25.08c-1.09,7,.93,21.24.93,21.24s5.58,3,9.46,0c0,0-2.48-14.42,0-21.55s8.52-16.75,8.52-16.75a31.48,31.48,0,0,1,12.88-.31,61.07,61.07,0,0,0-.31,20.66C117.17,169.72,121,179,121,179s5.27,2,8.06-1.71c0,0-4.34-14.58-2.7-24.31,1.18-7.08,3.79-21,.38-25.62S97.05,123.25,93.69,133.75Z" transform="translate(-1.62 -1)" style="fill: #484848" vector-effect="non-scaling-stroke"/>
        <path d="M93.69,133.75,93.1,135c-.27.74-.57,1.49-.9,2.22,0,0,1.76-1.68,8.93-1.9,0,0,2.31-3.23,2.71-5.83.22-1.4,1.31,5.5,1.31,5.5a103.25,103.25,0,0,1,23.3,1.49c.09-3.82-.3-7.21-1.67-9.08C123.37,122.7,97.05,123.25,93.69,133.75Z" transform="translate(-1.62 -1)" style="fill: #323232" vector-effect="non-scaling-stroke"/>
        <path d="M120.54,187.1s-3.6-6.41,6-7.22,7.32,7.22,7.32,7.22Z" transform="translate(-1.62 -1)" style="fill: #30302f" vector-effect="non-scaling-stroke"/>
        <path d="M116.24,141.46l-.23-.05-.63-.08-1-.06c-.38,0-.81,0-1.28,0s-1,0-1.5.05-1.1.07-1.68.08-1.19.12-1.8.16l-1.85.16-1.85.21c-.61.08-1.22.12-1.8.19s-1.15.1-1.69.18-1,.12-1.51.17c-1.87.2-3.15.24-3.15.24s1.21-.39,3-.84l1.49-.36.81-.18c.28-.06.57-.1.86-.15.59-.08,1.19-.19,1.81-.27l1.87-.25,1.89-.12c.63,0,1.24-.08,1.84-.07s1.17,0,1.72,0a22.35,22.35,0,0,1,2.82.36c.38.09.71.17,1,.25l.6.24Z" transform="translate(-1.62 -1)" style="fill: #323232" vector-effect="non-scaling-stroke"/>
        <path d="M98.5,144.53s.31-.27.8-.66c.24-.2.54-.41.85-.64l1-.68.53-.32c.18-.1.35-.21.53-.3a8.45,8.45,0,0,1,1-.36,6,6,0,0,1,1-.15l0,.05a8.68,8.68,0,0,1-.92.5l-.43.23-.5.24c-.18.06-.35.16-.54.24l-.55.25c-.37.19-.74.37-1.07.56s-.65.37-.91.54c-.54.31-.88.55-.88.55Z" transform="translate(-1.62 -1)" style="fill: #323232" vector-effect="non-scaling-stroke"/>
      </g>
      <g>
        <path d="M93.56,98.38s6.73,21.7-1,37.74a16.36,16.36,0,0,1,14.32-8.58c15.13-.47,21.53,7.74,21.53,7.74.58-2.1-3.77-36.65-11.33-42.58S93.67,94.8,93.56,98.38Z" transform="translate(-1.62 -1)" style="fill: #fffffb" vector-effect="non-scaling-stroke"/>
        <path d="M101.28,95.13a153.41,153.41,0,0,1,0,23.67l4.9,3.2,1.57-1.57s0-10.23-3.48-26Z" transform="translate(-1.62 -1)" style="fill: #d7272a" vector-effect="non-scaling-stroke"/>
        <path d="M117.28,92.34a11.54,11.54,0,0,0-7.84-2c1.82.62,3.13,3.77,3,4.14s-3.07,1.88-2.91,2.26c0,0,3.4,2.57,3.13,3.34a40.43,40.43,0,0,1-9.37,15.19s-6-10.73-6-11,1.39-4.08,1.39-4.08.05-1.44-2-1.39c-.4,0-.14-4-.09-4.19-2,1.33-3.54,2.68-3.57,3.69,0,0,6.76,21.71-.53,37.84,0,0,1.58-2.07,8.74-2.28,0,0,2.32-3.24,2.72-5.84.21-1.39,1.16,5.57,1.16,5.57,15.12-.7,23.32,2.23,23.32,2.23C129.1,129.37,124.84,98.27,117.28,92.34Z" transform="translate(-1.62 -1)" style="fill: #484848" vector-effect="non-scaling-stroke"/>
        <ellipse cx="103.01" cy="123.94" rx="0.55" ry="0.9" style="fill: #fbe500" vector-effect="non-scaling-stroke"/>
        <path d="M107.7,90.48s3,18.39-4.36,24.77c0,0,7.74-5.87,10.2-14.74.22-.82-3.45-3.31-3.45-3.31-.16-.4,3.06-1.87,3.15-2.27s-1.66-4.47-2.93-4.63A5.22,5.22,0,0,0,107.7,90.48Z" transform="translate(-1.62 -1)" style="fill: #323232" vector-effect="non-scaling-stroke"/>
        <path d="M104.63,117c.06.49-.14.92-.44,1s-.6-.33-.66-.82.13-.93.43-1S104.56,116.52,104.63,117Z" transform="translate(-1.62 -1)" style="fill: #fbe500" vector-effect="non-scaling-stroke"/>
        <path d="M99.59,93.31a6,6,0,0,0,1.72,2,2.74,2.74,0,0,0,3-.89,3.91,3.91,0,0,0-.08-2.87C103.84,90.89,99,92.42,99.59,93.31Z" transform="translate(-1.62 -1)" style="fill: #b92227" vector-effect="non-scaling-stroke"/>
        <path d="M94.72,105.45s.1.43.26,1.19.36,1.86.56,3.18c.09.66.2,1.38.28,2.14q.06.57.12,1.17c0,.4.07.81.1,1.23s.06.84.08,1.27,0,.87,0,1.31,0,.88,0,1.32,0,.89,0,1.34c0,.89-.08,1.78-.13,2.66l-.12,1.3-.06.64-.09.63c-.06.42-.11.82-.17,1.22l-.21,1.16c-.13.76-.31,1.46-.47,2.11s-.35,1.24-.5,1.76c-.08.26-.15.51-.22.73l-.22.61c-.27.73-.43,1.14-.43,1.14s.11-.43.32-1.18l.18-.62c.06-.22.11-.47.17-.73s.12-.55.19-.84.13-.61.19-.94c.12-.65.27-1.35.37-2.11l.17-1.16c0-.39.09-.8.14-1.21.11-.82.13-1.68.22-2.55s.1-1.75.1-2.63c0-.44,0-.89,0-1.33s0-.88,0-1.31c0-.87,0-1.73-.08-2.56,0-.42,0-.82-.06-1.22s-.06-.79-.08-1.17c-.05-.76-.13-1.48-.18-2.14s-.13-1.27-.19-1.81-.12-1-.16-1.39C94.77,105.89,94.72,105.45,94.72,105.45Z" transform="translate(-1.62 -1)" style="fill: #323232" vector-effect="non-scaling-stroke"/>
        <path d="M96.64,94.57s-1,4.76-.56,4.75c2-.06,2.4.54,2.4.54S97,104,96.93,104.23c-.46,4.66,6.41,11,6.41,11-4.58-7.47-3.12-20.3-5.25-21.55C97.71,93.48,97.16,94,96.64,94.57Z" transform="translate(-1.62 -1)" style="fill: #606060" vector-effect="non-scaling-stroke"/>
        <path d="M107.76,90.45s2.92,17.9-4.42,24.8c0,0,7.66-6.36,9.87-15.38.2-.79-3.25-3.18-3.25-3.18-.16-.39,2.79-1.77,2.87-2.15s-1.58-4.11-2.73-4.24A4.61,4.61,0,0,0,107.76,90.45Z" transform="translate(-1.62 -1)" style="fill: #606060" vector-effect="non-scaling-stroke"/>
      </g>
      <g>
        <path d="M116.71,92s15.73-.9,18.33-1.83a76.21,76.21,0,0,0,6.42-12.73s3.68,2.54,6.93.9A50.82,50.82,0,0,1,139,97c-2.08,2.47-17,4.47-17,4.47S113.85,92.88,116.71,92Z" transform="translate(-1.62 -1)" style="fill: #484848" vector-effect="non-scaling-stroke"/>
        <path d="M146.91,83l-.45,1.21c-.14.39-.34.85-.55,1.38s-.48,1.12-.77,1.76-.63,1.33-1,2.06c-.18.37-.39.72-.59,1.1l-.63,1.14-.7,1.14-.36.59-.39.57-.79,1.16c-.27.39-.57.75-.86,1.13l-.43.56-.22.28a1.73,1.73,0,0,1-.26.28,5.13,5.13,0,0,1-1.25.79,18.6,18.6,0,0,1-2.58,1c-.85.25-1.68.47-2.47.64s-1.55.32-2.24.45l-1.9.3c-.57.09-1.07.15-1.48.2-.81.1-1.28.14-1.28.14v-.06l4.56-1.09,2.2-.55c.77-.21,1.59-.41,2.43-.67a22.11,22.11,0,0,0,2.51-.89,5.38,5.38,0,0,0,1.13-.65,1.52,1.52,0,0,0,.22-.22l.22-.27.45-.54c.29-.37.59-.72.87-1.09l.81-1.13c.14-.18.27-.37.4-.56s.25-.38.37-.57l.73-1.12c.44-.75.88-1.48,1.27-2.18s.75-1.37,1.05-2,.6-1.21.82-1.73.45-1,.6-1.36l.49-1.19Z" transform="translate(-1.62 -1)" style="fill: #323232" vector-effect="non-scaling-stroke"/>
        <path d="M134.37,92l-.11.27-.1.24,0-.26.05-.29a1.93,1.93,0,0,1,.08-.39c.05-.13.1-.28.15-.44s.1-.3.18-.45c-.12.11-.24.23-.37.33l-.22.17-.23.14a4.33,4.33,0,0,1-.42.22c-.25.1-.43.15-.43.15a8.35,8.35,0,0,0,2.06-1.5h0s.79-1.17,1.9-3h0l-.45.83-1,1.8c-.2.31-.35.65-.53.95s-.29.61-.43.86A3.35,3.35,0,0,0,134.37,92Z" transform="translate(-1.62 -1)" style="fill: #323232" vector-effect="non-scaling-stroke"/>
        <path d="M150.11,75.73s2.21-7.46-6.27-6.72c-8.74.77-2.24,9.44-2.24,9.44S149,81.51,150.11,75.73Z" transform="translate(-1.62 -1)" style="fill: #fdddc8" vector-effect="non-scaling-stroke"/>
        <polygon points="146.5 72.59 146.96 70.97 146.74 72.65 146.5 72.59" style="fill: #d5ab8f" vector-effect="non-scaling-stroke"/>
        <path d="M142.59,77.06s1-12.28-2.12-13.21-1.25,10.61-.53,11A20.68,20.68,0,0,1,142.59,77.06Z" transform="translate(-1.62 -1)" style="fill: #fdddc8" vector-effect="non-scaling-stroke"/>
        <path d="M140.25,72.92c1.5.53,2.39,1.89,2,3s-1.95,1.65-3.46,1.12-2.39-1.9-2-3S138.74,72.39,140.25,72.92Z" transform="translate(-1.62 -1)" style="fill: #fdddc8" vector-effect="non-scaling-stroke"/>
        <path d="M142.61,69.19a8.86,8.86,0,0,0-1.39.93,4.08,4.08,0,0,0-1.05,1.19,2.11,2.11,0,0,0-.23.71,2.16,2.16,0,0,0,0,.36l.05.41a12,12,0,0,0,.29,1.61,4.31,4.31,0,0,0,.26.74,1.14,1.14,0,0,0,.37.52.31.31,0,0,0,.1,0h.16l.42.07.84.16c1.1.25,2.19.5,3.28.78h-.09l.41,0a3.1,3.1,0,0,0,.42-.08,3.35,3.35,0,0,0,.77-.27,1.67,1.67,0,0,0,.58-.5,1.09,1.09,0,0,0,.15-.35c0-.15.07-.3.09-.44a6,6,0,0,0,.09-.86,6.47,6.47,0,0,0,0-.88,8,8,0,0,0-.35-1.74,7.12,7.12,0,0,1,.66,2.62,4.73,4.73,0,0,1,0,.92c0,.16,0,.3-.06.45a2.13,2.13,0,0,1-.15.49,1.94,1.94,0,0,1-.7.72,3.35,3.35,0,0,1-.89.39c-.15,0-.3.08-.46.12l-.48.07h-.08c-1.1-.24-2.18-.5-3.27-.72l-.8-.17-.41-.07H141a.8.8,0,0,1-.15,0,1,1,0,0,1-.29-.13,1.81,1.81,0,0,1-.6-.81,4,4,0,0,1-.27-.85,12.68,12.68,0,0,1-.25-1.7l0-.43a2.42,2.42,0,0,1,0-.47,2.57,2.57,0,0,1,.35-.87,4.22,4.22,0,0,1,1.28-1.18A7,7,0,0,1,142.61,69.19Z" transform="translate(-1.62 -1)" style="fill: #d5ab8f" vector-effect="non-scaling-stroke"/>
        <path d="M141.79,76.65l-.08.08a2.23,2.23,0,0,1-.25.21l-.2.13-.26.12a2.11,2.11,0,0,1-.3.1,1.8,1.8,0,0,1-.35.08,3.49,3.49,0,0,1-.8,0l-.44-.06a4.29,4.29,0,0,1-.44-.13,3.46,3.46,0,0,1-.86-.43,3.42,3.42,0,0,1-.74-.68,2.61,2.61,0,0,1-.46-.91,1.79,1.79,0,0,1,0-1,.85.85,0,0,1,.08-.24l.1-.19a.55.55,0,0,1,.12-.19l.15-.18a2.73,2.73,0,0,1,.33-.28c.12-.07.23-.14.34-.19l.34-.13.31-.06a3.44,3.44,0,0,1,.51,0l.45,0-.44,0a3.7,3.7,0,0,0-.49.09l-.29.1-.31.14-.3.19c-.09.09-.18.17-.27.27l-.11.15a1.28,1.28,0,0,0-.1.17l-.08.21a.76.76,0,0,0-.06.18,2,2,0,0,0,.45,1.63,3,3,0,0,0,.66.62,3.57,3.57,0,0,0,.79.43c.12,0,.27.08.4.13s.27.06.4.09a3.2,3.2,0,0,0,.75,0,3,3,0,0,0,.33,0l.3-.07a2,2,0,0,0,.26-.09l.2-.1a1.56,1.56,0,0,0,.28-.17Z" transform="translate(-1.62 -1)" style="fill: #d5ab8f" vector-effect="non-scaling-stroke"/>
      </g>
      <g>
        <path d="M65.11,47.71s14.37-11.77,39.63-6.84,17.69,45.72,11.49,51.19c-5.21,4.59-29.06,12.24-43,3.13-6.49-4.25-7.35-10.52-7.77-16.57,0-.42,0,0,0-.42-.2-6.51,0-13.54.34-18.19C66.42,50.74,65.11,47.71,65.11,47.71Z" transform="translate(-1.62 -1)" style="fill: #fdddc8" vector-effect="non-scaling-stroke"/>
        <path d="M81.08,85.81s19,1.3,25.58-6.48c0,0,3.42,13.68-14.24,15.18A19.42,19.42,0,0,0,81.08,85.81Z" transform="translate(-1.62 -1)" style="fill: #c04747" vector-effect="non-scaling-stroke"/>
        <path d="M93.08,94.45l.47,0,.88-.12.33,0h0c9.4-1.55,11.68-7,12.07-10.88A34.64,34.64,0,0,0,101.78,85C95.29,88,93.53,92,93.08,94.45Z" transform="translate(-1.62 -1)" style="fill: #f05859" vector-effect="non-scaling-stroke"/>
        <path d="M101.92,82.8c-4.45,2.09-10.17,2.8-14.5,3a10.45,10.45,0,0,0,4.28,2.31C94.29,88.79,100.05,87.36,101.92,82.8Z" transform="translate(-1.62 -1)" style="fill: #fff" vector-effect="non-scaling-stroke"/>
        <path d="M82.82,66.55l0-.06.06-.16a5.51,5.51,0,0,1,.3-.59,8.75,8.75,0,0,1,.54-.85c.11-.16.24-.32.38-.49s.29-.33.45-.51a14.21,14.21,0,0,1,1.11-1c.21-.17.44-.33.67-.5a7.57,7.57,0,0,1,.72-.49A12.23,12.23,0,0,1,88.68,61a8.19,8.19,0,0,1,.86-.36l.9-.3.45-.13.46-.11.92-.18a7.43,7.43,0,0,1,.92-.11l.9-.06a6.32,6.32,0,0,1,.87,0c.28,0,.56,0,.83.06a9.58,9.58,0,0,1,1.5.25,10.11,10.11,0,0,1,1.23.36c.36.14.67.29.92.4s.44.23.57.3l.2.11,0,.21-.8,0-.91,0h-.56l-.62,0a11.33,11.33,0,0,0-1.4.06l-.76.07a7.11,7.11,0,0,0-.79.1l-.81.14c-.28.05-.56.09-.83.16l-.83.21-.42.11-.41.13-.83.26c-.28.08-.54.19-.81.29s-.53.19-.78.31l-.75.33c-.25.11-.49.23-.72.35l-.68.36c-.42.25-.84.47-1.2.72s-.69.45-1,.66-.53.39-.73.54l-.45.37L83,66.7Z" transform="translate(-1.62 -1)" style="fill: #30302f" vector-effect="non-scaling-stroke"/>
        <path d="M76,68.19l0,0,0-.09a3.57,3.57,0,0,0-.21-.3c-.1-.13-.22-.28-.37-.44l-.25-.24-.3-.25a5.71,5.71,0,0,0-.7-.49l-.41-.23a3.68,3.68,0,0,0-.45-.21,6.93,6.93,0,0,0-1-.35,2.93,2.93,0,0,0-.51-.13l-.52-.1-.27,0-.27,0c-.17,0-.35,0-.53,0a4.56,4.56,0,0,0-.52,0l-.5,0a2.64,2.64,0,0,0-.49.08l-.46.09a4.64,4.64,0,0,0-.82.27,4.07,4.07,0,0,0-.66.3c-.19.1-.35.21-.48.29s-.23.17-.3.22l-.1.08,0,.11.44-.08.51-.1.15,0,.16,0,.35,0a6,6,0,0,1,.79-.08l.43,0a3.34,3.34,0,0,1,.45,0l.46,0a3.85,3.85,0,0,1,.48,0l.48,0,.25,0,.24,0,.48.07.47.1.47.11.45.13.42.14.41.14c.26.11.51.2.73.31l.6.29.46.25.28.17.1.07Z" transform="translate(-1.62 -1)" style="fill: #30302f" vector-effect="non-scaling-stroke"/>
        <path d="M65.86,59.66c.2-17.42,11-8,19.49-18.6C93.69,50.46,125,36.79,114,70.57l2.68-2.31.15-1.53c.2-.49.58-.74,1.58-.72,2.29,0,3,14.66,1.59,18.41,0,0,23.52-34.22,3-44.89-1.9-1-12.72-19.41-37.33-9.13C61.52,25.22,57.19,48.77,65.86,59.66Z" transform="translate(-1.62 -1)" style="fill: #30302f" vector-effect="non-scaling-stroke"/>
        <path d="M80.38,64.12s-.8.8-2,1.9c-.59.55-1.26,1.2-1.91,1.91a12,12,0,0,0-.93,1.1,4.33,4.33,0,0,0-.67,1.16,1.69,1.69,0,0,0-.15,1,3,3,0,0,0,.18.63,2.37,2.37,0,0,0,.25.51A6.72,6.72,0,0,0,76.93,74a18.56,18.56,0,0,0,2.33,1.35A6.71,6.71,0,0,1,76.45,75a5.82,5.82,0,0,1-2.63-1.67,4.32,4.32,0,0,1-.54-.82,5.12,5.12,0,0,1-.23-.48l-.11-.39a3.52,3.52,0,0,1,.17-2.17,6.11,6.11,0,0,1,1-1.61,7.94,7.94,0,0,1,1.22-1.18,12.51,12.51,0,0,1,2.44-1.58A11.44,11.44,0,0,1,80.38,64.12Z" transform="translate(-1.62 -1)" style="fill: #d5ab8f" vector-effect="non-scaling-stroke"/>
        <path d="M116.78,67.08a23.29,23.29,0,0,1,8.53-7.51c6.5-3-1.44,15.34-4.36,17.14s-3-1.86-3-1.86Z" transform="translate(-1.62 -1)" style="fill: #fdddc8" vector-effect="non-scaling-stroke"/>
        <path d="M116.78,67.08a23.29,23.29,0,0,1,8.53-7.51c6.5-3-1.44,15.34-4.36,17.14s-3-1.86-3-1.86Z" transform="translate(-1.62 -1)" style="fill: #fdddc8" vector-effect="non-scaling-stroke"/>
      </g>
    </g>
  </g></svg>