<svg id="Layer_1" data-name="Layer 1" xmlns="http://www.w3.org/2000/svg" viewBox="0 0 128 128" style="mix-blend-mode: normal; overflow: visible; width: 150px; height: 150px; filter: none;">
  <title>sign-up-viewer</title>
  <path d="M88.07,123.53c-3.51,3.51-10.31,5.33-15.11,4l-48.48-13a17.36,17.36,0,0,1-11.06-11.06L.41,55.08C-.87,50.28,1,43.48,4.46,40L39.93,4.47C43.44,1,50.24-.86,55,.42l48.48,13a17.36,17.36,0,0,1,11.06,11.06l13,48.47c1.28,4.8-.54,11.6-4,15.11Z" transform="translate(0 -0.01)" style="fill: #e7f4fc"/>
  <g>
    <path d="M91.44,78.52l0,0,0,0L93.45,77a1.19,1.19,0,0,0-.58-2.11,11.08,11.08,0,0,1-3.6-1.1c-2.83-1.48-3.46-3.95-3.94-6.8v0s0-.07,0-.1,0-.27,0-.4v0a1.19,1.19,0,0,0-2.37.15V77a1.19,1.19,0,0,0,.34,2.17l.61.18a7.53,7.53,0,0,1,.71.28,1.24,1.24,0,0,0,.53.12h0l.2,0a1.71,1.71,0,0,0,.32,0l.29,0h0l.57,0h.1c.21,0,.47,0,.75,0a9.75,9.75,0,0,0,1.26-.13,1.19,1.19,0,0,0,.61-.31A1.83,1.83,0,0,1,90.37,79a1.21,1.21,0,0,0,.55-.16h0a5.94,5.94,0,0,0,.52-.34ZM83.2,66.32a1.08,1.08,0,0,1,.31-.29A1.23,1.23,0,0,0,83.2,66.32Zm.34-.31a1.4,1.4,0,0,1,.42-.15A1.5,1.5,0,0,0,83.54,66ZM90,76.66a4.23,4.23,0,0,0-2,.69,6.67,6.67,0,0,1-.67.06c-.23,0-.45,0-.63,0h0l-.54,0c-.33,0-.52,0-.52,0h-.19l-.08,0V73.48a8.71,8.71,0,0,0,2.9,2.37,12.19,12.19,0,0,0,1.85.77Z" transform="translate(0 -0.01)" style="fill: #fff"/>
    <path d="M88.93,118.18a1.19,1.19,0,0,0,.09,2.38H106a1.49,1.49,0,0,0,1.18-2.38v-.53c1.46.09,3.05.26,4.22.45l.07.12a3.6,3.6,0,0,0,3.17,1.34h0a3.41,3.41,0,0,0,3.13-1.49,2,2,0,0,0,0-2,3.36,3.36,0,0,0-.42-.54c-.62-.8-1.87-1.23-4-1.39a36.32,36.32,0,0,1-6.14-1.11V109a4.29,4.29,0,0,0,.6-.13,3.22,3.22,0,0,0,2.24-2.59h5.1a2.27,2.27,0,0,0,.94-.2,2.74,2.74,0,0,0,.42-.21l.31-.21.21-.17.39-.36c0-.07.11-.13.17-.2a4,4,0,0,0,.67-1.07,1.52,1.52,0,0,0,.09-.25l0-.11a7.92,7.92,0,0,0,.23-1.25l0-.39c0-.08,0-.15,0-.23a7.07,7.07,0,0,0-.06-1.14,2.17,2.17,0,0,1,0-.25c0-.16-.07-.33-.11-.49s0-.17-.08-.25a4,4,0,0,0-.25-.62,4.24,4.24,0,0,0-.72-1.08,4.34,4.34,0,0,0-1-.8,1.23,1.23,0,0,0-.56-.18A47.45,47.45,0,0,0,117.09,86h.66a4.53,4.53,0,0,0,4.52-4.53V72.54A4.53,4.53,0,0,0,117.75,68h-5.12a2.54,2.54,0,0,0,.72-1.26v0a2.12,2.12,0,0,0,.81-1.39,2.77,2.77,0,0,0,.83-1,2.86,2.86,0,0,0,.25-.85,2.54,2.54,0,0,0,.91-1.78,1.8,1.8,0,0,0,.54-.74,1.83,1.83,0,0,0,.11-.76,3,3,0,0,0,.5-.84,2.78,2.78,0,0,0,.14-1.48,1.74,1.74,0,0,0,.14-.27,1.84,1.84,0,0,0,.1-.84,2.78,2.78,0,0,0,.5-1.38,2.71,2.71,0,0,0,0-.85,2.54,2.54,0,0,0,.14-.83,3,3,0,0,0-.07-.6,1.9,1.9,0,0,0,.11-1.8l0-.09a2.7,2.7,0,0,0,.13-.85,2.87,2.87,0,0,0-.32-1.33,2.3,2.3,0,0,0,0-.45,2.05,2.05,0,0,0-.23-.95,2.33,2.33,0,0,0-.56-1.73,2.54,2.54,0,0,0-.28-1.07,2.6,2.6,0,0,0-.74-.9,1.65,1.65,0,0,0-.17-.56,1.92,1.92,0,0,0-.63-.7,2.83,2.83,0,0,0-.4-1,2.73,2.73,0,0,0-1.2-1,1.91,1.91,0,0,0-.16-.32,1.94,1.94,0,0,0-.82-.71,2.6,2.6,0,0,0-1.38-1.19,2.58,2.58,0,0,0-1.4-1,2.14,2.14,0,0,0-1.54-.8,2.76,2.76,0,0,0-1.34-.78,2.92,2.92,0,0,0-.5-.09,2.66,2.66,0,0,0-1.44-.76,2.1,2.1,0,0,0-.5,0,1.76,1.76,0,0,0-1.69-.34,2.74,2.74,0,0,0-1-.38,2.78,2.78,0,0,0-1.49.15,1.78,1.78,0,0,0-.51-.16,2,2,0,0,0-1.22.18,2.56,2.56,0,0,0-.81-.26,2.63,2.63,0,0,0-1.28.14,2.13,2.13,0,0,0-.49-.15l-.25,0a1.93,1.93,0,0,0-1.15.4,2.9,2.9,0,0,0-.77-.14,2.79,2.79,0,0,0-1.54.39,2.09,2.09,0,0,0-.35,0,2,2,0,0,0-1.41.51,2.62,2.62,0,0,0-1.43.47,2.65,2.65,0,0,0-1.59.6,2.16,2.16,0,0,0-1.53.81,2.81,2.81,0,0,0-1.41.65,2.56,2.56,0,0,0-.53.61,2.61,2.61,0,0,0-1.77,1.45,1.74,1.74,0,0,0-.92.95,2.87,2.87,0,0,0-.81.58,2.76,2.76,0,0,0-.69,1.16,1.85,1.85,0,0,0-.48.35,2,2,0,0,0-.57,1.26,2.59,2.59,0,0,0-.67,1.62A2.17,2.17,0,0,0,78,48.18a2.79,2.79,0,0,0,0,2.28,2.55,2.55,0,0,0,0,2.11,2.44,2.44,0,0,0,.35.55,1.75,1.75,0,0,0,.16.88,1.78,1.78,0,0,0,.56.69,3.21,3.21,0,0,0,.24.84,2.77,2.77,0,0,0,1,1.15c-.06.21-.12.41-.16.62H53.05a1.93,1.93,0,0,0-1.92,1.93V77.29a1.93,1.93,0,0,0,1.92,1.93h1.67c0,.17-.08.35-.11.54h-7a1.57,1.57,0,0,0-.83-.23,1.6,1.6,0,0,0-1,.34l-.09,0a2.59,2.59,0,0,0,.09,4.73l.25.16v33.28a1.54,1.54,0,0,0-.37,1,1.45,1.45,0,0,0,1.43,1.48H63.72a1.48,1.48,0,0,0,1.48-1.48,1.46,1.46,0,0,0-.31-.92V84.82h5.16v0h.88v0h2.79v0h1a.05.05,0,0,0,0,0H78s0,0,.05,0l10.28,0v.09H90.7V83.54a1.18,1.18,0,0,0-1.19-1.19h0l-12,0h-.32l-4.25,0H69.19l-.19,0-.2,0-5.11,0a1.18,1.18,0,0,0-1.18,1.19V112.8a1.32,1.32,0,0,0,.08.44,1.23,1.23,0,0,0-.08.44v4.5H49.38a1.19,1.19,0,0,0-.92-.58V83.54a1.19,1.19,0,0,0-1.17-1.2h-.06a1.16,1.16,0,0,0-.49.1.24.24,0,0,1-.1-.19.21.21,0,0,1,.11-.18h0a1.16,1.16,0,0,0,.42.08h8.5a.92.92,0,0,0,.29,0,1,1,0,0,0,.3,0h4.49A1.19,1.19,0,0,0,62,81a1.51,1.51,0,0,0-.06-.37h1.37a1.19,1.19,0,0,0,1.2-1.19v-2a1.2,1.2,0,0,0-.36-.85,1.26,1.26,0,0,0-.86-.34l-2.76.1.06,1.19-.07-1.19-2,.13h0l-.17,0-1.08.11a1.12,1.12,0,0,0-.46.17,1.14,1.14,0,0,0-.55,0h0l-.07,0-.12,0H53.51V59.68H81.29a1.2,1.2,0,0,0,1.19-1.11,5.84,5.84,0,0,1,.43-1.8,1.15,1.15,0,0,0,.08-.41,1.17,1.17,0,0,0-.12-1.07,1.21,1.21,0,0,0-1-.54.38.38,0,0,1-.3-.22.45.45,0,0,1,0-.29,1.16,1.16,0,0,0-.17-1,1.24,1.24,0,0,0-.37-.35,1,1,0,0,0,0-.43,1.2,1.2,0,0,0-.61-.78.18.18,0,0,1-.1-.09.2.2,0,0,1,0-.23,1.23,1.23,0,0,0,.4-.88,1.17,1.17,0,0,0-.39-.88.44.44,0,0,1-.12-.25.39.39,0,0,1,.08-.32,1.26,1.26,0,0,0,.26-.5,1.2,1.2,0,0,0,1.5-.9v0A1.19,1.19,0,0,0,81,46.17h-.08a.42.42,0,0,0,0-.1s0-.05,0-.07a.2.2,0,0,1,.1-.19,1.19,1.19,0,0,0,.63-1.08,1.2,1.2,0,0,0,.55-.33,1.18,1.18,0,0,0,.33-1,.41.41,0,0,1,.13-.31.45.45,0,0,1,.26-.13,1.18,1.18,0,0,0,.86-.46,1.08,1.08,0,0,0,.21-.43,1.19,1.19,0,0,0,.43-.23,1.17,1.17,0,0,0,.42-.89.2.2,0,0,1,.06-.14.24.24,0,0,1,.18-.06,1.19,1.19,0,0,0,1.33-.9.43.43,0,0,1,.13-.22.43.43,0,0,1,.27-.1h.05a1.2,1.2,0,0,0,1.26-.66v0a1.11,1.11,0,0,0,.48,0,1.19,1.19,0,0,0,.8-.58l0-.06a.2.2,0,0,1,.18,0,1.22,1.22,0,0,0,1.21-.4h0a.2.2,0,0,1,.14-.06H91a1.2,1.2,0,0,0,1.31-.37,1.09,1.09,0,0,0,.59.11,1.18,1.18,0,0,0,.88-.47.36.36,0,0,1,.3-.14h0a.43.43,0,0,1,.28.12,1.22,1.22,0,0,0,1.1.37,1.23,1.23,0,0,0,.7-.42,1.29,1.29,0,0,0,.38.12,1.22,1.22,0,0,0,1-.38.19.19,0,0,1,.18-.06.17.17,0,0,1,.14.09,1.19,1.19,0,0,0,1.9.19,1.15,1.15,0,0,0,.58.24,1.18,1.18,0,0,0,1-.35.35.35,0,0,1,.34-.09.39.39,0,0,1,.27.17,1.19,1.19,0,0,0,1,.56,1.15,1.15,0,0,0,.61-.14,1.23,1.23,0,0,0,.31.19,1.16,1.16,0,0,0,.93,0,.25.25,0,0,1,.12,0,.19.19,0,0,1,.15.12,1.2,1.2,0,0,0,1.38.68.41.41,0,0,1,.22,0,.44.44,0,0,1,.26.2,1.18,1.18,0,0,0,1.26.65h0a1.21,1.21,0,0,0,.28.4,1.19,1.19,0,0,0,.93.32h.08a.25.25,0,0,1,.14.12,1.2,1.2,0,0,0,1,.77h0a.21.21,0,0,1,.16.15,1.19,1.19,0,0,0,.81.92,1.14,1.14,0,0,0,.25.61,1.18,1.18,0,0,0,.9.45.37.37,0,0,1,.29.19.39.39,0,0,1,.06.29,1.21,1.21,0,0,0,.25,1,1,1,0,0,0,.4.32,1.1,1.1,0,0,0,.11.53,1.18,1.18,0,0,0,.85.67.21.21,0,0,1,.15.11.23.23,0,0,1,0,.14,1.22,1.22,0,0,0,.43,1.26l.06.05a1.21,1.21,0,0,0-.1.56,1.18,1.18,0,0,0,.28.71,1.21,1.21,0,0,0,.28,1.43.43.43,0,0,1,.12.3.39.39,0,0,1-.11.28,1.2,1.2,0,0,0-.29,1.14,1.23,1.23,0,0,0,.23.44,1.19,1.19,0,0,0,0,1.36.28.28,0,0,1,0,.12.21.21,0,0,1,0,.11,1.23,1.23,0,0,0-.08,1.16.4.4,0,0,1,0,.22.41.41,0,0,1-.15.29,1.19,1.19,0,0,0-.48.72v0a1.35,1.35,0,0,0,0,.53,1.1,1.1,0,0,0-.24.42,1.2,1.2,0,0,0,.12,1,.42.42,0,0,1,0,.34.4.4,0,0,1-.2.22,1.19,1.19,0,0,0-.63.8,1.14,1.14,0,0,0,0,.45,1,1,0,0,0-.39.4,1.21,1.21,0,0,0-.09,1.05.15.15,0,0,1,0,.15.27.27,0,0,1-.12.12,1.18,1.18,0,0,0-.76,1.34.44.44,0,0,1,0,.26.41.41,0,0,1-.23.22,1.17,1.17,0,0,0-.81,1.23,1.24,1.24,0,0,0-.46.29,1.17,1.17,0,0,0-.31,1.08.28.28,0,0,1,0,.09.17.17,0,0,1-.1.13,1.2,1.2,0,0,0-.61,1,.24.24,0,0,1-.1.16,1.18,1.18,0,0,0-.54.54,1.14,1.14,0,0,0-.35.56c0,.1-.06.2-.1.3a1.2,1.2,0,0,0,1.14,1.56h7.38a2.14,2.14,0,0,1,2.14,2.14v8.94a2.14,2.14,0,0,1-2.14,2.14h-1.84a1.2,1.2,0,0,0-1.19,1.19,46.22,46.22,0,0,1-1.61,12.93,1.19,1.19,0,0,0,1.15,1.5h1.09c.07.06.13.13.19.19a2.15,2.15,0,0,1,.35.52c0,.11.09.22.13.33l0,.13a2.65,2.65,0,0,1,.06.3l0,.14a6.23,6.23,0,0,1,0,.76.92.92,0,0,0,0,.16c0,.09,0,.19,0,.28a4.36,4.36,0,0,1-.16.86V103a2,2,0,0,1-.29.43l-.09.1a1.7,1.7,0,0,1-.19.19l-.09.07-.12.08-.11.06H108.7a1.19,1.19,0,0,0-1.12,1.59.92.92,0,0,1,0,.28.88.88,0,0,1-.61.83,1.07,1.07,0,0,1-.25,0h-.6A1.21,1.21,0,0,0,105,108a1.17,1.17,0,0,0-.23.7v5.24a1.18,1.18,0,0,0,.86,1.14l.7.2-.34,0a1.24,1.24,0,0,0-.86.34,1.2,1.2,0,0,0-.36.86v1.77M58,78.85l1.51-.12a1.73,1.73,0,0,0-.47,1H57.64A3.55,3.55,0,0,1,58,78.85Zm57.4,38.1.07.09a2.22,2.22,0,0,1-.85.14h0a3,3,0,0,1-1-.14l0-.22a1.27,1.27,0,0,0-.13-.32A4.48,4.48,0,0,1,115.42,117Z" transform="translate(0 -0.01)" style="fill: #fff"/>
    <path d="M78.54,76.84l-.06,0-.08,0-.11,0-.08,0-.12,0-.07,0-.11,0-.1,0-.1,0h-.07l-.15,0h0l-.68-.09-3.27-.22h-.21l-.19,0-1.79,0a1.18,1.18,0,0,0-1.22,1.19v2a1.19,1.19,0,0,0,1.19,1.19h.88l.23,0,.23,0h.69a1.19,1.19,0,0,0,1,.5h4a1.2,1.2,0,0,0,.86-.36,1.16,1.16,0,0,0,.33-.84l0,0h0a1.19,1.19,0,0,0,.22-.33.72.72,0,0,1,.47-.36,1.19,1.19,0,0,0-.39-2.31Z" transform="translate(0 -0.01)" style="fill: #fff"/>
    <path d="M91.12,99.21,85.83,101s-1.13.65-.76,2.76a2.74,2.74,0,0,0,1.87,2.43s-.3,2.44,2.1,7.81c0,0-4,1.21-4.28,2a5.51,5.51,0,0,0,0,2.83c.24.47,4.69.59,4.69.59l3.86-1L93,103.76Z" transform="translate(0 -0.01)" style="fill: #fff"/>
  </g>
  <g>
    <g>
      <g>
        <rect x="100.53" y="106.84" width="4.28" height="6.66" style="fill: #707989"/>
        <path d="M106.17,108a1.17,1.17,0,0,1-1.17,1.17h-4.68A1.17,1.17,0,0,1,99.15,108h0a1.17,1.17,0,0,1,1.17-1.17H105a1.17,1.17,0,0,1,1.17,1.17Z" transform="translate(0 -0.01)" style="fill: #7d8698"/>
        <path d="M105,106.78h-.73a1,1,0,1,1,0,2h-4.09a1,1,0,0,1-1-1V108a1.17,1.17,0,0,0,1.17,1.17H105a1.17,1.17,0,1,0,0-2.34Z" transform="translate(0 -0.01)" style="fill: #707989"/>
        <path d="M108.82,105.81a2,2,0,0,1-2,2H98.56a2,2,0,0,1-2-2h0a2.05,2.05,0,0,1,2-2h8.21a2.05,2.05,0,0,1,2,2Z" transform="translate(0 -0.01)" style="fill: #7d8698"/>
        <path d="M106.77,103.76h-1.28a1.8,1.8,0,0,1,0,3.59H98.3a1.79,1.79,0,0,1-1.79-1.66v.12a2,2,0,0,0,2,2h8.21a2,2,0,0,0,0-4.1Z" transform="translate(0 -0.01)" style="fill: #707989"/>
      </g>
      <g>
        <path d="M109,98.62l5,.27A49.44,49.44,0,0,0,115.9,83c-1.37-.08-2.24-1.24-3.5-1.67a4.83,4.83,0,0,0-1.08-.06A58.85,58.85,0,0,1,109,98.62Z" transform="translate(0 -0.01)" style="fill: #707989"/>
        <path d="M107.66,98.81l5,.27a49.44,49.44,0,0,0,1.87-15.85L110,81.5A58.85,58.85,0,0,1,107.66,98.81Z" transform="translate(0 -0.01)" style="fill: #7d8698"/>
        <rect x="102.06" y="69.2" width="19.02" height="15.61" rx="3.33" ry="3.33" style="fill: #353840"/>
        <rect x="97.73" y="69.2" width="19.02" height="15.61" rx="3.33" ry="3.33" style="fill: #393b45"/>
      </g>
      <path d="M115.07,105.13H96a1.55,1.55,0,0,1-1.48-1.61l-7.19-2c5.45-1.45,8.51-3.46,9.33-3.46h19c2.21,1.39,1.65,4.42,1.4,5.26S115.89,105.13,115.07,105.13Z" transform="translate(0 -0.01)" style="fill: #30333b"/>
      <path d="M115.73,98.05h-.3c-1.68.43-3.43,2-4.86,2.56a13,13,0,0,1-3.95.88l-.39,3.64h8.84c.82,0,1.84-1.1,2.06-1.82S117.94,99.44,115.73,98.05Z" transform="translate(0 -0.01)" style="fill: #353840"/>
      <path d="M108.15,103.52a1.55,1.55,0,0,1-1.48,1.61h-19a1.55,1.55,0,0,1-1.48-1.61v-.42a1.55,1.55,0,0,1,1.48-1.61h19a1.55,1.55,0,0,1,1.48,1.61Z" transform="translate(0 -0.01)" style="fill: #393b45"/>
      <path d="M113.18,115.28a41.83,41.83,0,0,1-8.51-1.77h-4.14A42,42,0,0,1,92,115.28c-4,.3-3.25,1.55-3.25,1.55s2.15,1,3,.57,4.86-.93,7.58-1c.9,0,5.58,0,6.48,0,2.72.07,6.72.53,7.58,1s3-.57,3-.57S117.23,115.58,113.18,115.28Z" transform="translate(0 -0.01)" style="fill: #353840"/>
      <path d="M89,116s-.49-.06-1,.7.37,1.74,2.11,1.72,2.42-.78,2.2-1.21S89.86,116.94,89,116Z" transform="translate(0 -0.01)" style="fill: #212429"/>
      <path d="M115.73,116s.5-.06,1,.7-.38,1.74-2.11,1.72-2.43-.78-2.21-1.21S114.9,116.94,115.73,116Z" transform="translate(0 -0.01)" style="fill: #212429"/>
    </g>
    <g>
      <g>
        <path d="M98,78.5s1.14-5.48-2.32-4.75c0,0-3.53,2.87-4.78,3.85-.88.7-2.46,1.46-5.4,1s-1.74,4.16,1.06,4.26a19,19,0,0,0,4.76-.11C93.5,82.2,98,78.5,98,78.5Z" transform="translate(0 -0.01)" style="fill: #454854"/>
        <path d="M79.9,78.21s1.47-.94,4.3,0,2,2,.84,2S78.88,79.67,79.9,78.21Z" transform="translate(0 -0.01)" style="fill: #d2a076"/>
        <path d="M80.61,80.44H79.1c-.69,0-.88-.64-.43-1.42h0c.74-1.61,3.42-1.19,3.92-1s.39,1-.14,1.68A2.28,2.28,0,0,1,80.61,80.44Z" transform="translate(0 -0.01)" style="fill: #d2a076"/>
        <path d="M82.91,78.67v.07a1.23,1.23,0,0,1,0,.21l0,.15,0,.08,0,.08-.09.19-.11.19-.07.11-.08.09-.08.1-.11.09a.48.48,0,0,1-.11.09L82,80.2l-.26.13-.29.1-.3.07a3.36,3.36,0,0,1-.63.06l-1.21,0H79l-.16,0a.44.44,0,0,1-.16-.06.78.78,0,0,1-.24-.2.91.91,0,0,1-.07-.14.33.33,0,0,1,0-.13,1,1,0,0,1,0-.47,1.51,1.51,0,0,1,.14-.31,1.18,1.18,0,0,1,.11-.18l0-.06h0l0,.08s0,.11-.07.19,0,.19-.06.31a1,1,0,0,0,0,.37.42.42,0,0,0,.25.27l.1,0a.34.34,0,0,0,.11,0h.27l1.21,0a4,4,0,0,0,.6,0l.28,0a2.13,2.13,0,0,0,.27-.08,1.45,1.45,0,0,0,.25-.11.83.83,0,0,0,.22-.14l.1-.07.09-.09.09-.09.06-.09.13-.18.09-.17,0-.08,0-.07a1.21,1.21,0,0,0,0-.14,1.43,1.43,0,0,0,0-.2l0-.07Z" transform="translate(0 -0.01)" style="fill: #856140"/>
        <path d="M95.67,73.76l-1.41,1.18c-.85.72-2,1.66-3.12,2.6l-.22.18-.22.16a1.88,1.88,0,0,1-.23.16l-.24.15a5.15,5.15,0,0,1-1,.42,6.38,6.38,0,0,1-1,.21,7.09,7.09,0,0,1-.91,0,5.72,5.72,0,0,1-.76-.06c-.22,0-.42-.05-.58-.08l-.49-.11v0s.19,0,.51,0l.58,0c.22,0,.47,0,.74,0a7.34,7.34,0,0,0,1.82-.28,5,5,0,0,0,1-.37,1.71,1.71,0,0,0,.23-.13l.23-.14.22-.15.22-.17,3.19-2.49,1.46-1.13Z" transform="translate(0 -0.01)" style="fill: #30323b"/>
        <path d="M86.54,82.83c.79,0,1.59.06,2.39.06.39,0,.79,0,1.19,0l.3,0,.29,0,.29,0,.28-.08h0a6.76,6.76,0,0,0,1.48-.6,14.81,14.81,0,0,0,1.39-.81l.67-.44.66-.46.66-.47c.22-.16.44-.31.65-.48h0c-.2.18-.4.36-.61.53s-.42.34-.64.5c-.43.33-.87.65-1.32.94s-.93.56-1.41.8a8.21,8.21,0,0,1-1.52.58h0l-.3.08-.3.05-.3,0-.3,0c-.4,0-.8,0-1.19,0-.8,0-1.6-.07-2.39-.11Z" transform="translate(0 -0.01)" style="fill: #30323b"/>
      </g>
      <g>
        <g>
          <g>
            <path d="M101.38,113.73s-5.53,2-6.09,2.68a1.45,1.45,0,0,0,0,1.58s5.51.08,6.81-.41v.51l3.17,0-.31-3.62Z" transform="translate(0 -0.01)" style="fill: #522019"/>
            <path d="M99.46,98.44a15.89,15.89,0,0,1,6.52-.16" transform="translate(0 -0.01)" style="fill: #454854"/>
            <path d="M106,98.28l-.12,0-.32,0-.49,0c-.19,0-.41,0-.65,0s-.49,0-.76,0-.56,0-.85,0-.6.07-.91.09l-.94.07-.94.11c-.3,0-.61.06-.91.09l-.85.1-.76.08c-1,.11-1.6.13-1.6.13s.61-.2,1.55-.43l.75-.18.41-.09.44-.08.91-.14,1-.12,1-.06c.31,0,.62,0,.92,0s.6,0,.87,0a6.11,6.11,0,0,1,.78.07,5.15,5.15,0,0,1,.65.11c.2,0,.36.09.5.13a2.63,2.63,0,0,1,.3.12Z" transform="translate(0 -0.01)" style="fill: #30323b"/>
            <path d="M111.31,91.14c-1.73-2.36-13.39,0-15.09,5.29l2.41,3.07,2.4.6c-2,1.92-3.77,4.41-3.35,7a33,33,0,0,0,2.26,7.39s3.89,1.58,5.3-.31a31.29,31.29,0,0,1-2-7.33c-.28-1.66,6.49-5,7.85-6.48C112.62,98.67,112.24,92.4,111.31,91.14Z" transform="translate(0 -0.01)" style="fill: #454854"/>
            <path d="M91.62,113.73s-5.53,2-6.09,2.68a1.45,1.45,0,0,0,0,1.58s5.51.08,6.81-.41v.51l3.18,0-.32-3.62Z" transform="translate(0 -0.01)" style="fill: #522019"/>
            <path d="M101.55,91.14l-6.44,4.25s-8.1,6.13-7.19,11.72a32.75,32.75,0,0,0,2.27,7.39s3.88,1.58,5.3-.31a31,31,0,0,1-2.06-7.33c-.28-1.66,6.5-5,7.85-6.48C102.86,98.67,102.48,92.4,101.55,91.14Z" transform="translate(0 -0.01)" style="fill: #454854"/>
            <path d="M101,100.11l-.13.12-.35.36-.24.27-.28.31c-.19.23-.41.49-.63.79s-.44.63-.66,1a9.39,9.39,0,0,0-.58,1.19,6,6,0,0,0-.38,1.35,4.63,4.63,0,0,0,0,1.44c0,.06,0,.12,0,.18l0,.18.08.36.15.72c.11.47.24.93.35,1.37s.26.87.37,1.28.24.79.35,1.14.23.67.32,1,.19.53.26.73l.24.64,0,0-.08-.16c0-.11-.13-.26-.22-.46s-.2-.43-.32-.71-.26-.59-.39-.94-.26-.73-.4-1.13-.27-.84-.4-1.29-.23-.92-.33-1.4c0-.24-.08-.48-.13-.72l-.06-.37,0-.18a1.48,1.48,0,0,1,0-.19,5,5,0,0,1,0-1.5,6.24,6.24,0,0,1,.42-1.39l.14-.32.15-.3c.1-.2.23-.39.33-.57a11.88,11.88,0,0,1,.7-1c.23-.3.45-.55.66-.78l.29-.31.25-.25c.15-.16.28-.27.36-.35l.13-.12Z" transform="translate(0 -0.01)" style="fill: #30323b"/>
          </g>
          <path d="M94.57,94.38l-.3.6c-.14.38-.29.76-.46,1.13,0,0,.9-.85,4.52-1a8.77,8.77,0,0,0,1.37-3c.11-.7.67,2.79.67,2.79a52.78,52.78,0,0,1,11.79.75c0-1.93-.15-3.64-.85-4.59C109.58,88.78,96.27,89.06,94.57,94.38Z" transform="translate(0 -0.01)" style="fill: #30323b"/>
          <g>
            <path d="M94.32,76.44s3.59,11-.34,19.14a8.3,8.3,0,0,1,7.25-4.35c7.65-.23,10.89,3.92,10.89,3.92.29-1.06-1.79-18.72-5.61-21.72S94.38,74.63,94.32,76.44Z" transform="translate(0 -0.01)" style="fill: #fffffb"/>
            <path d="M98.41,74.84a77.71,77.71,0,0,1,0,12l2.48,1.62.79-.79A67.4,67.4,0,0,0,99.92,74.5Z" transform="translate(0 -0.01)" style="fill: #d7272a"/>
            <path d="M106.51,73.43a5.88,5.88,0,0,0-4-1,3.71,3.71,0,0,1,1.71,2.14c0,.19-1.53.89-1.45,1.08,0,0,1.71,1.29,1.57,1.68A20,20,0,0,1,99.45,85s-3.26-5.44-3.24-5.58.78-2.21.78-2.21-.18-.3-1.21-.27c-.21,0,.25-2.28.28-2.4-1,.68-1.8,1.36-1.81,1.87,0,0,3.42,11-.27,19.15,0,0,.8-1,4.42-1.16a8.94,8.94,0,0,0,1.38-3c.11-.71.59,2.82.59,2.82,7.65-.36,11.8,1.12,11.8,1.12C112.49,92.16,110.33,76.43,106.51,73.43Z" transform="translate(0 -0.01)" style="fill: #454854"/>
            <path d="M101.66,72.48S103.2,81.79,99.45,85a16,16,0,0,0,5.16-7.46c.12-.42-1.74-1.67-1.74-1.67-.09-.21,1.54-1,1.59-1.16s-.84-2.26-1.49-2.34A2.72,2.72,0,0,0,101.66,72.48Z" transform="translate(0 -0.01)" style="fill: #30323b"/>
            <g>
              <path d="M96.06,74.55S95.57,77,95.78,77c1,0,1.21.27,1.21.27s-.77,2.08-.78,2.21C96,81.8,99.45,85,99.45,85c-2.32-3.78-1.58-10.28-2.66-10.91C96.6,74,96.33,74.26,96.06,74.55Z" transform="translate(0 -0.01)" style="fill: #5b5f6f"/>
              <path d="M101.69,72.47s1.47,9.06-2.24,12.55a16.66,16.66,0,0,0,5-7.78c.09-.41-1.65-1.62-1.65-1.62-.08-.19,1.41-.89,1.45-1.08s-.8-2.08-1.38-2.15A2.29,2.29,0,0,0,101.69,72.47Z" transform="translate(0 -0.01)" style="fill: #5b5f6f"/>
            </g>
            <path d="M100.1,85.91c0,.25-.07.47-.22.49s-.3-.17-.33-.42.06-.47.22-.49S100.07,85.66,100.1,85.91Z" transform="translate(0 -0.01)" style="fill: #fbe500"/>
            <path d="M100.38,89.92c0,.25-.12.45-.28.45s-.28-.2-.28-.45.13-.46.28-.46S100.38,89.67,100.38,89.92Z" transform="translate(0 -0.01)" style="fill: #fbe500"/>
          </g>
          <path d="M97.55,73.91a3,3,0,0,0,.87,1,1.38,1.38,0,0,0,1.5-.44,2,2,0,0,0,0-1.45C99.7,72.69,97.23,73.47,97.55,73.91Z" transform="translate(0 -0.01)" style="fill: #b92227"/>
        </g>
        <g>
          <path d="M109.53,65.84a1.37,1.37,0,1,1,1,1.67A1.38,1.38,0,0,1,109.53,65.84Z" transform="translate(0 -0.01)" style="fill: #30302f"/>
          <path d="M108.77,67.24a1.37,1.37,0,1,1,1.36,1.41A1.38,1.38,0,0,1,108.77,67.24Z" transform="translate(0 -0.01)" style="fill: #30302f"/>
          <path d="M108.85,66.89a1.33,1.33,0,1,1,.09,1.61A1.15,1.15,0,0,1,108.85,66.89Z" transform="translate(0 -0.01)" style="fill: #30302f"/>
          <path d="M82.48,52.2s6.39-6.39,18.86-5.22,10.76,21.28,8,24.23c-2.3,2.47-13.48,7.32-20.65,3.58-3.34-1.74-4.06-4.74-4.56-7.65a1.36,1.36,0,0,1,0-.2c-.42-3.14-.64-6.56-.71-8.82C83.26,53.6,82.48,52.2,82.48,52.2Z" transform="translate(0 -0.01)" style="fill: #d2a076"/>
          <path d="M94.69,68.67s7.78-.76,10.86-4.78c.16-.22,3.1,7.12-4.92,8.28A6,6,0,0,1,94.69,68.67Z" transform="translate(0 -0.01)" style="fill: #732a2b"/>
          <path d="M106.17,66.1a17.42,17.42,0,0,0-1.9,1.06c-2.62,1.79-3.41,3.69-3.59,5C105.65,71.43,106.37,68.29,106.17,66.1Z" transform="translate(0 -0.01)" style="fill: #bb4546"/>
          <path d="M103.59,65.7A19.46,19.46,0,0,1,97,68.29a5.14,5.14,0,0,0,2.16.7A4.83,4.83,0,0,0,103.59,65.7Z" transform="translate(0 -0.01)" style="fill: #fff"/>
          <path d="M110.1,64.37a1,1,0,1,1,2,.47,1,1,0,1,1-2-.47Z" transform="translate(0 -0.01)" style="fill: #30302f"/>
          <path d="M110.26,66a.57.57,0,1,1,.42.69A.56.56,0,0,1,110.26,66Z" transform="translate(0 -0.01)" style="fill: #30302f"/>
          <path d="M110.49,67.28c.11-.4.32-.64.54-.58s.3.44.19.84-.24.59-.46.53S110.38,67.68,110.49,67.28Z" transform="translate(0 -0.01)" style="fill: #30302f"/>
          <path d="M113.53,57.9a1.43,1.43,0,1,1,.79,2A1.48,1.48,0,0,1,113.53,57.9Z" transform="translate(0 -0.01)" style="fill: #30302f"/>
          <path d="M113.1,59.57c.17-.45.86-.59,1.55-.33s1.11.84.94,1.28-.87.6-1.56.34S112.93,60,113.1,59.57Z" transform="translate(0 -0.01)" style="fill: #30302f"/>
          <path d="M114,56.22c.17-.45.87-.6,1.56-.33s1.1.83.93,1.28-.86.6-1.55.33S113.81,56.67,114,56.22Z" transform="translate(0 -0.01)" style="fill: #30302f"/>
          <path d="M112.33,61a1.37,1.37,0,1,1,.78,1.79A1.38,1.38,0,0,1,112.33,61Z" transform="translate(0 -0.01)" style="fill: #30302f"/>
          <path d="M111.35,62.57a1.43,1.43,0,1,1,.62,2A1.49,1.49,0,0,1,111.35,62.57Z" transform="translate(0 -0.01)" style="fill: #30302f"/>
          <path d="M112.49,65.85c-.46.14-1-.31-1.22-1s0-1.39.44-1.53,1,.32,1.22,1S112.94,65.72,112.49,65.85Z" transform="translate(0 -0.01)" style="fill: #30302f"/>
          <path d="M116.63,47.74c-.26.39-1,.38-1.59,0s-.89-1.06-.62-1.46,1-.38,1.59,0S116.9,47.34,116.63,47.74Z" transform="translate(0 -0.01)" style="fill: #30302f"/>
          <path d="M84.2,55.56a1.32,1.32,0,1,1-1.58-.35A1.17,1.17,0,0,1,84.2,55.56Z" transform="translate(0 -0.01)" style="fill: #30302f"/>
          <path d="M83.1,53.82A1.43,1.43,0,1,1,81.16,53,1.49,1.49,0,0,1,83.1,53.82Z" transform="translate(0 -0.01)" style="fill: #30302f"/>
          <path d="M82.12,52.38c.21.43-.17,1-.84,1.34s-1.37.21-1.57-.22.17-1,.84-1.35S81.92,51.94,82.12,52.38Z" transform="translate(0 -0.01)" style="fill: #30302f"/>
          <path d="M81.69,50.91a1.37,1.37,0,1,1-1.83-.68A1.39,1.39,0,0,1,81.69,50.91Z" transform="translate(0 -0.01)" style="fill: #30302f"/>
          <path d="M81.86,49.09a1.43,1.43,0,1,1-1.64-1.32A1.49,1.49,0,0,1,81.86,49.09Z" transform="translate(0 -0.01)" style="fill: #30302f"/>
          <path d="M79.36,46.66c.39-.27,1,0,1.46.61s.43,1.32,0,1.59-1.06,0-1.47-.62S79,46.92,79.36,46.66Z" transform="translate(0 -0.01)" style="fill: #30302f"/>
          <path d="M82.4,45.88a1.37,1.37,0,1,1-1.46-1.29A1.38,1.38,0,0,1,82.4,45.88Z" transform="translate(0 -0.01)" style="fill: #30302f"/>
          <path d="M82.4,45.6a1.33,1.33,0,1,1-.22-1.6A1.17,1.17,0,0,1,82.4,45.6Z" transform="translate(0 -0.01)" style="fill: #30302f"/>
          <path d="M83.77,44.29a1.43,1.43,0,1,1,.06-2.1A1.48,1.48,0,0,1,83.77,44.29Z" transform="translate(0 -0.01)" style="fill: #30302f"/>
          <path d="M84.83,43c-.34.34-1,.2-1.56-.32s-.68-1.21-.34-1.55,1-.2,1.56.32S85.16,42.66,84.83,43Z" transform="translate(0 -0.01)" style="fill: #30302f"/>
          <path d="M85.94,41.93a1.37,1.37,0,1,1,0-2A1.38,1.38,0,0,1,85.94,41.93Z" transform="translate(0 -0.01)" style="fill: #30302f"/>
          <path d="M87.56,40.93a1.43,1.43,0,1,1,.24-2.09A1.5,1.5,0,0,1,87.56,40.93Z" transform="translate(0 -0.01)" style="fill: #30302f"/>
          <path d="M88.14,37.62c.45.16.62.85.38,1.54s-.8,1.14-1.25,1-.63-.85-.39-1.54S87.69,37.47,88.14,37.62Z" transform="translate(0 -0.01)" style="fill: #30302f"/>
          <path d="M90.4,39.41a1.37,1.37,0,1,1,.16-1.95A1.38,1.38,0,0,1,90.4,39.41Z" transform="translate(0 -0.01)" style="fill: #30302f"/>
          <path d="M91.91,38.84a1.37,1.37,0,1,1,0-2A1.38,1.38,0,0,1,91.91,38.84Z" transform="translate(0 -0.01)" style="fill: #30302f"/>
          <path d="M92.15,38.57a1.17,1.17,0,0,1-.94-1.32c0-.7.49-1.26,1-1.24a1.32,1.32,0,0,1-.09,2.56Z" transform="translate(0 -0.01)" style="fill: #30302f"/>
          <path d="M94,38.52a1.43,1.43,0,1,1,1.59-1.38A1.5,1.5,0,0,1,94,38.52Z" transform="translate(0 -0.01)" style="fill: #30302f"/>
          <path d="M95.8,38.05c-.47-.07-.77-.72-.67-1.44s.58-1.27,1.05-1.2.77.71.67,1.44S96.27,38.12,95.8,38.05Z" transform="translate(0 -0.01)" style="fill: #30302f"/>
          <path d="M97.56,38.13A1.37,1.37,0,1,1,99.13,37,1.37,1.37,0,0,1,97.56,38.13Z" transform="translate(0 -0.01)" style="fill: #30302f"/>
          <path d="M99.51,38a1.16,1.16,0,0,1-.75-1.43c.12-.7.65-1.19,1.19-1.1a1.16,1.16,0,0,1,.75,1.43C100.58,37.62,100.05,38.11,99.51,38Z" transform="translate(0 -0.01)" style="fill: #30302f"/>
          <path d="M101.46,38.32a1.43,1.43,0,1,1,1.76-1.15A1.49,1.49,0,0,1,101.46,38.32Z" transform="translate(0 -0.01)" style="fill: #30302f"/>
          <path d="M103.35,38.45c-.48-.08-.76-.73-.63-1.46s.61-1.24,1.08-1.16.75.73.62,1.46S103.82,38.53,103.35,38.45Z" transform="translate(0 -0.01)" style="fill: #30302f"/>
          <path d="M104.69,39a1.37,1.37,0,1,1,1.6-1.12A1.38,1.38,0,0,1,104.69,39Z" transform="translate(0 -0.01)" style="fill: #30302f"/>
          <path d="M106.28,39.84a1.43,1.43,0,1,1,1.85-1A1.48,1.48,0,0,1,106.28,39.84Z" transform="translate(0 -0.01)" style="fill: #30302f"/>
          <path d="M109.32,38.43c.13.46-.34,1-1,1.19s-1.39,0-1.52-.47.34-1,1-1.19S109.19,38,109.32,38.43Z" transform="translate(0 -0.01)" style="fill: #30302f"/>
          <path d="M109.15,41.3a1.37,1.37,0,1,1,1.69-1A1.38,1.38,0,0,1,109.15,41.3Z" transform="translate(0 -0.01)" style="fill: #30302f"/>
          <path d="M110.48,42.22a1.37,1.37,0,1,1,.41-2.71,1.37,1.37,0,1,1-.41,2.71Z" transform="translate(0 -0.01)" style="fill: #30302f"/>
          <path d="M110.61,42.4A1.33,1.33,0,0,1,112.77,41a1.33,1.33,0,0,1-2.16,1.39Z" transform="translate(0 -0.01)" style="fill: #30302f"/>
          <path d="M111.73,43.91a1.43,1.43,0,1,1,2,.52A1.48,1.48,0,0,1,111.73,43.91Z" transform="translate(0 -0.01)" style="fill: #30302f"/>
          <path d="M112.71,45.1c-.21-.42.15-1,.81-1.37s1.36-.25,1.58.18-.15,1-.81,1.37S112.93,45.53,112.71,45.1Z" transform="translate(0 -0.01)" style="fill: #30302f"/>
          <path d="M113.56,46.59a1.37,1.37,0,1,1,1.85.63A1.38,1.38,0,0,1,113.56,46.59Z" transform="translate(0 -0.01)" style="fill: #30302f"/>
          <path d="M109.67,47.12a1.37,1.37,0,1,1,2-.09A1.38,1.38,0,0,1,109.67,47.12Z" transform="translate(0 -0.01)" style="fill: #30302f"/>
          <path d="M111.23,48.29a1.37,1.37,0,1,1,1.34-2.39,1.39,1.39,0,0,1,.54,1.88A1.37,1.37,0,0,1,111.23,48.29Z" transform="translate(0 -0.01)" style="fill: #30302f"/>
          <path d="M114.39,48.56a1.16,1.16,0,0,1,1.28-1,1.17,1.17,0,0,1,1.28,1,1.15,1.15,0,0,1-1.28,1C115,49.55,114.38,49.11,114.39,48.56Z" transform="translate(0 -0.01)" style="fill: #30302f"/>
          <path d="M114.37,50.34a1.43,1.43,0,1,1,1.42,1.55A1.48,1.48,0,0,1,114.37,50.34Z" transform="translate(0 -0.01)" style="fill: #30302f"/>
          <path d="M114.84,53c-.2-.44.17-1,.83-1.36s1.37-.22,1.58.21-.17,1-.83,1.36S115.05,53.39,114.84,53Z" transform="translate(0 -0.01)" style="fill: #30302f"/>
          <path d="M114.35,53.69a1.38,1.38,0,0,1,1.37-1.39,1.39,1.39,0,0,1,0,2.78A1.37,1.37,0,0,1,114.35,53.69Z" transform="translate(0 -0.01)" style="fill: #30302f"/>
          <path d="M114.16,55a1.43,1.43,0,1,1,1.29,1.66A1.49,1.49,0,0,1,114.16,55Z" transform="translate(0 -0.01)" style="fill: #30302f"/>
          <path d="M86.58,52.33a1.55,1.55,0,0,1-1.71.45.8.8,0,0,1-.37-1.29A1.54,1.54,0,0,1,86.2,51,.8.8,0,0,1,86.58,52.33Z" transform="translate(0 -0.01)" style="fill: #30302f"/>
          <path d="M86.64,50.41a.75.75,0,0,1,.72.82.83.83,0,0,1-.74.87.75.75,0,0,1-.72-.82A.83.83,0,0,1,86.64,50.41Z" transform="translate(0 -0.01)" style="fill: #30302f"/>
          <path d="M88.79,51a1.41,1.41,0,0,1-1.6.38.75.75,0,0,1-.39-1.19,1.44,1.44,0,0,1,1.6-.38A.75.75,0,0,1,88.79,51Z" transform="translate(0 -0.01)" style="fill: #30302f"/>
          <path d="M89.55,50.88a.91.91,0,0,1-1-.65.76.76,0,0,1,.62-.94.89.89,0,0,1,1,.64A.77.77,0,0,1,89.55,50.88Z" transform="translate(0 -0.01)" style="fill: #30302f"/>
          <path d="M91,50.38c-.71.13-1.39-.16-1.51-.65s.35-1,1-1.12,1.39.16,1.51.65S91.65,50.25,91,50.38Z" transform="translate(0 -0.01)" style="fill: #30302f"/>
          <path d="M92.51,50a.87.87,0,0,1-.93-.69.73.73,0,0,1,.51-1A.87.87,0,0,1,93,49,.73.73,0,0,1,92.51,50Z" transform="translate(0 -0.01)" style="fill: #30302f"/>
          <path d="M94,49.68A1.15,1.15,0,0,1,92.64,49c-.12-.46.31-.94.94-1.06a1.17,1.17,0,0,1,1.38.64C95.08,49.09,94.66,49.56,94,49.68Z" transform="translate(0 -0.01)" style="fill: #30302f"/>
          <path d="M96.34,49.3a1.44,1.44,0,0,1-1.64-.13.75.75,0,0,1,0-1.25,1.44,1.44,0,0,1,1.64.12A.75.75,0,0,1,96.34,49.3Z" transform="translate(0 -0.01)" style="fill: #30302f"/>
          <path d="M97.1,49.13a.91.91,0,0,1-.78-.93.76.76,0,0,1,.88-.71.91.91,0,0,1,.78.92A.77.77,0,0,1,97.1,49.13Z" transform="translate(0 -0.01)" style="fill: #30302f"/>
          <path d="M98.59,49.07c-.72-.09-1.27-.57-1.24-1.07s.63-.84,1.34-.75,1.27.57,1.24,1.08S99.3,49.16,98.59,49.07Z" transform="translate(0 -0.01)" style="fill: #30302f"/>
          <path d="M100.18,49.38a.86.86,0,0,1-.68-.94.72.72,0,0,1,.77-.75.86.86,0,0,1,.68.94A.72.72,0,0,1,100.18,49.38Z" transform="translate(0 -0.01)" style="fill: #30302f"/>
          <path d="M101.88,49.82a1.15,1.15,0,0,1-1.12-1c0-.48.58-.81,1.22-.73s1.14.54,1.11,1S102.52,49.9,101.88,49.82Z" transform="translate(0 -0.01)" style="fill: #30302f"/>
          <path d="M103,50.34a1.45,1.45,0,0,1-.53-1.56.75.75,0,0,1,1.15-.51,1.45,1.45,0,0,1,.53,1.56A.75.75,0,0,1,103,50.34Z" transform="translate(0 -0.01)" style="fill: #30302f"/>
          <path d="M103.76,50.43a.9.9,0,0,1,.54-1.08.76.76,0,0,1,1,.53.9.9,0,0,1-.54,1.08A.77.77,0,0,1,103.76,50.43Z" transform="translate(0 -0.01)" style="fill: #30302f"/>
          <path d="M105,52a1.26,1.26,0,0,1,.27-1.61c.45-.24,1,.1,1.34.76a1.25,1.25,0,0,1-.27,1.61C105.86,53,105.26,52.61,105,52Z" transform="translate(0 -0.01)" style="fill: #30302f"/>
          <path d="M106.13,53.19a.87.87,0,0,1,.45-1.07.74.74,0,0,1,1,.27.87.87,0,0,1-.45,1.07A.73.73,0,0,1,106.13,53.19Z" transform="translate(0 -0.01)" style="fill: #30302f"/>
          <path d="M106.44,54.76a1.14,1.14,0,0,1,.29-1.48c.43-.23,1,.07,1.25.66a1.13,1.13,0,0,1-.29,1.48C107.26,55.65,106.7,55.36,106.44,54.76Z" transform="translate(0 -0.01)" style="fill: #30302f"/>
          <path d="M106.7,58c.22-.69.79-1.15,1.28-1s.71.77.49,1.46-.79,1.15-1.28,1S106.48,58.65,106.7,58Z" transform="translate(0 -0.01)" style="fill: #30302f"/>
          <path d="M106.75,59.66a.86.86,0,0,1,1-.5.73.73,0,0,1,.6.9.86.86,0,0,1-1,.5A.74.74,0,0,1,106.75,59.66Z" transform="translate(0 -0.01)" style="fill: #30302f"/>
          <path d="M106.92,56.2c.14-.64.64-1.09,1.12-1s.75.65.61,1.28-.65,1.09-1.12,1S106.78,56.83,106.92,56.2Z" transform="translate(0 -0.01)" style="fill: #30302f"/>
          <path d="M110.52,40.81c-3.82-3-8.51-4.23-16.72-3.57-8.66.69-18.52,9.11-9.73,22.26-.95-1.51-3.94-7.61,7.78-10.2,12.67-2.8,16.92,1.34,15.66,10.17a2.81,2.81,0,0,1,.84.44l.08-.07v-.75c.07-.25.24-.39.72-.43,1.11-.08,2.16,7,1.66,8.84C110.81,67.5,124.4,51.81,110.52,40.81Z" transform="translate(0 -0.01)" style="fill: #30302f"/>
          <path d="M82.72,51.39a1.43,1.43,0,1,1-.23,2.08A1.48,1.48,0,0,1,82.72,51.39Z" transform="translate(0 -0.01)" style="fill: #30302f"/>
          <path d="M103.91,57.17c0,2.9-2.36,4.54-5.26,4.54s-5.26-1.64-5.26-4.54a5.26,5.26,0,1,1,10.52,0Z" transform="translate(0 -0.01)" style="fill: #fff"/>
          <path d="M103.77,55.86s0,.19.12.53c0,.16,0,.37.07.61a1.11,1.11,0,0,1,0,.19v.19a3.17,3.17,0,0,1,0,.43,4.3,4.3,0,0,1-.07.46,2,2,0,0,1,0,.24c0,.08,0,.16-.07.24a4.14,4.14,0,0,1-.46,1l-.16.24-.19.22-.09.11-.11.11-.21.2a4.67,4.67,0,0,1-.48.37c-.16.11-.34.21-.52.31a5.45,5.45,0,0,1-.55.25l-.56.2-.58.14-.57.08-.55,0c-.2,0-.36,0-.53,0l-.5-.06-.46-.1a6.46,6.46,0,0,1-.78-.26l-.31-.15-.25-.14a2.5,2.5,0,0,1-.33-.23l-.12-.08,0,0,.13,0c.09,0,.21.09.37.14l.58.16c.22.05.48.1.76.14s.58.05.9.06h.5l.51,0,.53,0,.54-.1.54-.14.52-.2.49-.26c.14-.11.3-.19.44-.32l.22-.18.1-.09.09-.1.18-.19.16-.21a4.07,4.07,0,0,0,.48-.89l.09-.23.06-.22a3.67,3.67,0,0,0,.09-.43,3.05,3.05,0,0,0,0-.41v-.2a1,1,0,0,0,0-.17,5.4,5.4,0,0,0,0-.61l-.08-.53Z" transform="translate(0 -0.01)" style="fill: #856140"/>
          <path d="M89.81,57.83c0,2.55-1.47,4.42-4,4.42s-4.52-.8-4.52-3.35,1.72-5.68,4.27-5.68A4.33,4.33,0,0,1,89.81,57.83Z" transform="translate(0 -0.01)" style="fill: #fff"/>
          <path d="M89.7,56.65l0,.12a2.34,2.34,0,0,1,.07.32,4.86,4.86,0,0,1,.07.51c0,.2,0,.42,0,.67a5.51,5.51,0,0,1-.27,1.66,3.65,3.65,0,0,1-1.09,1.65,3.4,3.4,0,0,1-.86.55,4.31,4.31,0,0,1-.94.31,5.94,5.94,0,0,1-.91.07l-.42,0L85,62.44a4.82,4.82,0,0,1-.66-.13,2.89,2.89,0,0,1-.5-.17,2.06,2.06,0,0,1-.31-.13l-.1,0v-.05h.12l.32,0,.51,0c.19,0,.41,0,.64,0s.24,0,.37,0l.39,0a8.15,8.15,0,0,0,.83-.1,5.2,5.2,0,0,0,.84-.22,2.85,2.85,0,0,0,.79-.42,3.31,3.31,0,0,0,1.07-1.42,5.91,5.91,0,0,0,.37-1.57q0-.36,0-.66c0-.19,0-.36,0-.5s0-.25,0-.32l0-.12Z" transform="translate(0 -0.01)" style="fill: #856140"/>
          <path d="M98.72,58.74a1.49,1.49,0,1,1-1.45-1.85A1.69,1.69,0,0,1,98.72,58.74Z" transform="translate(0 -0.01)" style="fill: #30302f"/>
          <path d="M86,59.24c0,1-.54,1.86-1.21,1.86s-1.21-.83-1.21-1.86.54-1.85,1.21-1.85S86,58.22,86,59.24Z" transform="translate(0 -0.01)" style="fill: #30302f"/>
          <path d="M90.66,59.4s-.35.43-.87,1c-.25.3-.55.64-.83,1a3.68,3.68,0,0,0-.39.58,1.94,1.94,0,0,0-.27.59.77.77,0,0,0,0,.49,1.65,1.65,0,0,0,.12.3,1.58,1.58,0,0,0,.14.23,3.34,3.34,0,0,0,.94.74,10.12,10.12,0,0,0,1.19.54,3.27,3.27,0,0,1-1.38,0,2.83,2.83,0,0,1-1.35-.68,2.3,2.3,0,0,1-.3-.37l-.14-.22-.07-.19a1.68,1.68,0,0,1,0-1.06,2.86,2.86,0,0,1,.41-.82,3.33,3.33,0,0,1,.53-.63,6.32,6.32,0,0,1,1.1-.89A5.86,5.86,0,0,1,90.66,59.4Z" transform="translate(0 -0.01)" style="fill: #856140"/>
          <path d="M108.43,59.09A11.25,11.25,0,0,1,112.2,55c3-1.76,0,7.5-1.29,8.51s-1.55-.76-1.55-.76Z" transform="translate(0 -0.01)" style="fill: #d2a076"/>
          <path d="M99.49,59.09c0,.19-.36.34-.79.34s-.79-.15-.79-.34.35-.35.79-.35S99.49,58.9,99.49,59.09Z" transform="translate(0 -0.01)" style="fill: #fff"/>
          <path d="M86.82,59.59c0,.19-.35.34-.79.34s-.79-.15-.79-.34.35-.35.79-.35S86.82,59.4,86.82,59.59Z" transform="translate(0 -0.01)" style="fill: #fff"/>
        </g>
      </g>
      <g>
        <path d="M109,78.5s-1.17-4.82-3.36-4.75a42.8,42.8,0,0,1-3.74,3.85c-.88.7-2.46,1.46-5.4,1s-1.74,4.16,1.06,4.26a19,19,0,0,0,4.76-.11C104.5,82.2,109,78.5,109,78.5Z" transform="translate(0 -0.01)" style="fill: #454854"/>
        <path d="M105.63,73.76s-.44.53-1.12,1.31l-.56.62c-.19.22-.41.45-.63.68s-.46.48-.7.72l-.38.35-.2.17-.1.09-.1.08a4.62,4.62,0,0,1-.9.55,4.44,4.44,0,0,1-1,.35c-.16,0-.32.08-.48.1l-.23,0-.23,0a6.14,6.14,0,0,1-.85,0c-.13,0-.25,0-.37,0l-.34,0-.54-.09-.46-.1v0s.17,0,.47,0l.55,0h.69l.4,0a3,3,0,0,0,.42,0,7.77,7.77,0,0,0,.9-.16,5.79,5.79,0,0,0,.92-.3,4.71,4.71,0,0,0,.87-.49l.1-.08.1-.08.19-.16.39-.33c.24-.23.49-.46.71-.69s.45-.44.66-.66l.58-.59c.72-.75,1.18-1.26,1.18-1.26Z" transform="translate(0 -0.01)" style="fill: #30323b"/>
        <path d="M97.54,82.83c.79,0,1.59.06,2.39.06.4,0,.79,0,1.19,0l.3,0,.29,0,.29,0,.29-.08h0a6.56,6.56,0,0,0,1.48-.6,14.81,14.81,0,0,0,1.39-.81l.67-.44.66-.46.66-.47c.22-.16.44-.31.65-.48h0c-.2.18-.4.36-.61.53s-.42.34-.64.5c-.43.33-.86.65-1.32.94s-.93.56-1.41.8a8.21,8.21,0,0,1-1.52.58h0l-.3.08-.3.05-.3,0-.3,0c-.4,0-.8,0-1.19,0-.8,0-1.6-.07-2.39-.11Z" transform="translate(0 -0.01)" style="fill: #30323b"/>
      </g>
    </g>
  </g>
  <g>
    <g>
      <path d="M91.31,79.91a1,1,0,0,1-1,1H88.68a1,1,0,0,1-1-1h0a1,1,0,0,1,1-1h1.68a1,1,0,0,1,1,1Z" transform="translate(0 -0.01)" style="fill: #d1d1d1"/>
      <path d="M89.28,78.21s1.47-.94,4.3,0,2,2,.83,2S88.25,79.67,89.28,78.21Z" transform="translate(0 -0.01)" style="fill: #d2a076"/>
      <path d="M94.79,80.3c0,.53-2,.57-2.54.57H90.57a1,1,0,0,1-.95-1h0a1,1,0,0,1,.95-1h1.68c.52,0,2.64,1,2.64,1.51Z" transform="translate(0 -0.01)" style="fill: #d1d1d1"/>
      <path d="M92.34,79a.9.9,0,0,0-.61.94,1,1,0,0,0,.83,1c.47,0,2.23-.13,2.23-.56l.1.17C94.89,80,92.87,78.84,92.34,79Z" transform="translate(0 -0.01)" style="fill: #b7b7b6"/>
      <path d="M89.62,79.91a1,1,0,0,1,.95-1h-.18a1,1,0,1,0,0,1.91h.18A1,1,0,0,1,89.62,79.91Z" transform="translate(0 -0.01)" style="fill: #949392"/>
      <path d="M95,80.64a.37.37,0,0,1-.37.38h-6.7a.38.38,0,0,1-.37-.38h0a.39.39,0,0,1,.37-.39h6.7a.38.38,0,0,1,.37.39Z" transform="translate(0 -0.01)" style="fill: #d1d1d1"/>
      <path d="M94.93,80.25h-3.2c-.29,0-.35.18-.35.39a.36.36,0,0,0,.35.38h3.2a.38.38,0,0,0,.38-.38A.39.39,0,0,0,94.93,80.25Z" transform="translate(0 -0.01)" style="fill: #b7b7b6"/>
      <path d="M89.51,80.58a.29.29,0,0,1-.29.29h-.36a.29.29,0,0,1-.29-.29h0a.29.29,0,0,1,.29-.28h.36a.29.29,0,0,1,.29.28Z" transform="translate(0 -0.01)" style="fill: #212120"/>
    </g>
    <path d="M90,80.44H88.47c-.69,0-.88-.64-.43-1.42h0c.74-1.61,3.42-1.19,3.92-1s.39,1-.14,1.68A2.29,2.29,0,0,1,90,80.44Z" transform="translate(0 -0.01)" style="fill: #d2a076"/>
    <path d="M92.28,78.67v.07a1.23,1.23,0,0,1,0,.21,1.55,1.55,0,0,0,0,.15l0,.08,0,.08-.09.19-.11.19-.07.11-.08.09-.08.1-.11.09a.48.48,0,0,1-.11.09l-.12.08a2.1,2.1,0,0,1-.26.13l-.29.1-.3.07a3.36,3.36,0,0,1-.63.06l-1.21,0h-.29l-.16,0a.44.44,0,0,1-.16-.06.78.78,0,0,1-.24-.2.91.91,0,0,1-.07-.14.33.33,0,0,1,0-.13,1,1,0,0,1,0-.47,1.51,1.51,0,0,1,.14-.31,1.18,1.18,0,0,1,.11-.18L88,79h0l0,.08s0,.11-.07.19,0,.19-.06.31a1,1,0,0,0,0,.37.42.42,0,0,0,.25.27l.1,0a.31.31,0,0,0,.11,0h.27l1.21,0a4,4,0,0,0,.6,0l.28,0a2.13,2.13,0,0,0,.27-.08,1.45,1.45,0,0,0,.25-.11.83.83,0,0,0,.22-.14l.1-.07.09-.09.08-.09.07-.09A1.88,1.88,0,0,0,92,79.4l.1-.17,0-.08,0-.07.05-.14a1.43,1.43,0,0,0,0-.2l0-.07Z" transform="translate(0 -0.01)" style="fill: #856140"/>
    <g>
      <g>
        <path d="M86.51,80a.1.1,0,0,1-.1.09h-.7a.1.1,0,0,1-.1-.09h0a.11.11,0,0,1,.1-.1h.7a.11.11,0,0,1,.1.1Z" transform="translate(0 -0.01)" style="fill: #9d9d9c"/>
        <path d="M85.52,80a.1.1,0,0,1-.1.09h-.7a.1.1,0,0,1-.1-.09h0a.11.11,0,0,1,.1-.1h.7a.11.11,0,0,1,.1.1Z" transform="translate(0 -0.01)" style="fill: #9d9d9c"/>
        <path d="M84.53,80a.1.1,0,0,1-.1.09h-.7a.1.1,0,0,1-.1-.09h0a.11.11,0,0,1,.1-.1h.7a.11.11,0,0,1,.1.1Z" transform="translate(0 -0.01)" style="fill: #9d9d9c"/>
        <path d="M83.54,80a.1.1,0,0,1-.1.09h-.7a.09.09,0,0,1-.09-.09h0a.1.1,0,0,1,.09-.1h.7a.11.11,0,0,1,.1.1Z" transform="translate(0 -0.01)" style="fill: #9d9d9c"/>
        <path d="M82.55,80a.1.1,0,0,1-.1.09h-.7a.09.09,0,0,1-.09-.09h0a.1.1,0,0,1,.09-.1h.7a.11.11,0,0,1,.1.1Z" transform="translate(0 -0.01)" style="fill: #9d9d9c"/>
        <path d="M81.56,80a.1.1,0,0,1-.1.09h-.7a.09.09,0,0,1-.09-.09h0a.1.1,0,0,1,.09-.1h.7a.11.11,0,0,1,.1.1Z" transform="translate(0 -0.01)" style="fill: #9d9d9c"/>
        <path d="M80.57,80a.09.09,0,0,1-.1.09h-.7a.09.09,0,0,1-.09-.09h0a.1.1,0,0,1,.09-.1h.7a.1.1,0,0,1,.1.1Z" transform="translate(0 -0.01)" style="fill: #9d9d9c"/>
        <path d="M79.58,80a.09.09,0,0,1-.1.09h-.7a.09.09,0,0,1-.09-.09h0a.1.1,0,0,1,.09-.1h.7a.1.1,0,0,1,.1.1Z" transform="translate(0 -0.01)" style="fill: #9d9d9c"/>
        <path d="M78.59,80a.09.09,0,0,1-.1.09h-.7A.09.09,0,0,1,77.7,80h0a.1.1,0,0,1,.09-.1h.7a.1.1,0,0,1,.1.1Z" transform="translate(0 -0.01)" style="fill: #9d9d9c"/>
        <path d="M78.59,80a.09.09,0,0,1-.1.09h-.7A.09.09,0,0,1,77.7,80h0a.1.1,0,0,1,.09-.1h.7a.1.1,0,0,1,.1.1Z" transform="translate(0 -0.01)" style="fill: #9d9d9c"/>
        <path d="M77.6,80a.09.09,0,0,1-.1.09h-.7a.09.09,0,0,1-.09-.09h0a.1.1,0,0,1,.09-.1h.7a.1.1,0,0,1,.1.1Z" transform="translate(0 -0.01)" style="fill: #9d9d9c"/>
        <path d="M76.61,80a.09.09,0,0,1-.1.09h-.7a.09.09,0,0,1-.09-.09h0a.1.1,0,0,1,.09-.1h.7a.1.1,0,0,1,.1.1Z" transform="translate(0 -0.01)" style="fill: #9d9d9c"/>
        <path d="M75.62,80a.09.09,0,0,1-.1.09h-.7a.09.09,0,0,1-.09-.09h0a.1.1,0,0,1,.09-.1h.7a.1.1,0,0,1,.1.1Z" transform="translate(0 -0.01)" style="fill: #9d9d9c"/>
        <path d="M74.63,80a.09.09,0,0,1-.1.09h-.7a.09.09,0,0,1-.09-.09h0a.1.1,0,0,1,.09-.1h.7a.1.1,0,0,1,.1.1Z" transform="translate(0 -0.01)" style="fill: #9d9d9c"/>
        <path d="M73.64,80a.09.09,0,0,1-.1.09h-.7a.09.09,0,0,1-.09-.09h0a.1.1,0,0,1,.09-.1h.7a.1.1,0,0,1,.1.1Z" transform="translate(0 -0.01)" style="fill: #9d9d9c"/>
        <path d="M72.65,80a.09.09,0,0,1-.09.09h-.71a.09.09,0,0,1-.09-.09h0a.1.1,0,0,1,.09-.1h.71a.1.1,0,0,1,.09.1Z" transform="translate(0 -0.01)" style="fill: #9d9d9c"/>
        <path d="M85.83,80a.09.09,0,0,1-.09.09H85a.09.09,0,0,1-.1-.09h0a.1.1,0,0,1,.1-.1h.7a.1.1,0,0,1,.09.1Z" transform="translate(0 -0.01)" style="fill: #b7b7b6"/>
        <path d="M84.84,80a.09.09,0,0,1-.09.09h-.7A.09.09,0,0,1,84,80h0a.1.1,0,0,1,.1-.1h.7a.1.1,0,0,1,.09.1Z" transform="translate(0 -0.01)" style="fill: #b7b7b6"/>
        <path d="M83.85,80a.09.09,0,0,1-.09.09h-.7A.09.09,0,0,1,83,80h0a.1.1,0,0,1,.1-.1h.7a.1.1,0,0,1,.09.1Z" transform="translate(0 -0.01)" style="fill: #b7b7b6"/>
        <path d="M82.86,80a.09.09,0,0,1-.09.09h-.7A.09.09,0,0,1,82,80h0a.1.1,0,0,1,.1-.1h.7a.1.1,0,0,1,.09.1Z" transform="translate(0 -0.01)" style="fill: #b7b7b6"/>
        <path d="M81.87,80a.09.09,0,0,1-.09.09h-.7A.1.1,0,0,1,81,80h0a.11.11,0,0,1,.1-.1h.7a.1.1,0,0,1,.09.1Z" transform="translate(0 -0.01)" style="fill: #b7b7b6"/>
        <path d="M80.88,80a.09.09,0,0,1-.09.09h-.7A.1.1,0,0,1,80,80h0a.11.11,0,0,1,.1-.1h.7a.1.1,0,0,1,.09.1Z" transform="translate(0 -0.01)" style="fill: #b7b7b6"/>
        <path d="M79.89,80a.09.09,0,0,1-.09.09h-.7A.1.1,0,0,1,79,80h0a.11.11,0,0,1,.1-.1h.7a.1.1,0,0,1,.09.1Z" transform="translate(0 -0.01)" style="fill: #b7b7b6"/>
        <path d="M78.9,80a.09.09,0,0,1-.09.09h-.7A.1.1,0,0,1,78,80h0a.11.11,0,0,1,.1-.1h.7a.1.1,0,0,1,.09.1Z" transform="translate(0 -0.01)" style="fill: #b7b7b6"/>
        <path d="M77.92,80a.1.1,0,0,1-.1.09h-.7A.1.1,0,0,1,77,80h0a.11.11,0,0,1,.1-.1h.7a.11.11,0,0,1,.1.1Z" transform="translate(0 -0.01)" style="fill: #b7b7b6"/>
        <path d="M77.92,80a.1.1,0,0,1-.1.09h-.7A.1.1,0,0,1,77,80h0a.11.11,0,0,1,.1-.1h.7a.11.11,0,0,1,.1.1Z" transform="translate(0 -0.01)" style="fill: #b7b7b6"/>
        <path d="M76.93,80a.1.1,0,0,1-.1.09h-.7A.1.1,0,0,1,76,80h0a.11.11,0,0,1,.1-.1h.7a.11.11,0,0,1,.1.1Z" transform="translate(0 -0.01)" style="fill: #b7b7b6"/>
        <path d="M75.94,80a.1.1,0,0,1-.1.09h-.7A.1.1,0,0,1,75,80h0a.11.11,0,0,1,.1-.1h.7a.11.11,0,0,1,.1.1Z" transform="translate(0 -0.01)" style="fill: #b7b7b6"/>
        <path d="M75,80a.1.1,0,0,1-.1.09h-.7a.1.1,0,0,1-.1-.09h0a.11.11,0,0,1,.1-.1h.7a.11.11,0,0,1,.1.1Z" transform="translate(0 -0.01)" style="fill: #b7b7b6"/>
        <path d="M74,80a.1.1,0,0,1-.1.09h-.7a.09.09,0,0,1-.09-.09h0a.1.1,0,0,1,.09-.1h.7a.11.11,0,0,1,.1.1Z" transform="translate(0 -0.01)" style="fill: #b7b7b6"/>
        <path d="M73,80a.1.1,0,0,1-.1.09h-.7a.09.09,0,0,1-.09-.09h0a.1.1,0,0,1,.09-.1h.7a.11.11,0,0,1,.1.1Z" transform="translate(0 -0.01)" style="fill: #b7b7b6"/>
        <path d="M72,80a.1.1,0,0,1-.1.09h-.7a.09.09,0,0,1-.09-.09h0a.1.1,0,0,1,.09-.1h.7a.11.11,0,0,1,.1.1Z" transform="translate(0 -0.01)" style="fill: #b7b7b6"/>
      </g>
      <g>
        <path d="M85.21,80a.09.09,0,0,1-.1.09h-.7a.09.09,0,0,1-.09-.09h0a.1.1,0,0,1,.09-.1h.7a.1.1,0,0,1,.1.1Z" transform="translate(0 -0.01)" style="fill: #9d9d9c"/>
        <path d="M84.22,80a.09.09,0,0,1-.1.09h-.7a.09.09,0,0,1-.09-.09h0a.1.1,0,0,1,.09-.1h.7a.1.1,0,0,1,.1.1Z" transform="translate(0 -0.01)" style="fill: #9d9d9c"/>
        <path d="M83.23,80a.09.09,0,0,1-.09.09h-.71a.09.09,0,0,1-.09-.09h0a.1.1,0,0,1,.09-.1h.71a.1.1,0,0,1,.09.1Z" transform="translate(0 -0.01)" style="fill: #9d9d9c"/>
        <path d="M82.24,80a.09.09,0,0,1-.09.09h-.71a.09.09,0,0,1-.09-.09h0a.1.1,0,0,1,.09-.1h.71a.1.1,0,0,1,.09.1Z" transform="translate(0 -0.01)" style="fill: #9d9d9c"/>
        <path d="M81.25,80a.09.09,0,0,1-.09.09h-.71a.09.09,0,0,1-.09-.09h0a.1.1,0,0,1,.09-.1h.71a.1.1,0,0,1,.09.1Z" transform="translate(0 -0.01)" style="fill: #9d9d9c"/>
        <path d="M80.26,80a.09.09,0,0,1-.09.09h-.7a.09.09,0,0,1-.1-.09h0a.1.1,0,0,1,.1-.1h.7a.1.1,0,0,1,.09.1Z" transform="translate(0 -0.01)" style="fill: #9d9d9c"/>
        <path d="M79.27,80a.09.09,0,0,1-.09.09h-.7a.09.09,0,0,1-.1-.09h0a.1.1,0,0,1,.1-.1h.7a.1.1,0,0,1,.09.1Z" transform="translate(0 -0.01)" style="fill: #9d9d9c"/>
        <path d="M78.28,80a.09.09,0,0,1-.09.09h-.7a.09.09,0,0,1-.1-.09h0a.1.1,0,0,1,.1-.1h.7a.1.1,0,0,1,.09.1Z" transform="translate(0 -0.01)" style="fill: #9d9d9c"/>
        <path d="M77.29,80a.09.09,0,0,1-.09.09h-.7a.09.09,0,0,1-.1-.09h0a.1.1,0,0,1,.1-.1h.7a.1.1,0,0,1,.09.1Z" transform="translate(0 -0.01)" style="fill: #9d9d9c"/>
        <path d="M77.29,80a.09.09,0,0,1-.09.09h-.7a.09.09,0,0,1-.1-.09h0a.1.1,0,0,1,.1-.1h.7a.1.1,0,0,1,.09.1Z" transform="translate(0 -0.01)" style="fill: #9d9d9c"/>
        <path d="M76.3,80a.09.09,0,0,1-.09.09h-.7a.09.09,0,0,1-.1-.09h0a.1.1,0,0,1,.1-.1h.7a.1.1,0,0,1,.09.1Z" transform="translate(0 -0.01)" style="fill: #9d9d9c"/>
        <path d="M75.31,80a.09.09,0,0,1-.09.09h-.7a.09.09,0,0,1-.1-.09h0a.1.1,0,0,1,.1-.1h.7a.1.1,0,0,1,.09.1Z" transform="translate(0 -0.01)" style="fill: #9d9d9c"/>
        <path d="M74.32,80a.09.09,0,0,1-.09.09h-.7a.09.09,0,0,1-.1-.09h0a.1.1,0,0,1,.1-.1h.7a.1.1,0,0,1,.09.1Z" transform="translate(0 -0.01)" style="fill: #9d9d9c"/>
        <path d="M73.33,80a.09.09,0,0,1-.09.09h-.7a.09.09,0,0,1-.1-.09h0a.1.1,0,0,1,.1-.1h.7a.1.1,0,0,1,.09.1Z" transform="translate(0 -0.01)" style="fill: #9d9d9c"/>
        <path d="M72.34,80a.09.09,0,0,1-.09.09h-.7a.1.1,0,0,1-.1-.09h0a.11.11,0,0,1,.1-.1h.7a.1.1,0,0,1,.09.1Z" transform="translate(0 -0.01)" style="fill: #9d9d9c"/>
        <path d="M71.35,80a.09.09,0,0,1-.09.09h-.7a.1.1,0,0,1-.1-.09h0a.11.11,0,0,1,.1-.1h.7a.1.1,0,0,1,.09.1Z" transform="translate(0 -0.01)" style="fill: #9d9d9c"/>
        <path d="M84.54,80a.1.1,0,0,1-.1.09h-.7a.1.1,0,0,1-.1-.09h0a.11.11,0,0,1,.1-.1h.7a.11.11,0,0,1,.1.1Z" transform="translate(0 -0.01)" style="fill: #b7b7b6"/>
        <path d="M83.55,80a.1.1,0,0,1-.1.09h-.7a.09.09,0,0,1-.09-.09h0a.1.1,0,0,1,.09-.1h.7a.11.11,0,0,1,.1.1Z" transform="translate(0 -0.01)" style="fill: #b7b7b6"/>
        <path d="M82.56,80a.1.1,0,0,1-.1.09h-.7a.09.09,0,0,1-.09-.09h0a.1.1,0,0,1,.09-.1h.7a.11.11,0,0,1,.1.1Z" transform="translate(0 -0.01)" style="fill: #b7b7b6"/>
        <path d="M81.57,80a.1.1,0,0,1-.1.09h-.7a.09.09,0,0,1-.09-.09h0a.1.1,0,0,1,.09-.1h.7a.11.11,0,0,1,.1.1Z" transform="translate(0 -0.01)" style="fill: #b7b7b6"/>
        <path d="M80.58,80a.09.09,0,0,1-.1.09h-.7a.09.09,0,0,1-.09-.09h0a.1.1,0,0,1,.09-.1h.7a.1.1,0,0,1,.1.1Z" transform="translate(0 -0.01)" style="fill: #b7b7b6"/>
        <path d="M79.59,80a.09.09,0,0,1-.1.09h-.7A.09.09,0,0,1,78.7,80h0a.1.1,0,0,1,.09-.1h.7a.1.1,0,0,1,.1.1Z" transform="translate(0 -0.01)" style="fill: #b7b7b6"/>
        <path d="M78.6,80a.09.09,0,0,1-.1.09h-.7a.09.09,0,0,1-.09-.09h0a.1.1,0,0,1,.09-.1h.7a.1.1,0,0,1,.1.1Z" transform="translate(0 -0.01)" style="fill: #b7b7b6"/>
        <path d="M77.61,80a.09.09,0,0,1-.1.09h-.7a.09.09,0,0,1-.09-.09h0a.1.1,0,0,1,.09-.1h.7a.1.1,0,0,1,.1.1Z" transform="translate(0 -0.01)" style="fill: #b7b7b6"/>
        <path d="M76.62,80a.09.09,0,0,1-.1.09h-.7a.09.09,0,0,1-.09-.09h0a.1.1,0,0,1,.09-.1h.7a.1.1,0,0,1,.1.1Z" transform="translate(0 -0.01)" style="fill: #b7b7b6"/>
        <path d="M76.62,80a.09.09,0,0,1-.1.09h-.7a.09.09,0,0,1-.09-.09h0a.1.1,0,0,1,.09-.1h.7a.1.1,0,0,1,.1.1Z" transform="translate(0 -0.01)" style="fill: #b7b7b6"/>
        <path d="M75.63,80a.09.09,0,0,1-.1.09h-.7a.09.09,0,0,1-.09-.09h0a.1.1,0,0,1,.09-.1h.7a.1.1,0,0,1,.1.1Z" transform="translate(0 -0.01)" style="fill: #b7b7b6"/>
        <path d="M74.64,80a.09.09,0,0,1-.1.09h-.7a.09.09,0,0,1-.09-.09h0a.1.1,0,0,1,.09-.1h.7a.1.1,0,0,1,.1.1Z" transform="translate(0 -0.01)" style="fill: #b7b7b6"/>
        <path d="M73.65,80a.09.09,0,0,1-.1.09h-.7a.09.09,0,0,1-.09-.09h0a.1.1,0,0,1,.09-.1h.7a.1.1,0,0,1,.1.1Z" transform="translate(0 -0.01)" style="fill: #b7b7b6"/>
        <path d="M72.66,80a.09.09,0,0,1-.09.09h-.71a.09.09,0,0,1-.09-.09h0a.1.1,0,0,1,.09-.1h.71a.1.1,0,0,1,.09.1Z" transform="translate(0 -0.01)" style="fill: #b7b7b6"/>
        <path d="M71.67,80a.09.09,0,0,1-.09.09h-.71a.09.09,0,0,1-.09-.09h0a.1.1,0,0,1,.09-.1h.71a.1.1,0,0,1,.09.1Z" transform="translate(0 -0.01)" style="fill: #b7b7b6"/>
        <path d="M70.68,80a.09.09,0,0,1-.09.09h-.71a.09.09,0,0,1-.09-.09h0a.1.1,0,0,1,.09-.1h.71a.1.1,0,0,1,.09.1Z" transform="translate(0 -0.01)" style="fill: #b7b7b6"/>
      </g>
      <g>
        <path d="M83.93,80a.09.09,0,0,1-.1.09h-.7A.09.09,0,0,1,83,80h0a.1.1,0,0,1,.09-.1h.7a.1.1,0,0,1,.1.1Z" transform="translate(0 -0.01)" style="fill: #9d9d9c"/>
        <path d="M82.94,80a.09.09,0,0,1-.1.09h-.7a.09.09,0,0,1-.09-.09h0a.1.1,0,0,1,.09-.1h.7a.1.1,0,0,1,.1.1Z" transform="translate(0 -0.01)" style="fill: #9d9d9c"/>
        <path d="M82,80a.09.09,0,0,1-.1.09h-.7a.09.09,0,0,1-.09-.09h0a.1.1,0,0,1,.09-.1h.7a.1.1,0,0,1,.1.1Z" transform="translate(0 -0.01)" style="fill: #9d9d9c"/>
        <path d="M81,80a.09.09,0,0,1-.1.09h-.7a.09.09,0,0,1-.09-.09h0a.1.1,0,0,1,.09-.1h.7a.1.1,0,0,1,.1.1Z" transform="translate(0 -0.01)" style="fill: #9d9d9c"/>
        <path d="M80,80a.09.09,0,0,1-.1.09h-.7a.09.09,0,0,1-.09-.09h0a.1.1,0,0,1,.09-.1h.7a.1.1,0,0,1,.1.1Z" transform="translate(0 -0.01)" style="fill: #9d9d9c"/>
        <path d="M79,80a.09.09,0,0,1-.09.09h-.71a.09.09,0,0,1-.09-.09h0a.1.1,0,0,1,.09-.1h.71A.1.1,0,0,1,79,80Z" transform="translate(0 -0.01)" style="fill: #9d9d9c"/>
        <path d="M78,80a.09.09,0,0,1-.09.09h-.71A.09.09,0,0,1,77.1,80h0a.1.1,0,0,1,.09-.1h.71A.1.1,0,0,1,78,80Z" transform="translate(0 -0.01)" style="fill: #9d9d9c"/>
        <path d="M77,80a.09.09,0,0,1-.09.09h-.7a.09.09,0,0,1-.1-.09h0a.1.1,0,0,1,.1-.1h.7A.1.1,0,0,1,77,80Z" transform="translate(0 -0.01)" style="fill: #9d9d9c"/>
        <path d="M76,80a.09.09,0,0,1-.09.09h-.7a.09.09,0,0,1-.1-.09h0a.1.1,0,0,1,.1-.1h.7A.1.1,0,0,1,76,80Z" transform="translate(0 -0.01)" style="fill: #9d9d9c"/>
        <path d="M76,80a.09.09,0,0,1-.09.09h-.7a.09.09,0,0,1-.1-.09h0a.1.1,0,0,1,.1-.1h.7A.1.1,0,0,1,76,80Z" transform="translate(0 -0.01)" style="fill: #9d9d9c"/>
        <path d="M75,80a.09.09,0,0,1-.09.09h-.7a.09.09,0,0,1-.1-.09h0a.1.1,0,0,1,.1-.1h.7A.1.1,0,0,1,75,80Z" transform="translate(0 -0.01)" style="fill: #9d9d9c"/>
        <path d="M74,80a.09.09,0,0,1-.09.09h-.7a.09.09,0,0,1-.1-.09h0a.1.1,0,0,1,.1-.1h.7A.1.1,0,0,1,74,80Z" transform="translate(0 -0.01)" style="fill: #9d9d9c"/>
        <path d="M73,80a.09.09,0,0,1-.09.09h-.7a.09.09,0,0,1-.1-.09h0a.1.1,0,0,1,.1-.1H73A.1.1,0,0,1,73,80Z" transform="translate(0 -0.01)" style="fill: #9d9d9c"/>
        <path d="M72.05,80a.09.09,0,0,1-.09.09h-.7a.09.09,0,0,1-.1-.09h0a.1.1,0,0,1,.1-.1H72a.1.1,0,0,1,.09.1Z" transform="translate(0 -0.01)" style="fill: #9d9d9c"/>
        <path d="M71.06,80a.09.09,0,0,1-.09.09h-.7a.09.09,0,0,1-.1-.09h0a.1.1,0,0,1,.1-.1H71a.1.1,0,0,1,.09.1Z" transform="translate(0 -0.01)" style="fill: #9d9d9c"/>
        <path d="M70.07,80a.09.09,0,0,1-.09.09h-.7a.09.09,0,0,1-.1-.09h0a.1.1,0,0,1,.1-.1H70a.1.1,0,0,1,.09.1Z" transform="translate(0 -0.01)" style="fill: #9d9d9c"/>
        <path d="M83.26,80a.1.1,0,0,1-.1.09h-.7a.1.1,0,0,1-.1-.09h0a.11.11,0,0,1,.1-.1h.7a.11.11,0,0,1,.1.1Z" transform="translate(0 -0.01)" style="fill: #b7b7b6"/>
        <path d="M82.27,80a.1.1,0,0,1-.1.09h-.7a.1.1,0,0,1-.1-.09h0a.11.11,0,0,1,.1-.1h.7a.11.11,0,0,1,.1.1Z" transform="translate(0 -0.01)" style="fill: #b7b7b6"/>
        <path d="M81.28,80a.1.1,0,0,1-.1.09h-.7a.1.1,0,0,1-.1-.09h0a.11.11,0,0,1,.1-.1h.7a.11.11,0,0,1,.1.1Z" transform="translate(0 -0.01)" style="fill: #b7b7b6"/>
        <path d="M80.29,80a.1.1,0,0,1-.1.09h-.7A.09.09,0,0,1,79.4,80h0a.1.1,0,0,1,.09-.1h.7a.11.11,0,0,1,.1.1Z" transform="translate(0 -0.01)" style="fill: #b7b7b6"/>
        <path d="M79.3,80a.1.1,0,0,1-.1.09h-.7a.09.09,0,0,1-.09-.09h0a.1.1,0,0,1,.09-.1h.7a.11.11,0,0,1,.1.1Z" transform="translate(0 -0.01)" style="fill: #b7b7b6"/>
        <path d="M78.31,80a.1.1,0,0,1-.1.09h-.7a.09.09,0,0,1-.09-.09h0a.1.1,0,0,1,.09-.1h.7a.11.11,0,0,1,.1.1Z" transform="translate(0 -0.01)" style="fill: #b7b7b6"/>
        <path d="M77.32,80a.09.09,0,0,1-.1.09h-.7a.09.09,0,0,1-.09-.09h0a.1.1,0,0,1,.09-.1h.7a.1.1,0,0,1,.1.1Z" transform="translate(0 -0.01)" style="fill: #b7b7b6"/>
        <path d="M76.33,80a.09.09,0,0,1-.1.09h-.7a.09.09,0,0,1-.09-.09h0a.1.1,0,0,1,.09-.1h.7a.1.1,0,0,1,.1.1Z" transform="translate(0 -0.01)" style="fill: #b7b7b6"/>
        <path d="M75.34,80a.09.09,0,0,1-.1.09h-.7a.09.09,0,0,1-.09-.09h0a.1.1,0,0,1,.09-.1h.7a.1.1,0,0,1,.1.1Z" transform="translate(0 -0.01)" style="fill: #b7b7b6"/>
        <path d="M75.34,80a.09.09,0,0,1-.1.09h-.7a.09.09,0,0,1-.09-.09h0a.1.1,0,0,1,.09-.1h.7a.1.1,0,0,1,.1.1Z" transform="translate(0 -0.01)" style="fill: #b7b7b6"/>
        <path d="M74.35,80a.09.09,0,0,1-.1.09h-.7a.09.09,0,0,1-.09-.09h0a.1.1,0,0,1,.09-.1h.7a.1.1,0,0,1,.1.1Z" transform="translate(0 -0.01)" style="fill: #b7b7b6"/>
        <path d="M73.36,80a.09.09,0,0,1-.1.09h-.7a.09.09,0,0,1-.09-.09h0a.1.1,0,0,1,.09-.1h.7a.1.1,0,0,1,.1.1Z" transform="translate(0 -0.01)" style="fill: #b7b7b6"/>
        <path d="M72.37,80a.09.09,0,0,1-.1.09h-.7a.09.09,0,0,1-.09-.09h0a.1.1,0,0,1,.09-.1h.7a.1.1,0,0,1,.1.1Z" transform="translate(0 -0.01)" style="fill: #b7b7b6"/>
        <path d="M71.38,80a.09.09,0,0,1-.1.09h-.7a.09.09,0,0,1-.09-.09h0a.1.1,0,0,1,.09-.1h.7a.1.1,0,0,1,.1.1Z" transform="translate(0 -0.01)" style="fill: #b7b7b6"/>
        <path d="M70.39,80a.09.09,0,0,1-.1.09h-.7A.09.09,0,0,1,69.5,80h0a.1.1,0,0,1,.09-.1h.7a.1.1,0,0,1,.1.1Z" transform="translate(0 -0.01)" style="fill: #b7b7b6"/>
        <path d="M69.4,80a.09.09,0,0,1-.09.09H68.6a.09.09,0,0,1-.09-.09h0a.1.1,0,0,1,.09-.1h.71a.1.1,0,0,1,.09.1Z" transform="translate(0 -0.01)" style="fill: #b7b7b6"/>
      </g>
      <g>
        <path d="M81.51,80a.09.09,0,0,1-.09.09h-.7a.1.1,0,0,1-.1-.09h0a.11.11,0,0,1,.1-.1h.7a.1.1,0,0,1,.09.1Z" transform="translate(0 -0.01)" style="fill: #9d9d9c"/>
        <path d="M80.52,80a.09.09,0,0,1-.09.09h-.7a.1.1,0,0,1-.1-.09h0a.11.11,0,0,1,.1-.1h.7a.1.1,0,0,1,.09.1Z" transform="translate(0 -0.01)" style="fill: #9d9d9c"/>
        <path d="M79.54,80a.1.1,0,0,1-.1.09h-.7a.1.1,0,0,1-.1-.09h0a.11.11,0,0,1,.1-.1h.7a.11.11,0,0,1,.1.1Z" transform="translate(0 -0.01)" style="fill: #9d9d9c"/>
        <path d="M78.55,80a.1.1,0,0,1-.1.09h-.7a.1.1,0,0,1-.1-.09h0a.11.11,0,0,1,.1-.1h.7a.11.11,0,0,1,.1.1Z" transform="translate(0 -0.01)" style="fill: #9d9d9c"/>
        <path d="M77.56,80a.1.1,0,0,1-.1.09h-.7a.1.1,0,0,1-.1-.09h0a.11.11,0,0,1,.1-.1h.7a.11.11,0,0,1,.1.1Z" transform="translate(0 -0.01)" style="fill: #9d9d9c"/>
        <path d="M76.57,80a.1.1,0,0,1-.1.09h-.7a.1.1,0,0,1-.1-.09h0a.11.11,0,0,1,.1-.1h.7a.11.11,0,0,1,.1.1Z" transform="translate(0 -0.01)" style="fill: #9d9d9c"/>
        <path d="M75.58,80a.1.1,0,0,1-.1.09h-.7a.1.1,0,0,1-.1-.09h0a.11.11,0,0,1,.1-.1h.7a.11.11,0,0,1,.1.1Z" transform="translate(0 -0.01)" style="fill: #9d9d9c"/>
        <path d="M74.59,80a.1.1,0,0,1-.1.09h-.7A.09.09,0,0,1,73.7,80h0a.1.1,0,0,1,.09-.1h.7a.11.11,0,0,1,.1.1Z" transform="translate(0 -0.01)" style="fill: #9d9d9c"/>
        <path d="M73.6,80a.1.1,0,0,1-.1.09h-.7a.09.09,0,0,1-.09-.09h0a.1.1,0,0,1,.09-.1h.7a.11.11,0,0,1,.1.1Z" transform="translate(0 -0.01)" style="fill: #9d9d9c"/>
        <path d="M73.6,80a.1.1,0,0,1-.1.09h-.7a.09.09,0,0,1-.09-.09h0a.1.1,0,0,1,.09-.1h.7a.11.11,0,0,1,.1.1Z" transform="translate(0 -0.01)" style="fill: #9d9d9c"/>
        <path d="M72.61,80a.1.1,0,0,1-.1.09h-.7a.09.09,0,0,1-.09-.09h0a.1.1,0,0,1,.09-.1h.7a.11.11,0,0,1,.1.1Z" transform="translate(0 -0.01)" style="fill: #9d9d9c"/>
        <path d="M71.62,80a.09.09,0,0,1-.1.09h-.7a.09.09,0,0,1-.09-.09h0a.1.1,0,0,1,.09-.1h.7a.1.1,0,0,1,.1.1Z" transform="translate(0 -0.01)" style="fill: #9d9d9c"/>
        <path d="M70.63,80a.09.09,0,0,1-.1.09h-.7a.09.09,0,0,1-.09-.09h0a.1.1,0,0,1,.09-.1h.7a.1.1,0,0,1,.1.1Z" transform="translate(0 -0.01)" style="fill: #9d9d9c"/>
        <path d="M69.64,80a.09.09,0,0,1-.1.09h-.7a.09.09,0,0,1-.09-.09h0a.1.1,0,0,1,.09-.1h.7a.1.1,0,0,1,.1.1Z" transform="translate(0 -0.01)" style="fill: #9d9d9c"/>
        <path d="M68.65,80a.09.09,0,0,1-.1.09h-.7a.09.09,0,0,1-.09-.09h0a.1.1,0,0,1,.09-.1h.7a.1.1,0,0,1,.1.1Z" transform="translate(0 -0.01)" style="fill: #9d9d9c"/>
        <path d="M67.66,80a.09.09,0,0,1-.1.09h-.7a.09.09,0,0,1-.09-.09h0a.1.1,0,0,1,.09-.1h.7a.1.1,0,0,1,.1.1Z" transform="translate(0 -0.01)" style="fill: #9d9d9c"/>
        <path d="M80.84,80a.09.09,0,0,1-.09.09h-.7A.09.09,0,0,1,80,80h0a.1.1,0,0,1,.1-.1h.7a.1.1,0,0,1,.09.1Z" transform="translate(0 -0.01)" style="fill: #b7b7b6"/>
        <path d="M79.85,80a.09.09,0,0,1-.09.09h-.7A.09.09,0,0,1,79,80h0a.1.1,0,0,1,.1-.1h.7a.1.1,0,0,1,.09.1Z" transform="translate(0 -0.01)" style="fill: #b7b7b6"/>
        <path d="M78.86,80a.09.09,0,0,1-.09.09h-.7A.09.09,0,0,1,78,80h0a.1.1,0,0,1,.1-.1h.7a.1.1,0,0,1,.09.1Z" transform="translate(0 -0.01)" style="fill: #b7b7b6"/>
        <path d="M77.87,80a.09.09,0,0,1-.09.09h-.7A.09.09,0,0,1,77,80h0a.1.1,0,0,1,.1-.1h.7a.1.1,0,0,1,.09.1Z" transform="translate(0 -0.01)" style="fill: #b7b7b6"/>
        <path d="M76.88,80a.09.09,0,0,1-.09.09h-.7A.09.09,0,0,1,76,80h0a.1.1,0,0,1,.1-.1h.7a.1.1,0,0,1,.09.1Z" transform="translate(0 -0.01)" style="fill: #b7b7b6"/>
        <path d="M75.89,80a.09.09,0,0,1-.09.09h-.7A.09.09,0,0,1,75,80h0a.1.1,0,0,1,.1-.1h.7a.1.1,0,0,1,.09.1Z" transform="translate(0 -0.01)" style="fill: #b7b7b6"/>
        <path d="M74.9,80a.09.09,0,0,1-.09.09h-.7A.09.09,0,0,1,74,80h0a.1.1,0,0,1,.1-.1h.7a.1.1,0,0,1,.09.1Z" transform="translate(0 -0.01)" style="fill: #b7b7b6"/>
        <path d="M73.91,80a.09.09,0,0,1-.09.09h-.7A.09.09,0,0,1,73,80h0a.1.1,0,0,1,.1-.1h.7a.1.1,0,0,1,.09.1Z" transform="translate(0 -0.01)" style="fill: #b7b7b6"/>
        <path d="M72.92,80a.09.09,0,0,1-.09.09h-.7A.1.1,0,0,1,72,80h0a.11.11,0,0,1,.1-.1h.7a.1.1,0,0,1,.09.1Z" transform="translate(0 -0.01)" style="fill: #b7b7b6"/>
        <path d="M72.92,80a.09.09,0,0,1-.09.09h-.7A.1.1,0,0,1,72,80h0a.11.11,0,0,1,.1-.1h.7a.1.1,0,0,1,.09.1Z" transform="translate(0 -0.01)" style="fill: #b7b7b6"/>
        <path d="M71.93,80a.09.09,0,0,1-.09.09h-.7A.1.1,0,0,1,71,80h0a.11.11,0,0,1,.1-.1h.7a.1.1,0,0,1,.09.1Z" transform="translate(0 -0.01)" style="fill: #b7b7b6"/>
        <path d="M70.94,80a.09.09,0,0,1-.09.09h-.7a.1.1,0,0,1-.1-.09h0a.11.11,0,0,1,.1-.1h.7a.1.1,0,0,1,.09.1Z" transform="translate(0 -0.01)" style="fill: #b7b7b6"/>
        <path d="M70,80a.09.09,0,0,1-.09.09h-.7a.1.1,0,0,1-.1-.09h0a.11.11,0,0,1,.1-.1h.7A.1.1,0,0,1,70,80Z" transform="translate(0 -0.01)" style="fill: #b7b7b6"/>
        <path d="M69,80a.1.1,0,0,1-.1.09h-.7a.1.1,0,0,1-.1-.09h0a.11.11,0,0,1,.1-.1h.7a.11.11,0,0,1,.1.1Z" transform="translate(0 -0.01)" style="fill: #b7b7b6"/>
        <path d="M68,80a.1.1,0,0,1-.1.09h-.7a.1.1,0,0,1-.1-.09h0a.11.11,0,0,1,.1-.1h.7a.11.11,0,0,1,.1.1Z" transform="translate(0 -0.01)" style="fill: #b7b7b6"/>
        <path d="M67,80a.1.1,0,0,1-.1.09h-.7a.1.1,0,0,1-.1-.09h0a.11.11,0,0,1,.1-.1h.7a.11.11,0,0,1,.1.1Z" transform="translate(0 -0.01)" style="fill: #b7b7b6"/>
      </g>
      <g>
        <path d="M82.66,80a.09.09,0,0,1-.09.09h-.7a.09.09,0,0,1-.1-.09h0a.1.1,0,0,1,.1-.1h.7a.1.1,0,0,1,.09.1Z" transform="translate(0 -0.01)" style="fill: #9d9d9c"/>
        <path d="M81.67,80a.09.09,0,0,1-.09.09h-.7a.09.09,0,0,1-.1-.09h0a.1.1,0,0,1,.1-.1h.7a.1.1,0,0,1,.09.1Z" transform="translate(0 -0.01)" style="fill: #9d9d9c"/>
        <path d="M80.68,80a.09.09,0,0,1-.09.09h-.7a.1.1,0,0,1-.1-.09h0a.11.11,0,0,1,.1-.1h.7a.1.1,0,0,1,.09.1Z" transform="translate(0 -0.01)" style="fill: #9d9d9c"/>
        <path d="M79.69,80a.09.09,0,0,1-.09.09h-.7a.1.1,0,0,1-.1-.09h0a.11.11,0,0,1,.1-.1h.7a.1.1,0,0,1,.09.1Z" transform="translate(0 -0.01)" style="fill: #9d9d9c"/>
        <path d="M78.7,80a.09.09,0,0,1-.09.09h-.7a.1.1,0,0,1-.1-.09h0a.11.11,0,0,1,.1-.1h.7a.1.1,0,0,1,.09.1Z" transform="translate(0 -0.01)" style="fill: #9d9d9c"/>
        <path d="M77.72,80a.1.1,0,0,1-.1.09h-.7a.1.1,0,0,1-.1-.09h0a.11.11,0,0,1,.1-.1h.7a.11.11,0,0,1,.1.1Z" transform="translate(0 -0.01)" style="fill: #9d9d9c"/>
        <path d="M76.73,80a.1.1,0,0,1-.1.09h-.7a.1.1,0,0,1-.1-.09h0a.11.11,0,0,1,.1-.1h.7a.11.11,0,0,1,.1.1Z" transform="translate(0 -0.01)" style="fill: #9d9d9c"/>
        <path d="M75.74,80a.1.1,0,0,1-.1.09h-.7a.1.1,0,0,1-.1-.09h0a.11.11,0,0,1,.1-.1h.7a.11.11,0,0,1,.1.1Z" transform="translate(0 -0.01)" style="fill: #9d9d9c"/>
        <path d="M74.75,80a.1.1,0,0,1-.1.09H74a.1.1,0,0,1-.1-.09h0a.11.11,0,0,1,.1-.1h.7a.11.11,0,0,1,.1.1Z" transform="translate(0 -0.01)" style="fill: #9d9d9c"/>
        <path d="M74.75,80a.1.1,0,0,1-.1.09H74a.1.1,0,0,1-.1-.09h0a.11.11,0,0,1,.1-.1h.7a.11.11,0,0,1,.1.1Z" transform="translate(0 -0.01)" style="fill: #9d9d9c"/>
        <path d="M73.76,80a.1.1,0,0,1-.1.09H73a.1.1,0,0,1-.1-.09h0a.11.11,0,0,1,.1-.1h.7a.11.11,0,0,1,.1.1Z" transform="translate(0 -0.01)" style="fill: #9d9d9c"/>
        <path d="M72.77,80a.1.1,0,0,1-.1.09H72a.09.09,0,0,1-.09-.09h0a.1.1,0,0,1,.09-.1h.7a.11.11,0,0,1,.1.1Z" transform="translate(0 -0.01)" style="fill: #9d9d9c"/>
        <path d="M71.78,80a.1.1,0,0,1-.1.09H71a.09.09,0,0,1-.09-.09h0a.1.1,0,0,1,.09-.1h.7a.11.11,0,0,1,.1.1Z" transform="translate(0 -0.01)" style="fill: #9d9d9c"/>
        <path d="M70.79,80a.1.1,0,0,1-.1.09H70A.09.09,0,0,1,69.9,80h0a.1.1,0,0,1,.09-.1h.7a.11.11,0,0,1,.1.1Z" transform="translate(0 -0.01)" style="fill: #9d9d9c"/>
        <path d="M69.8,80a.09.09,0,0,1-.1.09H69a.09.09,0,0,1-.09-.09h0a.1.1,0,0,1,.09-.1h.7a.1.1,0,0,1,.1.1Z" transform="translate(0 -0.01)" style="fill: #9d9d9c"/>
        <path d="M68.81,80a.09.09,0,0,1-.1.09H68a.09.09,0,0,1-.09-.09h0a.1.1,0,0,1,.09-.1h.7a.1.1,0,0,1,.1.1Z" transform="translate(0 -0.01)" style="fill: #9d9d9c"/>
        <path d="M82,80a.09.09,0,0,1-.1.09h-.7A.09.09,0,0,1,81.1,80h0a.1.1,0,0,1,.09-.1h.7a.1.1,0,0,1,.1.1Z" transform="translate(0 -0.01)" style="fill: #b7b7b6"/>
        <path d="M81,80a.09.09,0,0,1-.09.09H80.2a.09.09,0,0,1-.09-.09h0a.1.1,0,0,1,.09-.1h.71A.1.1,0,0,1,81,80Z" transform="translate(0 -0.01)" style="fill: #b7b7b6"/>
        <path d="M80,80a.09.09,0,0,1-.09.09h-.71a.09.09,0,0,1-.09-.09h0a.1.1,0,0,1,.09-.1h.71A.1.1,0,0,1,80,80Z" transform="translate(0 -0.01)" style="fill: #b7b7b6"/>
        <path d="M79,80a.09.09,0,0,1-.09.09h-.7a.09.09,0,0,1-.1-.09h0a.1.1,0,0,1,.1-.1h.7A.1.1,0,0,1,79,80Z" transform="translate(0 -0.01)" style="fill: #b7b7b6"/>
        <path d="M78,80a.09.09,0,0,1-.09.09h-.7a.09.09,0,0,1-.1-.09h0a.1.1,0,0,1,.1-.1h.7A.1.1,0,0,1,78,80Z" transform="translate(0 -0.01)" style="fill: #b7b7b6"/>
        <path d="M77,80a.09.09,0,0,1-.09.09h-.7a.09.09,0,0,1-.1-.09h0a.1.1,0,0,1,.1-.1H77A.1.1,0,0,1,77,80Z" transform="translate(0 -0.01)" style="fill: #b7b7b6"/>
        <path d="M76.05,80a.09.09,0,0,1-.09.09h-.7a.09.09,0,0,1-.1-.09h0a.1.1,0,0,1,.1-.1H76a.1.1,0,0,1,.09.1Z" transform="translate(0 -0.01)" style="fill: #b7b7b6"/>
        <path d="M75.06,80a.09.09,0,0,1-.09.09h-.7a.09.09,0,0,1-.1-.09h0a.1.1,0,0,1,.1-.1H75a.1.1,0,0,1,.09.1Z" transform="translate(0 -0.01)" style="fill: #b7b7b6"/>
        <path d="M74.07,80a.09.09,0,0,1-.09.09h-.7a.09.09,0,0,1-.1-.09h0a.1.1,0,0,1,.1-.1H74a.1.1,0,0,1,.09.1Z" transform="translate(0 -0.01)" style="fill: #b7b7b6"/>
        <path d="M74.07,80a.09.09,0,0,1-.09.09h-.7a.09.09,0,0,1-.1-.09h0a.1.1,0,0,1,.1-.1H74a.1.1,0,0,1,.09.1Z" transform="translate(0 -0.01)" style="fill: #b7b7b6"/>
        <path d="M73.08,80a.09.09,0,0,1-.09.09h-.7a.09.09,0,0,1-.1-.09h0a.1.1,0,0,1,.1-.1H73a.1.1,0,0,1,.09.1Z" transform="translate(0 -0.01)" style="fill: #b7b7b6"/>
        <path d="M72.09,80a.09.09,0,0,1-.09.09h-.7a.09.09,0,0,1-.1-.09h0a.1.1,0,0,1,.1-.1H72a.1.1,0,0,1,.09.1Z" transform="translate(0 -0.01)" style="fill: #b7b7b6"/>
        <path d="M71.1,80a.09.09,0,0,1-.09.09h-.7a.1.1,0,0,1-.1-.09h0a.11.11,0,0,1,.1-.1H71a.1.1,0,0,1,.09.1Z" transform="translate(0 -0.01)" style="fill: #b7b7b6"/>
        <path d="M70.11,80a.09.09,0,0,1-.09.09h-.7a.1.1,0,0,1-.1-.09h0a.11.11,0,0,1,.1-.1H70a.1.1,0,0,1,.09.1Z" transform="translate(0 -0.01)" style="fill: #b7b7b6"/>
        <path d="M69.12,80a.09.09,0,0,1-.09.09h-.7a.1.1,0,0,1-.1-.09h0a.11.11,0,0,1,.1-.1H69a.1.1,0,0,1,.09.1Z" transform="translate(0 -0.01)" style="fill: #b7b7b6"/>
        <path d="M68.13,80a.09.09,0,0,1-.09.09h-.7a.1.1,0,0,1-.1-.09h0a.11.11,0,0,1,.1-.1H68a.1.1,0,0,1,.09.1Z" transform="translate(0 -0.01)" style="fill: #b7b7b6"/>
      </g>
      <path d="M87.46,80.49A.5.5,0,0,1,87,81H66.34a.51.51,0,0,1-.51-.51h0a.5.5,0,0,1,.51-.5H87a.5.5,0,0,1,.5.5Z" transform="translate(0 -0.01)" style="fill: #d1d1d1"/>
      <path d="M86.47,80.49A.5.5,0,0,1,86,81H65.35a.51.51,0,0,1-.51-.51h0a.5.5,0,0,1,.51-.5H86a.5.5,0,0,1,.5.5Z" transform="translate(0 -0.01)" style="fill: #d1d1d1"/>
      <path d="M87,80H81a.5.5,0,0,1,.5.5A.5.5,0,0,1,81,81h6a.5.5,0,0,0,.5-.51A.5.5,0,0,0,87,80Z" transform="translate(0 -0.01)" style="fill: #b7b7b6"/>
    </g>
    <g>
      <rect x="47.27" y="82.19" width="2.33" height="36.58" style="fill: #e09544"/>
      <rect x="48.43" y="82.19" width="15.26" height="36.58" style="fill: #99672d"/>
      <rect x="89.51" y="82.19" width="2.33" height="36.58" style="fill: #e09544"/>
      <rect x="90.68" y="82.19" width="15.26" height="36.58" style="fill: #99672d"/>
      <path d="M106.73,81h0v2.57h0a1.29,1.29,0,0,0,0-2.58Z" transform="translate(0 -0.01)" style="fill: #303030"/>
      <rect x="47.18" y="80.94" width="43.53" height="2.57" style="fill: #e09544"/>
      <rect x="47.18" y="82.14" width="43.53" height="1.37" style="fill: #ac7432"/>
      <path d="M90.71,83.53,69,83.61l-8,0H57.28l-3.3,0-2.78,0-2.15,0-1.87,0v0l1.87,0,2.15,0,2.78,0,3.3,0H61l8,0,21.76.08Z" transform="translate(0 -0.01)" style="fill: #61411c"/>
      <line x1="47.18" y1="80.94" x2="90.71" y2="80.94" style="fill: #e09544"/>
      <path d="M91.31,81A7.43,7.43,0,0,1,91.6,83c0,.17,0,.34,0,.51h15.11V81Z" transform="translate(0 -0.01)" style="fill: #303030"/>
      <path d="M91.55,82.15a8.11,8.11,0,0,1,0,.86c0,.17,0,.34,0,.51h15.11V82.15Z" transform="translate(0 -0.01)" style="fill: #2b2b2b"/>
      <path d="M106.69,83.52h.09A1.28,1.28,0,0,0,108,82.24v-.09h-1.32Z" transform="translate(0 -0.01)" style="fill: #2b2b2b"/>
      <path d="M91.1,80.86h0v2.79h0a1.4,1.4,0,1,0,0-2.79Z" transform="translate(0 -0.01)" style="fill: #3b3b3b"/>
      <path d="M91.16,83.65a1.43,1.43,0,0,0,.54-.13.59.59,0,0,0,0-.14V81.13a.59.59,0,0,0,0-.14,1.43,1.43,0,0,0-.54-.13Z" transform="translate(0 -0.01)" style="fill: #2b2b2b"/>
      <path d="M91.53,83.38a.41.41,0,0,1-.41.41h0a.41.41,0,0,1-.41-.41V81.13a.41.41,0,0,1,.41-.41h0a.41.41,0,0,1,.41.41Z" transform="translate(0 -0.01)" style="fill: #3b3b3b"/>
      <path d="M46.84,80.86h0v2.79h0a1.4,1.4,0,1,1,0-2.79Z" transform="translate(0 -0.01)" style="fill: #3b3b3b"/>
      <path d="M46.79,83.65a1.34,1.34,0,0,1-.54-.13.32.32,0,0,1,0-.14V81.13a.32.32,0,0,1,0-.14,1.34,1.34,0,0,1,.54-.13Z" transform="translate(0 -0.01)" style="fill: #2b2b2b"/>
      <path d="M46.41,83.38a.41.41,0,0,0,.41.41h0a.41.41,0,0,0,.41-.41V81.13a.41.41,0,0,0-.41-.41h0a.41.41,0,0,0-.41.41Z" transform="translate(0 -0.01)" style="fill: #3b3b3b"/>
      <path d="M64,119.08a.29.29,0,0,1-.29.29H48.35a.29.29,0,0,1-.29-.29h0a.29.29,0,0,1,.29-.3H63.72a.29.29,0,0,1,.29.3Z" transform="translate(0 -0.01)" style="fill: #2b2b2b"/>
      <path d="M48.74,119.08a.26.26,0,0,1-.24.29H47.14a.27.27,0,0,1-.24-.29h0a.27.27,0,0,1,.24-.3H48.5c.14,0,.24.13.24.3Z" transform="translate(0 -0.01)" style="fill: #3b3b3b"/>
      <path d="M106.24,119.08a.29.29,0,0,1-.29.29H90.65a.29.29,0,0,1-.29-.29h0a.29.29,0,0,1,.29-.3H106a.29.29,0,0,1,.29.3Z" transform="translate(0 -0.01)" style="fill: #2b2b2b"/>
      <path d="M91.05,119.08a.27.27,0,0,1-.24.29H89.45a.26.26,0,0,1-.24-.29h0c0-.17.1-.3.24-.3h1.36a.27.27,0,0,1,.24.3Z" transform="translate(0 -0.01)" style="fill: #3b3b3b"/>
    </g>
    <g>
      <rect x="72.24" y="74.96" width="2.05" height="0.53" style="fill: #a2a2a1"/>
      <g>
        <g>
          <rect x="63.13" y="79.38" width="11.17" height="1.56" rx="0.53" ry="0.53" style="fill: #b7b7b6"/>
          <rect x="60.25" y="79.38" width="11.17" height="1.56" rx="0.53" ry="0.53" style="fill: #d1d1d1"/>
          <path d="M70.89,79.39h-.24a.48.48,0,0,1,.51.45v.42a.48.48,0,0,1-.51.45H60.76a.48.48,0,0,1-.51-.45v.16a.52.52,0,0,0,.52.53H70.89a.53.53,0,0,0,.53-.53v-.5A.53.53,0,0,0,70.89,79.39Z" transform="translate(0 -0.01)" style="fill: #b7b7b6"/>
        </g>
        <path d="M83.34,58.49H54.56a.74.74,0,0,0-.74.74V77.29a.74.74,0,0,0,.74.74h1.76c0-.38,4.89-.69,10.93-.69s10.93.31,10.93.69h5.16a.74.74,0,0,0,.73-.74V59.23A.74.74,0,0,0,83.34,58.49Z" transform="translate(0 -0.01)" style="fill: #b7b7b6"/>
        <path d="M81.83,58.49H53.05a.74.74,0,0,0-.73.74V77.29a.74.74,0,0,0,.73.74h3.27c0-.38,4.89-.69,10.93-.69s10.93.31,10.93.69h3.65a.73.73,0,0,0,.73-.74V59.23A.73.73,0,0,0,81.83,58.49Z" transform="translate(0 -0.01)" style="fill: #d1d1d1"/>
        <path d="M67.25,77.34c5.78,0,10.51.28,10.91.64-1.75-3.13-5.25-8.5-11.41-8.32-6.87.19-9.71,6-10.43,8.34C56.52,77.63,61.34,77.34,67.25,77.34Z" transform="translate(0 -0.01)" style="fill: #c1c1bf"/>
        <path d="M72.05,74.55c0,1.72-2.1,3.21-5,3.12-3.55-.1-5.13-1.82-5.13-3.55s2.59-3,5.45-3S72.05,72.82,72.05,74.55Z" transform="translate(0 -0.01)" style="fill: #b7b7b6"/>
        <rect x="63.7" y="74.65" width="7.6" height="4.73" style="fill: #b7b7b6"/>
        <rect x="63.28" y="74.65" width="7.6" height="4.73" style="fill: #d1d1d1"/>
        <path d="M71.81,74.12c0,1.73-2.1,3.13-5,3.13S62,75.85,62,74.12,64,71,66.85,71,71.81,72.4,71.81,74.12Z" transform="translate(0 -0.01)" style="fill: #d1d1d1"/>
      </g>
    </g>
    <path d="M80,80.49a.27.27,0,0,1-.26.27h-.34a.26.26,0,0,1-.26-.27h0a.26.26,0,0,1,.26-.26h.34a.26.26,0,0,1,.26.26Z" transform="translate(0 -0.01)" style="fill: #212120"/>
  </g>
  <path d="M70,71.2h-62a2.91,2.91,0,0,1-2.71-1.89.94.94,0,0,1,0-.09.57.57,0,0,1,0-.14s0-.08,0-.13,0-.08,0-.12l0-.17s0-.06,0-.09a2.44,2.44,0,0,1,0-.27V24.94a2.72,2.72,0,0,1,.23-1.13A2.88,2.88,0,0,1,8.05,22H70l.4,0h.09a3.1,3.1,0,0,1,.73.23l.08,0a2.9,2.9,0,0,1,1.6,2.59V68.3A2.9,2.9,0,0,1,70,71.2ZM7.94,68.32h0a.13.13,0,0,0,.11.08H70a.11.11,0,0,0,.12-.11V24.94a.43.43,0,0,0,0-.05.17.17,0,0,0-.06-.06h-62a.1.1,0,0,0-.1.07.07.07,0,0,0,0,.05V68.3h0Z" transform="translate(0 -0.01)" style="fill: #fff"/>
  <g>
    <g>
      <rect x="6.55" y="23.42" width="64.98" height="46.38" rx="1.51" ry="1.51" style="fill: #2574a9"/>
      <g>
        <polygon points="16.9 43.13 30.41 23.42 29.16 23.42 16.05 42.55 16.9 43.13" style="fill: #1f628f"/>
        <polygon points="28.32 23.42 23.76 23.42 10.28 43.08 13.39 45.21 28.32 23.42" style="fill: #1f628f"/>
        <polygon points="30.9 23.42 17.91 42.38 18.75 42.96 32.15 23.42 30.9 23.42" style="fill: #1f628f"/>
      </g>
      <path d="M7,68.5V25.14a1.5,1.5,0,0,1,1.51-1.51h62a1.34,1.34,0,0,1,.4.06,1.55,1.55,0,0,0-.85-.26h-62a1.5,1.5,0,0,0-1.5,1.51V68.3a1.51,1.51,0,0,0,1.11,1.45A1.5,1.5,0,0,1,7,68.5Z" transform="translate(0 -0.01)" style="fill: #1f628f"/>
      <path d="M70,23.43h-.43a1.5,1.5,0,0,1,1.5,1.5V68a1.5,1.5,0,0,1-1.5,1.49H8A1.49,1.49,0,0,1,6.55,68v.3a1.51,1.51,0,0,0,1.5,1.51H70a1.52,1.52,0,0,0,1.51-1.51V24.94A1.51,1.51,0,0,0,70,23.43Z" transform="translate(0 -0.01)" style="fill: #1f628f"/>
      <circle cx="10.54" cy="27.76" r="2.13" style="fill: #fff"/>
      <circle cx="16.56" cy="27.76" r="2.13" style="fill: #fff"/>
      <circle cx="22.59" cy="27.76" r="2.13" style="fill: #fff"/>
      <path d="M11.48,25.85a2.13,2.13,0,0,1-1.23,3.88,2.09,2.09,0,0,1-.93-.22,2.13,2.13,0,1,0,2.16-3.66Z" transform="translate(0 -0.01)" style="fill: #d5d6d5"/>
      <path d="M17.5,25.85a2.13,2.13,0,0,1-1.23,3.88,2.09,2.09,0,0,1-.93-.22,2.13,2.13,0,0,0,3.36-1.75A2.13,2.13,0,0,0,17.5,25.85Z" transform="translate(0 -0.01)" style="fill: #d5d6d5"/>
      <path d="M23.52,25.85a2.13,2.13,0,0,1-1.22,3.88,2.1,2.1,0,0,1-.94-.22,2.17,2.17,0,0,0,1.23.39,2.13,2.13,0,0,0,.93-4Z" transform="translate(0 -0.01)" style="fill: #d5d6d5"/>
      <path d="M23.77,26.58a.21.21,0,0,0-.31,0L21.4,28.64a.21.21,0,0,0,0,.31h0a.21.21,0,0,0,.31,0l2.06-2.06a.21.21,0,0,0,0-.31Z" transform="translate(0 -0.01)" style="fill: #4d4d4d"/>
      <path d="M23.77,29a.21.21,0,0,0,0-.31l-2.06-2.06a.21.21,0,0,0-.31,0h0a.21.21,0,0,0,0,.31L23.46,29a.21.21,0,0,0,.31,0Z" transform="translate(0 -0.01)" style="fill: #4d4d4d"/>
      <path d="M12.22,27.76a.22.22,0,0,0-.23-.22H9.09a.22.22,0,0,0-.22.22h0a.22.22,0,0,0,.22.23H12a.23.23,0,0,0,.23-.23Z" transform="translate(0 -0.01)" style="fill: #4d4d4d"/>
      <path d="M17.93,26.75H15.19a.07.07,0,0,0-.06.07v1.92a.06.06,0,0,0,.06.06h2.74a.07.07,0,0,0,.07-.06V26.82A.07.07,0,0,0,17.93,26.75Zm-.09,1.84a.06.06,0,0,1-.06.06H15.35a.06.06,0,0,1-.06-.06V27.3a.06.06,0,0,1,.06-.06h2.43a.06.06,0,0,1,.06.06Z" transform="translate(0 -0.01)" style="fill: #4d4d4d"/>
      <rect x="8.25" y="32.22" width="61.57" height="36.36" rx="1.43" ry="1.43" style="fill: #fff"/>
      <rect x="8.25" y="32.22" width="61.57" height="36.36" rx="1.43" ry="1.43" style="fill: #e8e7e7"/>
      <path d="M68.4,68.59h-23V32.23h23a1.43,1.43,0,0,1,1.42,1.43v33.5A1.43,1.43,0,0,1,68.4,68.59Z" transform="translate(0 -0.01)" style="fill: #3d3d3d"/>
    </g>
    <rect x="47.89" y="40.63" width="3.53" height="3.53" style="fill: #fff"/>
    <rect x="52.86" y="43.77" width="11.46" height="0.4" style="fill: #fff"/>
    <rect x="52.95" y="42.4" width="11.46" height="0.4" style="fill: #fff"/>
    <rect x="52.95" y="41.03" width="6.36" height="0.4" style="fill: #fff"/>
    <rect x="63.77" y="46.95" width="3.53" height="3.53" style="fill: #fff"/>
    <rect x="50.79" y="50.08" width="11.46" height="0.4" style="fill: #fff"/>
    <rect x="50.79" y="48.71" width="11.46" height="0.4" style="fill: #fff"/>
    <rect x="55.89" y="47.34" width="6.36" height="0.4" style="fill: #fff"/>
    <rect x="47.89" y="53.37" width="3.53" height="3.53" style="fill: #fff"/>
    <polyline points="52.95 56.91 52.95 56.51 64.4 56.51 64.4 56.91" style="fill: #fff"/>
    <polyline points="52.95 55.54 52.95 55.14 64.4 55.14 64.4 55.54" style="fill: #fff"/>
    <rect x="52.95" y="53.77" width="6.36" height="0.4" style="fill: #fff"/>
  </g>
  <polygon points="87.62 24.31 76.72 37.6 86.43 23.42 87.62 24.31" style="fill: #fff"/>
  <polygon points="81.71 7.27 77.7 23.98 80.26 6.99 81.71 7.27" style="fill: #fff"/>
  <polygon points="29.29 87.91 39.56 74.14 28.14 86.97 29.29 87.91" style="fill: #fff"/>
  <polygon points="11.79 84.76 27.26 77.28 11.2 83.4 11.79 84.76" style="fill: #fff"/>
  <g>
    <g>
      <path d="M15.67,65.43s.39.07,1.13.93a2.35,2.35,0,0,0,.86.59,9.87,9.87,0,0,0,1.83-.67s.13.6.6.74a6.82,6.82,0,0,1-2.67,1c-.44,0-2.11-1.14-2.11-1.14S15.3,65.26,15.67,65.43Z" transform="translate(0 -0.01)" style="fill: #2d375f"/>
      <path d="M17.43,67.07l0,0h0l0,0,0,0,0,0,.06,0s0,0,.06,0h-.2l-.06,0a1,1,0,0,0,.34,0h0l.47-.12h0l-.12,0-.27.08L17.6,67l-.12,0Z" transform="translate(0 -0.01)" style="fill: #171e3a"/>
    </g>
    <path d="M18.23,67.84h-.1l-.26.06-.18,0-.2,0h-.2l-.21-.06-.2-.09-.19-.1-.34-.18L16,67.34l.09.06.22.15.33.2.19.1.21.1.21.07h.23l.2,0,.18,0,.26-.07Z" transform="translate(0 -0.01)" style="fill: #171e3a"/>
    <g>
      <g>
        <path d="M20,66.61s1.43-.56,1.39-1-1.78.67-1.78.77S20,66.61,20,66.61Z" transform="translate(0 -0.01)" style="fill: #d2a076"/>
        <path d="M20,66.61l.15-.07.39-.18a3.73,3.73,0,0,0,.52-.31,1,1,0,0,0,.25-.22.24.24,0,0,0,.06-.15v0l0,0-.08,0a.45.45,0,0,0-.16,0l-.17,0-.31.14-.28.15-.26.14-.2.13-.16.1-.1.07,0,0h0l0,0,.09-.08.15-.11.21-.13.24-.15.29-.15.31-.14.17,0a.58.58,0,0,1,.19,0l.09,0,0,0s0,0,0,0v0a.36.36,0,0,1-.07.17,1.32,1.32,0,0,1-.26.22,3.29,3.29,0,0,1-.53.3l-.4.18-.15.06Z" transform="translate(0 -0.01)" style="fill: #856140"/>
      </g>
      <g>
        <path d="M19.68,66.35s1.11-1.06.93-1.41-1.39,1.3-1.36,1.39" transform="translate(0 -0.01)" style="fill: #d2a076"/>
        <path d="M19.68,66.35l.12-.12.29-.31a5.71,5.71,0,0,0,.36-.49,1.05,1.05,0,0,0,.15-.3.29.29,0,0,0,0-.16,0,0,0,0,0,0,0v0h0a.11.11,0,0,0-.08,0,.67.67,0,0,0-.14.09l-.13.12a2.83,2.83,0,0,0-.24.25l-.2.24-.18.22-.15.2-.1.15-.07.11a0,0,0,0,1,0,0h0s0,0,0,0l0-.11.1-.16.14-.2.17-.23a2.25,2.25,0,0,1,.21-.24,1.88,1.88,0,0,1,.24-.25L20.3,65a.83.83,0,0,1,.16-.09.17.17,0,0,1,.1,0l.05,0s0,0,0,0a0,0,0,0,1,0,0,.41.41,0,0,1,0,.19,1.27,1.27,0,0,1-.15.31,5.37,5.37,0,0,1-.38.48l-.3.31-.12.11Z" transform="translate(0 -0.01)" style="fill: #856140"/>
      </g>
      <g>
        <path d="M19.79,67.07s1.53.06,1.65-.31-1.9-.1-1.94,0S19.79,67.07,19.79,67.07Z" transform="translate(0 -0.01)" style="fill: #d2a076"/>
        <path d="M19.79,67.06h.59c.18,0,.38,0,.6-.07a1.73,1.73,0,0,0,.32-.11.32.32,0,0,0,.12-.11v0a.06.06,0,0,0,0,0,.09.09,0,0,0-.06,0,.49.49,0,0,0-.16-.05H21c-.11,0-.23,0-.34,0l-.32,0-.28,0-.24,0-.19,0-.11,0h0l0,0,.12,0,.18,0,.24,0,.29,0,.32,0h.52l.18,0a.16.16,0,0,1,.07.07,0,0,0,0,1,0,0v0s0,0,0,0a.33.33,0,0,1-.13.13A1.39,1.39,0,0,1,21,67a4.82,4.82,0,0,1-.61.06,3,3,0,0,1-.43,0h-.16Z" transform="translate(0 -0.01)" style="fill: #856140"/>
      </g>
      <g>
        <g>
          <path d="M19.48,66.54s-.06-1.09-.44-1.2-.06,1.43,0,1.47S19.48,66.54,19.48,66.54Z" transform="translate(0 -0.01)" style="fill: #d2a076"/>
          <path d="M19.48,66.54s0-.05,0-.13a2.86,2.86,0,0,0-.05-.32,2.3,2.3,0,0,0-.14-.45.67.67,0,0,0-.13-.21.24.24,0,0,0-.11-.06.06.06,0,0,0-.08,0,.24.24,0,0,0,0,.12.57.57,0,0,0,0,.13,2.26,2.26,0,0,0,0,.26c0,.08,0,.16,0,.24l0,.22q0,.1,0,.18a1.06,1.06,0,0,0,0,.14.46.46,0,0,0,0,.09v0h0l0,0,0-.09L19,66.57a1.8,1.8,0,0,0-.05-.19c0-.06,0-.14,0-.22a1.72,1.72,0,0,1,0-.24v-.27a.59.59,0,0,1,0-.14.44.44,0,0,1,.05-.15.18.18,0,0,1,.07,0h.09a.26.26,0,0,1,.13.08.44.44,0,0,1,.08.11.34.34,0,0,1,.06.12,1.74,1.74,0,0,1,.12.46c0,.14,0,.25,0,.33a.73.73,0,0,0,0,.13Z" transform="translate(0 -0.01)" style="fill: #856140"/>
        </g>
        <path d="M19.69,67.27s.94,0,.52-1c-.54-1.22-1.21.16-1.21.16S19,67.36,19.69,67.27Z" transform="translate(0 -0.01)" style="fill: #d2a076"/>
        <path d="M19.6,66.1l0,.12a.57.57,0,0,1,0,.12.78.78,0,0,1,0,.14s0,0,0,.07l0,.07a.1.1,0,0,1,0,0l0,0,0,0,0,0h0l0,0,0,0s0,0,0,0,0,0,0,0v0l0-.06,0,0,0-.06,0-.13s0,0,0-.06v0a.94.94,0,0,0,0-.12Z" transform="translate(0 -0.01)" style="fill: #856140"/>
        <path d="M20.31,66.78v-.1s0-.05,0-.07v0s0,0,0,0l0-.09,0-.09,0,0,0,0a.73.73,0,0,0-.05-.09l0-.09A.35.35,0,0,1,20,66L20,65.94l-.05,0,0,0,0,0,0,0,.05,0,.06,0,.05.06.06.08a.26.26,0,0,1,.05.09.41.41,0,0,1,.05.09l0,.05,0,0,0,.1,0,.09s0,0,0,0v.22Z" transform="translate(0 -0.01)" style="fill: #856140"/>
      </g>
    </g>
    <g>
      <path d="M12.45,68.53v.06H15.3A8.71,8.71,0,0,1,16,65.46c0-.57-2.64-1.9-3.85-1C11.5,65,12.75,66.89,12.45,68.53Z" transform="translate(0 -0.01)" style="fill: #fffffb"/>
      <path d="M13.79,68.59h.93a11.52,11.52,0,0,0,0-3.64l-.47-.1A14,14,0,0,1,13.79,68.59Z" transform="translate(0 -0.01)" style="fill: #d7272a"/>
      <path d="M14.18,65a1,1,0,0,0,.11.38.4.4,0,0,0,.46.06.63.63,0,0,0,.16-.39C14.91,64.89,14.15,64.8,14.18,65Z" transform="translate(0 -0.01)" style="fill: #b92227"/>
      <path d="M12,68.59h3.39a1.38,1.38,0,0,1,.44-1c.37-.41.17-1.24,0-1.6.08-.33.14-.53.14-.53,0-.16-.24-.37-.57-.59a3,3,0,0,1,.09.76c-.33,0-.38.09-.38.09s.24.65.24.7-1,1.76-1,1.76A3.39,3.39,0,0,0,13,65.69c-.1-.08.32-.49.32-.49s-.44-.28-.46-.34a1.2,1.2,0,0,1,.54-.68,1.9,1.9,0,0,0-1.25.32c-.35.28-.29.85-.54,1.6,0,0,.19,1.09.39,2A1.29,1.29,0,0,1,12,68.59Z" transform="translate(0 -0.01)" style="fill: #2d375f"/>
      <g>
        <path d="M10.6,68.59a6.43,6.43,0,0,1,2-2.6L13,64s-2.18.63-3.57,4.59Z" transform="translate(0 -0.01)" style="fill: #2d375f"/>
        <path d="M10.6,68.59c0-.08.1-.2.18-.34l.25-.43.15-.25.16-.24.17-.23.18-.23c.06-.07.11-.14.17-.2A1.29,1.29,0,0,1,12,66.5l.07-.08.07-.06.11-.11.1-.09h0l-.12.07-.12.09-.16.13-.17.17-.18.2c0,.08-.11.15-.17.23s-.11.16-.16.25l-.16.25c0,.08-.09.16-.14.24s-.17.32-.23.45-.13.27-.17.35Z" transform="translate(0 -0.01)" style="fill: #171e3a"/>
        <path d="M11.67,66.85h0l.06,0,.08,0,.1,0,.1,0,.09,0,.08,0-.09,0-.09,0h0l-.05,0-.1,0-.08.05Z" transform="translate(0 -0.01)" style="fill: #171e3a"/>
      </g>
      <path d="M13.68,64.21a21.85,21.85,0,0,1,.69,4A4.23,4.23,0,0,0,13,65.66c0-.13.35-.38.35-.38s-.49-.3-.5-.36.26-.71.46-.74A.88.88,0,0,1,13.68,64.21Z" transform="translate(0 -0.01)" style="fill: #171e3a"/>
      <g>
        <path d="M15.44,64.86s.16.77.09.76c-.32,0-.38.09-.38.09s.33.56.33.6c.06.5-1.11,1.85-1.11,1.85a5.07,5.07,0,0,0,.49-3.39C14.84,64.71,15.36,64.77,15.44,64.86Z" transform="translate(0 -0.01)" style="fill: #45528c"/>
        <path d="M13.38,64.24a5.63,5.63,0,0,1,1,3.92A3.78,3.78,0,0,0,13,65.61c-.1-.09.3-.41.3-.41s-.45-.28-.46-.34.25-.66.44-.68S13.38,64.24,13.38,64.24Z" transform="translate(0 -0.01)" style="fill: #45528c"/>
      </g>
      <path d="M15.42,68.59h0a1,1,0,0,1,0-.3,1.78,1.78,0,0,1,.12-.29,1.51,1.51,0,0,1,.18-.26l.11-.13.06-.08,0-.08a1,1,0,0,0,.09-.32c0-.11,0-.22,0-.32a1.93,1.93,0,0,0,0-.27,2.87,2.87,0,0,0-.1-.4l0-.11,0,0,0,.15q0,.08,0,.18c0,.07,0,.14,0,.23a2.13,2.13,0,0,1,0,.27c0,.09,0,.19,0,.29a1.71,1.71,0,0,1-.09.3l0,.07-.05.06-.11.13a1.73,1.73,0,0,0-.19.28,1,1,0,0,0-.12.32,1.12,1.12,0,0,0,0,.31v0Z" transform="translate(0 -0.01)" style="fill: #171e3a"/>
      <path d="M14.2,68.59h.08a.2.2,0,0,0,.06-.12c0-.08,0-.15-.07-.15s-.1.05-.11.13A.2.2,0,0,0,14.2,68.59Z" transform="translate(0 -0.01)" style="fill: #fbe500"/>
    </g>
    <g>
      <path d="M10.21,57.2c1.34-3.07,3.62-1.43,3.62-1.43l-2,1.78a8.59,8.59,0,0,1-1.12,4.86,2.49,2.49,0,0,0-.15.94,1.65,1.65,0,0,1-.1-.51,7,7,0,0,1-.62.85C10.56,62,8.86,60.27,10.21,57.2Z" transform="translate(0 -0.01)" style="fill: #1e1e1d"/>
      <path d="M11.85,57.71v0a.41.41,0,0,0,0,.11v1a.28.28,0,0,1,0,.09V59s0,.09,0,.13v.44l0,.08v.19l0,.08V60l0,.09v0l0,.1v0a9.68,9.68,0,0,1-.5,1.44s0,0,0,0-.08-.07-.12,0l0-.05a5.72,5.72,0,0,1-.22-3.21c.3-1.24.83-1.38.94-2a2.06,2.06,0,0,1,.3-.89,1.9,1.9,0,0,1,.85,0,3.41,3.41,0,0,1,1,.4l-2,1.78C11.84,57.6,11.85,57.65,11.85,57.71Z" transform="translate(0 -0.01)" style="fill: #282928"/>
      <path d="M11.78,56.56c0,.63.32.86,1.2.86s1.61-.51,1.62-1.13-.68-1.14-1.56-1.14A1.31,1.31,0,0,0,11.78,56.56Z" transform="translate(0 -0.01)" style="fill: #2d375f"/>
      <path d="M13,57.42c-.88,0-1.22-.23-1.2-.86v-.05A3.07,3.07,0,0,1,13,55.74a3.6,3.6,0,0,1,1.22-.21.93.93,0,0,1,.38.76C14.59,56.91,13.86,57.42,13,57.42Z" transform="translate(0 -0.01)" style="fill: #171e3a"/>
      <path d="M19.4,59.71s-.84-3.19-3.46-3.89a4.53,4.53,0,0,0-2.84,0c-1.63.58-2.46,2.16-2.42,4.2a6.91,6.91,0,0,0,.77,3Z" transform="translate(0 -0.01)" style="fill: #30302f"/>
      <path d="M18.38,57.64a4.47,4.47,0,0,0-2.45-1.19,4,4,0,0,1,2.63,1.1,4.75,4.75,0,0,1,.14,6.59h0A4.87,4.87,0,0,0,18.38,57.64Z" transform="translate(0 -0.01)" style="fill: #282928"/>
      <path d="M15.23,56.41c1.2,0,.54,1.13.54,1.13a1.46,1.46,0,0,1-.9,1.09c-1.64.45-2.33.82-3,1.94A9.66,9.66,0,0,0,11.45,63a6,6,0,0,1-.32-.73,5.47,5.47,0,0,1,.17-3.42A3.94,3.94,0,0,1,15.23,56.41Z" transform="translate(0 -0.01)" style="fill: #282928"/>
      <path d="M11.7,63.83a1.62,1.62,0,0,1,1-1.25l-1.49-1.25a24.78,24.78,0,0,0,.46,2.5" transform="translate(0 -0.01)" style="fill: #282928"/>
      <path d="M19.45,61.66a5.14,5.14,0,0,1-.91,2.68,4.12,4.12,0,0,0-1.57-4l1.79-.43Z" transform="translate(0 -0.01)" style="fill: #282928"/>
      <path d="M18.92,59.83a6.58,6.58,0,0,0-4.93-2c-3.4,0-2.62,4.28-2,5.65a4.83,4.83,0,0,0,4.18,2.14,2.15,2.15,0,0,0,1.7-1.44,14.22,14.22,0,0,0,.58-2.81A4.1,4.1,0,0,1,18.92,59.83Z" transform="translate(0 -0.01)" style="fill: #d2a076"/>
      <path d="M15.11,57.42a2.29,2.29,0,0,1-.61,1.63c-1.45,1.11-2,.65-2.65,1.77a5.46,5.46,0,0,0-.15,3s-1.08-2.73-.3-4.8a3.91,3.91,0,0,1,3.83-2.62C16.43,56.38,15.11,57.42,15.11,57.42Z" transform="translate(0 -0.01)" style="fill: #30302f"/>
      <path d="M15.11,57.42a3,3,0,0,1-.2,1.07,1.8,1.8,0,0,1-.25-.78s.39-1,.47-1.27t.09,0h0C16.43,56.38,15.11,57.42,15.11,57.42Z" transform="translate(0 -0.01)" style="fill: #282928"/>
      <path d="M18.54,64.34s1.4-2.14-.11-3.81c-1.14-1.27-3.31-1.2-3.77-2.82,0,0,.39-1,.47-1.27a4.22,4.22,0,0,1,3.25,1.2A4.89,4.89,0,0,1,18.54,64.34Z" transform="translate(0 -0.01)" style="fill: #30302f"/>
      <path d="M15.77,63.9s-2-.13-2.53-1c0,0-.53,1.35,1.25,1.74A2,2,0,0,1,15.77,63.9Z" transform="translate(0 -0.01)" style="fill: #732a2b"/>
      <path d="M14.43,64.62l0,0-.09,0h0c-.94-.28-1.1-.87-1.09-1.27a4,4,0,0,1,.5.24A1.39,1.39,0,0,1,14.43,64.62Z" transform="translate(0 -0.01)" style="fill: #bb4546"/>
      <path d="M12,61.09A3.13,3.13,0,0,0,11,60c-.82-.47,0,2,.37,2.31s.42-.21.42-.21Z" transform="translate(0 -0.01)" style="fill: #d2a076"/>
      <g>
        <path d="M13.67,60.93a1.1,1.1,0,0,0,1.11,1.19,1.1,1.1,0,0,0,1.33-.92,1.23,1.23,0,0,0-2.44-.27Z" transform="translate(0 -0.01)" style="fill: #fff"/>
        <path d="M15.49,60l-.07,0,0,0-.05,0-.05,0-.06,0-.07,0h-.5l-.09,0-.09,0-.09,0-.08,0-.08,0-.07,0-.06.06-.06,0,0,0a.1.1,0,0,1,0,.05l0,0a.41.41,0,0,0-.05.09l0,.07h0l.06-.06.06-.06.09-.08.11-.08.06,0,.07,0,.07,0,.07,0,.08,0,.07,0,.09,0h.47l.06,0h.07l.05,0h.05l0,0,.08,0Z" transform="translate(0 -0.01)" style="fill: #1b1c1c"/>
        <path d="M17.7,60.53h0l.05,0h.35l.07,0a.65.65,0,0,1,.23.15l.09.1a.75.75,0,0,1,.07.12,2.39,2.39,0,0,1,.13.21l0,.09,0,.07,0,0v0h0a.15.15,0,0,0,0-.06.82.82,0,0,0,0-.18s0-.08,0-.12a.75.75,0,0,0-.07-.12l-.09-.12-.12-.11a.78.78,0,0,0-.27-.14h-.37l-.08,0,0,0h0Z" transform="translate(0 -0.01)" style="fill: #1b1c1c"/>
        <path d="M18.16,60.48s.55.21.78,0a.42.42,0,0,1-.31.19.68.68,0,0,0,.37.08.27.27,0,0,1-.22.07.51.51,0,0,0,.18.06.24.24,0,0,1-.25,0S18.46,60.48,18.16,60.48Z" transform="translate(0 -0.01)" style="fill: #1b1c1c"/>
        <path d="M16.93,61.44a.92.92,0,0,0,.82,1.13c.59.06,1.06-.07,1.13-.66s-.25-1.36-.85-1.43A1,1,0,0,0,16.93,61.44Z" transform="translate(0 -0.01)" style="fill: #fff"/>
        <path d="M13.68,61.28l0,.08,0,.1s0,.07.06.11l0,0,0,0,0,.06.12.13.15.11a.56.56,0,0,0,.17.09l.17.07.09,0,.09,0h.51l.05,0,.08,0h-.62l-.09,0-.08,0L14.33,62l-.16-.08-.14-.1-.12-.12-.05-.05,0,0,0,0-.07-.11a.46.46,0,0,0,0-.09l0-.09Z" transform="translate(0 -0.01)" style="fill: #856140"/>
        <path d="M16.93,61.81v.07A.31.31,0,0,0,17,62a.47.47,0,0,0,0,.09l0,.05,0,.06.07.11,0,.06a.12.12,0,0,1,.05.05l.06,0,.06,0,.07,0,0,0h0l0,0h0l.07,0h.35l-.09,0h-.24l-.06,0h-.13l-.06,0-.06,0a.1.1,0,0,1-.05,0l-.05,0-.05,0-.08-.1,0,0L17,62A.36.36,0,0,1,17,62a.25.25,0,0,1,0-.07l0-.07Z" transform="translate(0 -0.01)" style="fill: #856140"/>
        <path d="M14.33,61a.38.38,0,0,0,.28.46c.19,0,.36-.15.39-.39a.41.41,0,0,0-.29-.47A.39.39,0,0,0,14.33,61Z" transform="translate(0 -0.01)" style="fill: #30302f"/>
        <path d="M17.26,61.46c0,.23.07.44.23.46s.3-.16.33-.4-.08-.45-.24-.46S17.28,61.22,17.26,61.46Z" transform="translate(0 -0.01)" style="fill: #30302f"/>
        <path d="M14.14,61.08s.07.09.17.1.19,0,.2-.06-.08-.09-.18-.1S14.14,61,14.14,61.08Z" transform="translate(0 -0.01)" style="fill: #fff"/>
        <path d="M17.06,61.52s.08.09.18.1.19,0,.19-.06-.07-.09-.17-.1S17.07,61.47,17.06,61.52Z" transform="translate(0 -0.01)" style="fill: #fff"/>
        <path d="M14.93,59.84s-.75.06-1-.17a.52.52,0,0,0,.34.26,1,1,0,0,1-.48,0,.39.39,0,0,0,.26.13,1.07,1.07,0,0,1-.25,0,.41.41,0,0,0,.29.07A1.22,1.22,0,0,1,14.93,59.84Z" transform="translate(0 -0.01)" style="fill: #1b1c1c"/>
      </g>
      <path d="M16.5,61.54s.08.13.2.3l.2.3.09.17a1,1,0,0,1,.05.16.25.25,0,0,1-.05.21s0,0,0,.06a.81.81,0,0,1-.28.17,2,2,0,0,1-.34.11.82.82,0,0,0,.38,0,.71.71,0,0,0,.38-.14l.09-.09.05-.06,0,0a.43.43,0,0,0,0-.29.79.79,0,0,0-.09-.23,1.22,1.22,0,0,0-.12-.19,2.28,2.28,0,0,0-.27-.27A1.44,1.44,0,0,0,16.5,61.54Z" transform="translate(0 -0.01)" style="fill: #856140"/>
      <path d="M13.68,63.31a4.27,4.27,0,0,0,1.44.5,1.12,1.12,0,0,1-.47.18A1,1,0,0,1,13.68,63.31Z" transform="translate(0 -0.01)" style="fill: #fff"/>
    </g>
  </g>
  <text transform="translate(10.34 39.57)" style="font-size: 6.480048179626465px;fill: #ee3f41;font-family: OpenSans-Bold, Open Sans;font-weight: 700">LIVE</text>
  <path d="M27.53,37.17a1.33,1.33,0,1,1-1.33-1.33A1.32,1.32,0,0,1,27.53,37.17Z" transform="translate(0 -0.01)" style="fill: #ee3f41"/>
  <path d="M24.9,45.91v9.85a1,1,0,0,0,1.63.67l4.93-4.92a1,1,0,0,0,0-1.35l-4.93-4.93A1,1,0,0,0,24.9,45.91Z" transform="translate(0 -0.01)" style="fill: #ee3f41"/>
</svg>
