<?xml version="1.0" standalone="no"?>
<svg version="1.1" preserveAspectRatio="xMidYMid meet" viewBox="0 0 128 128" class="ng-element" data-id="79ba825f4cb24fc7acb5d03f0c397cf3" style="mix-blend-mode: normal; overflow: visible; width: 150px; height: 150px; filter: none;" xmlns="http://www.w3.org/2000/svg"><title>sign-up-streamer</title><path d="M4.47,88.07C1,84.56-.86,77.76.42,73l13-48.48A17.36,17.36,0,0,1,24.45,13.42L72.92.41C77.72-.87,84.52,1,88,4.46l35.5,35.47c3.51,3.51,5.33,10.31,4,15.11l-13,48.48a17.36,17.36,0,0,1-11.06,11.06l-48.47,13c-4.8,1.28-11.6-.54-15.11-4Z" transform="translate(0 0)" style="fill: #e5f9f1" vector-effect="non-scaling-stroke"/><g>
    <path d="M70.74,72.91H4a4,4,0,0,1-4-4v-47a4,4,0,0,1,1.14-3,6.2,6.2,0,0,1,4.16-2H72.08a4,4,0,0,1,4,4V67.92c0,1.88-1.91,3.91-3.7,4.65a3.83,3.83,0,0,1-1.28.32ZM5.31,19.41A3.79,3.79,0,0,0,3,20.59a1.48,1.48,0,0,0-.48,1.14V68.94A1.43,1.43,0,0,0,4,70.37H70.85a1.26,1.26,0,0,0,.47-.12l0,0a3.69,3.69,0,0,0,2.14-2.3V20.83a1.43,1.43,0,0,0-1.42-1.42Z" transform="translate(0 0)" style="fill: #fff" vector-effect="non-scaling-stroke"/>
    <g>
      <path d="M74.77,67.92c0,1.49-2.2,3.72-4,3.72l-65.43-1a2.69,2.69,0,0,1-2.69-2.7L1.28,21.85c-.2-2.11,2.54-3.71,4-3.71H72.08a2.69,2.69,0,0,1,2.69,2.69Z" transform="translate(0 0)" style="fill: #9d9998" vector-effect="non-scaling-stroke"/>
      <rect x="1.28" y="19.16" width="72.15" height="52.47" rx="2.69" ry="2.69" style="fill: #c6c4c3" vector-effect="non-scaling-stroke"/>
      <rect x="4" y="21.48" width="66.99" height="47.97" rx="2.49" ry="2.49" style="fill: #9d9998" vector-effect="non-scaling-stroke"/>
      <rect x="5.3" y="21.48" width="65.69" height="47.3" rx="2.46" ry="2.46" style="fill: #fff" vector-effect="non-scaling-stroke"/>
    </g>
    <rect x="115.42" y="81.67" width="12.58" height="2.98" style="fill: #fff" vector-effect="non-scaling-stroke"/>
    <polygon points="128 84.65 118.02 84.65 118.02 106.59 128 110.39 128 84.65" style="fill: #fff" vector-effect="non-scaling-stroke"/>
    <path d="M118.47,82.82c0,.19-.22.34-.5.34h0c-.28,0-.5-.15-.5-.34V69.08c0-.18.22-.34.5-.34h0c.28,0,.5.16.5.34Z" transform="translate(0 0)" style="fill: #fff" vector-effect="non-scaling-stroke"/>
    <path d="M120.3,72.47a.33.33,0,0,0-.25.11,3.3,3.3,0,0,0-1,0,.33.33,0,0,0-.25-.11.34.34,0,0,0-.34.34v9.54a.34.34,0,0,0,.34.34.36.36,0,0,0,.26-.12h1a.33.33,0,0,0,.25.12.34.34,0,0,0,.34-.34V72.81A.34.34,0,0,0,120.3,72.47Z" transform="translate(0 0)" style="fill: #fff" vector-effect="non-scaling-stroke"/>
    <path d="M122.53,72.47a.33.33,0,0,0-.25.11,3.3,3.3,0,0,0-1,0,.33.33,0,0,0-.25-.11.34.34,0,0,0-.34.34v9.54a.34.34,0,0,0,.34.34.36.36,0,0,0,.26-.12h1a.33.33,0,0,0,.25.12.34.34,0,0,0,.34-.34V72.81A.34.34,0,0,0,122.53,72.47Z" transform="translate(0 0)" style="fill: #fff" vector-effect="non-scaling-stroke"/>
    <path d="M124.75,72.39a.34.34,0,0,0-.25.13,3.08,3.08,0,0,0-1,0,.29.29,0,0,0-.25-.1.33.33,0,0,0-.33.35l.4,9.53a.33.33,0,0,0,.35.33.34.34,0,0,0,.25-.13l1,0a.35.35,0,0,0,.26.11.34.34,0,0,0,.32-.36l-.39-9.53A.34.34,0,0,0,124.75,72.39Z" transform="translate(0 0)" style="fill: #fff" vector-effect="non-scaling-stroke"/>
    <g>
      <path d="M117.47,94.14a.81.81,0,0,1-.81.81H107.6a.81.81,0,0,1-.81-.81h0a.8.8,0,0,1,.81-.8h9.06a.81.81,0,0,1,.81.8Z" transform="translate(0 0)" style="fill: #fff" vector-effect="non-scaling-stroke"/>
      <polygon points="115.73 104.11 108.58 104.11 107.6 94.95 116.71 94.95 115.73 104.11" style="fill: #fff" vector-effect="non-scaling-stroke"/>
    </g>
  </g><g>
    <rect x="6.46" y="22.89" width="62.88" height="44.08" rx="1.35" ry="1.35" style="fill: #f1f1f6" vector-effect="non-scaling-stroke"/>
    <rect x="8.19" y="28.85" width="59.42" height="36.6" style="fill: #1c597c" vector-effect="non-scaling-stroke"/>
    <rect x="11.2" y="31.05" width="12.9" height="1.69" style="fill: #f4515e" vector-effect="non-scaling-stroke"/>
    <rect x="20.73" y="44.46" width="23.53" height="1.69" style="fill: #f4515e" vector-effect="non-scaling-stroke"/>
    <rect x="45.95" y="44.46" width="6.07" height="1.69" style="fill: #f4515e" vector-effect="non-scaling-stroke"/>
    <rect x="11.31" y="33.75" width="6.45" height="1.69" style="fill: #2574a9" vector-effect="non-scaling-stroke"/>
    <rect x="14.24" y="36.36" width="6.45" height="1.69" style="fill: #2574a9" vector-effect="non-scaling-stroke"/>
    <rect x="17.33" y="38.98" width="6.45" height="1.69" style="fill: #2574a9" vector-effect="non-scaling-stroke"/>
    <rect x="17.33" y="41.67" width="6.45" height="1.69" style="fill: #2574a9" vector-effect="non-scaling-stroke"/>
    <rect x="45.67" y="41.67" width="10.67" height="1.69" style="fill: #14a797" vector-effect="non-scaling-stroke"/>
    <rect x="17.33" y="47.33" width="6.45" height="1.69" style="fill: #2574a9" vector-effect="non-scaling-stroke"/>
    <rect x="17.33" y="52.89" width="6.45" height="1.69" style="fill: #2574a9" vector-effect="non-scaling-stroke"/>
    <rect x="26.15" y="52.89" width="6.45" height="1.69" style="fill: #fff" vector-effect="non-scaling-stroke"/>
    <rect x="26.49" y="38.98" width="6.45" height="1.69" style="fill: #fff" vector-effect="non-scaling-stroke"/>
    <rect x="46.07" y="38.98" width="6.45" height="1.69" style="fill: #d0d4d7" vector-effect="non-scaling-stroke"/>
    <rect x="26.49" y="41.67" width="17.67" height="1.69" style="fill: #fff" vector-effect="non-scaling-stroke"/>
    <rect x="21.51" y="61.24" width="3.67" height="1.69" style="fill: #fff" vector-effect="non-scaling-stroke"/>
    <rect x="49.85" y="52.89" width="6.45" height="1.69" style="fill: #fff" vector-effect="non-scaling-stroke"/>
    <rect x="11.31" y="55.76" width="6.45" height="1.68" style="fill: #2574a9" vector-effect="non-scaling-stroke"/>
    <rect x="11.31" y="58.54" width="6.45" height="1.69" style="fill: #2574a9" vector-effect="non-scaling-stroke"/>
    <rect x="14.55" y="61.24" width="4.6" height="1.69" style="fill: #2574a9" vector-effect="non-scaling-stroke"/>
    <rect x="19.63" y="33.75" width="12.86" height="1.69" style="fill: #ca9729" vector-effect="non-scaling-stroke"/>
    <rect x="35.07" y="38.98" width="8.98" height="1.69" style="fill: #ca9729" vector-effect="non-scaling-stroke"/>
    <rect x="27.54" y="61.24" width="5.1" height="1.69" style="fill: #ca9729" vector-effect="non-scaling-stroke"/>
    <rect x="34.96" y="52.89" width="12.86" height="1.69" style="fill: #ca9729" vector-effect="non-scaling-stroke"/>
    <rect x="20.45" y="50.02" width="35.87" height="1.69" style="fill: #ca9729" vector-effect="non-scaling-stroke"/>
    <path d="M10.38,25.82a1.1,1.1,0,1,1-1.1-1.1A1.09,1.09,0,0,1,10.38,25.82Z" transform="translate(0 0)" style="fill: #f4515e" vector-effect="non-scaling-stroke"/>
    <path d="M13.41,25.82a1.1,1.1,0,1,1-1.09-1.1A1.09,1.09,0,0,1,13.41,25.82Z" transform="translate(0 0)" style="fill: #2574a9" vector-effect="non-scaling-stroke"/>
    <path d="M16.45,25.82a1.1,1.1,0,1,1-1.1-1.1A1.09,1.09,0,0,1,16.45,25.82Z" transform="translate(0 0)" style="fill: #ca9729" vector-effect="non-scaling-stroke"/>
  </g><g>
    <rect x="38.72" y="66.54" width="37.48" height="30.11" rx="0.92" ry="0.92" style="fill: #f1f1f6" vector-effect="non-scaling-stroke"/>
    <rect x="39.9" y="70.61" width="35.12" height="25" style="fill: #2574a9" vector-effect="non-scaling-stroke"/>
    <path d="M41.4,68.64a.75.75,0,1,1-.75-.75A.75.75,0,0,1,41.4,68.64Z" transform="translate(0 0)" style="fill: #f4515e" vector-effect="non-scaling-stroke"/>
    <path d="M43.47,68.64a.75.75,0,1,1-.75-.75A.75.75,0,0,1,43.47,68.64Z" transform="translate(0 0)" style="fill: #2574a9" vector-effect="non-scaling-stroke"/>
    <path d="M45.54,68.64a.75.75,0,1,1-.75-.75A.74.74,0,0,1,45.54,68.64Z" transform="translate(0 0)" style="fill: #ca9729" vector-effect="non-scaling-stroke"/>
    <g>
      <polygon points="57.27 78.11 57.27 73.13 56.66 73.13 56.66 78.11 51.28 78.11 51.28 82.41 51.89 82.41 51.89 78.71 62.49 78.71 62.49 82.41 63.1 82.41 63.1 78.11 57.27 78.11" style="fill: #fff" vector-effect="non-scaling-stroke"/>
      <polygon points="63.18 85.97 63.18 81 62.55 81 62.55 85.97 56.65 85.97 56.65 90.27 57.28 90.27 57.28 86.58 67.87 86.58 67.87 90.27 68.49 90.27 68.49 85.97 63.18 85.97" style="fill: #fff" vector-effect="non-scaling-stroke"/>
      <polygon points="51.9 85.97 51.9 81 51.3 81 51.3 85.97 45.45 85.97 45.45 90.27 46.06 90.27 46.06 86.58 51.9 86.58 51.9 85.97" style="fill: #fff" vector-effect="non-scaling-stroke"/>
      <rect x="53.34" y="72.52" width="6.93" height="4.43" style="fill: #92b25d" vector-effect="non-scaling-stroke"/>
      <rect x="59.23" y="80.19" width="6.93" height="4.43" style="fill: #fff" vector-effect="non-scaling-stroke"/>
      <rect x="47.9" y="80.19" width="6.93" height="4.43" style="fill: #fff" vector-effect="non-scaling-stroke"/>
      <rect x="42.18" y="88.08" width="6.93" height="4.43" style="fill: #fff" vector-effect="non-scaling-stroke"/>
      <rect x="53.25" y="88.08" width="6.93" height="4.43" style="fill: #fff" vector-effect="non-scaling-stroke"/>
      <rect x="64.32" y="88.08" width="6.93" height="4.43" style="fill: #fff" vector-effect="non-scaling-stroke"/>
      <rect x="56.31" y="77.74" width="1.32" height="1.32" style="fill: #fff" vector-effect="non-scaling-stroke"/>
      <rect x="62.23" y="85.68" width="1.32" height="1.32" style="fill: #fff" vector-effect="non-scaling-stroke"/>
    </g>
  </g><path d="M99.26,111.13A4.84,4.84,0,0,1,96,110a1.76,1.76,0,0,1-.54-1.29c0-1.38,1.26-2,2.34-2.63l.63-.36a4.34,4.34,0,0,0,1.09-.87c-.66-3.15-1.91-9.2-2-10.09a18.37,18.37,0,0,1-.06-2.12h-.88l0,0-.08.1-.39.52c-.18.23-.36.46-.53.7s-.31.42-.45.63l-.18.27v0l0,.09v0a1.12,1.12,0,0,0,0,.22l.14.83c0,.19.07.4.1.6l0,.25s0,0,0,.07v.1c0,.12,0,.25,0,.4v.17c0,.1,0,.22,0,.36,0,.6-.08,1.18-.14,1.76l-.18,1.54c-.06.52-.1.94-.12,1.3s0,.75,0,1.09v.18c0,.09,0,.17,0,.26l0,.4v.06a2.09,2.09,0,0,1,.24.47,13.78,13.78,0,0,1,.37,2.93,1.16,1.16,0,0,1-.22.72,2.55,2.55,0,0,1-1.87,1.17,1.69,1.69,0,0,1-.5-.08l0,0c-.17.08-.46.25-.94.54a5,5,0,0,1-2.56.66A4.74,4.74,0,0,1,86,109.9a1.74,1.74,0,0,1-.53-1.27c0-1.37,1.24-2,2.3-2.6l.62-.35a4.28,4.28,0,0,0,1.13-.94c-.39-2.51-1.2-8.35-.73-11.39.1-.62.26-1.41.48-2.35,0-.23.33-1.73.8-3.68s.83-3.15,1-3.59c0,0,0-.07,0-.11a.33.33,0,0,0,0-.1,8.53,8.53,0,0,1,.47-1.18,27.63,27.63,0,0,0,1.1-3.87c.11-.49.23-1,.39-1.67,0-.08,0-.23.07-.45l.08-.53c0-.19,0-.42.07-.66s0-.45,0-.72v-.09a2.58,2.58,0,0,1-.87.58,20.39,20.39,0,0,1-6.17,1.16A2.19,2.19,0,0,1,85.54,79l-.38.21a1.73,1.73,0,0,1-.87.22,2.33,2.33,0,0,1-1.8-.93h-.12a3.73,3.73,0,0,1-3.13-2.42,4.48,4.48,0,0,1-.39-2.67,4,4,0,0,1,.28-1.23l-.26-.5a2.07,2.07,0,0,1-.27-1L67.71,50.31a1.9,1.9,0,0,1-.87-.81l-1.23-2.23a1.88,1.88,0,0,1-.17-1.45,1.93,1.93,0,0,1,.91-1.13,1.89,1.89,0,0,1,.92-.24,1.92,1.92,0,0,1,1.67,1l1.23,2.23a1.93,1.93,0,0,1,.22,1.17L81.84,69a2.37,2.37,0,0,1,.59.63,3.29,3.29,0,0,1,.6.21,4.69,4.69,0,0,1,.44.26l.09.06.41.24.37.21a2.29,2.29,0,0,1,.48.35,29.72,29.72,0,0,0,4.48-.56,5.35,5.35,0,0,0,1-1.92A17.81,17.81,0,0,1,91,66.05a7.84,7.84,0,0,1-5.41-4.74,1.19,1.19,0,0,1-2,.33L83.09,61c-5.92-6.9-5.71-16.22.51-22.66a11.29,11.29,0,0,1,2.24-1.79,14.36,14.36,0,0,1,6.66-4,18.69,18.69,0,0,1,5.06-.71,7.18,7.18,0,0,1,4.54-1.49,5,5,0,0,1,2.46.62c2.32.18,5.42,1.53,7.66,6.64,2.64,6,1.82,10.56,1.16,14.22-.46,2.53-.82,4.54,0,6.45a1.22,1.22,0,0,1,.12.54A1.17,1.17,0,0,1,112.29,60a1.13,1.13,0,0,1-.89-.39,9.4,9.4,0,0,1-.75-.91,1.16,1.16,0,0,1-.82.19,1.18,1.18,0,0,1-1-1.09l0-.47a9.71,9.71,0,0,0-.09-1c-.12.27-.24.51-.35.71a25.7,25.7,0,0,1-.8,2.54,1.5,1.5,0,0,1-.07.2,1.19,1.19,0,0,1-1.26.7,1.18,1.18,0,0,1-.66-.32,1.47,1.47,0,0,0-.1.13,13.25,13.25,0,0,1,2.86,2.6,5.72,5.72,0,0,0,1.74,1.27,30.61,30.61,0,0,0,3.37-1.16,2,2,0,0,1-.16-.49,2.37,2.37,0,0,1-.05-.75,2.15,2.15,0,0,1,.24-.85,1.94,1.94,0,0,1,.68-.74l.05,0a1.56,1.56,0,0,1,.26-.13l.08,0a1.9,1.9,0,0,1,.36-.09h.52l.17,0c.75-1,1.79-2.1,2.82-2.1a1.55,1.55,0,0,1,1.36.79,2.44,2.44,0,0,1-.25,2.5,3.28,3.28,0,0,1,1.18,2.6A3.64,3.64,0,0,1,119,66.23a2.91,2.91,0,0,1-1.67.56,22.1,22.1,0,0,1-5.3,2.27h0l-.29.09h0l-.2.06-.56.16c-.16.05-.31.07-.44.1l-.16,0h0l-.75.14h0l-.16,0h-.13l-.36,0a1.92,1.92,0,0,1-.32,0,5.79,5.79,0,0,1-.8-.26h0l-.3-.13c-.24,1.2-.52,2.62-.8,3.94s.44,2.76,1.17,4.44a21.85,21.85,0,0,1,1.45,4,8.82,8.82,0,0,1,.17,2,2.34,2.34,0,0,1-.09.38c0,.23-.08.47-.14.73l0,.11a.66.66,0,0,1,0,.15v0l0,.11v0a21.56,21.56,0,0,1-2.94,6.23c0,.07-.11.13-.16.19l-.2.3v0c-.06.09-.12.18-.17.27s-.27.42-.43.65l0,.06c-.17.24-.33.47-.45.68a2.61,2.61,0,0,0-.25.67,4.31,4.31,0,0,0,0,1.65c0,.14.06.29.09.45s.08.38.11.58c.05.36.1.74.12,1.13a17.21,17.21,0,0,1,0,2.09c0,.22,0,.43-.05.64,0,.37-.06.73-.07,1.06a11.92,11.92,0,0,0,0,1.33c0,.33.06.66.11,1,0,.09,0,.18,0,.26a1.68,1.68,0,0,1,.42.68,13.88,13.88,0,0,1,.38,3,1.16,1.16,0,0,1-.22.72A2.55,2.55,0,0,1,103.4,110a1.69,1.69,0,0,1-.5-.08l-.06,0c-.18.09-.47.25-1,.56A5.08,5.08,0,0,1,99.26,111.13Zm-1.11-2.54a3.65,3.65,0,0,0,1.11.17,2.72,2.72,0,0,0,1.38-.34c1.24-.74,1.71-1,2.23-1l.24,0a11.12,11.12,0,0,0-.19-1.42,1.18,1.18,0,0,1-.4-.62v0c-.06-.27-.12-.53-.17-.8a12.41,12.41,0,0,1-.15-1.26c0-.48,0-1,0-1.59,0-.36,0-.73.08-1.12,0-.2,0-.41,0-.62a12.75,12.75,0,0,0,0-1.79,8.85,8.85,0,0,0-.1-.9c0-.15,0-.3-.08-.46s-.08-.37-.11-.57a6.45,6.45,0,0,1,0-2.53,4.67,4.67,0,0,1,.48-1.27,8.44,8.44,0,0,1,.6-.94l0-.06.36-.54.18-.29.34-.53a1.09,1.09,0,0,1,.22-.26,19,19,0,0,0,2.44-5.25l.08-.36c.06-.26.1-.48.13-.7v-.09a1.14,1.14,0,0,1,0-.33,7.11,7.11,0,0,0-.11-1,19.34,19.34,0,0,0-1.31-3.58c-.89-2-1.73-4-1.32-5.89s.85-4.19,1.08-5.46a1.19,1.19,0,0,1,1.79-.8l.42.25c.16.09.33.19.5.27s.35.17.53.24a3.85,3.85,0,0,0,.44.15h.07l.7-.13.21,0a1.65,1.65,0,0,0,.21-.05h0l.51-.15.22-.07.23-.07.08,0a20.49,20.49,0,0,0,5.06-2.21,1.17,1.17,0,0,1,.86-.16h0a.73.73,0,0,0,.33-.14l.09-.06c.2-.12.6-.48.61-.76s-.26-.6-.74-1a2.11,2.11,0,0,0-.29-.2A1.24,1.24,0,0,1,117,62h0a1.24,1.24,0,0,1-.78.54,1.14,1.14,0,0,1,.14.85c0,.1,0,.19,0,.26a1.17,1.17,0,0,1-.65.87,31.6,31.6,0,0,1-5.38,2,1.17,1.17,0,0,1-.78-.07,8.23,8.23,0,0,1-2.94-2A8.05,8.05,0,0,0,103.8,62a1,1,0,0,1-.22-.08,3.8,3.8,0,0,0-.47-.18,1.18,1.18,0,0,1-.8-.86,1.17,1.17,0,0,1,.34-1.13,7.21,7.21,0,0,0,1.59-2c.11-.23.22-.49.33-.77a1.2,1.2,0,0,1,1-.76,1.21,1.21,0,0,1,.5.07v0a1.48,1.48,0,0,1,.1-.27,15.78,15.78,0,0,0,.88-2l0,0c.15-.39.29-.8.41-1.21a1.18,1.18,0,0,1,2.2-.16c.26.53.53,1.06.81,1.56a.67.67,0,0,1,.06.12l0,0c.1-1,.27-1.92.45-2.91.64-3.52,1.36-7.51-1-12.84-1.49-3.4-3.47-5.17-5.89-5.25a1.2,1.2,0,0,1-.61-.2,2.57,2.57,0,0,0-1.45-.4,4.59,4.59,0,0,0-3.25,1.16,1.23,1.23,0,0,1-.91.35l-.59,0a16.67,16.67,0,0,0-4.24.63,12,12,0,0,0-5.66,3.49,1.22,1.22,0,0,1-.25.2,9.44,9.44,0,0,0-1.24.87,1.21,1.21,0,0,1-.14,1h0l-.13.17-.07.07-.21.22h0l-.09.08a.6.6,0,0,1-.09.13l-.14.16h0l-.12.15-.12.13-.1.16-.08.09-.12.16h0l-.13.15a.81.81,0,0,1-.1.18l-.06.09-.09.13a1.07,1.07,0,0,1-.14.16,1,1,0,0,1-.1.21l0,.08L83.8,43a.86.86,0,0,1-.14.18,1,1,0,0,1-.09.22l0,.08,0,.09h0a1.37,1.37,0,0,1-.13.2,1,1,0,0,1-.09.22l0,.08s0,.05,0,.08a1.07,1.07,0,0,1-.13.21.9.9,0,0,1-.08.23l0,.08,0,.07-.12.22a2.17,2.17,0,0,1-.07.24l-.06.15a1.39,1.39,0,0,1-.11.21,1.05,1.05,0,0,1-.06.24l0,.15a.94.94,0,0,1-.1.23,1,1,0,0,1,0,.24l-.05.15a.92.92,0,0,1-.09.23,1,1,0,0,1,0,.23l0,.17a.83.83,0,0,1-.08.22.86.86,0,0,1,0,.23v0l0,.13h0v0a1.72,1.72,0,0,1-.07.21v0a1.37,1.37,0,0,1,0,.19l0,.2a1.6,1.6,0,0,1,0,.21.19.19,0,0,1,0,.08s0,.09,0,.13a1.79,1.79,0,0,0,0,.23,1.42,1.42,0,0,1,0,.2.49.49,0,0,1,0,.12v.07a2.45,2.45,0,0,0,0,.27,1.1,1.1,0,0,1,0,.18,1.09,1.09,0,0,1,0,.18v.31c0,.05,0,.1,0,.16s0,.11,0,.16a1,1,0,0,0,0,.17v.18a.33.33,0,0,1,0,.14.68.68,0,0,1,0,.14c0,.07,0,.13,0,.2s0,.13,0,.2a.49.49,0,0,1,0,.12s0,.07,0,.11h0l.06.44h0s0,.06,0,.1,0,0,0,.08a2,2,0,0,0,0,.24h0a2.38,2.38,0,0,0,0,.26h0s0,0,0,.07,0,0,0,.05,0,.21.07.31h0l.06.26v.06h0a14.19,14.19,0,0,0,1.11,2.95,14.61,14.61,0,0,1,.42-2.16,1.22,1.22,0,0,1,.61-.74,1.19,1.19,0,0,1,1,0l.24.07a1.2,1.2,0,0,1,.9,1,24.37,24.37,0,0,0,1.24,5,5.7,5.7,0,0,0,4.56,3.89,4.39,4.39,0,0,0,.67.08,1.19,1.19,0,0,1,1.08.88,1.23,1.23,0,0,1-.16,1A9.73,9.73,0,0,0,92.58,69a8.26,8.26,0,0,1-1.69,3.17.36.36,0,0,1-.08.09,1.19,1.19,0,0,1-.58.32,31.47,31.47,0,0,1-5.77.72,1.14,1.14,0,0,1-.67-.19L83.68,73a1.25,1.25,0,0,1-.49-.39l-.06,0-.3-.17-.5-.28-.2-.13L82,71.93a.71.71,0,0,0-.16-.05h-.23a1.18,1.18,0,0,1-.22,1,1.34,1.34,0,0,0-.18.69l0,.21a2.11,2.11,0,0,0,.2,1.26,1.78,1.78,0,0,0,1,1l.05,0h0a1.17,1.17,0,0,1,.93-.12.64.64,0,0,1,.18.06,1.18,1.18,0,0,1,.33-1.19,3,3,0,0,0,.45-.53,1.16,1.16,0,0,1,1-.56h.08a18.33,18.33,0,0,0,6.17-1,6.54,6.54,0,0,0,1.11-1.37,1.21,1.21,0,0,1,1-.52,1.17,1.17,0,0,1,1,.5,6.79,6.79,0,0,1,.39.6v0a5.32,5.32,0,0,1,.48,1.18,6.92,6.92,0,0,1,.18,1.15v.06c0,.36,0,.69,0,1s-.06.57-.08.78v0l-.08.56v0c0,.29-.08.45-.08.46a.43.43,0,0,1,0,.11C95.24,78,95.11,78.5,95,79a30.66,30.66,0,0,1-1.21,4.23.47.47,0,0,1-.05.1,7.82,7.82,0,0,0-.36.91v0l0,.12h0c-.11.36-.43,1.43-.93,3.49s-.78,3.57-.78,3.59,0,0,0,.06c-.21.88-.36,1.62-.45,2.19-.37,2.37.22,7.54.83,11.25a1.19,1.19,0,0,1-.56,1.22,6.43,6.43,0,0,1-1.81,1.53q-.35.21-.69.39c-.2.11-.46.25-.68.39a3.62,3.62,0,0,0,1,.15,2.67,2.67,0,0,0,1.34-.33c1.21-.72,1.67-.95,2.19-.95H93a9.07,9.07,0,0,0-.18-1.38,1.21,1.21,0,0,1-.33-.7v-.09a4.38,4.38,0,0,1,0-.5l0-.4v0c0-.11,0-.22,0-.34v-.17c0-.42,0-.84,0-1.27s.06-.86.12-1.44l.18-1.55A14.11,14.11,0,0,0,92.85,98v-.21a.76.76,0,0,1,0-.15,1.64,1.64,0,0,0,0-.23V97.3l0-.23c0-.19-.06-.38-.1-.57l-.14-.85v0a3.86,3.86,0,0,1,0-.55v-.14a1.74,1.74,0,0,1,0-.29l0-.09a1.42,1.42,0,0,1,0-.22l0-.06h0s0-.14.1-.25h0l.08-.15,0-.08,0-.08c.08-.14.17-.27.25-.39l.51-.71.55-.73c.13-.17.26-.33.38-.5l.09-.11c.12-.17.25-.33.37-.49a1.17,1.17,0,0,1,.94-.48c.89,0,1.79,0,2.68-.07a1.19,1.19,0,0,1,1.24,1.28,18.37,18.37,0,0,0,0,3c.05.55.88,4.74,2.08,10.42a1.21,1.21,0,0,1-.49,1.22,6.34,6.34,0,0,1-1.84,1.57c-.24.15-.48.27-.71.4S98.38,108.44,98.15,108.59Z" transform="translate(0 0)" style="fill: #fff" vector-effect="non-scaling-stroke"/><g>
    <g>
      <path d="M93.15,64.76s-.92.7-1.72,3.95A7.29,7.29,0,0,1,90,71.42a31.09,31.09,0,0,1-5.67.69,3,3,0,0,1-.6,2.73,20.25,20.25,0,0,0,8.32-1c1.21-.45,4-5.79,4-5.79S93.88,63.8,93.15,64.76Z" transform="translate(0 0)" style="fill: #4b4a56" vector-effect="non-scaling-stroke"/>
      <path d="M90.74,71.41H91l-.1,0-.12,0a.36.36,0,0,0-.15,0h-.38l.17-.1.09-.06.09-.06L90.7,71l.11-.15a3.11,3.11,0,0,1-.84.58s0,0,0,0-.55.14-1.38.31h0l.37-.06.81-.13.44-.07.38,0Z" transform="translate(0 0)" style="fill: #38363d" vector-effect="non-scaling-stroke"/>
    </g>
    <g>
      <path d="M84.18,72a6,6,0,0,0-3.26-.13c-.82.33-1.14,1.8-.69,3,.58,1.54,1.71,3.19,4.23,1C87.26,73.47,84.18,72,84.18,72Z" transform="translate(0 0)" style="fill: #fde1bd" vector-effect="non-scaling-stroke"/>
      <g>
        <path d="M83.29,73.89c.21.37.26.75.09.84l-.69.38c-.16.09-.46-.15-.66-.52L67.7,47.78a.14.14,0,0,1,0-.2l.3-.17a.15.15,0,0,1,.2.06Z" transform="translate(0 0)" style="fill: #7d7978" vector-effect="non-scaling-stroke"/>
        <path d="M85.1,76.41c.33.61.27,1.3-.14,1.52l-.37.21c-.41.23-1-.08-1.37-.69l-3.31-6.36a.79.79,0,0,1,.2-1.08l.31-.17a.78.78,0,0,1,1,.4Z" transform="translate(0 0)" style="fill: #44413f" vector-effect="non-scaling-stroke"/>
        <path d="M69.13,48.24a.71.71,0,0,1-.28,1h0a.71.71,0,0,1-1-.28L66.64,46.7a.73.73,0,0,1,.29-1h0a.71.71,0,0,1,1,.29Z" transform="translate(0 0)" style="fill: #44413f" vector-effect="non-scaling-stroke"/>
      </g>
      <path d="M82.74,71.08a1.24,1.24,0,0,0-1.69,0c-.31.45-.06,1,.56,1.4a2,2,0,0,0,2.52-.28C84.44,71.8,83.36,71.51,82.74,71.08Z" transform="translate(0 0)" style="fill: #fde1bd" vector-effect="non-scaling-stroke"/>
      <path d="M84.13,72.25l0,0a.24.24,0,0,0,0-.17.52.52,0,0,0-.17-.2,2.88,2.88,0,0,0-.31-.17c-.23-.13-.51-.24-.8-.4s-.29-.19-.43-.25a1.56,1.56,0,0,0-.48-.14,1.11,1.11,0,0,0-.48,0,.81.81,0,0,0-.37.25l-.06.1a.32.32,0,0,0,0,.09.51.51,0,0,0,0,.21.8.8,0,0,0,.11.37,2.45,2.45,0,0,0,.39.49l.13.11.05,0-.05,0-.15-.1A1.78,1.78,0,0,1,81,72a1,1,0,0,1-.16-.41.59.59,0,0,1,0-.26.61.61,0,0,1,0-.12l.06-.12a.9.9,0,0,1,.44-.32,1.29,1.29,0,0,1,.55,0,1.91,1.91,0,0,1,.53.16c.17.08.29.19.43.27s.55.31.78.44a1.69,1.69,0,0,1,.29.22.45.45,0,0,1,.17.23.25.25,0,0,1,0,.18Z" transform="translate(0 0)" style="fill: #de9e7a" vector-effect="non-scaling-stroke"/>
      <path d="M80.71,72.6c-.8.36-1,1.69-.39,3s1.69,2,2.48,1.65A2,2,0,0,0,84,75.77a6.14,6.14,0,0,0-.9-2.67C82.49,71.83,81.5,72.24,80.71,72.6Z" transform="translate(0 0)" style="fill: #fde1bd" vector-effect="non-scaling-stroke"/>
      <path d="M82.8,77.19l.08,0,.2-.13a2.18,2.18,0,0,0,.6-.59,1.4,1.4,0,0,0,.23-.51s0-.1,0-.15v-.15a1.73,1.73,0,0,0,0-.32A5,5,0,0,0,83.44,74c-.1-.21-.21-.42-.32-.63a3,3,0,0,0-.16-.31l-.08-.15-.08-.13a1.16,1.16,0,0,0-.45-.38,1,1,0,0,0-.52-.1,2.92,2.92,0,0,0-.82.19l-.3.11v0l.29-.15a3.05,3.05,0,0,1,.35-.15,2.11,2.11,0,0,1,.48-.12,1.16,1.16,0,0,1,.6.09,1.2,1.2,0,0,1,.52.43l.1.15.08.15.14.32.3.64A5.26,5.26,0,0,1,84,75.29a1.77,1.77,0,0,1,0,.65,1.59,1.59,0,0,1-.26.52,2.56,2.56,0,0,1-.64.59l-.21.12-.07,0Z" transform="translate(0 0)" style="fill: #de9e7a" vector-effect="non-scaling-stroke"/>
    </g>
    <g>
      <path d="M104.08,60.86s1.14.21,3.34,2.73A7.07,7.07,0,0,0,110,65.33a30.71,30.71,0,0,0,5.36-2,3,3,0,0,0,1.79,2.16,20.36,20.36,0,0,1-7.87,2.89c-1.29.15-6.2-3.34-6.2-3.34S103,60.34,104.08,60.86Z" transform="translate(0 0)" style="fill: #4b4a56" vector-effect="non-scaling-stroke"/>
      <path d="M109.26,65.68l-.11,0-.09,0,.08-.06.09-.08.13-.09.17-.08.17-.09h-.31l-.1,0a.76.76,0,0,1-.18-.06.63.63,0,0,1-.17-.07,3,3,0,0,0,1,.12h0s.55-.12,1.37-.35h0l-.36.12-.78.25-.42.14-.36.13Z" transform="translate(0 0)" style="fill: #38363d" vector-effect="non-scaling-stroke"/>
    </g>
    <g>
      <path d="M93.52,95.27h0v0Z" transform="translate(0 0)" style="fill: #19323f" vector-effect="non-scaling-stroke"/>
      <path d="M90.45,91.25a61.12,61.12,0,0,0,14.71-.5s.19-.47-.39-1.58S91.37,85.64,90.45,91.25Z" transform="translate(0 0)" style="fill: #38363d" vector-effect="non-scaling-stroke"/>
      <path d="M90.54,105.37A4.71,4.71,0,0,1,89,106.7c-1.1.66-2.31,1.11-2.33,2s2.73,1.76,4.54.68,1.53-.78,2-.63,1-.65,1-.65a13.2,13.2,0,0,0-.33-2.61C93.68,104.73,91.25,104.62,90.54,105.37Z" transform="translate(0 0)" style="fill: #383432" vector-effect="non-scaling-stroke"/>
      <path d="M100.56,105.38A4.75,4.75,0,0,1,99,106.74c-1.12.67-2.36,1.13-2.38,2s2.79,1.79,4.64.69,1.57-.8,2-.64,1-.67,1-.67a13.8,13.8,0,0,0-.33-2.67C103.77,104.73,101.28,104.62,100.56,105.38Z" transform="translate(0 0)" style="fill: #383432" vector-effect="non-scaling-stroke"/>
      <path d="M104.29,91.82c1.46-2.32,3.41-5.32,3.83-8a5.68,5.68,0,0,0-1.21-4.22C105.14,77.16,94.78,76.8,93,82.25A110.19,110.19,0,0,0,90,93.53c-.56,3.62.88,11.91.88,11.91a3.42,3.42,0,0,0,2.82,0c-.52-3.34.51-6.45.21-8.26s-.42-2-.33-2.48c.12-.7,2.59-3.5,3.34-4.7.3-.49.61-1,.89-1.5A18.21,18.21,0,0,0,98.67,85a1,1,0,0,1,.86.16c-.29,2.88-1.16,6.08-.86,9.48.09,1,2.14,10.77,2.14,10.77a2.9,2.9,0,0,0,2.9-.09c-1-3.24.25-5.56-.46-8.69A5,5,0,0,1,104.29,91.82Z" transform="translate(0 0)" style="fill: #fde1bd" vector-effect="non-scaling-stroke"/>
      <path d="M103.69,105.34l-.07-.25c0-.16-.1-.4-.16-.7a9.28,9.28,0,0,1-.15-1.12,14,14,0,0,1,0-1.47c0-.53.06-1.11.1-1.72a17.51,17.51,0,0,0,0-1.92c0-.34-.07-.67-.12-1s-.15-.67-.21-1a5.81,5.81,0,0,1,0-2.16,4.61,4.61,0,0,1,.37-1A8.3,8.3,0,0,1,104,92c.19-.29.37-.59.55-.88l.54-.87c.7-1.13,1.33-2.21,1.8-3.17.23-.48.44-.92.6-1.32s.28-.76.37-1.06.14-.54.18-.7l0-.25h0l0,.26a5.08,5.08,0,0,1-.14.71,8.81,8.81,0,0,1-.32,1.09c-.14.41-.33.87-.55,1.36s-.49,1-.79,1.55-.62,1.1-1,1.67l-.54.86c-.19.29-.37.59-.58.88a9.27,9.27,0,0,0-.57.87,3.88,3.88,0,0,0-.37,1,5.59,5.59,0,0,0,0,2.08c0,.34.14.68.19,1a8.83,8.83,0,0,1,.11,1,15.35,15.35,0,0,1,0,1.93c0,.62-.1,1.19-.13,1.73a11.66,11.66,0,0,0,0,1.45,7.7,7.7,0,0,0,.13,1.12c0,.31.11.54.15.71l.07.24Z" transform="translate(0 0)" style="fill: #de9e7a" vector-effect="non-scaling-stroke"/>
      <path d="M93.67,105.43l0-.2c0-.14,0-.33-.07-.58l0-.41c0-.16,0-.32,0-.49a11.58,11.58,0,0,1,0-1.18c0-.43,0-.89.08-1.39s.1-1,.15-1.54A14.56,14.56,0,0,0,93.85,98c0-.14,0-.28,0-.41s0-.28,0-.42l-.15-.84-.17-.84c0-.15,0-.29,0-.44a1.69,1.69,0,0,1,0-.23v-.14s0,0,0,0h0l0,0,0-.1.05-.11.06-.11.05-.09c.07-.13.15-.24.22-.36s.32-.46.48-.68c.32-.43.64-.84,1-1.22s.6-.74.86-1.08.51-.65.7-.94.36-.54.49-.75l.42-.67,0,0-.37.7c-.11.22-.27.48-.44.78a10.62,10.62,0,0,1-.66,1c-.25.34-.53.72-.83,1.11l-.93,1.23c-.16.22-.32.43-.47.66s-.15.23-.22.34l-.06.09,0,.08,0,.08s0,.07,0,.1v0h0s0,0,0,0v0l0,.09c0,.07,0,.13,0,.2a3.05,3.05,0,0,0,0,.41c0,.28.09.56.14.84s.09.57.14.85,0,.29,0,.43,0,.29,0,.43c0,.57-.07,1.13-.13,1.66l-.18,1.54c0,.49-.1,1-.12,1.38s0,.82,0,1.16c0,.18,0,.34,0,.49l0,.41c0,.25,0,.45.06.58l0,.21Z" transform="translate(0 0)" style="fill: #de9e7a" vector-effect="non-scaling-stroke"/>
      <path d="M92.25,83.88s-.36,1.06-1,3.72c-.51,2.07-.8,3.65-.8,3.65a60.51,60.51,0,0,1,14.71-.5,18.74,18.74,0,0,0,3-7,7.87,7.87,0,0,0-.32-2.11C107.24,77.66,94.66,76.12,92.25,83.88Z" transform="translate(0 0)" style="fill: #4b4a56" vector-effect="non-scaling-stroke"/>
      <path d="M93,82.26l-.3.62c-.15.39-.3.77-.47,1.15,0,0,.91-.87,4.63-1a9.05,9.05,0,0,0,1.41-3c.11-.72.47,2.84.47,2.84a27.58,27.58,0,0,1,9.38,1,4.78,4.78,0,0,0,0-.64c-.19-1.64-1.47-2.93-2.1-3.79C104.26,77,94.71,76.81,93,82.26Z" transform="translate(0 0)" style="fill: #38363d" vector-effect="non-scaling-stroke"/>
    </g>
    <g>
      <path d="M92.67,64.43s5.17,11.15-.35,19.3a8.36,8.36,0,0,1,7.31-4.38c7.72-.24,8.46,4,8.46,4,.14-.5-3.27-4.45-4.12-9.06C103,69,107,63,105,61.39,101.1,58.36,92.73,62.6,92.67,64.43Z" transform="translate(0 0)" style="fill: #fffffd" vector-effect="non-scaling-stroke"/>
      <path d="M96.78,62.81a77.65,77.65,0,0,1,0,12.08l2.5,1.64.81-.81a67.89,67.89,0,0,0-1.78-13.25Z" transform="translate(0 0)" style="fill: #d41c1d" vector-effect="non-scaling-stroke"/>
      <path d="M96.26,63.21a2.87,2.87,0,0,0,.76,1,1.27,1.27,0,0,0,1.42-.34,1.86,1.86,0,0,0,0-1.36C98.33,62.17,96,62.77,96.26,63.21Z" transform="translate(0 0)" style="fill: #b81a1b" vector-effect="non-scaling-stroke"/>
      <path d="M108.08,81.88c-.72-3.29-3.18-6.41-2.63-9,.63-2.94,1.26-6.36,1.24-6.44-.81-2.38-.63-4.21-1.74-5.08a5.88,5.88,0,0,0-4-1,3.73,3.73,0,0,1,1.73,2.15c0,.19-1.55.9-1.47,1.1,0,0,1.73,1.29,1.59,1.68a20,20,0,0,1-5,7.79s-3.29-5.49-3.27-5.62.79-2.23.79-2.23-.19-.31-1.23-.28c-.2,0,.26-2.3.28-2.41-1,.67-1.8,1.36-1.82,1.88,0,0,.19.62.44,1.69h0c-.35,1.14-1,3.8.19,5.11,1.52,1.69,1.71,3,1,5.81a37.62,37.62,0,0,1-1.92,6.7s.8-1,4.46-1.16a8.93,8.93,0,0,0,1.39-3c.11-.71.59,2.84.59,2.84,7.72-.35,9.46,1.09,9.46,1.09A8.32,8.32,0,0,0,108.08,81.88Z" transform="translate(0 0)" style="fill: #4b4a56" vector-effect="non-scaling-stroke"/>
      <path d="M93,66.11l-.1.48c0,.16-.07.35-.11.56s-.07.46-.1.73,0,.56,0,.86a6.3,6.3,0,0,0,.06,1,3.53,3.53,0,0,0,.29.94l.12.22c0,.07.11.13.15.2s.24.27.35.41a6.16,6.16,0,0,1,.63.91,4.83,4.83,0,0,1,.38,1,5,5,0,0,1,.1,1,7.74,7.74,0,0,1-.08.89c0,.13,0,.26-.07.39l-.07.34-.15.55-.14.48.08-.49L94.4,76c0-.22.06-.47.08-.73s0-.56,0-.86a6.16,6.16,0,0,0-.14-.93,4.66,4.66,0,0,0-.38-.93,5.6,5.6,0,0,0-.59-.85c-.12-.14-.24-.27-.35-.42s-.12-.15-.17-.23l-.14-.25a3.52,3.52,0,0,1-.29-1,4.83,4.83,0,0,1,0-1,7.28,7.28,0,0,1,.11-.88,11.13,11.13,0,0,1,.33-1.27c0-.15.1-.27.13-.35Z" transform="translate(0 0)" style="fill: #38363d" vector-effect="non-scaling-stroke"/>
      <path d="M100.06,60.44s1.56,9.38-2.22,12.64a16.13,16.13,0,0,0,5.2-7.52c.12-.42-1.76-1.69-1.76-1.69-.08-.21,1.56-1,1.61-1.16s-.85-2.28-1.5-2.36A2.63,2.63,0,0,0,100.06,60.44Z" transform="translate(0 0)" style="fill: #38363d" vector-effect="non-scaling-stroke"/>
      <g>
        <path d="M94.41,62.52S93.92,65,94.13,65c1,0,1.23.28,1.23.28s-.78,2.1-.79,2.23c-.24,2.37,3.27,5.62,3.27,5.62-2.34-3.81-1.59-10.36-2.68-11C95,62,94.68,62.24,94.41,62.52Z" transform="translate(0 0)" style="fill: #5e5f70" vector-effect="non-scaling-stroke"/>
        <path d="M100.09,60.42s1.49,9.14-2.25,12.66a16.82,16.82,0,0,0,5-7.85c.1-.4-1.67-1.62-1.67-1.62-.08-.2,1.43-.91,1.47-1.1s-.81-2.1-1.39-2.17A2.53,2.53,0,0,0,100.09,60.42Z" transform="translate(0 0)" style="fill: #5e5f70" vector-effect="non-scaling-stroke"/>
      </g>
      <path d="M98.49,74c0,.25-.06.47-.22.49s-.3-.16-.34-.42.07-.47.22-.49S98.46,73.73,98.49,74Z" transform="translate(0 0)" style="fill: #ffe500" vector-effect="non-scaling-stroke"/>
      <ellipse cx="98.49" cy="78.02" rx="0.28" ry="0.46" style="fill: #ffe500" vector-effect="non-scaling-stroke"/>
    </g>
    <g>
      <path d="M111.14,38.06c-4.3-9.79-11.58-4.57-11.58-4.57l6.37,5.67a27.66,27.66,0,0,0,3.55,15.54,8.37,8.37,0,0,1,.51,3,5.84,5.84,0,0,0,.3-1.62,22.17,22.17,0,0,0,2,2.73C110,53.42,115.44,47.85,111.14,38.06Z" transform="translate(0 0)" style="fill: #272420" vector-effect="non-scaling-stroke"/>
      <path d="M105.89,39.68a.91.91,0,0,1,0,.17c0,.12,0,.23,0,.35s0,.13,0,.2,0,.2,0,.31v.72a2.62,2.62,0,0,0,0,.28v.22c0,.09,0,.18,0,.27s0,.15,0,.22,0,.18,0,.28a1.48,1.48,0,0,0,0,.21c0,.09,0,.18,0,.27s0,.14,0,.21a2.83,2.83,0,0,0,0,.29c0,.06,0,.12,0,.19s0,.28.05.42l0,.24,0,.25c0,.08,0,.16,0,.24l0,.21c0,.08,0,.17,0,.25l0,.2a2.21,2.21,0,0,1,.05.25l0,.18.06.27,0,.16.06.27,0,.15a2.86,2.86,0,0,0,.07.28l0,.12c0,.1,0,.21.08.31v0a29.83,29.83,0,0,0,1.61,4.61s0-.08,0-.13a.26.26,0,0,1,.39-.13l0-.15a18.35,18.35,0,0,0,.72-10.25c-1-4-2.65-4.42-3-6.53a6.4,6.4,0,0,0-1-2.84,6.38,6.38,0,0,0-2.7-.1,11.8,11.8,0,0,0-3.26,1.29l6.37,5.67C105.91,39.34,105.9,39.51,105.89,39.68Z" transform="translate(0 0)" style="fill: #302d2a" vector-effect="non-scaling-stroke"/>
      <path d="M106.11,36c.06,2-1,2.76-3.83,2.76s-5.13-1.63-5.19-3.63,2.19-3.63,5-3.63S106.06,34,106.11,36Z" transform="translate(0 0)" style="fill: #f5eb75" vector-effect="non-scaling-stroke"/>
      <path d="M102.28,38.77c2.82,0,3.89-.75,3.83-2.76v-.17a10.24,10.24,0,0,0-3.89-2.46,11.57,11.57,0,0,0-3.91-.65,3,3,0,0,0-1.22,2.41C97.15,37.14,99.47,38.77,102.28,38.77Z" transform="translate(0 0)" style="fill: #dbd261" vector-effect="non-scaling-stroke"/>
      <path d="M81.79,46.09s2.66-10.21,11-12.42a14.42,14.42,0,0,1,9.09.13c5.19,1.85,7.86,6.92,7.72,13.43a21.79,21.79,0,0,1-2.47,9.44Z" transform="translate(0 0)" style="fill: #44413f" vector-effect="non-scaling-stroke"/>
      <path d="M85,39.47a14.3,14.3,0,0,1,7.84-3.82,12.87,12.87,0,0,0-8.41,3.51c-5.69,5.9-6.08,14.53-.45,21.07h0A15.56,15.56,0,0,1,85,39.47Z" transform="translate(0 0)" style="fill: #302d2a" vector-effect="non-scaling-stroke"/>
      <path d="M95.1,35.52c-3.83-.07-1.72,3.63-1.72,3.63s.53,2.84,2.88,3.48c5.21,1.42,7.41,2.62,9.6,6.19.86,1.4,1,5.36,1.29,7.85a17.69,17.69,0,0,0,1-2.32c.28-3.13,1.57-5.24-.55-10.91C106.07,39.23,102.08,35.64,95.1,35.52Z" transform="translate(0 0)" style="fill: #302d2a" vector-effect="non-scaling-stroke"/>
      <path d="M106.38,59.23a5.17,5.17,0,0,0-3.29-4l4.76-4s-1,6.9-1.47,8" transform="translate(0 0)" style="fill: #302d2a" vector-effect="non-scaling-stroke"/>
      <path d="M81.61,52.3a16.49,16.49,0,0,0,2.9,8.56,13.12,13.12,0,0,1,5-12.68L83.8,46.81Z" transform="translate(0 0)" style="fill: #302d2a" vector-effect="non-scaling-stroke"/>
      <path d="M83.32,46.45s4.89-6.1,15.73-6.27,8.36,13.65,6.26,18c-1.77,3.72-9.17,7.69-13.36,6.83a6.83,6.83,0,0,1-5.41-4.6c-1.07-2.59-1.58-7.05-1.86-9C84.12,47.59,83.32,46.45,83.32,46.45Z" transform="translate(0 0)" style="fill: #fde1c2" vector-effect="non-scaling-stroke"/>
      <path d="M95.48,38.77s-.06,3.67,1.94,5.2c4.64,3.55,6.27,2.09,8.46,5.65,1.36,2.23,1,7.66.5,9.61,0,0,3.44-8.71.93-15.33-1.6-4.19-5.23-8.26-12.21-8.38C91.27,35.45,95.48,38.77,95.48,38.77Z" transform="translate(0 0)" style="fill: #44413f" vector-effect="non-scaling-stroke"/>
      <path d="M95.48,38.77a9.61,9.61,0,0,0,.64,3.4,5.63,5.63,0,0,0,.78-2.48s-1.25-3.18-1.51-4.06c0-.05-.11-.09-.27-.11h0C91.27,35.45,95.48,38.77,95.48,38.77Z" transform="translate(0 0)" style="fill: #302d2a" vector-effect="non-scaling-stroke"/>
      <path d="M84.51,60.86s-4.46-6.82.35-12.17c3.64-4,10.57-3.84,12-9,0,0-1.25-3.18-1.51-4.06-.11-.4-6.53-.14-10.37,3.84A15.6,15.6,0,0,0,84.51,60.86Z" transform="translate(0 0)" style="fill: #44413f" vector-effect="non-scaling-stroke"/>
      <path d="M93.37,59.45s6.27-.4,8.06-3.22c0,0,1.71,4.32-4,5.57A6.33,6.33,0,0,0,93.37,59.45Z" transform="translate(0 0)" style="fill: #c23f3e" vector-effect="non-scaling-stroke"/>
      <path d="M97.66,61.75l.15,0,.28-.08.1,0h0c3-.91,3.51-2.79,3.47-4.07a11.74,11.74,0,0,0-1.58.77C98.1,59.54,97.7,60.94,97.66,61.75Z" transform="translate(0 0)" style="fill: #e94d51" vector-effect="non-scaling-stroke"/>
      <path d="M105.31,50.48A9.82,9.82,0,0,1,108.62,47c2.61-1.5,0,6.49-1.19,7.36s-1.34-.67-1.34-.67Z" transform="translate(0 0)" style="fill: #fde1c2" vector-effect="non-scaling-stroke"/>
      <g>
        <path d="M100.06,50c.24,2.15-1.37,3.55-3.53,3.78s-4-.78-4.26-2.93a3.92,3.92,0,0,1,7.79-.85Z" transform="translate(0 0)" style="fill: #fff" vector-effect="non-scaling-stroke"/>
        <path d="M94.24,47l.23-.12.12-.07.15-.07.17-.07.19-.07.22-.06.23,0,.12,0h.13l.26,0h.56l.29,0,.29.05.28.07.28.09.27.11.25.13.22.15.21.17a1.37,1.37,0,0,1,.17.17,1.29,1.29,0,0,1,.16.17,1.83,1.83,0,0,1,.13.16l.11.16a2.36,2.36,0,0,1,.14.26l.11.25,0,0-.18-.19L99.1,48c-.09-.07-.17-.16-.28-.24s-.22-.18-.35-.27l-.19-.13-.21-.13-.22-.13L97.62,47l-.25-.11-.25-.09-.26-.07-.27,0-.26,0H95.7l-.12,0-.23,0-.21.05-.19,0-.17.06-.15.05-.13,0-.24.1Z" transform="translate(0 0)" style="fill: #24221f" vector-effect="non-scaling-stroke"/>
        <path d="M87.19,48.7h-.06l-.15,0-.25,0-.15,0h-.16l-.38,0H86l-.11,0-.19.06a2.16,2.16,0,0,0-.74.47,1.87,1.87,0,0,0-.29.34,3.75,3.75,0,0,0-.24.36c-.15.24-.29.47-.4.68l-.15.28-.11.23-.08.14,0,.05h0v-.06s0-.09,0-.16a3.63,3.63,0,0,1,.11-.59c0-.12.08-.24.14-.38a1.86,1.86,0,0,1,.21-.39,1.79,1.79,0,0,1,.3-.38,4,4,0,0,1,.36-.35,2.46,2.46,0,0,1,.88-.45l.23,0H86l.4,0,.17,0,.15,0,.25.08.15.06,0,0Z" transform="translate(0 0)" style="fill: #24221f" vector-effect="non-scaling-stroke"/>
        <path d="M85.73,48.54s-1.77.65-2.5.08a1.29,1.29,0,0,0,1,.6,2,2,0,0,1-1.18.26.84.84,0,0,0,.7.24,1.67,1.67,0,0,1-.58.19A.87.87,0,0,0,84,50S84.78,48.54,85.73,48.54Z" transform="translate(0 0)" style="fill: #24221f" vector-effect="non-scaling-stroke"/>
        <path d="M89.67,51.61c.21,1.89-.73,3.39-2.61,3.6S83.64,55,83.44,53.1s.81-4.35,2.69-4.56A3.23,3.23,0,0,1,89.67,51.61Z" transform="translate(0 0)" style="fill: #fff" vector-effect="non-scaling-stroke"/>
        <path d="M100,51.08l-.06.27c0,.08-.06.18-.1.3a4.11,4.11,0,0,1-.18.38l0,.1a.86.86,0,0,0-.07.1c0,.07-.09.14-.15.21a3.44,3.44,0,0,1-.37.4,4.17,4.17,0,0,1-.47.36,3.5,3.5,0,0,1-.54.29,5.65,5.65,0,0,1-.57.23l-.28.08-.29.07-.28,0H96.1l-.24,0-.23,0-.19,0-.17,0-.14,0-.27-.08v0h1l.23,0,.25,0,.13,0h.12l.27,0,.27,0,.28-.06c.18-.05.37-.11.55-.18a5,5,0,0,0,.52-.25,4.13,4.13,0,0,0,.46-.32,3.39,3.39,0,0,0,.39-.36c.06-.06.1-.13.15-.19l.07-.09.06-.1a2.57,2.57,0,0,0,.2-.35,3,3,0,0,0,.12-.29l.08-.26Z" transform="translate(0 0)" style="fill: #de9e7a" vector-effect="non-scaling-stroke"/>
        <path d="M89.66,52.8l0,.21a1.73,1.73,0,0,1-.05.24,2.43,2.43,0,0,1-.09.3l-.07.17-.09.18a1.92,1.92,0,0,1-.23.35,1.24,1.24,0,0,1-.14.18c0,.06-.11.11-.17.17l-.18.15a1.33,1.33,0,0,1-.19.14L88.2,55l-.1.06-.11,0-.11.05-.11,0-.22.07-.21,0-.21,0h-.7l-.25,0-.21,0v0l.21,0,.24,0,.31-.05.18,0h.18l.19,0,.2-.05.2,0,.11,0,.1,0,.1,0,.1,0,.2-.1a2,2,0,0,0,.19-.12,1.09,1.09,0,0,0,.17-.13,1.07,1.07,0,0,0,.16-.14s.11-.1.15-.15l.24-.32.1-.16.08-.16a2.24,2.24,0,0,0,.12-.29,1.36,1.36,0,0,0,.07-.22l.06-.21Z" transform="translate(0 0)" style="fill: #de9e7a" vector-effect="non-scaling-stroke"/>
        <path d="M98,50.25a1.26,1.26,0,0,1-.92,1.49c-.6.07-1.14-.49-1.23-1.25A1.26,1.26,0,0,1,96.75,49C97.35,48.93,97.89,49.49,98,50.25Z" transform="translate(0 0)" style="fill: #383432" vector-effect="non-scaling-stroke"/>
        <path d="M88.62,51.65c.08.76-.25,1.42-.75,1.48s-1-.52-1.05-1.28.26-1.42.75-1.47S88.54,50.89,88.62,51.65Z" transform="translate(0 0)" style="fill: #383432" vector-effect="non-scaling-stroke"/>
        <path d="M98.57,50.45c0,.14-.23.28-.55.32s-.6-.05-.62-.2.24-.28.56-.32S98.56,50.3,98.57,50.45Z" transform="translate(0 0)" style="fill: #fff" vector-effect="non-scaling-stroke"/>
        <path d="M89.23,51.85c0,.14-.23.28-.56.32s-.59-.06-.61-.2.24-.28.56-.32S89.22,51.7,89.23,51.85Z" transform="translate(0 0)" style="fill: #fff" vector-effect="non-scaling-stroke"/>
        <path d="M96.05,46.47s2.38.2,3.16-.53a1.62,1.62,0,0,1-1.09.83,3.27,3.27,0,0,0,1.54,0,1.19,1.19,0,0,1-.82.4,2.64,2.64,0,0,0,.78,0,1.28,1.28,0,0,1-.94.22A4,4,0,0,0,96.05,46.47Z" transform="translate(0 0)" style="fill: #24221f" vector-effect="non-scaling-stroke"/>
      </g>
      <path d="M91,51.92s-.26.4-.65,1c-.19.28-.41.6-.62.95a5.61,5.61,0,0,0-.29.54,1.63,1.63,0,0,0-.17.53.76.76,0,0,0,0,.43,1.52,1.52,0,0,0,.13.24.83.83,0,0,0,.15.19,2.85,2.85,0,0,0,.87.55,8.69,8.69,0,0,0,1.08.35,2.88,2.88,0,0,1-1.19.1,2.5,2.5,0,0,1-1.23-.46,1.59,1.59,0,0,1-.29-.29l-.14-.18-.08-.15a1.54,1.54,0,0,1-.12-.91,2.78,2.78,0,0,1,.28-.75,3.3,3.3,0,0,1,.4-.6,5.36,5.36,0,0,1,.86-.86A4.68,4.68,0,0,1,91,51.92Z" transform="translate(0 0)" style="fill: #de9e7a" vector-effect="non-scaling-stroke"/>
      <path d="M100,57.57a13.31,13.31,0,0,1-4.6,1.6,3.36,3.36,0,0,0,1.5.57A3.21,3.21,0,0,0,100,57.57Z" transform="translate(0 0)" style="fill: #fff" vector-effect="non-scaling-stroke"/>
    </g>
    <g>
      <path d="M118.3,65.24s2.69-1.58,0-3.68-3.23,2.15-3.23,2.15S116.39,66.62,118.3,65.24Z" transform="translate(0 0)" style="fill: #fde1c2" vector-effect="non-scaling-stroke"/>
      <polygon points="118.3 64.07 118.88 63.72 118.36 64.15 118.3 64.07" style="fill: #de9e7a" vector-effect="non-scaling-stroke"/>
      <path d="M115.74,63.57s3.66-3.31,3-4.45-3.27,2.77-3.16,3.07A8.78,8.78,0,0,1,115.74,63.57Z" transform="translate(0 0)" style="fill: #fde1c2" vector-effect="non-scaling-stroke"/>
      <path d="M116.18,61.72a1,1,0,0,1-.25,1.43,1.2,1.2,0,1,1,.25-1.43Z" transform="translate(0 0)" style="fill: #fde1c2" vector-effect="non-scaling-stroke"/>
      <path d="M117.89,61.27a3.68,3.68,0,0,0-.65-.11,1.71,1.71,0,0,0-.64.07.72.72,0,0,0-.26.14.52.52,0,0,0-.1.11l-.1.13a4.62,4.62,0,0,0-.35.55,1.51,1.51,0,0,0-.13.29.46.46,0,0,0,0,.25s0,0,0,0l0,0,0,0,.1.14a2.83,2.83,0,0,1,.2.28c.26.37.51.74.75,1.12l0,0a.71.71,0,0,0,.14.1.42.42,0,0,0,.14.09,1,1,0,0,0,.3.13.66.66,0,0,0,.31,0,.46.46,0,0,0,.14-.07.71.71,0,0,0,.14-.1,1.86,1.86,0,0,0,.26-.23,3,3,0,0,0,.24-.26,3.42,3.42,0,0,0,.37-.61,2.83,2.83,0,0,1-.31.66,1.94,1.94,0,0,1-.21.29,3.25,3.25,0,0,1-.26.27l-.14.11a.64.64,0,0,1-.18.1.68.68,0,0,1-.4,0,1.6,1.6,0,0,1-.37-.12l-.16-.1a.91.91,0,0,1-.16-.11h0c-.25-.37-.5-.75-.76-1.11l-.19-.27-.1-.13,0,0,0,0a.61.61,0,0,1,0-.12.75.75,0,0,1,0-.4,1.57,1.57,0,0,1,.15-.32,5.72,5.72,0,0,1,.39-.57l.11-.13.14-.13a1,1,0,0,1,.34-.16,1.65,1.65,0,0,1,.7,0A2.4,2.4,0,0,1,117.89,61.27Z" transform="translate(0 0)" style="fill: #de9e7a" vector-effect="non-scaling-stroke"/>
      <path d="M115.62,63.23h-.05a.31.31,0,0,1-.13,0h-.09l-.11,0-.12-.05-.12-.07a2.25,2.25,0,0,1-.24-.21,1.34,1.34,0,0,1-.11-.14c0-.05-.07-.1-.1-.16a1.11,1.11,0,0,1-.13-.36,1.35,1.35,0,0,1,0-.4,1.08,1.08,0,0,1,.11-.4.75.75,0,0,1,.27-.29l.09-.05.08,0,.09,0h.26l.16,0,.13.06.11.07a1.32,1.32,0,0,1,.16.12l.12.14-.14-.12a1.94,1.94,0,0,0-.17-.1l-.11,0-.12,0-.15,0h-.15l-.07,0-.08,0-.08,0s0,0-.07,0a.81.81,0,0,0-.31.6,1.45,1.45,0,0,0,0,.36,1.38,1.38,0,0,0,.12.34,1.09,1.09,0,0,0,.08.15l.09.13A1.49,1.49,0,0,0,115,63l.11.08.11.06.1,0,.08,0a.37.37,0,0,0,.13,0Z" transform="translate(0 0)" style="fill: #de9e7a" vector-effect="non-scaling-stroke"/>
    </g>
    <path d="M111.63,67.93l-.3,0-.78.15c-.16,0-.34.05-.53.08l-.58.08-.15,0H109l-.14,0a4.35,4.35,0,0,1-.61-.2c-.2-.09-.4-.17-.59-.27s-.39-.18-.57-.28l-1-.53-1-.53.24.18.66.45c.28.17.61.38,1,.58.18.1.37.21.56.3l.61.28a3.3,3.3,0,0,0,.63.2.51.51,0,0,0,.17,0,.5.5,0,0,0,.17,0h.17l.15,0,.59-.11c.19,0,.37-.06.53-.11l.76-.22Z" transform="translate(0 0)" style="fill: #38363d" vector-effect="non-scaling-stroke"/>
  </g></svg>