<?xml version="1.0" standalone="no"?>
<svg version="1.1" preserveAspectRatio="xMidYMid meet" viewBox="0 0 71.7 53.49" class="ng-element" data-id="bb383ceadcc74bb9b5aafb22a713ae93" style="mix-blend-mode: normal; overflow: visible; width: 20px; height: 15px; filter: none; fill: #8e3b94;" xmlns="http://www.w3.org/2000/svg"><title>yahoo-logox</title><path d="M77.17,43.77c-6.7-5.11-15.41-7.56-25.84-7.56-10.59,0-19.3,2.45-25.85,7.56C18.79,48.73,15.4,55.14,15.4,63S18.79,77.46,25.48,82.5C31,86.6,37.79,89,46.07,89.69H56.51c8.21-.72,15-3.09,20.66-7.19C83.72,77.46,87.1,71,87.1,63S83.72,48.73,77.17,43.77ZM72.24,56.44l-5.11,1.08c-.72.21-2.81,1.72-6.34,4.6-3.81,3-5.76,5-6,6a36.51,36.51,0,0,0,.07,8.42l6.69.07-.07,2.09H50.5l-9.72.07.29-1.94,3.17-.07a6.23,6.23,0,0,0,2.87-.65c.22-.22.36-1.51.36-3.82V70.91l-.14-2.81c-.22-.65-1.94-3-5.25-7.13s-5.19-6.19-6.27-7L29,52.48v-1.8H50.14l-.22,1.51-6,1.58c2.08,3,4.6,6.34,8.85,11.59,5.47-4.17,8.42-6.91,8.5-8.06l-5.62-.86-.43-1.95,18.28.08Z" transform="translate(-15.4 -36.21)" vector-effect="non-scaling-stroke"/></svg>
